%TF.GenerationSoftware,KiCad,Pcbnew,5.1.7-a382d34a8~88~ubuntu18.04.1*%
%TF.CreationDate,2021-06-07T00:47:52+02:00*%
%TF.ProjectId,button-board-6x6mm-4buttons,62757474-6f6e-42d6-926f-6172642d3678,v1r1*%
%TF.SameCoordinates,Original*%
%TF.FileFunction,Legend,Bot*%
%TF.FilePolarity,Positive*%
%FSLAX46Y46*%
G04 Gerber Fmt 4.6, Leading zero omitted, Abs format (unit mm)*
G04 Created by KiCad (PCBNEW 5.1.7-a382d34a8~88~ubuntu18.04.1) date 2021-06-07 00:47:52*
%MOMM*%
%LPD*%
G01*
G04 APERTURE LIST*
%ADD10C,0.150000*%
%ADD11C,0.120000*%
%ADD12C,0.090000*%
%ADD13C,0.100000*%
%ADD14C,0.070000*%
%ADD15C,0.064000*%
G04 APERTURE END LIST*
D10*
X86456428Y-38558571D02*
X87035000Y-38558571D01*
X87150714Y-38520000D01*
X87227857Y-38442857D01*
X87266428Y-38327142D01*
X87266428Y-38250000D01*
X87266428Y-39330000D02*
X87266428Y-38944285D01*
X86456428Y-38944285D01*
X87189285Y-40062857D02*
X87227857Y-40024285D01*
X87266428Y-39908571D01*
X87266428Y-39831428D01*
X87227857Y-39715714D01*
X87150714Y-39638571D01*
X87073571Y-39600000D01*
X86919285Y-39561428D01*
X86803571Y-39561428D01*
X86649285Y-39600000D01*
X86572142Y-39638571D01*
X86495000Y-39715714D01*
X86456428Y-39831428D01*
X86456428Y-39908571D01*
X86495000Y-40024285D01*
X86533571Y-40062857D01*
X86456428Y-40641428D02*
X87035000Y-40641428D01*
X87150714Y-40602857D01*
X87227857Y-40525714D01*
X87266428Y-40410000D01*
X87266428Y-40332857D01*
X87266428Y-41412857D02*
X87266428Y-41027142D01*
X86456428Y-41027142D01*
X87189285Y-42145714D02*
X87227857Y-42107142D01*
X87266428Y-41991428D01*
X87266428Y-41914285D01*
X87227857Y-41798571D01*
X87150714Y-41721428D01*
X87073571Y-41682857D01*
X86919285Y-41644285D01*
X86803571Y-41644285D01*
X86649285Y-41682857D01*
X86572142Y-41721428D01*
X86495000Y-41798571D01*
X86456428Y-41914285D01*
X86456428Y-41991428D01*
X86495000Y-42107142D01*
X86533571Y-42145714D01*
X86456428Y-42724285D02*
X87035000Y-42724285D01*
X87150714Y-42685714D01*
X87227857Y-42608571D01*
X87266428Y-42492857D01*
X87266428Y-42415714D01*
X87266428Y-43495714D02*
X87266428Y-43110000D01*
X86456428Y-43110000D01*
X87189285Y-44228571D02*
X87227857Y-44190000D01*
X87266428Y-44074285D01*
X87266428Y-43997142D01*
X87227857Y-43881428D01*
X87150714Y-43804285D01*
X87073571Y-43765714D01*
X86919285Y-43727142D01*
X86803571Y-43727142D01*
X86649285Y-43765714D01*
X86572142Y-43804285D01*
X86495000Y-43881428D01*
X86456428Y-43997142D01*
X86456428Y-44074285D01*
X86495000Y-44190000D01*
X86533571Y-44228571D01*
X86456428Y-44807142D02*
X87035000Y-44807142D01*
X87150714Y-44768571D01*
X87227857Y-44691428D01*
X87266428Y-44575714D01*
X87266428Y-44498571D01*
X87266428Y-45578571D02*
X87266428Y-45192857D01*
X86456428Y-45192857D01*
X87189285Y-46311428D02*
X87227857Y-46272857D01*
X87266428Y-46157142D01*
X87266428Y-46080000D01*
X87227857Y-45964285D01*
X87150714Y-45887142D01*
X87073571Y-45848571D01*
X86919285Y-45810000D01*
X86803571Y-45810000D01*
X86649285Y-45848571D01*
X86572142Y-45887142D01*
X86495000Y-45964285D01*
X86456428Y-46080000D01*
X86456428Y-46157142D01*
X86495000Y-46272857D01*
X86533571Y-46311428D01*
D11*
X65250000Y-39750000D02*
X66650000Y-39750000D01*
X71750000Y-39750000D02*
X70350000Y-39750000D01*
X45250000Y-39750000D02*
X46650000Y-39750000D01*
X45250000Y-44250000D02*
X45250000Y-39750000D01*
X51750000Y-44250000D02*
X45250000Y-44250000D01*
X51750000Y-39750000D02*
X51750000Y-44250000D01*
X50350000Y-39750000D02*
X51750000Y-39750000D01*
X55250000Y-43750000D02*
X56650000Y-43750000D01*
X55250000Y-48250000D02*
X55250000Y-43750000D01*
X61750000Y-48250000D02*
X55250000Y-48250000D01*
X61750000Y-43750000D02*
X61750000Y-48250000D01*
X60300000Y-43750000D02*
X61750000Y-43750000D01*
X55250000Y-35750000D02*
X56650000Y-35750000D01*
X55250000Y-40250000D02*
X55250000Y-35750000D01*
X61750000Y-40250000D02*
X55250000Y-40250000D01*
X61750000Y-35750000D02*
X61750000Y-40250000D01*
X60350000Y-35750000D02*
X61750000Y-35750000D01*
X65250000Y-44250000D02*
X65250000Y-39750000D01*
X71750000Y-44250000D02*
X65250000Y-44250000D01*
X71750000Y-39750000D02*
X71750000Y-44250000D01*
D12*
X74997619Y-46761904D02*
X74997619Y-45961904D01*
X74730952Y-46533333D01*
X74464285Y-45961904D01*
X74464285Y-46761904D01*
X74159523Y-45961904D02*
X73664285Y-45961904D01*
X73930952Y-46266666D01*
X73816666Y-46266666D01*
X73740476Y-46304761D01*
X73702380Y-46342857D01*
X73664285Y-46419047D01*
X73664285Y-46609523D01*
X73702380Y-46685714D01*
X73740476Y-46723809D01*
X73816666Y-46761904D01*
X74045238Y-46761904D01*
X74121428Y-46723809D01*
X74159523Y-46685714D01*
X42961904Y-38733333D02*
X43761904Y-39000000D01*
X42961904Y-39266666D01*
X43685714Y-39990476D02*
X43723809Y-39952380D01*
X43761904Y-39838095D01*
X43761904Y-39761904D01*
X43723809Y-39647619D01*
X43647619Y-39571428D01*
X43571428Y-39533333D01*
X43419047Y-39495238D01*
X43304761Y-39495238D01*
X43152380Y-39533333D01*
X43076190Y-39571428D01*
X43000000Y-39647619D01*
X42961904Y-39761904D01*
X42961904Y-39838095D01*
X43000000Y-39952380D01*
X43038095Y-39990476D01*
X43685714Y-40790476D02*
X43723809Y-40752380D01*
X43761904Y-40638095D01*
X43761904Y-40561904D01*
X43723809Y-40447619D01*
X43647619Y-40371428D01*
X43571428Y-40333333D01*
X43419047Y-40295238D01*
X43304761Y-40295238D01*
X43152380Y-40333333D01*
X43076190Y-40371428D01*
X43000000Y-40447619D01*
X42961904Y-40561904D01*
X42961904Y-40638095D01*
X43000000Y-40752380D01*
X43038095Y-40790476D01*
X71011904Y-35983333D02*
X71811904Y-36250000D01*
X71011904Y-36516666D01*
X71735714Y-37240476D02*
X71773809Y-37202380D01*
X71811904Y-37088095D01*
X71811904Y-37011904D01*
X71773809Y-36897619D01*
X71697619Y-36821428D01*
X71621428Y-36783333D01*
X71469047Y-36745238D01*
X71354761Y-36745238D01*
X71202380Y-36783333D01*
X71126190Y-36821428D01*
X71050000Y-36897619D01*
X71011904Y-37011904D01*
X71011904Y-37088095D01*
X71050000Y-37202380D01*
X71088095Y-37240476D01*
X71735714Y-38040476D02*
X71773809Y-38002380D01*
X71811904Y-37888095D01*
X71811904Y-37811904D01*
X71773809Y-37697619D01*
X71697619Y-37621428D01*
X71621428Y-37583333D01*
X71469047Y-37545238D01*
X71354761Y-37545238D01*
X71202380Y-37583333D01*
X71126190Y-37621428D01*
X71050000Y-37697619D01*
X71011904Y-37811904D01*
X71011904Y-37888095D01*
X71050000Y-38002380D01*
X71088095Y-38040476D01*
X52911904Y-34683333D02*
X53711904Y-34950000D01*
X52911904Y-35216666D01*
X53635714Y-35940476D02*
X53673809Y-35902380D01*
X53711904Y-35788095D01*
X53711904Y-35711904D01*
X53673809Y-35597619D01*
X53597619Y-35521428D01*
X53521428Y-35483333D01*
X53369047Y-35445238D01*
X53254761Y-35445238D01*
X53102380Y-35483333D01*
X53026190Y-35521428D01*
X52950000Y-35597619D01*
X52911904Y-35711904D01*
X52911904Y-35788095D01*
X52950000Y-35902380D01*
X52988095Y-35940476D01*
X53635714Y-36740476D02*
X53673809Y-36702380D01*
X53711904Y-36588095D01*
X53711904Y-36511904D01*
X53673809Y-36397619D01*
X53597619Y-36321428D01*
X53521428Y-36283333D01*
X53369047Y-36245238D01*
X53254761Y-36245238D01*
X53102380Y-36283333D01*
X53026190Y-36321428D01*
X52950000Y-36397619D01*
X52911904Y-36511904D01*
X52911904Y-36588095D01*
X52950000Y-36702380D01*
X52988095Y-36740476D01*
X52761904Y-47233333D02*
X53561904Y-47500000D01*
X52761904Y-47766666D01*
X53485714Y-48490476D02*
X53523809Y-48452380D01*
X53561904Y-48338095D01*
X53561904Y-48261904D01*
X53523809Y-48147619D01*
X53447619Y-48071428D01*
X53371428Y-48033333D01*
X53219047Y-47995238D01*
X53104761Y-47995238D01*
X52952380Y-48033333D01*
X52876190Y-48071428D01*
X52800000Y-48147619D01*
X52761904Y-48261904D01*
X52761904Y-48338095D01*
X52800000Y-48452380D01*
X52838095Y-48490476D01*
X53485714Y-49290476D02*
X53523809Y-49252380D01*
X53561904Y-49138095D01*
X53561904Y-49061904D01*
X53523809Y-48947619D01*
X53447619Y-48871428D01*
X53371428Y-48833333D01*
X53219047Y-48795238D01*
X53104761Y-48795238D01*
X52952380Y-48833333D01*
X52876190Y-48871428D01*
X52800000Y-48947619D01*
X52761904Y-49061904D01*
X52761904Y-49138095D01*
X52800000Y-49252380D01*
X52838095Y-49290476D01*
D10*
X83130952Y-45252380D02*
X82797619Y-46252380D01*
X82464285Y-45252380D01*
X81559523Y-46157142D02*
X81607142Y-46204761D01*
X81749999Y-46252380D01*
X81845238Y-46252380D01*
X81988095Y-46204761D01*
X82083333Y-46109523D01*
X82130952Y-46014285D01*
X82178571Y-45823809D01*
X82178571Y-45680952D01*
X82130952Y-45490476D01*
X82083333Y-45395238D01*
X81988095Y-45300000D01*
X81845238Y-45252380D01*
X81749999Y-45252380D01*
X81607142Y-45300000D01*
X81559523Y-45347619D01*
X80559523Y-46157142D02*
X80607142Y-46204761D01*
X80749999Y-46252380D01*
X80845238Y-46252380D01*
X80988095Y-46204761D01*
X81083333Y-46109523D01*
X81130952Y-46014285D01*
X81178571Y-45823809D01*
X81178571Y-45680952D01*
X81130952Y-45490476D01*
X81083333Y-45395238D01*
X80988095Y-45300000D01*
X80845238Y-45252380D01*
X80749999Y-45252380D01*
X80607142Y-45300000D01*
X80559523Y-45347619D01*
X82559523Y-43085714D02*
X82559523Y-43752380D01*
X82797619Y-42704761D02*
X83035714Y-43419047D01*
X82416666Y-43419047D01*
X83083333Y-40202380D02*
X82464285Y-40202380D01*
X82797619Y-40583333D01*
X82654761Y-40583333D01*
X82559523Y-40630952D01*
X82511904Y-40678571D01*
X82464285Y-40773809D01*
X82464285Y-41011904D01*
X82511904Y-41107142D01*
X82559523Y-41154761D01*
X82654761Y-41202380D01*
X82940476Y-41202380D01*
X83035714Y-41154761D01*
X83083333Y-41107142D01*
X83035714Y-37747619D02*
X82988095Y-37700000D01*
X82892857Y-37652380D01*
X82654761Y-37652380D01*
X82559523Y-37700000D01*
X82511904Y-37747619D01*
X82464285Y-37842857D01*
X82464285Y-37938095D01*
X82511904Y-38080952D01*
X83083333Y-38652380D01*
X82464285Y-38652380D01*
X82464285Y-36102380D02*
X83035714Y-36102380D01*
X82750000Y-36102380D02*
X82750000Y-35102380D01*
X82845238Y-35245238D01*
X82940476Y-35340476D01*
X83035714Y-35388095D01*
D13*
X79042498Y-39350959D02*
X78517440Y-39649216D01*
X79488283Y-40742953D02*
X80024800Y-40401723D01*
X80557719Y-39016183D02*
X80557719Y-41632832D01*
X80024800Y-40936600D02*
X79488283Y-41289651D01*
X79488283Y-41289651D02*
X79488283Y-42383722D01*
X78517440Y-41293799D02*
X78517440Y-42388169D01*
X78153150Y-38755932D02*
X77630640Y-39031578D01*
X78174072Y-40759923D02*
X77630640Y-41651104D01*
X78517440Y-42388169D02*
X78959116Y-42755269D01*
X80024800Y-39331634D02*
X80557719Y-39016183D01*
X79488283Y-39649214D02*
X79042498Y-39350959D01*
X79578646Y-39046402D02*
X80024800Y-39331634D01*
X78959116Y-39962443D02*
X78517440Y-39652963D01*
X78517440Y-39652963D02*
X78517440Y-40746947D01*
X80024800Y-40401723D02*
X79582640Y-40097866D01*
X80024800Y-40401723D02*
X80024800Y-39331634D01*
X79582783Y-41247094D02*
X79583233Y-41704455D01*
X78075764Y-42021069D02*
X78517440Y-41293799D01*
X78517440Y-40746947D02*
X78075764Y-39343483D01*
X78959116Y-39962443D02*
X79488283Y-39649214D01*
X78605849Y-39062844D02*
X78747821Y-39513976D01*
X80557719Y-41632832D02*
X80024800Y-42007014D01*
X78601686Y-39056030D02*
X78153150Y-38755932D01*
X78075764Y-39343483D02*
X77630640Y-39031587D01*
X80024800Y-42007014D02*
X80024800Y-40936600D01*
X79581606Y-39048294D02*
X79582640Y-40097866D01*
X80557719Y-39016184D02*
X80111272Y-38743847D01*
X78500901Y-41788703D02*
X78510544Y-41783432D01*
X79582640Y-40097866D02*
X79489317Y-40151745D01*
X78075764Y-42021069D02*
X78500901Y-41788703D01*
X80016215Y-42008313D02*
X79584197Y-41711425D01*
X77630640Y-41651104D02*
X78075764Y-42021069D01*
X80111272Y-38743847D02*
X79578646Y-39046402D01*
X78075764Y-39343483D02*
X78601686Y-39056030D01*
X77630640Y-39031587D02*
X78174072Y-40759923D01*
X79488283Y-39649214D02*
X79488283Y-40742953D01*
X79488283Y-42383722D02*
X78959116Y-42755269D01*
X78959116Y-42755269D02*
X78959116Y-39962443D01*
D14*
X76800000Y-41190000D02*
X76633333Y-41656666D01*
X76466666Y-41190000D01*
X75833333Y-41656666D02*
X76233333Y-41656666D01*
X76033333Y-41656666D02*
X76033333Y-40956666D01*
X76100000Y-41056666D01*
X76166666Y-41123333D01*
X76233333Y-41156666D01*
X75533333Y-41656666D02*
X75533333Y-41190000D01*
X75533333Y-41323333D02*
X75500000Y-41256666D01*
X75466666Y-41223333D01*
X75400000Y-41190000D01*
X75333333Y-41190000D01*
X74733333Y-41656666D02*
X75133333Y-41656666D01*
X74933333Y-41656666D02*
X74933333Y-40956666D01*
X75000000Y-41056666D01*
X75066666Y-41123333D01*
X75133333Y-41156666D01*
X77283333Y-42076666D02*
X77616666Y-42076666D01*
X77650000Y-42410000D01*
X77616666Y-42376666D01*
X77550000Y-42343333D01*
X77383333Y-42343333D01*
X77316666Y-42376666D01*
X77283333Y-42410000D01*
X77250000Y-42476666D01*
X77250000Y-42643333D01*
X77283333Y-42710000D01*
X77316666Y-42743333D01*
X77383333Y-42776666D01*
X77550000Y-42776666D01*
X77616666Y-42743333D01*
X77650000Y-42710000D01*
X76450000Y-42043333D02*
X77050000Y-42943333D01*
X76250000Y-42143333D02*
X76216666Y-42110000D01*
X76150000Y-42076666D01*
X75983333Y-42076666D01*
X75916666Y-42110000D01*
X75883333Y-42143333D01*
X75850000Y-42210000D01*
X75850000Y-42276666D01*
X75883333Y-42376666D01*
X76283333Y-42776666D01*
X75850000Y-42776666D01*
X75416666Y-42076666D02*
X75350000Y-42076666D01*
X75283333Y-42110000D01*
X75250000Y-42143333D01*
X75216666Y-42210000D01*
X75183333Y-42343333D01*
X75183333Y-42510000D01*
X75216666Y-42643333D01*
X75250000Y-42710000D01*
X75283333Y-42743333D01*
X75350000Y-42776666D01*
X75416666Y-42776666D01*
X75483333Y-42743333D01*
X75516666Y-42710000D01*
X75550000Y-42643333D01*
X75583333Y-42510000D01*
X75583333Y-42343333D01*
X75550000Y-42210000D01*
X75516666Y-42143333D01*
X75483333Y-42110000D01*
X75416666Y-42076666D01*
X74916666Y-42143333D02*
X74883333Y-42110000D01*
X74816666Y-42076666D01*
X74650000Y-42076666D01*
X74583333Y-42110000D01*
X74550000Y-42143333D01*
X74516666Y-42210000D01*
X74516666Y-42276666D01*
X74550000Y-42376666D01*
X74950000Y-42776666D01*
X74516666Y-42776666D01*
X73850000Y-42776666D02*
X74250000Y-42776666D01*
X74050000Y-42776666D02*
X74050000Y-42076666D01*
X74116666Y-42176666D01*
X74183333Y-42243333D01*
X74250000Y-42276666D01*
D10*
X59592857Y-43528571D02*
X59450000Y-43576190D01*
X59402380Y-43623809D01*
X59354761Y-43719047D01*
X59354761Y-43861904D01*
X59402380Y-43957142D01*
X59450000Y-44004761D01*
X59545238Y-44052380D01*
X59926190Y-44052380D01*
X59926190Y-43052380D01*
X59592857Y-43052380D01*
X59497619Y-43100000D01*
X59450000Y-43147619D01*
X59402380Y-43242857D01*
X59402380Y-43338095D01*
X59450000Y-43433333D01*
X59497619Y-43480952D01*
X59592857Y-43528571D01*
X59926190Y-43528571D01*
X59069047Y-43385714D02*
X58688095Y-43385714D01*
X58926190Y-43052380D02*
X58926190Y-43909523D01*
X58878571Y-44004761D01*
X58783333Y-44052380D01*
X58688095Y-44052380D01*
X58354761Y-43385714D02*
X58354761Y-44052380D01*
X58354761Y-43480952D02*
X58307142Y-43433333D01*
X58211904Y-43385714D01*
X58069047Y-43385714D01*
X57973809Y-43433333D01*
X57926190Y-43528571D01*
X57926190Y-44052380D01*
X57497619Y-43147619D02*
X57450000Y-43100000D01*
X57354761Y-43052380D01*
X57116666Y-43052380D01*
X57021428Y-43100000D01*
X56973809Y-43147619D01*
X56926190Y-43242857D01*
X56926190Y-43338095D01*
X56973809Y-43480952D01*
X57545238Y-44052380D01*
X56926190Y-44052380D01*
X59642857Y-35478571D02*
X59500000Y-35526190D01*
X59452380Y-35573809D01*
X59404761Y-35669047D01*
X59404761Y-35811904D01*
X59452380Y-35907142D01*
X59500000Y-35954761D01*
X59595238Y-36002380D01*
X59976190Y-36002380D01*
X59976190Y-35002380D01*
X59642857Y-35002380D01*
X59547619Y-35050000D01*
X59500000Y-35097619D01*
X59452380Y-35192857D01*
X59452380Y-35288095D01*
X59500000Y-35383333D01*
X59547619Y-35430952D01*
X59642857Y-35478571D01*
X59976190Y-35478571D01*
X59119047Y-35335714D02*
X58738095Y-35335714D01*
X58976190Y-35002380D02*
X58976190Y-35859523D01*
X58928571Y-35954761D01*
X58833333Y-36002380D01*
X58738095Y-36002380D01*
X58404761Y-35335714D02*
X58404761Y-36002380D01*
X58404761Y-35430952D02*
X58357142Y-35383333D01*
X58261904Y-35335714D01*
X58119047Y-35335714D01*
X58023809Y-35383333D01*
X57976190Y-35478571D01*
X57976190Y-36002380D01*
X57595238Y-35002380D02*
X56976190Y-35002380D01*
X57309523Y-35383333D01*
X57166666Y-35383333D01*
X57071428Y-35430952D01*
X57023809Y-35478571D01*
X56976190Y-35573809D01*
X56976190Y-35811904D01*
X57023809Y-35907142D01*
X57071428Y-35954761D01*
X57166666Y-36002380D01*
X57452380Y-36002380D01*
X57547619Y-35954761D01*
X57595238Y-35907142D01*
D11*
X82950000Y-32600000D02*
X82950000Y-34400000D01*
X41750000Y-32600000D02*
X82950000Y-32600000D01*
X41750000Y-34400000D02*
X41750000Y-32600000D01*
X82950000Y-34400000D02*
X41750000Y-34400000D01*
D10*
X82640476Y-33904761D02*
X82497619Y-33952380D01*
X82259523Y-33952380D01*
X82164285Y-33904761D01*
X82116666Y-33857142D01*
X82069047Y-33761904D01*
X82069047Y-33666666D01*
X82116666Y-33571428D01*
X82164285Y-33523809D01*
X82259523Y-33476190D01*
X82450000Y-33428571D01*
X82545238Y-33380952D01*
X82592857Y-33333333D01*
X82640476Y-33238095D01*
X82640476Y-33142857D01*
X82592857Y-33047619D01*
X82545238Y-33000000D01*
X82450000Y-32952380D01*
X82211904Y-32952380D01*
X82069047Y-33000000D01*
X81497619Y-33952380D02*
X81592857Y-33904761D01*
X81640476Y-33857142D01*
X81688095Y-33761904D01*
X81688095Y-33476190D01*
X81640476Y-33380952D01*
X81592857Y-33333333D01*
X81497619Y-33285714D01*
X81354761Y-33285714D01*
X81259523Y-33333333D01*
X81211904Y-33380952D01*
X81164285Y-33476190D01*
X81164285Y-33761904D01*
X81211904Y-33857142D01*
X81259523Y-33904761D01*
X81354761Y-33952380D01*
X81497619Y-33952380D01*
X80592857Y-33952380D02*
X80688095Y-33904761D01*
X80735714Y-33809523D01*
X80735714Y-32952380D01*
X79783333Y-33952380D02*
X79783333Y-32952380D01*
X79783333Y-33904761D02*
X79878571Y-33952380D01*
X80069047Y-33952380D01*
X80164285Y-33904761D01*
X80211904Y-33857142D01*
X80259523Y-33761904D01*
X80259523Y-33476190D01*
X80211904Y-33380952D01*
X80164285Y-33333333D01*
X80069047Y-33285714D01*
X79878571Y-33285714D01*
X79783333Y-33333333D01*
X78926190Y-33904761D02*
X79021428Y-33952380D01*
X79211904Y-33952380D01*
X79307142Y-33904761D01*
X79354761Y-33809523D01*
X79354761Y-33428571D01*
X79307142Y-33333333D01*
X79211904Y-33285714D01*
X79021428Y-33285714D01*
X78926190Y-33333333D01*
X78878571Y-33428571D01*
X78878571Y-33523809D01*
X79354761Y-33619047D01*
X78450000Y-33952380D02*
X78450000Y-33285714D01*
X78450000Y-33476190D02*
X78402380Y-33380952D01*
X78354761Y-33333333D01*
X78259523Y-33285714D01*
X78164285Y-33285714D01*
X76640476Y-33952380D02*
X76640476Y-33428571D01*
X76688095Y-33333333D01*
X76783333Y-33285714D01*
X76973809Y-33285714D01*
X77069047Y-33333333D01*
X76640476Y-33904761D02*
X76735714Y-33952380D01*
X76973809Y-33952380D01*
X77069047Y-33904761D01*
X77116666Y-33809523D01*
X77116666Y-33714285D01*
X77069047Y-33619047D01*
X76973809Y-33571428D01*
X76735714Y-33571428D01*
X76640476Y-33523809D01*
X75069047Y-33428571D02*
X74926190Y-33476190D01*
X74878571Y-33523809D01*
X74830952Y-33619047D01*
X74830952Y-33761904D01*
X74878571Y-33857142D01*
X74926190Y-33904761D01*
X75021428Y-33952380D01*
X75402380Y-33952380D01*
X75402380Y-32952380D01*
X75069047Y-32952380D01*
X74973809Y-33000000D01*
X74926190Y-33047619D01*
X74878571Y-33142857D01*
X74878571Y-33238095D01*
X74926190Y-33333333D01*
X74973809Y-33380952D01*
X75069047Y-33428571D01*
X75402380Y-33428571D01*
X74402380Y-33952380D02*
X74402380Y-33285714D01*
X74402380Y-33476190D02*
X74354761Y-33380952D01*
X74307142Y-33333333D01*
X74211904Y-33285714D01*
X74116666Y-33285714D01*
X73783333Y-33952380D02*
X73783333Y-33285714D01*
X73783333Y-32952380D02*
X73830952Y-33000000D01*
X73783333Y-33047619D01*
X73735714Y-33000000D01*
X73783333Y-32952380D01*
X73783333Y-33047619D01*
X72878571Y-33952380D02*
X72878571Y-32952380D01*
X72878571Y-33904761D02*
X72973809Y-33952380D01*
X73164285Y-33952380D01*
X73259523Y-33904761D01*
X73307142Y-33857142D01*
X73354761Y-33761904D01*
X73354761Y-33476190D01*
X73307142Y-33380952D01*
X73259523Y-33333333D01*
X73164285Y-33285714D01*
X72973809Y-33285714D01*
X72878571Y-33333333D01*
X71973809Y-33285714D02*
X71973809Y-34095238D01*
X72021428Y-34190476D01*
X72069047Y-34238095D01*
X72164285Y-34285714D01*
X72307142Y-34285714D01*
X72402380Y-34238095D01*
X71973809Y-33904761D02*
X72069047Y-33952380D01*
X72259523Y-33952380D01*
X72354761Y-33904761D01*
X72402380Y-33857142D01*
X72450000Y-33761904D01*
X72450000Y-33476190D01*
X72402380Y-33380952D01*
X72354761Y-33333333D01*
X72259523Y-33285714D01*
X72069047Y-33285714D01*
X71973809Y-33333333D01*
X71116666Y-33904761D02*
X71211904Y-33952380D01*
X71402380Y-33952380D01*
X71497619Y-33904761D01*
X71545238Y-33809523D01*
X71545238Y-33428571D01*
X71497619Y-33333333D01*
X71402380Y-33285714D01*
X71211904Y-33285714D01*
X71116666Y-33333333D01*
X71069047Y-33428571D01*
X71069047Y-33523809D01*
X71545238Y-33619047D01*
X70021428Y-33285714D02*
X69640476Y-33285714D01*
X69878571Y-32952380D02*
X69878571Y-33809523D01*
X69830952Y-33904761D01*
X69735714Y-33952380D01*
X69640476Y-33952380D01*
X69164285Y-33952380D02*
X69259523Y-33904761D01*
X69307142Y-33857142D01*
X69354761Y-33761904D01*
X69354761Y-33476190D01*
X69307142Y-33380952D01*
X69259523Y-33333333D01*
X69164285Y-33285714D01*
X69021428Y-33285714D01*
X68926190Y-33333333D01*
X68878571Y-33380952D01*
X68830952Y-33476190D01*
X68830952Y-33761904D01*
X68878571Y-33857142D01*
X68926190Y-33904761D01*
X69021428Y-33952380D01*
X69164285Y-33952380D01*
X67116666Y-33000000D02*
X67211904Y-32952380D01*
X67354761Y-32952380D01*
X67497619Y-33000000D01*
X67592857Y-33095238D01*
X67640476Y-33190476D01*
X67688095Y-33380952D01*
X67688095Y-33523809D01*
X67640476Y-33714285D01*
X67592857Y-33809523D01*
X67497619Y-33904761D01*
X67354761Y-33952380D01*
X67259523Y-33952380D01*
X67116666Y-33904761D01*
X67069047Y-33857142D01*
X67069047Y-33523809D01*
X67259523Y-33523809D01*
X66640476Y-33952380D02*
X66640476Y-32952380D01*
X66069047Y-33952380D01*
X66069047Y-32952380D01*
X65592857Y-33952380D02*
X65592857Y-32952380D01*
X65354761Y-32952380D01*
X65211904Y-33000000D01*
X65116666Y-33095238D01*
X65069047Y-33190476D01*
X65021428Y-33380952D01*
X65021428Y-33523809D01*
X65069047Y-33714285D01*
X65116666Y-33809523D01*
X65211904Y-33904761D01*
X65354761Y-33952380D01*
X65592857Y-33952380D01*
X64069047Y-34047619D02*
X63307142Y-34047619D01*
X62926190Y-33952380D02*
X63021428Y-33904761D01*
X63069047Y-33857142D01*
X63116666Y-33761904D01*
X63116666Y-33476190D01*
X63069047Y-33380952D01*
X63021428Y-33333333D01*
X62926190Y-33285714D01*
X62783333Y-33285714D01*
X62688095Y-33333333D01*
X62640476Y-33380952D01*
X62592857Y-33476190D01*
X62592857Y-33761904D01*
X62640476Y-33857142D01*
X62688095Y-33904761D01*
X62783333Y-33952380D01*
X62926190Y-33952380D01*
X62164285Y-33952380D02*
X62164285Y-33285714D01*
X62164285Y-33476190D02*
X62116666Y-33380952D01*
X62069047Y-33333333D01*
X61973809Y-33285714D01*
X61878571Y-33285714D01*
X61783333Y-34047619D02*
X61021428Y-34047619D01*
X60164285Y-33285714D02*
X59783333Y-33285714D01*
X60021428Y-32952380D02*
X60021428Y-33809523D01*
X59973809Y-33904761D01*
X59878571Y-33952380D01*
X59783333Y-33952380D01*
X59307142Y-33952380D02*
X59402380Y-33904761D01*
X59450000Y-33857142D01*
X59497619Y-33761904D01*
X59497619Y-33476190D01*
X59450000Y-33380952D01*
X59402380Y-33333333D01*
X59307142Y-33285714D01*
X59164285Y-33285714D01*
X59069047Y-33333333D01*
X59021428Y-33380952D01*
X58973809Y-33476190D01*
X58973809Y-33761904D01*
X59021428Y-33857142D01*
X59069047Y-33904761D01*
X59164285Y-33952380D01*
X59307142Y-33952380D01*
X57926190Y-32952380D02*
X57592857Y-33952380D01*
X57259523Y-32952380D01*
X56354761Y-33857142D02*
X56402380Y-33904761D01*
X56545238Y-33952380D01*
X56640476Y-33952380D01*
X56783333Y-33904761D01*
X56878571Y-33809523D01*
X56926190Y-33714285D01*
X56973809Y-33523809D01*
X56973809Y-33380952D01*
X56926190Y-33190476D01*
X56878571Y-33095238D01*
X56783333Y-33000000D01*
X56640476Y-32952380D01*
X56545238Y-32952380D01*
X56402380Y-33000000D01*
X56354761Y-33047619D01*
X55354761Y-33857142D02*
X55402380Y-33904761D01*
X55545238Y-33952380D01*
X55640476Y-33952380D01*
X55783333Y-33904761D01*
X55878571Y-33809523D01*
X55926190Y-33714285D01*
X55973809Y-33523809D01*
X55973809Y-33380952D01*
X55926190Y-33190476D01*
X55878571Y-33095238D01*
X55783333Y-33000000D01*
X55640476Y-32952380D01*
X55545238Y-32952380D01*
X55402380Y-33000000D01*
X55354761Y-33047619D01*
X54307142Y-33285714D02*
X53926190Y-33285714D01*
X54164285Y-33952380D02*
X54164285Y-33095238D01*
X54116666Y-33000000D01*
X54021428Y-32952380D01*
X53926190Y-32952380D01*
X53450000Y-33952380D02*
X53545238Y-33904761D01*
X53592857Y-33857142D01*
X53640476Y-33761904D01*
X53640476Y-33476190D01*
X53592857Y-33380952D01*
X53545238Y-33333333D01*
X53450000Y-33285714D01*
X53307142Y-33285714D01*
X53211904Y-33333333D01*
X53164285Y-33380952D01*
X53116666Y-33476190D01*
X53116666Y-33761904D01*
X53164285Y-33857142D01*
X53211904Y-33904761D01*
X53307142Y-33952380D01*
X53450000Y-33952380D01*
X52688095Y-33952380D02*
X52688095Y-33285714D01*
X52688095Y-33476190D02*
X52640476Y-33380952D01*
X52592857Y-33333333D01*
X52497619Y-33285714D01*
X52402380Y-33285714D01*
X50926190Y-33904761D02*
X51021428Y-33952380D01*
X51211904Y-33952380D01*
X51307142Y-33904761D01*
X51354761Y-33809523D01*
X51354761Y-33428571D01*
X51307142Y-33333333D01*
X51211904Y-33285714D01*
X51021428Y-33285714D01*
X50926190Y-33333333D01*
X50878571Y-33428571D01*
X50878571Y-33523809D01*
X51354761Y-33619047D01*
X50545238Y-33285714D02*
X50307142Y-33952380D01*
X50069047Y-33285714D01*
X49307142Y-33904761D02*
X49402380Y-33952380D01*
X49592857Y-33952380D01*
X49688095Y-33904761D01*
X49735714Y-33809523D01*
X49735714Y-33428571D01*
X49688095Y-33333333D01*
X49592857Y-33285714D01*
X49402380Y-33285714D01*
X49307142Y-33333333D01*
X49259523Y-33428571D01*
X49259523Y-33523809D01*
X49735714Y-33619047D01*
X48830952Y-33952380D02*
X48830952Y-33285714D01*
X48830952Y-33476190D02*
X48783333Y-33380952D01*
X48735714Y-33333333D01*
X48640476Y-33285714D01*
X48545238Y-33285714D01*
X48307142Y-33285714D02*
X48069047Y-33952380D01*
X47830952Y-33285714D02*
X48069047Y-33952380D01*
X48164285Y-34190476D01*
X48211904Y-34238095D01*
X48307142Y-34285714D01*
X46354761Y-33428571D02*
X46211904Y-33476190D01*
X46164285Y-33523809D01*
X46116666Y-33619047D01*
X46116666Y-33761904D01*
X46164285Y-33857142D01*
X46211904Y-33904761D01*
X46307142Y-33952380D01*
X46688095Y-33952380D01*
X46688095Y-32952380D01*
X46354761Y-32952380D01*
X46259523Y-33000000D01*
X46211904Y-33047619D01*
X46164285Y-33142857D01*
X46164285Y-33238095D01*
X46211904Y-33333333D01*
X46259523Y-33380952D01*
X46354761Y-33428571D01*
X46688095Y-33428571D01*
X45259523Y-33285714D02*
X45259523Y-33952380D01*
X45688095Y-33285714D02*
X45688095Y-33809523D01*
X45640476Y-33904761D01*
X45545238Y-33952380D01*
X45402380Y-33952380D01*
X45307142Y-33904761D01*
X45259523Y-33857142D01*
X44926190Y-33285714D02*
X44545238Y-33285714D01*
X44783333Y-32952380D02*
X44783333Y-33809523D01*
X44735714Y-33904761D01*
X44640476Y-33952380D01*
X44545238Y-33952380D01*
X44354761Y-33285714D02*
X43973809Y-33285714D01*
X44211904Y-32952380D02*
X44211904Y-33809523D01*
X44164285Y-33904761D01*
X44069047Y-33952380D01*
X43973809Y-33952380D01*
X43497619Y-33952380D02*
X43592857Y-33904761D01*
X43640476Y-33857142D01*
X43688095Y-33761904D01*
X43688095Y-33476190D01*
X43640476Y-33380952D01*
X43592857Y-33333333D01*
X43497619Y-33285714D01*
X43354761Y-33285714D01*
X43259523Y-33333333D01*
X43211904Y-33380952D01*
X43164285Y-33476190D01*
X43164285Y-33761904D01*
X43211904Y-33857142D01*
X43259523Y-33904761D01*
X43354761Y-33952380D01*
X43497619Y-33952380D01*
X42735714Y-33285714D02*
X42735714Y-33952380D01*
X42735714Y-33380952D02*
X42688095Y-33333333D01*
X42592857Y-33285714D01*
X42450000Y-33285714D01*
X42354761Y-33333333D01*
X42307142Y-33428571D01*
X42307142Y-33952380D01*
X49642857Y-39428571D02*
X49500000Y-39476190D01*
X49452380Y-39523809D01*
X49404761Y-39619047D01*
X49404761Y-39761904D01*
X49452380Y-39857142D01*
X49500000Y-39904761D01*
X49595238Y-39952380D01*
X49976190Y-39952380D01*
X49976190Y-38952380D01*
X49642857Y-38952380D01*
X49547619Y-39000000D01*
X49500000Y-39047619D01*
X49452380Y-39142857D01*
X49452380Y-39238095D01*
X49500000Y-39333333D01*
X49547619Y-39380952D01*
X49642857Y-39428571D01*
X49976190Y-39428571D01*
X49119047Y-39285714D02*
X48738095Y-39285714D01*
X48976190Y-38952380D02*
X48976190Y-39809523D01*
X48928571Y-39904761D01*
X48833333Y-39952380D01*
X48738095Y-39952380D01*
X48404761Y-39285714D02*
X48404761Y-39952380D01*
X48404761Y-39380952D02*
X48357142Y-39333333D01*
X48261904Y-39285714D01*
X48119047Y-39285714D01*
X48023809Y-39333333D01*
X47976190Y-39428571D01*
X47976190Y-39952380D01*
X46976190Y-39952380D02*
X47547619Y-39952380D01*
X47261904Y-39952380D02*
X47261904Y-38952380D01*
X47357142Y-39095238D01*
X47452380Y-39190476D01*
X47547619Y-39238095D01*
X69642857Y-39428571D02*
X69500000Y-39476190D01*
X69452380Y-39523809D01*
X69404761Y-39619047D01*
X69404761Y-39761904D01*
X69452380Y-39857142D01*
X69500000Y-39904761D01*
X69595238Y-39952380D01*
X69976190Y-39952380D01*
X69976190Y-38952380D01*
X69642857Y-38952380D01*
X69547619Y-39000000D01*
X69500000Y-39047619D01*
X69452380Y-39142857D01*
X69452380Y-39238095D01*
X69500000Y-39333333D01*
X69547619Y-39380952D01*
X69642857Y-39428571D01*
X69976190Y-39428571D01*
X69119047Y-39285714D02*
X68738095Y-39285714D01*
X68976190Y-38952380D02*
X68976190Y-39809523D01*
X68928571Y-39904761D01*
X68833333Y-39952380D01*
X68738095Y-39952380D01*
X68404761Y-39285714D02*
X68404761Y-39952380D01*
X68404761Y-39380952D02*
X68357142Y-39333333D01*
X68261904Y-39285714D01*
X68119047Y-39285714D01*
X68023809Y-39333333D01*
X67976190Y-39428571D01*
X67976190Y-39952380D01*
X67071428Y-39285714D02*
X67071428Y-39952380D01*
X67309523Y-38904761D02*
X67547619Y-39619047D01*
X66928571Y-39619047D01*
D12*
X78697619Y-50978571D02*
X78697619Y-51511904D01*
X78888095Y-50673809D02*
X79078571Y-51245238D01*
X78583333Y-51245238D01*
X77669047Y-51511904D02*
X77669047Y-50711904D01*
X77669047Y-51016666D02*
X77592857Y-50978571D01*
X77440476Y-50978571D01*
X77364285Y-51016666D01*
X77326190Y-51054761D01*
X77288095Y-51130952D01*
X77288095Y-51359523D01*
X77326190Y-51435714D01*
X77364285Y-51473809D01*
X77440476Y-51511904D01*
X77592857Y-51511904D01*
X77669047Y-51473809D01*
X76602380Y-50978571D02*
X76602380Y-51511904D01*
X76945238Y-50978571D02*
X76945238Y-51397619D01*
X76907142Y-51473809D01*
X76830952Y-51511904D01*
X76716666Y-51511904D01*
X76640476Y-51473809D01*
X76602380Y-51435714D01*
X76335714Y-50978571D02*
X76030952Y-50978571D01*
X76221428Y-50711904D02*
X76221428Y-51397619D01*
X76183333Y-51473809D01*
X76107142Y-51511904D01*
X76030952Y-51511904D01*
X75878571Y-50978571D02*
X75573809Y-50978571D01*
X75764285Y-50711904D02*
X75764285Y-51397619D01*
X75726190Y-51473809D01*
X75650000Y-51511904D01*
X75573809Y-51511904D01*
X75192857Y-51511904D02*
X75269047Y-51473809D01*
X75307142Y-51435714D01*
X75345238Y-51359523D01*
X75345238Y-51130952D01*
X75307142Y-51054761D01*
X75269047Y-51016666D01*
X75192857Y-50978571D01*
X75078571Y-50978571D01*
X75002380Y-51016666D01*
X74964285Y-51054761D01*
X74926190Y-51130952D01*
X74926190Y-51359523D01*
X74964285Y-51435714D01*
X75002380Y-51473809D01*
X75078571Y-51511904D01*
X75192857Y-51511904D01*
X74583333Y-50978571D02*
X74583333Y-51511904D01*
X74583333Y-51054761D02*
X74545238Y-51016666D01*
X74469047Y-50978571D01*
X74354761Y-50978571D01*
X74278571Y-51016666D01*
X74240476Y-51092857D01*
X74240476Y-51511904D01*
X73897619Y-51473809D02*
X73821428Y-51511904D01*
X73669047Y-51511904D01*
X73592857Y-51473809D01*
X73554761Y-51397619D01*
X73554761Y-51359523D01*
X73592857Y-51283333D01*
X73669047Y-51245238D01*
X73783333Y-51245238D01*
X73859523Y-51207142D01*
X73897619Y-51130952D01*
X73897619Y-51092857D01*
X73859523Y-51016666D01*
X73783333Y-50978571D01*
X73669047Y-50978571D01*
X73592857Y-51016666D01*
X72373809Y-51816666D02*
X72411904Y-51778571D01*
X72488095Y-51664285D01*
X72526190Y-51588095D01*
X72564285Y-51473809D01*
X72602380Y-51283333D01*
X72602380Y-51130952D01*
X72564285Y-50940476D01*
X72526190Y-50826190D01*
X72488095Y-50750000D01*
X72411904Y-50635714D01*
X72373809Y-50597619D01*
X71726190Y-50711904D02*
X71878571Y-50711904D01*
X71954761Y-50750000D01*
X71992857Y-50788095D01*
X72069047Y-50902380D01*
X72107142Y-51054761D01*
X72107142Y-51359523D01*
X72069047Y-51435714D01*
X72030952Y-51473809D01*
X71954761Y-51511904D01*
X71802380Y-51511904D01*
X71726190Y-51473809D01*
X71688095Y-51435714D01*
X71650000Y-51359523D01*
X71650000Y-51169047D01*
X71688095Y-51092857D01*
X71726190Y-51054761D01*
X71802380Y-51016666D01*
X71954761Y-51016666D01*
X72030952Y-51054761D01*
X72069047Y-51092857D01*
X72107142Y-51169047D01*
X71383333Y-51511904D02*
X70964285Y-50978571D01*
X71383333Y-50978571D02*
X70964285Y-51511904D01*
X70316666Y-50711904D02*
X70469047Y-50711904D01*
X70545238Y-50750000D01*
X70583333Y-50788095D01*
X70659523Y-50902380D01*
X70697619Y-51054761D01*
X70697619Y-51359523D01*
X70659523Y-51435714D01*
X70621428Y-51473809D01*
X70545238Y-51511904D01*
X70392857Y-51511904D01*
X70316666Y-51473809D01*
X70278571Y-51435714D01*
X70240476Y-51359523D01*
X70240476Y-51169047D01*
X70278571Y-51092857D01*
X70316666Y-51054761D01*
X70392857Y-51016666D01*
X70545238Y-51016666D01*
X70621428Y-51054761D01*
X70659523Y-51092857D01*
X70697619Y-51169047D01*
X69973809Y-51816666D02*
X69935714Y-51778571D01*
X69859523Y-51664285D01*
X69821428Y-51588095D01*
X69783333Y-51473809D01*
X69745238Y-51283333D01*
X69745238Y-51130952D01*
X69783333Y-50940476D01*
X69821428Y-50826190D01*
X69859523Y-50750000D01*
X69935714Y-50635714D01*
X69973809Y-50597619D01*
X69326190Y-51473809D02*
X69326190Y-51511904D01*
X69364285Y-51588095D01*
X69402380Y-51626190D01*
X67992857Y-50711904D02*
X68373809Y-50711904D01*
X68411904Y-51092857D01*
X68373809Y-51054761D01*
X68297619Y-51016666D01*
X68107142Y-51016666D01*
X68030952Y-51054761D01*
X67992857Y-51092857D01*
X67954761Y-51169047D01*
X67954761Y-51359523D01*
X67992857Y-51435714D01*
X68030952Y-51473809D01*
X68107142Y-51511904D01*
X68297619Y-51511904D01*
X68373809Y-51473809D01*
X68411904Y-51435714D01*
X67650000Y-50788095D02*
X67611904Y-50750000D01*
X67535714Y-50711904D01*
X67345238Y-50711904D01*
X67269047Y-50750000D01*
X67230952Y-50788095D01*
X67192857Y-50864285D01*
X67192857Y-50940476D01*
X67230952Y-51054761D01*
X67688095Y-51511904D01*
X67192857Y-51511904D01*
X66926190Y-51511904D02*
X66507142Y-50978571D01*
X66926190Y-50978571D02*
X66507142Y-51511904D01*
X66240476Y-50788095D02*
X66202380Y-50750000D01*
X66126190Y-50711904D01*
X65935714Y-50711904D01*
X65859523Y-50750000D01*
X65821428Y-50788095D01*
X65783333Y-50864285D01*
X65783333Y-50940476D01*
X65821428Y-51054761D01*
X66278571Y-51511904D01*
X65783333Y-51511904D01*
X65288095Y-50711904D02*
X65211904Y-50711904D01*
X65135714Y-50750000D01*
X65097619Y-50788095D01*
X65059523Y-50864285D01*
X65021428Y-51016666D01*
X65021428Y-51207142D01*
X65059523Y-51359523D01*
X65097619Y-51435714D01*
X65135714Y-51473809D01*
X65211904Y-51511904D01*
X65288095Y-51511904D01*
X65364285Y-51473809D01*
X65402380Y-51435714D01*
X65440476Y-51359523D01*
X65478571Y-51207142D01*
X65478571Y-51016666D01*
X65440476Y-50864285D01*
X65402380Y-50788095D01*
X65364285Y-50750000D01*
X65288095Y-50711904D01*
X64678571Y-51511904D02*
X64678571Y-50978571D01*
X64678571Y-51054761D02*
X64640476Y-51016666D01*
X64564285Y-50978571D01*
X64450000Y-50978571D01*
X64373809Y-51016666D01*
X64335714Y-51092857D01*
X64335714Y-51511904D01*
X64335714Y-51092857D02*
X64297619Y-51016666D01*
X64221428Y-50978571D01*
X64107142Y-50978571D01*
X64030952Y-51016666D01*
X63992857Y-51092857D01*
X63992857Y-51511904D01*
X63611904Y-51511904D02*
X63611904Y-50978571D01*
X63611904Y-51054761D02*
X63573809Y-51016666D01*
X63497619Y-50978571D01*
X63383333Y-50978571D01*
X63307142Y-51016666D01*
X63269047Y-51092857D01*
X63269047Y-51511904D01*
X63269047Y-51092857D02*
X63230952Y-51016666D01*
X63154761Y-50978571D01*
X63040476Y-50978571D01*
X62964285Y-51016666D01*
X62926190Y-51092857D01*
X62926190Y-51511904D01*
X62507142Y-51473809D02*
X62507142Y-51511904D01*
X62545238Y-51588095D01*
X62583333Y-51626190D01*
X61554761Y-51511904D02*
X61554761Y-50711904D01*
X61288095Y-51283333D01*
X61021428Y-50711904D01*
X61021428Y-51511904D01*
X60716666Y-50711904D02*
X60221428Y-50711904D01*
X60488095Y-51016666D01*
X60373809Y-51016666D01*
X60297619Y-51054761D01*
X60259523Y-51092857D01*
X60221428Y-51169047D01*
X60221428Y-51359523D01*
X60259523Y-51435714D01*
X60297619Y-51473809D01*
X60373809Y-51511904D01*
X60602380Y-51511904D01*
X60678571Y-51473809D01*
X60716666Y-51435714D01*
X59269047Y-51511904D02*
X59269047Y-50711904D01*
X58926190Y-51511904D02*
X58926190Y-51092857D01*
X58964285Y-51016666D01*
X59040476Y-50978571D01*
X59154761Y-50978571D01*
X59230952Y-51016666D01*
X59269047Y-51054761D01*
X58430952Y-51511904D02*
X58507142Y-51473809D01*
X58545238Y-51435714D01*
X58583333Y-51359523D01*
X58583333Y-51130952D01*
X58545238Y-51054761D01*
X58507142Y-51016666D01*
X58430952Y-50978571D01*
X58316666Y-50978571D01*
X58240476Y-51016666D01*
X58202380Y-51054761D01*
X58164285Y-51130952D01*
X58164285Y-51359523D01*
X58202380Y-51435714D01*
X58240476Y-51473809D01*
X58316666Y-51511904D01*
X58430952Y-51511904D01*
X57707142Y-51511904D02*
X57783333Y-51473809D01*
X57821428Y-51397619D01*
X57821428Y-50711904D01*
X57097619Y-51473809D02*
X57173809Y-51511904D01*
X57326190Y-51511904D01*
X57402380Y-51473809D01*
X57440476Y-51397619D01*
X57440476Y-51092857D01*
X57402380Y-51016666D01*
X57326190Y-50978571D01*
X57173809Y-50978571D01*
X57097619Y-51016666D01*
X57059523Y-51092857D01*
X57059523Y-51169047D01*
X57440476Y-51245238D01*
X56754761Y-51473809D02*
X56678571Y-51511904D01*
X56526190Y-51511904D01*
X56450000Y-51473809D01*
X56411904Y-51397619D01*
X56411904Y-51359523D01*
X56450000Y-51283333D01*
X56526190Y-51245238D01*
X56640476Y-51245238D01*
X56716666Y-51207142D01*
X56754761Y-51130952D01*
X56754761Y-51092857D01*
X56716666Y-51016666D01*
X56640476Y-50978571D01*
X56526190Y-50978571D01*
X56450000Y-51016666D01*
X55116666Y-51511904D02*
X55116666Y-50711904D01*
X55116666Y-51473809D02*
X55192857Y-51511904D01*
X55345238Y-51511904D01*
X55421428Y-51473809D01*
X55459523Y-51435714D01*
X55497619Y-51359523D01*
X55497619Y-51130952D01*
X55459523Y-51054761D01*
X55421428Y-51016666D01*
X55345238Y-50978571D01*
X55192857Y-50978571D01*
X55116666Y-51016666D01*
X54735714Y-51092857D02*
X54126190Y-51092857D01*
X54126190Y-51321428D02*
X54735714Y-51321428D01*
X53821428Y-50711904D02*
X53326190Y-50711904D01*
X53592857Y-51016666D01*
X53478571Y-51016666D01*
X53402380Y-51054761D01*
X53364285Y-51092857D01*
X53326190Y-51169047D01*
X53326190Y-51359523D01*
X53364285Y-51435714D01*
X53402380Y-51473809D01*
X53478571Y-51511904D01*
X53707142Y-51511904D01*
X53783333Y-51473809D01*
X53821428Y-51435714D01*
X52983333Y-51435714D02*
X52945238Y-51473809D01*
X52983333Y-51511904D01*
X53021428Y-51473809D01*
X52983333Y-51435714D01*
X52983333Y-51511904D01*
X52640476Y-50788095D02*
X52602380Y-50750000D01*
X52526190Y-50711904D01*
X52335714Y-50711904D01*
X52259523Y-50750000D01*
X52221428Y-50788095D01*
X52183333Y-50864285D01*
X52183333Y-50940476D01*
X52221428Y-51054761D01*
X52678571Y-51511904D01*
X52183333Y-51511904D01*
X51840476Y-51511904D02*
X51840476Y-50978571D01*
X51840476Y-51054761D02*
X51802380Y-51016666D01*
X51726190Y-50978571D01*
X51611904Y-50978571D01*
X51535714Y-51016666D01*
X51497619Y-51092857D01*
X51497619Y-51511904D01*
X51497619Y-51092857D02*
X51459523Y-51016666D01*
X51383333Y-50978571D01*
X51269047Y-50978571D01*
X51192857Y-51016666D01*
X51154761Y-51092857D01*
X51154761Y-51511904D01*
X50773809Y-51511904D02*
X50773809Y-50978571D01*
X50773809Y-51054761D02*
X50735714Y-51016666D01*
X50659523Y-50978571D01*
X50545238Y-50978571D01*
X50469047Y-51016666D01*
X50430952Y-51092857D01*
X50430952Y-51511904D01*
X50430952Y-51092857D02*
X50392857Y-51016666D01*
X50316666Y-50978571D01*
X50202380Y-50978571D01*
X50126190Y-51016666D01*
X50088095Y-51092857D01*
X50088095Y-51511904D01*
X49669047Y-51473809D02*
X49669047Y-51511904D01*
X49707142Y-51588095D01*
X49745238Y-51626190D01*
X48373809Y-51511904D02*
X48373809Y-50711904D01*
X48373809Y-51473809D02*
X48450000Y-51511904D01*
X48602380Y-51511904D01*
X48678571Y-51473809D01*
X48716666Y-51435714D01*
X48754761Y-51359523D01*
X48754761Y-51130952D01*
X48716666Y-51054761D01*
X48678571Y-51016666D01*
X48602380Y-50978571D01*
X48450000Y-50978571D01*
X48373809Y-51016666D01*
X47992857Y-51511904D02*
X47992857Y-50978571D01*
X47992857Y-50711904D02*
X48030952Y-50750000D01*
X47992857Y-50788095D01*
X47954761Y-50750000D01*
X47992857Y-50711904D01*
X47992857Y-50788095D01*
X47650000Y-51473809D02*
X47573809Y-51511904D01*
X47421428Y-51511904D01*
X47345238Y-51473809D01*
X47307142Y-51397619D01*
X47307142Y-51359523D01*
X47345238Y-51283333D01*
X47421428Y-51245238D01*
X47535714Y-51245238D01*
X47611904Y-51207142D01*
X47650000Y-51130952D01*
X47650000Y-51092857D01*
X47611904Y-51016666D01*
X47535714Y-50978571D01*
X47421428Y-50978571D01*
X47345238Y-51016666D01*
X47078571Y-50978571D02*
X46773809Y-50978571D01*
X46964285Y-50711904D02*
X46964285Y-51397619D01*
X46926190Y-51473809D01*
X46850000Y-51511904D01*
X46773809Y-51511904D01*
X46164285Y-51511904D02*
X46164285Y-51092857D01*
X46202380Y-51016666D01*
X46278571Y-50978571D01*
X46430952Y-50978571D01*
X46507142Y-51016666D01*
X46164285Y-51473809D02*
X46240476Y-51511904D01*
X46430952Y-51511904D01*
X46507142Y-51473809D01*
X46545238Y-51397619D01*
X46545238Y-51321428D01*
X46507142Y-51245238D01*
X46430952Y-51207142D01*
X46240476Y-51207142D01*
X46164285Y-51169047D01*
X45783333Y-50978571D02*
X45783333Y-51511904D01*
X45783333Y-51054761D02*
X45745238Y-51016666D01*
X45669047Y-50978571D01*
X45554761Y-50978571D01*
X45478571Y-51016666D01*
X45440476Y-51092857D01*
X45440476Y-51511904D01*
X44716666Y-51473809D02*
X44792857Y-51511904D01*
X44945238Y-51511904D01*
X45021428Y-51473809D01*
X45059523Y-51435714D01*
X45097619Y-51359523D01*
X45097619Y-51130952D01*
X45059523Y-51054761D01*
X45021428Y-51016666D01*
X44945238Y-50978571D01*
X44792857Y-50978571D01*
X44716666Y-51016666D01*
X44069047Y-51473809D02*
X44145238Y-51511904D01*
X44297619Y-51511904D01*
X44373809Y-51473809D01*
X44411904Y-51397619D01*
X44411904Y-51092857D01*
X44373809Y-51016666D01*
X44297619Y-50978571D01*
X44145238Y-50978571D01*
X44069047Y-51016666D01*
X44030952Y-51092857D01*
X44030952Y-51169047D01*
X44411904Y-51245238D01*
X43688095Y-51092857D02*
X43078571Y-51092857D01*
X43078571Y-51321428D02*
X43688095Y-51321428D01*
X42773809Y-50711904D02*
X42278571Y-50711904D01*
X42545238Y-51016666D01*
X42430952Y-51016666D01*
X42354761Y-51054761D01*
X42316666Y-51092857D01*
X42278571Y-51169047D01*
X42278571Y-51359523D01*
X42316666Y-51435714D01*
X42354761Y-51473809D01*
X42430952Y-51511904D01*
X42659523Y-51511904D01*
X42735714Y-51473809D01*
X42773809Y-51435714D01*
X41592857Y-50711904D02*
X41745238Y-50711904D01*
X41821428Y-50750000D01*
X41859523Y-50788095D01*
X41935714Y-50902380D01*
X41973809Y-51054761D01*
X41973809Y-51359523D01*
X41935714Y-51435714D01*
X41897619Y-51473809D01*
X41821428Y-51511904D01*
X41669047Y-51511904D01*
X41592857Y-51473809D01*
X41554761Y-51435714D01*
X41516666Y-51359523D01*
X41516666Y-51169047D01*
X41554761Y-51092857D01*
X41592857Y-51054761D01*
X41669047Y-51016666D01*
X41821428Y-51016666D01*
X41897619Y-51054761D01*
X41935714Y-51092857D01*
X41973809Y-51169047D01*
X40602380Y-50673809D02*
X41288095Y-51702380D01*
X39916666Y-51511904D02*
X40373809Y-51511904D01*
X40145238Y-51511904D02*
X40145238Y-50711904D01*
X40221428Y-50826190D01*
X40297619Y-50902380D01*
X40373809Y-50940476D01*
X39611904Y-50788095D02*
X39573809Y-50750000D01*
X39497619Y-50711904D01*
X39307142Y-50711904D01*
X39230952Y-50750000D01*
X39192857Y-50788095D01*
X39154761Y-50864285D01*
X39154761Y-50940476D01*
X39192857Y-51054761D01*
X39650000Y-51511904D01*
X39154761Y-51511904D01*
X38811904Y-51511904D02*
X38811904Y-50978571D01*
X38811904Y-51054761D02*
X38773809Y-51016666D01*
X38697619Y-50978571D01*
X38583333Y-50978571D01*
X38507142Y-51016666D01*
X38469047Y-51092857D01*
X38469047Y-51511904D01*
X38469047Y-51092857D02*
X38430952Y-51016666D01*
X38354761Y-50978571D01*
X38240476Y-50978571D01*
X38164285Y-51016666D01*
X38126190Y-51092857D01*
X38126190Y-51511904D01*
X37745238Y-51511904D02*
X37745238Y-50978571D01*
X37745238Y-51054761D02*
X37707142Y-51016666D01*
X37630952Y-50978571D01*
X37516666Y-50978571D01*
X37440476Y-51016666D01*
X37402380Y-51092857D01*
X37402380Y-51511904D01*
X37402380Y-51092857D02*
X37364285Y-51016666D01*
X37288095Y-50978571D01*
X37173809Y-50978571D01*
X37097619Y-51016666D01*
X37059523Y-51092857D01*
X37059523Y-51511904D01*
D11*
%TO.C,JP4*%
X67200000Y-35900000D02*
X67500000Y-35600000D01*
X66900000Y-35600000D02*
X67500000Y-35600000D01*
X67200000Y-35900000D02*
X66900000Y-35600000D01*
X66450000Y-36100000D02*
X66450000Y-38100000D01*
X70550000Y-36100000D02*
X66450000Y-36100000D01*
X70550000Y-38100000D02*
X70550000Y-36100000D01*
X66450000Y-38100000D02*
X70550000Y-38100000D01*
%TO.C,JP3*%
X49150000Y-34550000D02*
X49450000Y-34250000D01*
X48850000Y-34250000D02*
X49450000Y-34250000D01*
X49150000Y-34550000D02*
X48850000Y-34250000D01*
X48400000Y-34750000D02*
X48400000Y-36750000D01*
X52500000Y-34750000D02*
X48400000Y-34750000D01*
X52500000Y-36750000D02*
X52500000Y-34750000D01*
X48400000Y-36750000D02*
X52500000Y-36750000D01*
%TO.C,JP2*%
X48950000Y-47050000D02*
X49250000Y-46750000D01*
X48650000Y-46750000D02*
X49250000Y-46750000D01*
X48950000Y-47050000D02*
X48650000Y-46750000D01*
X48200000Y-47250000D02*
X48200000Y-49250000D01*
X52300000Y-47250000D02*
X48200000Y-47250000D01*
X52300000Y-49250000D02*
X52300000Y-47250000D01*
X48200000Y-49250000D02*
X52300000Y-49250000D01*
%TO.C,JP1*%
X39200000Y-38550000D02*
X39500000Y-38250000D01*
X38900000Y-38250000D02*
X39500000Y-38250000D01*
X39200000Y-38550000D02*
X38900000Y-38250000D01*
X38450000Y-38750000D02*
X38450000Y-40750000D01*
X42550000Y-38750000D02*
X38450000Y-38750000D01*
X42550000Y-40750000D02*
X42550000Y-38750000D01*
X38450000Y-40750000D02*
X42550000Y-40750000D01*
D13*
%TO.C,REF\u002A\u002A*%
X48083296Y-35547085D02*
X47887157Y-35547085D01*
X46916674Y-36006474D02*
X46736039Y-36006474D01*
X48083296Y-36083035D02*
X47909895Y-36083035D01*
X47653579Y-36083035D02*
X47208129Y-36083035D01*
X46925975Y-36083035D02*
X46736039Y-36083035D01*
X48083296Y-35087708D02*
X47537900Y-35087708D01*
X47006123Y-35186283D02*
X47051344Y-35094990D01*
X47051344Y-35094990D02*
X47113041Y-35065457D01*
X47315423Y-35303631D02*
X47113041Y-35303631D01*
X48083296Y-34781450D02*
X46709842Y-34781450D01*
X47445284Y-35864861D02*
X47406909Y-35959900D01*
X47406909Y-35959900D02*
X47360958Y-35980472D01*
X46934863Y-36144063D02*
X46934863Y-35754465D01*
X47588636Y-36441868D02*
X47298558Y-36441868D01*
X47360958Y-35754465D02*
X47438274Y-35821998D01*
X47438274Y-35821998D02*
X47445284Y-35864861D01*
X48083296Y-34858018D02*
X46709842Y-34858018D01*
X46909438Y-35853343D02*
X46739893Y-35852309D01*
X48083296Y-35929913D02*
X47912994Y-35929913D01*
X48083296Y-36006474D02*
X47919197Y-36006474D01*
X47647379Y-36006474D02*
X47207095Y-36006474D01*
X47606431Y-35178401D02*
X47805438Y-35433064D01*
X47891396Y-36133944D02*
X47885121Y-36234746D01*
X47885121Y-36234746D02*
X47846341Y-36332212D01*
X47846341Y-36332212D02*
X47819085Y-36362242D01*
X48083296Y-35164269D02*
X47608057Y-35164269D01*
X48083296Y-35623655D02*
X47902659Y-35623655D01*
X47298558Y-36441868D02*
X47193968Y-36434585D01*
X47193968Y-36434585D02*
X47091741Y-36406635D01*
X47091741Y-36406635D02*
X47004656Y-36347563D01*
X47004656Y-36347563D02*
X46952328Y-36260028D01*
X46952328Y-36260028D02*
X46934863Y-36144063D01*
X47339033Y-35065457D02*
X47445093Y-35076309D01*
X47445093Y-35076309D02*
X47544166Y-35119133D01*
X47544166Y-35119133D02*
X47606431Y-35178401D01*
X48083296Y-34934574D02*
X46709842Y-34934574D01*
X47449972Y-35393963D02*
X46752341Y-35393963D01*
X47031396Y-36389290D02*
X46739849Y-36389290D01*
X48083296Y-36465851D02*
X46718109Y-36465851D01*
X47024868Y-35240829D02*
X46748620Y-35240829D01*
X48083296Y-35470524D02*
X47853050Y-35470524D01*
X48120210Y-34717825D02*
X46674716Y-34717825D01*
X47040946Y-35087708D02*
X46738389Y-35087708D01*
X47411733Y-35317400D02*
X46746141Y-35317400D01*
X47651511Y-35700219D02*
X46738904Y-35700219D01*
X46937344Y-36236166D02*
X46750080Y-36236166D01*
X48083296Y-36312727D02*
X47869588Y-36312727D01*
X47606160Y-35568964D02*
X47457089Y-35372777D01*
X47113041Y-35303631D02*
X47028391Y-35250093D01*
X47028391Y-35250093D02*
X47006123Y-35186283D01*
X47113041Y-35065457D02*
X47339033Y-35065457D01*
X47805438Y-35433064D02*
X47857388Y-35520962D01*
X47857388Y-35520962D02*
X47885753Y-35625521D01*
X47885753Y-35625521D02*
X47891396Y-35712317D01*
X47819085Y-36362242D02*
X47733332Y-36414176D01*
X47733332Y-36414176D02*
X47633652Y-36439144D01*
X47633652Y-36439144D02*
X47588636Y-36441868D01*
X47891396Y-35712317D02*
X47891396Y-36133944D01*
X48083296Y-35240829D02*
X47671940Y-35240829D01*
X47645311Y-35929913D02*
X47438606Y-35929913D01*
X46919775Y-35929913D02*
X46738429Y-35927846D01*
X48083296Y-36542429D02*
X46718109Y-36542429D01*
X48083296Y-36618990D02*
X46726377Y-36618990D01*
X46934863Y-35754465D02*
X47360958Y-35754465D01*
X48083296Y-35700219D02*
X47904726Y-35700219D01*
X47197367Y-35980472D02*
X47197367Y-36152496D01*
X47542073Y-36240195D02*
X47639367Y-36210609D01*
X47639367Y-36210609D02*
X47658440Y-36118765D01*
X46928043Y-36159598D02*
X46736469Y-36163733D01*
X48083296Y-36236166D02*
X47903693Y-36236166D01*
X46928043Y-35776779D02*
X46744073Y-35776779D01*
X46997095Y-35164269D02*
X46739849Y-35164269D01*
X47586401Y-35547085D02*
X46727535Y-35547085D01*
X47197367Y-36152496D02*
X47255957Y-36234800D01*
X47255957Y-36234800D02*
X47308677Y-36240195D01*
X48083296Y-35776779D02*
X47908861Y-35776779D01*
X48083296Y-36695546D02*
X46718109Y-36695546D01*
X47648412Y-35776779D02*
X47412766Y-35776779D01*
X47360958Y-35980472D02*
X47197367Y-35980472D01*
X48083296Y-35317400D02*
X47741430Y-35317400D01*
X47658440Y-36118765D02*
X47658440Y-35788209D01*
X47457089Y-35372777D02*
X47382383Y-35306047D01*
X47382383Y-35306047D02*
X47315423Y-35303631D01*
X48083296Y-35853343D02*
X47915062Y-35853343D01*
X47649446Y-35853343D02*
X47472713Y-35853343D01*
X48083296Y-36159598D02*
X47903693Y-36159598D01*
X47647379Y-36159598D02*
X47213295Y-36159598D01*
X48083296Y-35393963D02*
X47793106Y-35393963D01*
X46674716Y-36789533D02*
X48120210Y-36789533D01*
X48083296Y-35011147D02*
X46709842Y-35011147D01*
X46674716Y-34717825D02*
X46674716Y-36789533D01*
X48120210Y-36789533D02*
X48120210Y-34717825D01*
X47508885Y-35470524D02*
X46731671Y-35470524D01*
X47308677Y-36240195D02*
X47542073Y-36240195D01*
X47658440Y-35788209D02*
X47651816Y-35687083D01*
X47651816Y-35687083D02*
X47617922Y-35588405D01*
X47617922Y-35588405D02*
X47606160Y-35568964D01*
X47626708Y-35623655D02*
X46734772Y-35623655D01*
X46965249Y-36312727D02*
X46755928Y-36312727D01*
X48083296Y-36389290D02*
X47815844Y-36389290D01*
X47833296Y-48047085D02*
X47637157Y-48047085D01*
X46666674Y-48506474D02*
X46486039Y-48506474D01*
X47833296Y-48583035D02*
X47659895Y-48583035D01*
X47403579Y-48583035D02*
X46958129Y-48583035D01*
X46675975Y-48583035D02*
X46486039Y-48583035D01*
X47833296Y-47587708D02*
X47287900Y-47587708D01*
X46756123Y-47686283D02*
X46801344Y-47594990D01*
X46801344Y-47594990D02*
X46863041Y-47565457D01*
X47065423Y-47803631D02*
X46863041Y-47803631D01*
X47833296Y-47281450D02*
X46459842Y-47281450D01*
X47195284Y-48364861D02*
X47156909Y-48459900D01*
X47156909Y-48459900D02*
X47110958Y-48480472D01*
X46684863Y-48644063D02*
X46684863Y-48254465D01*
X47338636Y-48941868D02*
X47048558Y-48941868D01*
X47110958Y-48254465D02*
X47188274Y-48321998D01*
X47188274Y-48321998D02*
X47195284Y-48364861D01*
X47833296Y-47358018D02*
X46459842Y-47358018D01*
X46659438Y-48353343D02*
X46489893Y-48352309D01*
X47833296Y-48429913D02*
X47662994Y-48429913D01*
X47833296Y-48506474D02*
X47669197Y-48506474D01*
X47397379Y-48506474D02*
X46957095Y-48506474D01*
X47356431Y-47678401D02*
X47555438Y-47933064D01*
X47641396Y-48633944D02*
X47635121Y-48734746D01*
X47635121Y-48734746D02*
X47596341Y-48832212D01*
X47596341Y-48832212D02*
X47569085Y-48862242D01*
X47833296Y-47664269D02*
X47358057Y-47664269D01*
X47833296Y-48123655D02*
X47652659Y-48123655D01*
X47048558Y-48941868D02*
X46943968Y-48934585D01*
X46943968Y-48934585D02*
X46841741Y-48906635D01*
X46841741Y-48906635D02*
X46754656Y-48847563D01*
X46754656Y-48847563D02*
X46702328Y-48760028D01*
X46702328Y-48760028D02*
X46684863Y-48644063D01*
X47089033Y-47565457D02*
X47195093Y-47576309D01*
X47195093Y-47576309D02*
X47294166Y-47619133D01*
X47294166Y-47619133D02*
X47356431Y-47678401D01*
X47833296Y-47434574D02*
X46459842Y-47434574D01*
X47199972Y-47893963D02*
X46502341Y-47893963D01*
X46781396Y-48889290D02*
X46489849Y-48889290D01*
X47833296Y-48965851D02*
X46468109Y-48965851D01*
X46774868Y-47740829D02*
X46498620Y-47740829D01*
X47833296Y-47970524D02*
X47603050Y-47970524D01*
X47870210Y-47217825D02*
X46424716Y-47217825D01*
X46790946Y-47587708D02*
X46488389Y-47587708D01*
X47161733Y-47817400D02*
X46496141Y-47817400D01*
X47401511Y-48200219D02*
X46488904Y-48200219D01*
X46687344Y-48736166D02*
X46500080Y-48736166D01*
X47833296Y-48812727D02*
X47619588Y-48812727D01*
X47356160Y-48068964D02*
X47207089Y-47872777D01*
X46863041Y-47803631D02*
X46778391Y-47750093D01*
X46778391Y-47750093D02*
X46756123Y-47686283D01*
X46863041Y-47565457D02*
X47089033Y-47565457D01*
X47555438Y-47933064D02*
X47607388Y-48020962D01*
X47607388Y-48020962D02*
X47635753Y-48125521D01*
X47635753Y-48125521D02*
X47641396Y-48212317D01*
X47569085Y-48862242D02*
X47483332Y-48914176D01*
X47483332Y-48914176D02*
X47383652Y-48939144D01*
X47383652Y-48939144D02*
X47338636Y-48941868D01*
X47641396Y-48212317D02*
X47641396Y-48633944D01*
X47833296Y-47740829D02*
X47421940Y-47740829D01*
X47395311Y-48429913D02*
X47188606Y-48429913D01*
X46669775Y-48429913D02*
X46488429Y-48427846D01*
X47833296Y-49042429D02*
X46468109Y-49042429D01*
X47833296Y-49118990D02*
X46476377Y-49118990D01*
X46684863Y-48254465D02*
X47110958Y-48254465D01*
X47833296Y-48200219D02*
X47654726Y-48200219D01*
X46947367Y-48480472D02*
X46947367Y-48652496D01*
X47292073Y-48740195D02*
X47389367Y-48710609D01*
X47389367Y-48710609D02*
X47408440Y-48618765D01*
X46678043Y-48659598D02*
X46486469Y-48663733D01*
X47833296Y-48736166D02*
X47653693Y-48736166D01*
X46678043Y-48276779D02*
X46494073Y-48276779D01*
X46747095Y-47664269D02*
X46489849Y-47664269D01*
X47336401Y-48047085D02*
X46477535Y-48047085D01*
X46947367Y-48652496D02*
X47005957Y-48734800D01*
X47005957Y-48734800D02*
X47058677Y-48740195D01*
X47833296Y-48276779D02*
X47658861Y-48276779D01*
X47833296Y-49195546D02*
X46468109Y-49195546D01*
X47398412Y-48276779D02*
X47162766Y-48276779D01*
X47110958Y-48480472D02*
X46947367Y-48480472D01*
X47833296Y-47817400D02*
X47491430Y-47817400D01*
X47408440Y-48618765D02*
X47408440Y-48288209D01*
X47207089Y-47872777D02*
X47132383Y-47806047D01*
X47132383Y-47806047D02*
X47065423Y-47803631D01*
X47833296Y-48353343D02*
X47665062Y-48353343D01*
X47399446Y-48353343D02*
X47222713Y-48353343D01*
X47833296Y-48659598D02*
X47653693Y-48659598D01*
X47397379Y-48659598D02*
X46963295Y-48659598D01*
X47833296Y-47893963D02*
X47543106Y-47893963D01*
X46424716Y-49289533D02*
X47870210Y-49289533D01*
X47833296Y-47511147D02*
X46459842Y-47511147D01*
X46424716Y-47217825D02*
X46424716Y-49289533D01*
X47870210Y-49289533D02*
X47870210Y-47217825D01*
X47258885Y-47970524D02*
X46481671Y-47970524D01*
X47058677Y-48740195D02*
X47292073Y-48740195D01*
X47408440Y-48288209D02*
X47401816Y-48187083D01*
X47401816Y-48187083D02*
X47367922Y-48088405D01*
X47367922Y-48088405D02*
X47356160Y-48068964D01*
X47376708Y-48123655D02*
X46484772Y-48123655D01*
X46715249Y-48812727D02*
X46505928Y-48812727D01*
X47833296Y-48889290D02*
X47565844Y-48889290D01*
D15*
X80938227Y-48749363D02*
X81002988Y-48749363D01*
X80595847Y-48942681D02*
X80524781Y-48933293D01*
X80524781Y-48933293D02*
X80461168Y-48900705D01*
X80461168Y-48900705D02*
X80415923Y-48852696D01*
X80415923Y-48852696D02*
X80382672Y-48796390D01*
X82906269Y-48885932D02*
X82849358Y-48922513D01*
X82849358Y-48922513D02*
X82782659Y-48943554D01*
X82782659Y-48943554D02*
X82721910Y-48949633D01*
X83180475Y-47988803D02*
X82788553Y-47988803D01*
X82270895Y-47988803D02*
X82049896Y-47988803D01*
X82497943Y-48788294D02*
X82684660Y-48788294D01*
X82777753Y-48426706D02*
X82774760Y-48362304D01*
X82774760Y-48362304D02*
X82759799Y-48297999D01*
X82759799Y-48297999D02*
X82735928Y-48251310D01*
X80386826Y-47988803D02*
X80001425Y-47988803D01*
X83180475Y-48050060D02*
X82844144Y-48050060D01*
X82580387Y-48050060D02*
X82047913Y-48050060D01*
X81679977Y-48050060D02*
X81449294Y-48050060D01*
X81220264Y-48050060D02*
X80964776Y-48050060D01*
X80718382Y-48050060D02*
X80648928Y-48050060D01*
X80358714Y-48050060D02*
X80001425Y-48050060D01*
X83180475Y-48111310D02*
X82885485Y-48111310D01*
X80288435Y-48172559D02*
X80001425Y-48172559D01*
X83180475Y-48233807D02*
X82960726Y-48233807D01*
X82408895Y-48580516D02*
X82408895Y-48718136D01*
X82684660Y-48788294D02*
X82747910Y-48777123D01*
X82747910Y-48777123D02*
X82776907Y-48716630D01*
X82776907Y-48716630D02*
X82777753Y-48691151D01*
X81223197Y-48478813D02*
X80954854Y-48478813D01*
X80724169Y-48478813D02*
X80508368Y-48478813D01*
X81002988Y-48942681D02*
X80595847Y-48942681D01*
X82964118Y-48703294D02*
X82960865Y-48771861D01*
X82960865Y-48771861D02*
X82943600Y-48835636D01*
X82943600Y-48835636D02*
X82906269Y-48885932D01*
X83180475Y-49091332D02*
X80001425Y-49091332D01*
X83180475Y-49152576D02*
X80001425Y-49152576D01*
X82658108Y-48172559D02*
X82048740Y-48172559D01*
X81628714Y-48172559D02*
X81446813Y-48172559D01*
X81221917Y-48172559D02*
X80955680Y-48172559D01*
X80724996Y-48172559D02*
X80580304Y-48172559D01*
X80464140Y-48403771D02*
X80478363Y-48466786D01*
X80478363Y-48466786D02*
X80489774Y-48491468D01*
X80938227Y-48036261D02*
X80938227Y-48749363D01*
X80712394Y-48036261D02*
X80648475Y-48042838D01*
X80648475Y-48042838D02*
X80609856Y-48092928D01*
X81218520Y-47927554D02*
X81081358Y-47927554D01*
X80422380Y-47927554D02*
X80001425Y-47927554D01*
X83180475Y-48846321D02*
X82946671Y-48846321D01*
X82223200Y-48846321D02*
X82055743Y-48846321D01*
X81217352Y-48785072D02*
X81063168Y-48785072D01*
X80360368Y-48785072D02*
X80001425Y-48785072D01*
X81070448Y-48839070D02*
X81054339Y-48901382D01*
X81054339Y-48901382D02*
X81002988Y-48942681D01*
X82248677Y-47927554D02*
X82042880Y-47927554D01*
X81737692Y-47927554D02*
X81448873Y-47927554D01*
X82720121Y-48233807D02*
X82045432Y-48233807D01*
X81600603Y-48233807D02*
X81449294Y-48233807D01*
X81218609Y-48233807D02*
X80954027Y-48233807D01*
X80723344Y-48233807D02*
X80546404Y-48233807D01*
X82200876Y-48785072D02*
X82051065Y-48785072D01*
X81823050Y-48785072D02*
X81570480Y-48785072D01*
X80332255Y-48723818D02*
X80001425Y-48723818D01*
X83180475Y-48785072D02*
X82973955Y-48785072D01*
X82276117Y-48907572D02*
X82042880Y-48907572D01*
X81847607Y-48907572D02*
X81505000Y-48907572D01*
X80394268Y-48846321D02*
X80001425Y-48846321D01*
X83180475Y-48907572D02*
X82903676Y-48907572D01*
X81224368Y-48723818D02*
X80949067Y-48723818D01*
X80724996Y-48723818D02*
X80645622Y-48723818D01*
X81824220Y-48846321D02*
X81545926Y-48846321D01*
X81222029Y-48846321D02*
X81089626Y-48846321D01*
X83180475Y-48723818D02*
X82973955Y-48723818D01*
X82768904Y-48723818D02*
X82421636Y-48723818D01*
X80720036Y-48662568D02*
X80618336Y-48662568D01*
X80295049Y-48662568D02*
X80001425Y-48662568D01*
X81827728Y-48662568D02*
X81635962Y-48662568D01*
X81218520Y-48662568D02*
X80950719Y-48662568D01*
X82773864Y-48662568D02*
X82417504Y-48662568D01*
X82191781Y-48662568D02*
X82052236Y-48662568D01*
X82610978Y-48111310D02*
X82052873Y-48111310D01*
X81660132Y-48111310D02*
X81448467Y-48111310D01*
X82198892Y-48711389D02*
X82198892Y-48399711D01*
X82198892Y-48399711D02*
X82539768Y-48399711D01*
X80497870Y-48293135D02*
X80471758Y-48352358D01*
X80471758Y-48352358D02*
X80464140Y-48403771D01*
X80728585Y-48036261D02*
X80712394Y-48036261D01*
X82736146Y-47938860D02*
X82895352Y-48142590D01*
X83180475Y-48968820D02*
X80001425Y-48968820D01*
X83180475Y-49030083D02*
X80001425Y-49030083D01*
X81229044Y-48907572D02*
X81064821Y-48907572D01*
X80462068Y-48907572D02*
X80001425Y-48907572D01*
X82341434Y-47848504D02*
X82522228Y-47848504D01*
X82895352Y-48142590D02*
X82930957Y-48199752D01*
X82930957Y-48199752D02*
X82952707Y-48260619D01*
X82952707Y-48260619D02*
X82962774Y-48326603D01*
X82962774Y-48326603D02*
X82964118Y-48365992D01*
X82607228Y-48488028D02*
X82586653Y-48552486D01*
X82586653Y-48552486D02*
X82539768Y-48580516D01*
X82539768Y-48399711D02*
X82593186Y-48435274D01*
X82593186Y-48435274D02*
X82607228Y-48488028D01*
X82721910Y-48949633D02*
X82489848Y-48949633D01*
X82964118Y-48365992D02*
X82964118Y-48703294D01*
X82489848Y-48949633D02*
X82421783Y-48945904D01*
X82421783Y-48945904D02*
X82349395Y-48930762D01*
X82349395Y-48930762D02*
X82291137Y-48903983D01*
X82291137Y-48903983D02*
X82239925Y-48856503D01*
X82239925Y-48856503D02*
X82209159Y-48792299D01*
X82209159Y-48792299D02*
X82199177Y-48726033D01*
X82199177Y-48726033D02*
X82198892Y-48711389D01*
X80273551Y-48601319D02*
X80001425Y-48601319D01*
X83180475Y-48662568D02*
X82978916Y-48662568D01*
X80317372Y-48111310D02*
X80001425Y-48111310D01*
X83180475Y-48172559D02*
X82933440Y-48172559D01*
X81002988Y-48749363D02*
X81056405Y-48785813D01*
X81056405Y-48785813D02*
X81070448Y-48839070D01*
X81227551Y-48950586D02*
X81227551Y-47914812D01*
X81435168Y-47914812D02*
X81436517Y-48582385D01*
X81830486Y-48174031D02*
X81478342Y-48950586D01*
X81478342Y-48950586D02*
X81227551Y-48950586D01*
X81824220Y-48478813D02*
X81715474Y-48478813D01*
X81482784Y-48478813D02*
X81437181Y-48478813D01*
X82770557Y-48478813D02*
X82629171Y-48478813D01*
X82178551Y-48478813D02*
X82062759Y-48478813D01*
X81340855Y-47851286D02*
X81406225Y-47866858D01*
X81406225Y-47866858D02*
X81435168Y-47914812D01*
X82769731Y-48417563D02*
X82581214Y-48417563D01*
X82193435Y-48417563D02*
X82058663Y-48417563D01*
X81227551Y-47914812D02*
X81270230Y-47864955D01*
X81270230Y-47864955D02*
X81336256Y-47851345D01*
X81336256Y-47851345D02*
X81340855Y-47851286D01*
X80498446Y-47866306D02*
X80001425Y-47866306D01*
X83180475Y-47927554D02*
X82737446Y-47927554D01*
X81782125Y-47866306D02*
X81428995Y-47866306D01*
X81253600Y-47866306D02*
X81048285Y-47866306D01*
X83180475Y-47866306D02*
X82681320Y-47866306D01*
X82283757Y-47866306D02*
X82041712Y-47866306D01*
X83180475Y-47743799D02*
X80001425Y-47743799D01*
X83180475Y-47805057D02*
X80001425Y-47805057D01*
X81790010Y-47847420D02*
X82042628Y-47847420D01*
X82042628Y-47847420D02*
X82042628Y-48883284D01*
X83180475Y-47621300D02*
X80001425Y-47621300D01*
X83180475Y-47682554D02*
X80001425Y-47682554D01*
X79979571Y-49227765D02*
X83222003Y-49227765D01*
X83222003Y-49227765D02*
X83222003Y-47570400D01*
X82184340Y-48601319D02*
X82052236Y-48601319D01*
X81828898Y-48601319D02*
X81657009Y-48601319D01*
X81214476Y-48111310D02*
X80952372Y-48111310D01*
X80715076Y-48111310D02*
X80617509Y-48111310D01*
X83180475Y-48601319D02*
X82986358Y-48601319D01*
X82768904Y-48601319D02*
X82416676Y-48601319D01*
X80712595Y-48540070D02*
X80541444Y-48540070D01*
X80238826Y-48540070D02*
X80001425Y-48540070D01*
X80583704Y-47849937D02*
X80992194Y-47849937D01*
X80988147Y-48036261D02*
X80938227Y-48036261D01*
X81437867Y-48582385D02*
X81790010Y-47847420D01*
X81070448Y-47945164D02*
X81048741Y-48006795D01*
X81048741Y-48006795D02*
X80988147Y-48036261D01*
X80992194Y-47849937D02*
X81049631Y-47882731D01*
X81049631Y-47882731D02*
X81070448Y-47945164D01*
X80202444Y-48417563D02*
X80001425Y-48417563D01*
X83180475Y-48478813D02*
X82983050Y-48478813D01*
X80261244Y-48245913D02*
X80379973Y-48008453D01*
X80382672Y-48796390D02*
X80259894Y-48550832D01*
X80379973Y-48008453D02*
X80411526Y-47952267D01*
X80411526Y-47952267D02*
X80453654Y-47900203D01*
X80453654Y-47900203D02*
X80513924Y-47861803D01*
X80513924Y-47861803D02*
X80583704Y-47849937D01*
X80220768Y-48402421D02*
X80227448Y-48335513D01*
X80227448Y-48335513D02*
X80249583Y-48270806D01*
X80249583Y-48270806D02*
X80261244Y-48245913D01*
X81824220Y-48540070D02*
X81682734Y-48540070D01*
X81222029Y-48540070D02*
X80958160Y-48540070D01*
X83222003Y-47570400D02*
X79979571Y-47570400D01*
X79979571Y-47570400D02*
X79979571Y-49227765D01*
X81225225Y-48417563D02*
X80950719Y-48417563D01*
X80713422Y-48417563D02*
X80484391Y-48417563D01*
X81827978Y-48417563D02*
X81734548Y-48417563D01*
X81511304Y-48417563D02*
X81441853Y-48417563D01*
X80216500Y-48356315D02*
X80001425Y-48356315D01*
X83180475Y-48417563D02*
X82978090Y-48417563D01*
X80259894Y-48550832D02*
X80233894Y-48487728D01*
X80233894Y-48487728D02*
X80221453Y-48422300D01*
X80221453Y-48422300D02*
X80220768Y-48402421D01*
X82503340Y-48039043D02*
X82341434Y-48039043D01*
X81833184Y-48883284D02*
X81833561Y-48816791D01*
X81833561Y-48816791D02*
X81833755Y-48750298D01*
X81833755Y-48750298D02*
X81833784Y-48683804D01*
X81833784Y-48683804D02*
X81833666Y-48617310D01*
X81833666Y-48617310D02*
X81833420Y-48550816D01*
X81833420Y-48550816D02*
X81833063Y-48484323D01*
X81833063Y-48484323D02*
X81832615Y-48417830D01*
X81832615Y-48417830D02*
X81832094Y-48351338D01*
X81832094Y-48351338D02*
X81831518Y-48284846D01*
X81831518Y-48284846D02*
X81830905Y-48218356D01*
X81830905Y-48218356D02*
X81830486Y-48174031D01*
X81949943Y-48950744D02*
X81886921Y-48939081D01*
X81886921Y-48939081D02*
X81836208Y-48898578D01*
X81836208Y-48898578D02*
X81833184Y-48883284D01*
X80702949Y-48749363D02*
X80728585Y-48749363D01*
X80728585Y-48749363D02*
X80728585Y-48036261D01*
X80489774Y-48491468D02*
X80608506Y-48692696D01*
X82255899Y-47945164D02*
X82282378Y-47882081D01*
X82282378Y-47882081D02*
X82338102Y-47848643D01*
X82338102Y-47848643D02*
X82341434Y-47848504D01*
X82522228Y-47848504D02*
X82592494Y-47854189D01*
X82592494Y-47854189D02*
X82655050Y-47873533D01*
X82655050Y-47873533D02*
X82709519Y-47909968D01*
X82709519Y-47909968D02*
X82736146Y-47938860D01*
X80609856Y-48092928D02*
X80497870Y-48293135D01*
X80608506Y-48692696D02*
X80648846Y-48742438D01*
X80648846Y-48742438D02*
X80702949Y-48749363D01*
X82539768Y-48580516D02*
X82408895Y-48580516D01*
X82042628Y-48883284D02*
X82007812Y-48937250D01*
X82007812Y-48937250D02*
X81949943Y-48950744D01*
X81436517Y-48582385D02*
X81437867Y-48582385D01*
X81222744Y-48356315D02*
X80955680Y-48356315D01*
X80720863Y-48356315D02*
X80491832Y-48356315D01*
X82767249Y-48540070D02*
X82601885Y-48540070D01*
X82186820Y-48540070D02*
X82061588Y-48540070D01*
X81819709Y-48356315D02*
X81765967Y-48356315D01*
X81536112Y-48356315D02*
X81448467Y-48356315D01*
X82735928Y-48251310D02*
X82616672Y-48094360D01*
X82341434Y-48039043D02*
X82282378Y-48006985D01*
X82282378Y-48006985D02*
X82255899Y-47945164D01*
X82777753Y-48691151D02*
X82777753Y-48426706D01*
X82616672Y-48094360D02*
X82573627Y-48046801D01*
X82573627Y-48046801D02*
X82510067Y-48039040D01*
X82510067Y-48039040D02*
X82503340Y-48039043D01*
X83180475Y-48356315D02*
X82974781Y-48356315D01*
X82772209Y-48356315D02*
X82054528Y-48356315D01*
X80720036Y-48295064D02*
X80517464Y-48295064D01*
X80228076Y-48295064D02*
X80001425Y-48295064D01*
X81562568Y-48295064D02*
X81459216Y-48295064D01*
X81223572Y-48295064D02*
X80954854Y-48295064D01*
X82752367Y-48295064D02*
X82051221Y-48295064D01*
X81829632Y-48295064D02*
X81783331Y-48295064D01*
X80257014Y-48233807D02*
X80001425Y-48233807D01*
X83180475Y-48295064D02*
X82973128Y-48295064D01*
X80219808Y-48478813D02*
X80001425Y-48478813D01*
X83180475Y-48540070D02*
X82981396Y-48540070D01*
X81703782Y-47988803D02*
X81459397Y-47988803D01*
X81209167Y-47988803D02*
X81073090Y-47988803D01*
X81218520Y-48601319D02*
X80953200Y-48601319D01*
X80720036Y-48601319D02*
X80583609Y-48601319D01*
X82193435Y-48723818D02*
X82053404Y-48723818D01*
X81819543Y-48723818D02*
X81597374Y-48723818D01*
X82408895Y-48718136D02*
X82438310Y-48777288D01*
X82438310Y-48777288D02*
X82497943Y-48788294D01*
D11*
X80013300Y-49175500D02*
X83175600Y-49150100D01*
X82464400Y-48743700D02*
X82705700Y-48743700D01*
X82743800Y-47854700D02*
X82642200Y-47829300D01*
X83150200Y-47676900D02*
X83137500Y-49175500D01*
X83137500Y-49175500D02*
X83074000Y-49175500D01*
X83074000Y-49175500D02*
X83048600Y-47689600D01*
D13*
X38133296Y-39547085D02*
X37937157Y-39547085D01*
X36966674Y-40006474D02*
X36786039Y-40006474D01*
X38133296Y-40083035D02*
X37959895Y-40083035D01*
X37703579Y-40083035D02*
X37258129Y-40083035D01*
X36975975Y-40083035D02*
X36786039Y-40083035D01*
X38133296Y-39087708D02*
X37587900Y-39087708D01*
X37056123Y-39186283D02*
X37101344Y-39094990D01*
X37101344Y-39094990D02*
X37163041Y-39065457D01*
X37365423Y-39303631D02*
X37163041Y-39303631D01*
X38133296Y-38781450D02*
X36759842Y-38781450D01*
X37495284Y-39864861D02*
X37456909Y-39959900D01*
X37456909Y-39959900D02*
X37410958Y-39980472D01*
X36984863Y-40144063D02*
X36984863Y-39754465D01*
X37638636Y-40441868D02*
X37348558Y-40441868D01*
X37410958Y-39754465D02*
X37488274Y-39821998D01*
X37488274Y-39821998D02*
X37495284Y-39864861D01*
X38133296Y-38858018D02*
X36759842Y-38858018D01*
X36959438Y-39853343D02*
X36789893Y-39852309D01*
X38133296Y-39929913D02*
X37962994Y-39929913D01*
X38133296Y-40006474D02*
X37969197Y-40006474D01*
X37697379Y-40006474D02*
X37257095Y-40006474D01*
X37656431Y-39178401D02*
X37855438Y-39433064D01*
X37941396Y-40133944D02*
X37935121Y-40234746D01*
X37935121Y-40234746D02*
X37896341Y-40332212D01*
X37896341Y-40332212D02*
X37869085Y-40362242D01*
X38133296Y-39164269D02*
X37658057Y-39164269D01*
X38133296Y-39623655D02*
X37952659Y-39623655D01*
X37348558Y-40441868D02*
X37243968Y-40434585D01*
X37243968Y-40434585D02*
X37141741Y-40406635D01*
X37141741Y-40406635D02*
X37054656Y-40347563D01*
X37054656Y-40347563D02*
X37002328Y-40260028D01*
X37002328Y-40260028D02*
X36984863Y-40144063D01*
X37389033Y-39065457D02*
X37495093Y-39076309D01*
X37495093Y-39076309D02*
X37594166Y-39119133D01*
X37594166Y-39119133D02*
X37656431Y-39178401D01*
X38133296Y-38934574D02*
X36759842Y-38934574D01*
X37499972Y-39393963D02*
X36802341Y-39393963D01*
X37081396Y-40389290D02*
X36789849Y-40389290D01*
X38133296Y-40465851D02*
X36768109Y-40465851D01*
X37074868Y-39240829D02*
X36798620Y-39240829D01*
X38133296Y-39470524D02*
X37903050Y-39470524D01*
X38170210Y-38717825D02*
X36724716Y-38717825D01*
X37090946Y-39087708D02*
X36788389Y-39087708D01*
X37461733Y-39317400D02*
X36796141Y-39317400D01*
X37701511Y-39700219D02*
X36788904Y-39700219D01*
X36987344Y-40236166D02*
X36800080Y-40236166D01*
X38133296Y-40312727D02*
X37919588Y-40312727D01*
X37656160Y-39568964D02*
X37507089Y-39372777D01*
X37163041Y-39303631D02*
X37078391Y-39250093D01*
X37078391Y-39250093D02*
X37056123Y-39186283D01*
X37163041Y-39065457D02*
X37389033Y-39065457D01*
X37855438Y-39433064D02*
X37907388Y-39520962D01*
X37907388Y-39520962D02*
X37935753Y-39625521D01*
X37935753Y-39625521D02*
X37941396Y-39712317D01*
X37869085Y-40362242D02*
X37783332Y-40414176D01*
X37783332Y-40414176D02*
X37683652Y-40439144D01*
X37683652Y-40439144D02*
X37638636Y-40441868D01*
X37941396Y-39712317D02*
X37941396Y-40133944D01*
X38133296Y-39240829D02*
X37721940Y-39240829D01*
X37695311Y-39929913D02*
X37488606Y-39929913D01*
X36969775Y-39929913D02*
X36788429Y-39927846D01*
X38133296Y-40542429D02*
X36768109Y-40542429D01*
X38133296Y-40618990D02*
X36776377Y-40618990D01*
X36984863Y-39754465D02*
X37410958Y-39754465D01*
X38133296Y-39700219D02*
X37954726Y-39700219D01*
X37247367Y-39980472D02*
X37247367Y-40152496D01*
X37592073Y-40240195D02*
X37689367Y-40210609D01*
X37689367Y-40210609D02*
X37708440Y-40118765D01*
X36978043Y-40159598D02*
X36786469Y-40163733D01*
X38133296Y-40236166D02*
X37953693Y-40236166D01*
X36978043Y-39776779D02*
X36794073Y-39776779D01*
X37047095Y-39164269D02*
X36789849Y-39164269D01*
X37636401Y-39547085D02*
X36777535Y-39547085D01*
X37247367Y-40152496D02*
X37305957Y-40234800D01*
X37305957Y-40234800D02*
X37358677Y-40240195D01*
X38133296Y-39776779D02*
X37958861Y-39776779D01*
X38133296Y-40695546D02*
X36768109Y-40695546D01*
X37698412Y-39776779D02*
X37462766Y-39776779D01*
X37410958Y-39980472D02*
X37247367Y-39980472D01*
X38133296Y-39317400D02*
X37791430Y-39317400D01*
X37708440Y-40118765D02*
X37708440Y-39788209D01*
X37507089Y-39372777D02*
X37432383Y-39306047D01*
X37432383Y-39306047D02*
X37365423Y-39303631D01*
X38133296Y-39853343D02*
X37965062Y-39853343D01*
X37699446Y-39853343D02*
X37522713Y-39853343D01*
X38133296Y-40159598D02*
X37953693Y-40159598D01*
X37697379Y-40159598D02*
X37263295Y-40159598D01*
X38133296Y-39393963D02*
X37843106Y-39393963D01*
X36724716Y-40789533D02*
X38170210Y-40789533D01*
X38133296Y-39011147D02*
X36759842Y-39011147D01*
X36724716Y-38717825D02*
X36724716Y-40789533D01*
X38170210Y-40789533D02*
X38170210Y-38717825D01*
X37558885Y-39470524D02*
X36781671Y-39470524D01*
X37358677Y-40240195D02*
X37592073Y-40240195D01*
X37708440Y-39788209D02*
X37701816Y-39687083D01*
X37701816Y-39687083D02*
X37667922Y-39588405D01*
X37667922Y-39588405D02*
X37656160Y-39568964D01*
X37676708Y-39623655D02*
X36784772Y-39623655D01*
X37015249Y-40312727D02*
X36805928Y-40312727D01*
X38133296Y-40389290D02*
X37865844Y-40389290D01*
X66133296Y-36897085D02*
X65937157Y-36897085D01*
X64966674Y-37356474D02*
X64786039Y-37356474D01*
X66133296Y-37433035D02*
X65959895Y-37433035D01*
X65703579Y-37433035D02*
X65258129Y-37433035D01*
X64975975Y-37433035D02*
X64786039Y-37433035D01*
X66133296Y-36437708D02*
X65587900Y-36437708D01*
X65056123Y-36536283D02*
X65101344Y-36444990D01*
X65101344Y-36444990D02*
X65163041Y-36415457D01*
X65365423Y-36653631D02*
X65163041Y-36653631D01*
X66133296Y-36131450D02*
X64759842Y-36131450D01*
X65495284Y-37214861D02*
X65456909Y-37309900D01*
X65456909Y-37309900D02*
X65410958Y-37330472D01*
X64984863Y-37494063D02*
X64984863Y-37104465D01*
X65638636Y-37791868D02*
X65348558Y-37791868D01*
X65410958Y-37104465D02*
X65488274Y-37171998D01*
X65488274Y-37171998D02*
X65495284Y-37214861D01*
X66133296Y-36208018D02*
X64759842Y-36208018D01*
X64959438Y-37203343D02*
X64789893Y-37202309D01*
X66133296Y-37279913D02*
X65962994Y-37279913D01*
X66133296Y-37356474D02*
X65969197Y-37356474D01*
X65697379Y-37356474D02*
X65257095Y-37356474D01*
X65656431Y-36528401D02*
X65855438Y-36783064D01*
X65941396Y-37483944D02*
X65935121Y-37584746D01*
X65935121Y-37584746D02*
X65896341Y-37682212D01*
X65896341Y-37682212D02*
X65869085Y-37712242D01*
X66133296Y-36514269D02*
X65658057Y-36514269D01*
X66133296Y-36973655D02*
X65952659Y-36973655D01*
X65348558Y-37791868D02*
X65243968Y-37784585D01*
X65243968Y-37784585D02*
X65141741Y-37756635D01*
X65141741Y-37756635D02*
X65054656Y-37697563D01*
X65054656Y-37697563D02*
X65002328Y-37610028D01*
X65002328Y-37610028D02*
X64984863Y-37494063D01*
X65389033Y-36415457D02*
X65495093Y-36426309D01*
X65495093Y-36426309D02*
X65594166Y-36469133D01*
X65594166Y-36469133D02*
X65656431Y-36528401D01*
X66133296Y-36284574D02*
X64759842Y-36284574D01*
X65499972Y-36743963D02*
X64802341Y-36743963D01*
X65081396Y-37739290D02*
X64789849Y-37739290D01*
X66133296Y-37815851D02*
X64768109Y-37815851D01*
X65074868Y-36590829D02*
X64798620Y-36590829D01*
X66133296Y-36820524D02*
X65903050Y-36820524D01*
X66170210Y-36067825D02*
X64724716Y-36067825D01*
X65090946Y-36437708D02*
X64788389Y-36437708D01*
X65461733Y-36667400D02*
X64796141Y-36667400D01*
X65701511Y-37050219D02*
X64788904Y-37050219D01*
X64987344Y-37586166D02*
X64800080Y-37586166D01*
X66133296Y-37662727D02*
X65919588Y-37662727D01*
X65656160Y-36918964D02*
X65507089Y-36722777D01*
X65163041Y-36653631D02*
X65078391Y-36600093D01*
X65078391Y-36600093D02*
X65056123Y-36536283D01*
X65163041Y-36415457D02*
X65389033Y-36415457D01*
X65855438Y-36783064D02*
X65907388Y-36870962D01*
X65907388Y-36870962D02*
X65935753Y-36975521D01*
X65935753Y-36975521D02*
X65941396Y-37062317D01*
X65869085Y-37712242D02*
X65783332Y-37764176D01*
X65783332Y-37764176D02*
X65683652Y-37789144D01*
X65683652Y-37789144D02*
X65638636Y-37791868D01*
X65941396Y-37062317D02*
X65941396Y-37483944D01*
X66133296Y-36590829D02*
X65721940Y-36590829D01*
X65695311Y-37279913D02*
X65488606Y-37279913D01*
X64969775Y-37279913D02*
X64788429Y-37277846D01*
X66133296Y-37892429D02*
X64768109Y-37892429D01*
X66133296Y-37968990D02*
X64776377Y-37968990D01*
X64984863Y-37104465D02*
X65410958Y-37104465D01*
X66133296Y-37050219D02*
X65954726Y-37050219D01*
X65247367Y-37330472D02*
X65247367Y-37502496D01*
X65592073Y-37590195D02*
X65689367Y-37560609D01*
X65689367Y-37560609D02*
X65708440Y-37468765D01*
X64978043Y-37509598D02*
X64786469Y-37513733D01*
X66133296Y-37586166D02*
X65953693Y-37586166D01*
X64978043Y-37126779D02*
X64794073Y-37126779D01*
X65047095Y-36514269D02*
X64789849Y-36514269D01*
X65636401Y-36897085D02*
X64777535Y-36897085D01*
X65247367Y-37502496D02*
X65305957Y-37584800D01*
X65305957Y-37584800D02*
X65358677Y-37590195D01*
X66133296Y-37126779D02*
X65958861Y-37126779D01*
X66133296Y-38045546D02*
X64768109Y-38045546D01*
X65698412Y-37126779D02*
X65462766Y-37126779D01*
X65410958Y-37330472D02*
X65247367Y-37330472D01*
X66133296Y-36667400D02*
X65791430Y-36667400D01*
X65708440Y-37468765D02*
X65708440Y-37138209D01*
X65507089Y-36722777D02*
X65432383Y-36656047D01*
X65432383Y-36656047D02*
X65365423Y-36653631D01*
X66133296Y-37203343D02*
X65965062Y-37203343D01*
X65699446Y-37203343D02*
X65522713Y-37203343D01*
X66133296Y-37509598D02*
X65953693Y-37509598D01*
X65697379Y-37509598D02*
X65263295Y-37509598D01*
X66133296Y-36743963D02*
X65843106Y-36743963D01*
X64724716Y-38139533D02*
X66170210Y-38139533D01*
X66133296Y-36361147D02*
X64759842Y-36361147D01*
X64724716Y-36067825D02*
X64724716Y-38139533D01*
X66170210Y-38139533D02*
X66170210Y-36067825D01*
X65558885Y-36820524D02*
X64781671Y-36820524D01*
X65358677Y-37590195D02*
X65592073Y-37590195D01*
X65708440Y-37138209D02*
X65701816Y-37037083D01*
X65701816Y-37037083D02*
X65667922Y-36938405D01*
X65667922Y-36938405D02*
X65656160Y-36918964D01*
X65676708Y-36973655D02*
X64784772Y-36973655D01*
X65015249Y-37662727D02*
X64805928Y-37662727D01*
X66133296Y-37739290D02*
X65865844Y-37739290D01*
%TO.C,JP4*%
D10*
X70333333Y-34652380D02*
X70333333Y-35366666D01*
X70380952Y-35509523D01*
X70476190Y-35604761D01*
X70619047Y-35652380D01*
X70714285Y-35652380D01*
X69857142Y-35652380D02*
X69857142Y-34652380D01*
X69476190Y-34652380D01*
X69380952Y-34700000D01*
X69333333Y-34747619D01*
X69285714Y-34842857D01*
X69285714Y-34985714D01*
X69333333Y-35080952D01*
X69380952Y-35128571D01*
X69476190Y-35176190D01*
X69857142Y-35176190D01*
X68428571Y-34985714D02*
X68428571Y-35652380D01*
X68666666Y-34604761D02*
X68904761Y-35319047D01*
X68285714Y-35319047D01*
%TO.C,JP3*%
X52483333Y-37102380D02*
X52483333Y-37816666D01*
X52530952Y-37959523D01*
X52626190Y-38054761D01*
X52769047Y-38102380D01*
X52864285Y-38102380D01*
X52007142Y-38102380D02*
X52007142Y-37102380D01*
X51626190Y-37102380D01*
X51530952Y-37150000D01*
X51483333Y-37197619D01*
X51435714Y-37292857D01*
X51435714Y-37435714D01*
X51483333Y-37530952D01*
X51530952Y-37578571D01*
X51626190Y-37626190D01*
X52007142Y-37626190D01*
X51102380Y-37102380D02*
X50483333Y-37102380D01*
X50816666Y-37483333D01*
X50673809Y-37483333D01*
X50578571Y-37530952D01*
X50530952Y-37578571D01*
X50483333Y-37673809D01*
X50483333Y-37911904D01*
X50530952Y-38007142D01*
X50578571Y-38054761D01*
X50673809Y-38102380D01*
X50959523Y-38102380D01*
X51054761Y-38054761D01*
X51102380Y-38007142D01*
%TO.C,JP2*%
X52083333Y-45952380D02*
X52083333Y-46666666D01*
X52130952Y-46809523D01*
X52226190Y-46904761D01*
X52369047Y-46952380D01*
X52464285Y-46952380D01*
X51607142Y-46952380D02*
X51607142Y-45952380D01*
X51226190Y-45952380D01*
X51130952Y-46000000D01*
X51083333Y-46047619D01*
X51035714Y-46142857D01*
X51035714Y-46285714D01*
X51083333Y-46380952D01*
X51130952Y-46428571D01*
X51226190Y-46476190D01*
X51607142Y-46476190D01*
X50654761Y-46047619D02*
X50607142Y-46000000D01*
X50511904Y-45952380D01*
X50273809Y-45952380D01*
X50178571Y-46000000D01*
X50130952Y-46047619D01*
X50083333Y-46142857D01*
X50083333Y-46238095D01*
X50130952Y-46380952D01*
X50702380Y-46952380D01*
X50083333Y-46952380D01*
%TO.C,JP1*%
X42333333Y-41152380D02*
X42333333Y-41866666D01*
X42380952Y-42009523D01*
X42476190Y-42104761D01*
X42619047Y-42152380D01*
X42714285Y-42152380D01*
X41857142Y-42152380D02*
X41857142Y-41152380D01*
X41476190Y-41152380D01*
X41380952Y-41200000D01*
X41333333Y-41247619D01*
X41285714Y-41342857D01*
X41285714Y-41485714D01*
X41333333Y-41580952D01*
X41380952Y-41628571D01*
X41476190Y-41676190D01*
X41857142Y-41676190D01*
X40333333Y-42152380D02*
X40904761Y-42152380D01*
X40619047Y-42152380D02*
X40619047Y-41152380D01*
X40714285Y-41295238D01*
X40809523Y-41390476D01*
X40904761Y-41438095D01*
%TD*%
M02*
