M48
; DRILL file {KiCad 5.1.7-a382d34a8~88~ubuntu18.04.1} date Sun May 23 11:53:07 2021
; FORMAT={-:-/ absolute / inch / decimal}
; #@! TF.CreationDate,2021-05-23T11:53:07+02:00
; #@! TF.GenerationSoftware,Kicad,Pcbnew,5.1.7-a382d34a8~88~ubuntu18.04.1
; #@! TF.FileFunction,Plated,1,2,PTH
FMAT,2
INCH
T1C0.0157
T2C0.0394
T3C0.0433
%
G90
G05
T1
X1.7067Y-1.565
X2.0925Y-1.8996
X2.1004Y-1.4075
X2.8819Y-1.4606
T2
X3.3307Y-1.4035
X3.3307Y-1.5035
X3.3307Y-1.6035
X3.3307Y-1.7035
X3.3307Y-1.8035
X3.3307Y-1.9035
T3
X2.1752Y-1.7224
X2.1752Y-1.8996
X2.4311Y-1.7224
X2.4311Y-1.8996
X2.1752Y-1.4075
X2.1752Y-1.5846
X2.4311Y-1.4075
X2.4311Y-1.5846
X2.5689Y-1.565
X2.5689Y-1.7421
X2.8248Y-1.565
X2.8248Y-1.7421
X1.7815Y-1.565
X1.7815Y-1.7421
X2.0374Y-1.565
X2.0374Y-1.7421
T0
M30
