%TF.GenerationSoftware,KiCad,Pcbnew,5.1.7-a382d34a8~88~ubuntu18.04.1*%
%TF.CreationDate,2021-05-22T23:43:46+02:00*%
%TF.ProjectId,button-board-6x6mm-4buttons,62757474-6f6e-42d6-926f-6172642d3678,v1r1*%
%TF.SameCoordinates,Original*%
%TF.FileFunction,Copper,L1,Top*%
%TF.FilePolarity,Positive*%
%FSLAX46Y46*%
G04 Gerber Fmt 4.6, Leading zero omitted, Abs format (unit mm)*
G04 Created by KiCad (PCBNEW 5.1.7-a382d34a8~88~ubuntu18.04.1) date 2021-05-22 23:43:46*
%MOMM*%
%LPD*%
G01*
G04 APERTURE LIST*
%TA.AperFunction,ComponentPad*%
%ADD10C,2.000000*%
%TD*%
%TA.AperFunction,SMDPad,CuDef*%
%ADD11R,1.000000X1.500000*%
%TD*%
%TA.AperFunction,ComponentPad*%
%ADD12O,1.700000X1.700000*%
%TD*%
%TA.AperFunction,ComponentPad*%
%ADD13R,1.700000X1.700000*%
%TD*%
%TA.AperFunction,ViaPad*%
%ADD14C,0.800000*%
%TD*%
%TA.AperFunction,Conductor*%
%ADD15C,0.250000*%
%TD*%
%TA.AperFunction,Conductor*%
%ADD16C,0.254000*%
%TD*%
%TA.AperFunction,Conductor*%
%ADD17C,0.100000*%
%TD*%
G04 APERTURE END LIST*
D10*
%TO.P,SW4,1*%
%TO.N,Net-(JP4-Pad2)*%
X71750000Y-39750000D03*
%TO.P,SW4,2*%
%TO.N,Net-(J1-Pad3)*%
X71750000Y-44250000D03*
%TO.P,SW4,1*%
%TO.N,Net-(JP4-Pad2)*%
X65250000Y-39750000D03*
%TO.P,SW4,2*%
%TO.N,Net-(J1-Pad3)*%
X65250000Y-44250000D03*
%TD*%
D11*
%TO.P,JP4,1*%
%TO.N,GND*%
X67200000Y-37100000D03*
%TO.P,JP4,2*%
%TO.N,Net-(JP4-Pad2)*%
X68500000Y-37100000D03*
%TO.P,JP4,3*%
%TO.N,VCC*%
X69800000Y-37100000D03*
%TD*%
D10*
%TO.P,SW3,1*%
%TO.N,Net-(JP3-Pad2)*%
X61750000Y-35750000D03*
%TO.P,SW3,2*%
%TO.N,Net-(J1-Pad6)*%
X61750000Y-40250000D03*
%TO.P,SW3,1*%
%TO.N,Net-(JP3-Pad2)*%
X55250000Y-35750000D03*
%TO.P,SW3,2*%
%TO.N,Net-(J1-Pad6)*%
X55250000Y-40250000D03*
%TD*%
%TO.P,SW2,1*%
%TO.N,Net-(JP2-Pad2)*%
X61750000Y-43750000D03*
%TO.P,SW2,2*%
%TO.N,Net-(J1-Pad4)*%
X61750000Y-48250000D03*
%TO.P,SW2,1*%
%TO.N,Net-(JP2-Pad2)*%
X55250000Y-43750000D03*
%TO.P,SW2,2*%
%TO.N,Net-(J1-Pad4)*%
X55250000Y-48250000D03*
%TD*%
D12*
%TO.P,J1,6*%
%TO.N,Net-(J1-Pad6)*%
X82560000Y-44580000D03*
%TO.P,J1,5*%
%TO.N,GND*%
X85100000Y-44580000D03*
%TO.P,J1,4*%
%TO.N,Net-(J1-Pad4)*%
X82560000Y-42040000D03*
%TO.P,J1,3*%
%TO.N,Net-(J1-Pad3)*%
X85100000Y-42040000D03*
%TO.P,J1,2*%
%TO.N,Net-(J1-Pad2)*%
X82560000Y-39500000D03*
D13*
%TO.P,J1,1*%
%TO.N,VCC*%
X85100000Y-39500000D03*
%TD*%
D11*
%TO.P,JP3,1*%
%TO.N,GND*%
X57200000Y-33150000D03*
%TO.P,JP3,2*%
%TO.N,Net-(JP3-Pad2)*%
X58500000Y-33150000D03*
%TO.P,JP3,3*%
%TO.N,VCC*%
X59800000Y-33150000D03*
%TD*%
%TO.P,JP2,1*%
%TO.N,GND*%
X57200000Y-50850000D03*
%TO.P,JP2,2*%
%TO.N,Net-(JP2-Pad2)*%
X58500000Y-50850000D03*
%TO.P,JP2,3*%
%TO.N,VCC*%
X59800000Y-50850000D03*
%TD*%
%TO.P,JP1,1*%
%TO.N,GND*%
X47300000Y-37100000D03*
%TO.P,JP1,2*%
%TO.N,Net-(JP1-Pad2)*%
X48600000Y-37100000D03*
%TO.P,JP1,3*%
%TO.N,VCC*%
X49900000Y-37100000D03*
%TD*%
D10*
%TO.P,SW1,1*%
%TO.N,Net-(JP1-Pad2)*%
X51750000Y-39750000D03*
%TO.P,SW1,2*%
%TO.N,Net-(J1-Pad2)*%
X51750000Y-44250000D03*
%TO.P,SW1,1*%
%TO.N,Net-(JP1-Pad2)*%
X45250000Y-39750000D03*
%TO.P,SW1,2*%
%TO.N,Net-(J1-Pad2)*%
X45250000Y-44250000D03*
%TD*%
D14*
%TO.N,GND*%
X64000000Y-37100000D03*
X43500000Y-37100000D03*
X81500000Y-37100000D03*
X80050000Y-37100000D03*
X53350000Y-33600000D03*
X53750000Y-50850000D03*
%TD*%
D15*
%TO.N,GND*%
X43500000Y-37100000D02*
X43500000Y-37100000D01*
X47300000Y-37100000D02*
X43500000Y-37100000D01*
X63800000Y-37100000D02*
X64000000Y-37100000D01*
X67300000Y-37100000D02*
X63800000Y-37100000D01*
X57200000Y-50850000D02*
X53750000Y-50850000D01*
X53750000Y-50850000D02*
X53750000Y-50850000D01*
X53800000Y-33150000D02*
X53350000Y-33600000D01*
X57200000Y-33150000D02*
X53800000Y-33150000D01*
%TO.N,Net-(J1-Pad3)*%
X65250000Y-44250000D02*
X71750000Y-44250000D01*
%TO.N,Net-(J1-Pad6)*%
X61750000Y-40250000D02*
X55250000Y-40250000D01*
X61750000Y-40250000D02*
X63400000Y-41900000D01*
X63400000Y-41900000D02*
X63400000Y-45900000D01*
X63400000Y-45900000D02*
X64050000Y-46550000D01*
X64050000Y-46550000D02*
X72900000Y-46550000D01*
X83735001Y-43404999D02*
X82560000Y-44580000D01*
X83735001Y-41286001D02*
X83735001Y-43404999D01*
X78585001Y-40864999D02*
X83313999Y-40864999D01*
X83313999Y-40864999D02*
X83735001Y-41286001D01*
X72900000Y-46550000D02*
X78585001Y-40864999D01*
%TO.N,Net-(J1-Pad4)*%
X61750000Y-48250000D02*
X71836410Y-48250000D01*
X78046410Y-42040000D02*
X82560000Y-42040000D01*
X71836410Y-48250000D02*
X78046410Y-42040000D01*
%TO.N,Net-(J1-Pad2)*%
X45250000Y-44250000D02*
X51750000Y-44250000D01*
%TO.N,Net-(JP1-Pad2)*%
X48600000Y-37814213D02*
X48600000Y-37100000D01*
X46664213Y-39750000D02*
X48600000Y-37814213D01*
X45250000Y-39750000D02*
X46664213Y-39750000D01*
X48600000Y-38014213D02*
X48600000Y-37100000D01*
X50335787Y-39750000D02*
X48600000Y-38014213D01*
X51750000Y-39750000D02*
X50335787Y-39750000D01*
%TO.N,Net-(JP2-Pad2)*%
X55250000Y-43750000D02*
X55250000Y-45750000D01*
X58500000Y-49000000D02*
X58500000Y-50850000D01*
X55250000Y-45750000D02*
X58500000Y-49000000D01*
X61750000Y-45750000D02*
X58500000Y-49000000D01*
X61750000Y-43750000D02*
X61750000Y-45750000D01*
%TO.N,Net-(JP3-Pad2)*%
X61750000Y-35750000D02*
X60100000Y-35750000D01*
X60100000Y-35750000D02*
X58500000Y-34150000D01*
X56750000Y-35750000D02*
X58500000Y-34000000D01*
X55250000Y-35750000D02*
X56750000Y-35750000D01*
X58500000Y-34150000D02*
X58500000Y-34000000D01*
X58500000Y-34000000D02*
X58500000Y-33150000D01*
%TO.N,Net-(JP4-Pad2)*%
X65250000Y-39750000D02*
X67050000Y-39750000D01*
X68500000Y-38300000D02*
X68500000Y-37100000D01*
X67050000Y-39750000D02*
X68500000Y-38300000D01*
X69950000Y-39750000D02*
X68500000Y-38300000D01*
X71750000Y-39750000D02*
X69950000Y-39750000D01*
%TD*%
D16*
%TO.N,VCC*%
X52859744Y-32682795D02*
X52690226Y-32796063D01*
X52546063Y-32940226D01*
X52432795Y-33109744D01*
X52354774Y-33298102D01*
X52315000Y-33498061D01*
X52315000Y-33701939D01*
X52354774Y-33901898D01*
X52432795Y-34090256D01*
X52546063Y-34259774D01*
X52690226Y-34403937D01*
X52859744Y-34517205D01*
X53048102Y-34595226D01*
X53248061Y-34635000D01*
X53451939Y-34635000D01*
X53651898Y-34595226D01*
X53840256Y-34517205D01*
X54009774Y-34403937D01*
X54153937Y-34259774D01*
X54267205Y-34090256D01*
X54341870Y-33910000D01*
X56062913Y-33910000D01*
X56074188Y-34024482D01*
X56110498Y-34144180D01*
X56169463Y-34254494D01*
X56248815Y-34351185D01*
X56345506Y-34430537D01*
X56455820Y-34489502D01*
X56575518Y-34525812D01*
X56700000Y-34538072D01*
X56887127Y-34538072D01*
X56599080Y-34826119D01*
X56519987Y-34707748D01*
X56292252Y-34480013D01*
X56024463Y-34301082D01*
X55726912Y-34177832D01*
X55411033Y-34115000D01*
X55088967Y-34115000D01*
X54773088Y-34177832D01*
X54475537Y-34301082D01*
X54207748Y-34480013D01*
X53980013Y-34707748D01*
X53801082Y-34975537D01*
X53677832Y-35273088D01*
X53615000Y-35588967D01*
X53615000Y-35911033D01*
X53677832Y-36226912D01*
X53801082Y-36524463D01*
X53980013Y-36792252D01*
X54207748Y-37019987D01*
X54475537Y-37198918D01*
X54773088Y-37322168D01*
X55088967Y-37385000D01*
X55411033Y-37385000D01*
X55726912Y-37322168D01*
X56024463Y-37198918D01*
X56292252Y-37019987D01*
X56519987Y-36792252D01*
X56698918Y-36524463D01*
X56704909Y-36510000D01*
X56712678Y-36510000D01*
X56750000Y-36513676D01*
X56787322Y-36510000D01*
X56787333Y-36510000D01*
X56898986Y-36499003D01*
X57042247Y-36455546D01*
X57174276Y-36384974D01*
X57290001Y-36290001D01*
X57313804Y-36260997D01*
X58425000Y-35149801D01*
X59536201Y-36261003D01*
X59559999Y-36290001D01*
X59675724Y-36384974D01*
X59807753Y-36455546D01*
X59951014Y-36499003D01*
X60062667Y-36510000D01*
X60062675Y-36510000D01*
X60100000Y-36513676D01*
X60137325Y-36510000D01*
X60295091Y-36510000D01*
X60301082Y-36524463D01*
X60480013Y-36792252D01*
X60707748Y-37019987D01*
X60975537Y-37198918D01*
X61273088Y-37322168D01*
X61588967Y-37385000D01*
X61911033Y-37385000D01*
X62226912Y-37322168D01*
X62524463Y-37198918D01*
X62792252Y-37019987D01*
X63002449Y-36809790D01*
X62965000Y-36998061D01*
X62965000Y-37201939D01*
X63004774Y-37401898D01*
X63082795Y-37590256D01*
X63196063Y-37759774D01*
X63340226Y-37903937D01*
X63509744Y-38017205D01*
X63698102Y-38095226D01*
X63898061Y-38135000D01*
X64101939Y-38135000D01*
X64301898Y-38095226D01*
X64490256Y-38017205D01*
X64659774Y-37903937D01*
X64703711Y-37860000D01*
X66062913Y-37860000D01*
X66074188Y-37974482D01*
X66110498Y-38094180D01*
X66169463Y-38204494D01*
X66248815Y-38301185D01*
X66345506Y-38380537D01*
X66455820Y-38439502D01*
X66575518Y-38475812D01*
X66700000Y-38488072D01*
X67237127Y-38488072D01*
X66735199Y-38990000D01*
X66704909Y-38990000D01*
X66698918Y-38975537D01*
X66519987Y-38707748D01*
X66292252Y-38480013D01*
X66024463Y-38301082D01*
X65726912Y-38177832D01*
X65411033Y-38115000D01*
X65088967Y-38115000D01*
X64773088Y-38177832D01*
X64475537Y-38301082D01*
X64207748Y-38480013D01*
X63980013Y-38707748D01*
X63801082Y-38975537D01*
X63677832Y-39273088D01*
X63615000Y-39588967D01*
X63615000Y-39911033D01*
X63677832Y-40226912D01*
X63801082Y-40524463D01*
X63980013Y-40792252D01*
X64207748Y-41019987D01*
X64475537Y-41198918D01*
X64773088Y-41322168D01*
X65088967Y-41385000D01*
X65411033Y-41385000D01*
X65726912Y-41322168D01*
X66024463Y-41198918D01*
X66292252Y-41019987D01*
X66519987Y-40792252D01*
X66698918Y-40524463D01*
X66704909Y-40510000D01*
X67012678Y-40510000D01*
X67050000Y-40513676D01*
X67087322Y-40510000D01*
X67087333Y-40510000D01*
X67198986Y-40499003D01*
X67342247Y-40455546D01*
X67474276Y-40384974D01*
X67590001Y-40290001D01*
X67613804Y-40260997D01*
X68500000Y-39374802D01*
X69386201Y-40261003D01*
X69409999Y-40290001D01*
X69525724Y-40384974D01*
X69657753Y-40455546D01*
X69801014Y-40499003D01*
X69912667Y-40510000D01*
X69912675Y-40510000D01*
X69950000Y-40513676D01*
X69987325Y-40510000D01*
X70295091Y-40510000D01*
X70301082Y-40524463D01*
X70480013Y-40792252D01*
X70707748Y-41019987D01*
X70975537Y-41198918D01*
X71273088Y-41322168D01*
X71588967Y-41385000D01*
X71911033Y-41385000D01*
X72226912Y-41322168D01*
X72524463Y-41198918D01*
X72792252Y-41019987D01*
X73019987Y-40792252D01*
X73198918Y-40524463D01*
X73322168Y-40226912D01*
X73385000Y-39911033D01*
X73385000Y-39588967D01*
X73322168Y-39273088D01*
X73198918Y-38975537D01*
X73019987Y-38707748D01*
X72792252Y-38480013D01*
X72524463Y-38301082D01*
X72226912Y-38177832D01*
X71911033Y-38115000D01*
X71588967Y-38115000D01*
X71273088Y-38177832D01*
X70975537Y-38301082D01*
X70707748Y-38480013D01*
X70480013Y-38707748D01*
X70301082Y-38975537D01*
X70295091Y-38990000D01*
X70264802Y-38990000D01*
X69637026Y-38362224D01*
X69673000Y-38326250D01*
X69673000Y-37227000D01*
X69927000Y-37227000D01*
X69927000Y-38326250D01*
X70085750Y-38485000D01*
X70300000Y-38488072D01*
X70424482Y-38475812D01*
X70544180Y-38439502D01*
X70654494Y-38380537D01*
X70751185Y-38301185D01*
X70830537Y-38204494D01*
X70889502Y-38094180D01*
X70925812Y-37974482D01*
X70938072Y-37850000D01*
X70935000Y-37385750D01*
X70776250Y-37227000D01*
X69927000Y-37227000D01*
X69673000Y-37227000D01*
X69653000Y-37227000D01*
X69653000Y-36973000D01*
X69673000Y-36973000D01*
X69673000Y-35873750D01*
X69927000Y-35873750D01*
X69927000Y-36973000D01*
X70776250Y-36973000D01*
X70935000Y-36814250D01*
X70935117Y-36796552D01*
X74262180Y-36796552D01*
X74262180Y-37236808D01*
X74348070Y-37668605D01*
X74516549Y-38075349D01*
X74761142Y-38441409D01*
X75072451Y-38752718D01*
X75438511Y-38997311D01*
X75845255Y-39165790D01*
X76277052Y-39251680D01*
X76717308Y-39251680D01*
X77149105Y-39165790D01*
X77555849Y-38997311D01*
X77921909Y-38752718D01*
X78233218Y-38441409D01*
X78477811Y-38075349D01*
X78646290Y-37668605D01*
X78732180Y-37236808D01*
X78732180Y-36998061D01*
X79015000Y-36998061D01*
X79015000Y-37201939D01*
X79054774Y-37401898D01*
X79132795Y-37590256D01*
X79246063Y-37759774D01*
X79390226Y-37903937D01*
X79559744Y-38017205D01*
X79748102Y-38095226D01*
X79948061Y-38135000D01*
X80151939Y-38135000D01*
X80351898Y-38095226D01*
X80540256Y-38017205D01*
X80709774Y-37903937D01*
X80775000Y-37838711D01*
X80840226Y-37903937D01*
X81009744Y-38017205D01*
X81198102Y-38095226D01*
X81398061Y-38135000D01*
X81601939Y-38135000D01*
X81801898Y-38095226D01*
X81990256Y-38017205D01*
X82159774Y-37903937D01*
X82303937Y-37759774D01*
X82417205Y-37590256D01*
X82495226Y-37401898D01*
X82535000Y-37201939D01*
X82535000Y-36998061D01*
X82495226Y-36798102D01*
X82417205Y-36609744D01*
X82303937Y-36440226D01*
X82159774Y-36296063D01*
X81990256Y-36182795D01*
X81801898Y-36104774D01*
X81601939Y-36065000D01*
X81398061Y-36065000D01*
X81198102Y-36104774D01*
X81009744Y-36182795D01*
X80840226Y-36296063D01*
X80775000Y-36361289D01*
X80709774Y-36296063D01*
X80540256Y-36182795D01*
X80351898Y-36104774D01*
X80151939Y-36065000D01*
X79948061Y-36065000D01*
X79748102Y-36104774D01*
X79559744Y-36182795D01*
X79390226Y-36296063D01*
X79246063Y-36440226D01*
X79132795Y-36609744D01*
X79054774Y-36798102D01*
X79015000Y-36998061D01*
X78732180Y-36998061D01*
X78732180Y-36796552D01*
X78646290Y-36364755D01*
X78477811Y-35958011D01*
X78233218Y-35591951D01*
X77921909Y-35280642D01*
X77555849Y-35036049D01*
X77149105Y-34867570D01*
X76717308Y-34781680D01*
X76277052Y-34781680D01*
X75845255Y-34867570D01*
X75438511Y-35036049D01*
X75072451Y-35280642D01*
X74761142Y-35591951D01*
X74516549Y-35958011D01*
X74348070Y-36364755D01*
X74262180Y-36796552D01*
X70935117Y-36796552D01*
X70938072Y-36350000D01*
X70925812Y-36225518D01*
X70889502Y-36105820D01*
X70830537Y-35995506D01*
X70751185Y-35898815D01*
X70654494Y-35819463D01*
X70544180Y-35760498D01*
X70424482Y-35724188D01*
X70300000Y-35711928D01*
X70085750Y-35715000D01*
X69927000Y-35873750D01*
X69673000Y-35873750D01*
X69514250Y-35715000D01*
X69300000Y-35711928D01*
X69175518Y-35724188D01*
X69150000Y-35731929D01*
X69124482Y-35724188D01*
X69000000Y-35711928D01*
X68000000Y-35711928D01*
X67875518Y-35724188D01*
X67850000Y-35731929D01*
X67824482Y-35724188D01*
X67700000Y-35711928D01*
X66700000Y-35711928D01*
X66575518Y-35724188D01*
X66455820Y-35760498D01*
X66345506Y-35819463D01*
X66248815Y-35898815D01*
X66169463Y-35995506D01*
X66110498Y-36105820D01*
X66074188Y-36225518D01*
X66062913Y-36340000D01*
X64703711Y-36340000D01*
X64659774Y-36296063D01*
X64490256Y-36182795D01*
X64301898Y-36104774D01*
X64101939Y-36065000D01*
X63898061Y-36065000D01*
X63698102Y-36104774D01*
X63509744Y-36182795D01*
X63340226Y-36296063D01*
X63260502Y-36375787D01*
X63322168Y-36226912D01*
X63385000Y-35911033D01*
X63385000Y-35588967D01*
X63322168Y-35273088D01*
X63198918Y-34975537D01*
X63019987Y-34707748D01*
X62792252Y-34480013D01*
X62524463Y-34301082D01*
X62226912Y-34177832D01*
X61911033Y-34115000D01*
X61588967Y-34115000D01*
X61273088Y-34177832D01*
X60975537Y-34301082D01*
X60707748Y-34480013D01*
X60480013Y-34707748D01*
X60340839Y-34916037D01*
X59927002Y-34502201D01*
X59927002Y-34376252D01*
X60085750Y-34535000D01*
X60300000Y-34538072D01*
X60424482Y-34525812D01*
X60544180Y-34489502D01*
X60654494Y-34430537D01*
X60751185Y-34351185D01*
X60830537Y-34254494D01*
X60889502Y-34144180D01*
X60925812Y-34024482D01*
X60938072Y-33900000D01*
X60935000Y-33435750D01*
X60776250Y-33277000D01*
X59927000Y-33277000D01*
X59927000Y-33297000D01*
X59673000Y-33297000D01*
X59673000Y-33277000D01*
X59653000Y-33277000D01*
X59653000Y-33023000D01*
X59673000Y-33023000D01*
X59673000Y-33003000D01*
X59927000Y-33003000D01*
X59927000Y-33023000D01*
X60776250Y-33023000D01*
X60935000Y-32864250D01*
X60936352Y-32660000D01*
X87840000Y-32660000D01*
X87840001Y-51340000D01*
X60936352Y-51340000D01*
X60935000Y-51135750D01*
X60776250Y-50977000D01*
X59927000Y-50977000D01*
X59927000Y-50997000D01*
X59673000Y-50997000D01*
X59673000Y-50977000D01*
X59653000Y-50977000D01*
X59653000Y-50723000D01*
X59673000Y-50723000D01*
X59673000Y-49623750D01*
X59927000Y-49623750D01*
X59927000Y-50723000D01*
X60776250Y-50723000D01*
X60935000Y-50564250D01*
X60938072Y-50100000D01*
X60925812Y-49975518D01*
X60889502Y-49855820D01*
X60830537Y-49745506D01*
X60751185Y-49648815D01*
X60654494Y-49569463D01*
X60544180Y-49510498D01*
X60424482Y-49474188D01*
X60300000Y-49461928D01*
X60085750Y-49465000D01*
X59927000Y-49623750D01*
X59673000Y-49623750D01*
X59514250Y-49465000D01*
X59300000Y-49461928D01*
X59260000Y-49465868D01*
X59260000Y-49314801D01*
X60123091Y-48451710D01*
X60177832Y-48726912D01*
X60301082Y-49024463D01*
X60480013Y-49292252D01*
X60707748Y-49519987D01*
X60975537Y-49698918D01*
X61273088Y-49822168D01*
X61588967Y-49885000D01*
X61911033Y-49885000D01*
X62226912Y-49822168D01*
X62524463Y-49698918D01*
X62792252Y-49519987D01*
X63019987Y-49292252D01*
X63198918Y-49024463D01*
X63204909Y-49010000D01*
X71799088Y-49010000D01*
X71836410Y-49013676D01*
X71873732Y-49010000D01*
X71873743Y-49010000D01*
X71985396Y-48999003D01*
X72128657Y-48955546D01*
X72260686Y-48884974D01*
X72376411Y-48790001D01*
X72400214Y-48760997D01*
X74262180Y-46899031D01*
X74262180Y-47236808D01*
X74348070Y-47668605D01*
X74516549Y-48075349D01*
X74761142Y-48441409D01*
X75072451Y-48752718D01*
X75438511Y-48997311D01*
X75845255Y-49165790D01*
X76277052Y-49251680D01*
X76717308Y-49251680D01*
X77149105Y-49165790D01*
X77555849Y-48997311D01*
X77921909Y-48752718D01*
X78233218Y-48441409D01*
X78477811Y-48075349D01*
X78646290Y-47668605D01*
X78732180Y-47236808D01*
X78732180Y-46796552D01*
X78646290Y-46364755D01*
X78477811Y-45958011D01*
X78233218Y-45591951D01*
X77921909Y-45280642D01*
X77555849Y-45036049D01*
X77149105Y-44867570D01*
X76717308Y-44781680D01*
X76379532Y-44781680D01*
X78361212Y-42800000D01*
X81281822Y-42800000D01*
X81406525Y-42986632D01*
X81613368Y-43193475D01*
X81787760Y-43310000D01*
X81613368Y-43426525D01*
X81406525Y-43633368D01*
X81244010Y-43876589D01*
X81132068Y-44146842D01*
X81075000Y-44433740D01*
X81075000Y-44726260D01*
X81132068Y-45013158D01*
X81244010Y-45283411D01*
X81406525Y-45526632D01*
X81613368Y-45733475D01*
X81856589Y-45895990D01*
X82126842Y-46007932D01*
X82413740Y-46065000D01*
X82706260Y-46065000D01*
X82993158Y-46007932D01*
X83263411Y-45895990D01*
X83506632Y-45733475D01*
X83713475Y-45526632D01*
X83830000Y-45352240D01*
X83946525Y-45526632D01*
X84153368Y-45733475D01*
X84396589Y-45895990D01*
X84666842Y-46007932D01*
X84953740Y-46065000D01*
X85246260Y-46065000D01*
X85533158Y-46007932D01*
X85803411Y-45895990D01*
X86046632Y-45733475D01*
X86253475Y-45526632D01*
X86415990Y-45283411D01*
X86527932Y-45013158D01*
X86585000Y-44726260D01*
X86585000Y-44433740D01*
X86527932Y-44146842D01*
X86415990Y-43876589D01*
X86253475Y-43633368D01*
X86046632Y-43426525D01*
X85872240Y-43310000D01*
X86046632Y-43193475D01*
X86253475Y-42986632D01*
X86415990Y-42743411D01*
X86527932Y-42473158D01*
X86585000Y-42186260D01*
X86585000Y-41893740D01*
X86527932Y-41606842D01*
X86415990Y-41336589D01*
X86253475Y-41093368D01*
X86121620Y-40961513D01*
X86194180Y-40939502D01*
X86304494Y-40880537D01*
X86401185Y-40801185D01*
X86480537Y-40704494D01*
X86539502Y-40594180D01*
X86575812Y-40474482D01*
X86588072Y-40350000D01*
X86585000Y-39785750D01*
X86426250Y-39627000D01*
X85227000Y-39627000D01*
X85227000Y-39647000D01*
X84973000Y-39647000D01*
X84973000Y-39627000D01*
X84953000Y-39627000D01*
X84953000Y-39373000D01*
X84973000Y-39373000D01*
X84973000Y-38173750D01*
X85227000Y-38173750D01*
X85227000Y-39373000D01*
X86426250Y-39373000D01*
X86585000Y-39214250D01*
X86588072Y-38650000D01*
X86575812Y-38525518D01*
X86539502Y-38405820D01*
X86480537Y-38295506D01*
X86401185Y-38198815D01*
X86304494Y-38119463D01*
X86194180Y-38060498D01*
X86074482Y-38024188D01*
X85950000Y-38011928D01*
X85385750Y-38015000D01*
X85227000Y-38173750D01*
X84973000Y-38173750D01*
X84814250Y-38015000D01*
X84250000Y-38011928D01*
X84125518Y-38024188D01*
X84005820Y-38060498D01*
X83895506Y-38119463D01*
X83798815Y-38198815D01*
X83719463Y-38295506D01*
X83660498Y-38405820D01*
X83638487Y-38478380D01*
X83506632Y-38346525D01*
X83263411Y-38184010D01*
X82993158Y-38072068D01*
X82706260Y-38015000D01*
X82413740Y-38015000D01*
X82126842Y-38072068D01*
X81856589Y-38184010D01*
X81613368Y-38346525D01*
X81406525Y-38553368D01*
X81244010Y-38796589D01*
X81132068Y-39066842D01*
X81075000Y-39353740D01*
X81075000Y-39646260D01*
X81132068Y-39933158D01*
X81203247Y-40104999D01*
X78622334Y-40104999D01*
X78585001Y-40101322D01*
X78547668Y-40104999D01*
X78436015Y-40115996D01*
X78292754Y-40159453D01*
X78160725Y-40230025D01*
X78045000Y-40324998D01*
X78021202Y-40353996D01*
X72585199Y-45790000D01*
X72304572Y-45790000D01*
X72524463Y-45698918D01*
X72792252Y-45519987D01*
X73019987Y-45292252D01*
X73198918Y-45024463D01*
X73322168Y-44726912D01*
X73385000Y-44411033D01*
X73385000Y-44088967D01*
X73322168Y-43773088D01*
X73198918Y-43475537D01*
X73019987Y-43207748D01*
X72792252Y-42980013D01*
X72524463Y-42801082D01*
X72226912Y-42677832D01*
X71911033Y-42615000D01*
X71588967Y-42615000D01*
X71273088Y-42677832D01*
X70975537Y-42801082D01*
X70707748Y-42980013D01*
X70480013Y-43207748D01*
X70301082Y-43475537D01*
X70295091Y-43490000D01*
X69548109Y-43490000D01*
X69660940Y-43414609D01*
X69914609Y-43160940D01*
X70113916Y-42862656D01*
X70251201Y-42531221D01*
X70321188Y-42179371D01*
X70321188Y-41820629D01*
X70251201Y-41468779D01*
X70113916Y-41137344D01*
X69914609Y-40839060D01*
X69660940Y-40585391D01*
X69362656Y-40386084D01*
X69031221Y-40248799D01*
X68679371Y-40178812D01*
X68320629Y-40178812D01*
X67968779Y-40248799D01*
X67637344Y-40386084D01*
X67339060Y-40585391D01*
X67085391Y-40839060D01*
X66886084Y-41137344D01*
X66748799Y-41468779D01*
X66678812Y-41820629D01*
X66678812Y-42179371D01*
X66748799Y-42531221D01*
X66886084Y-42862656D01*
X67085391Y-43160940D01*
X67339060Y-43414609D01*
X67451891Y-43490000D01*
X66704909Y-43490000D01*
X66698918Y-43475537D01*
X66519987Y-43207748D01*
X66292252Y-42980013D01*
X66024463Y-42801082D01*
X65726912Y-42677832D01*
X65411033Y-42615000D01*
X65088967Y-42615000D01*
X64773088Y-42677832D01*
X64475537Y-42801082D01*
X64207748Y-42980013D01*
X64160000Y-43027761D01*
X64160000Y-41937322D01*
X64163676Y-41899999D01*
X64160000Y-41862676D01*
X64160000Y-41862667D01*
X64149003Y-41751014D01*
X64105546Y-41607753D01*
X64034974Y-41475724D01*
X63976954Y-41405026D01*
X63963799Y-41388996D01*
X63963795Y-41388992D01*
X63940001Y-41359999D01*
X63911009Y-41336206D01*
X63316177Y-40741375D01*
X63322168Y-40726912D01*
X63385000Y-40411033D01*
X63385000Y-40088967D01*
X63322168Y-39773088D01*
X63198918Y-39475537D01*
X63019987Y-39207748D01*
X62792252Y-38980013D01*
X62524463Y-38801082D01*
X62226912Y-38677832D01*
X61911033Y-38615000D01*
X61588967Y-38615000D01*
X61273088Y-38677832D01*
X60975537Y-38801082D01*
X60707748Y-38980013D01*
X60480013Y-39207748D01*
X60301082Y-39475537D01*
X60295091Y-39490000D01*
X59548109Y-39490000D01*
X59660940Y-39414609D01*
X59914609Y-39160940D01*
X60113916Y-38862656D01*
X60251201Y-38531221D01*
X60321188Y-38179371D01*
X60321188Y-37820629D01*
X60251201Y-37468779D01*
X60113916Y-37137344D01*
X59914609Y-36839060D01*
X59660940Y-36585391D01*
X59362656Y-36386084D01*
X59031221Y-36248799D01*
X58679371Y-36178812D01*
X58320629Y-36178812D01*
X57968779Y-36248799D01*
X57637344Y-36386084D01*
X57339060Y-36585391D01*
X57085391Y-36839060D01*
X56886084Y-37137344D01*
X56748799Y-37468779D01*
X56678812Y-37820629D01*
X56678812Y-38179371D01*
X56748799Y-38531221D01*
X56886084Y-38862656D01*
X57085391Y-39160940D01*
X57339060Y-39414609D01*
X57451891Y-39490000D01*
X56704909Y-39490000D01*
X56698918Y-39475537D01*
X56519987Y-39207748D01*
X56292252Y-38980013D01*
X56024463Y-38801082D01*
X55726912Y-38677832D01*
X55411033Y-38615000D01*
X55088967Y-38615000D01*
X54773088Y-38677832D01*
X54475537Y-38801082D01*
X54207748Y-38980013D01*
X53980013Y-39207748D01*
X53801082Y-39475537D01*
X53677832Y-39773088D01*
X53615000Y-40088967D01*
X53615000Y-40411033D01*
X53677832Y-40726912D01*
X53801082Y-41024463D01*
X53980013Y-41292252D01*
X54207748Y-41519987D01*
X54475537Y-41698918D01*
X54773088Y-41822168D01*
X55088967Y-41885000D01*
X55411033Y-41885000D01*
X55726912Y-41822168D01*
X56024463Y-41698918D01*
X56292252Y-41519987D01*
X56519987Y-41292252D01*
X56698918Y-41024463D01*
X56704909Y-41010000D01*
X60295091Y-41010000D01*
X60301082Y-41024463D01*
X60480013Y-41292252D01*
X60707748Y-41519987D01*
X60975537Y-41698918D01*
X61273088Y-41822168D01*
X61588967Y-41885000D01*
X61911033Y-41885000D01*
X62226912Y-41822168D01*
X62241375Y-41816177D01*
X62640000Y-42214803D01*
X62640000Y-42378281D01*
X62524463Y-42301082D01*
X62226912Y-42177832D01*
X61911033Y-42115000D01*
X61588967Y-42115000D01*
X61273088Y-42177832D01*
X60975537Y-42301082D01*
X60707748Y-42480013D01*
X60480013Y-42707748D01*
X60301082Y-42975537D01*
X60177832Y-43273088D01*
X60115000Y-43588967D01*
X60115000Y-43911033D01*
X60177832Y-44226912D01*
X60301082Y-44524463D01*
X60480013Y-44792252D01*
X60707748Y-45019987D01*
X60975537Y-45198918D01*
X60990001Y-45204909D01*
X60990001Y-45435197D01*
X60321188Y-46104010D01*
X60321188Y-45820629D01*
X60251201Y-45468779D01*
X60113916Y-45137344D01*
X59914609Y-44839060D01*
X59660940Y-44585391D01*
X59362656Y-44386084D01*
X59031221Y-44248799D01*
X58679371Y-44178812D01*
X58320629Y-44178812D01*
X57968779Y-44248799D01*
X57637344Y-44386084D01*
X57339060Y-44585391D01*
X57085391Y-44839060D01*
X56886084Y-45137344D01*
X56748799Y-45468779D01*
X56678812Y-45820629D01*
X56678812Y-46104011D01*
X56010000Y-45435199D01*
X56010000Y-45204909D01*
X56024463Y-45198918D01*
X56292252Y-45019987D01*
X56519987Y-44792252D01*
X56698918Y-44524463D01*
X56822168Y-44226912D01*
X56885000Y-43911033D01*
X56885000Y-43588967D01*
X56822168Y-43273088D01*
X56698918Y-42975537D01*
X56519987Y-42707748D01*
X56292252Y-42480013D01*
X56024463Y-42301082D01*
X55726912Y-42177832D01*
X55411033Y-42115000D01*
X55088967Y-42115000D01*
X54773088Y-42177832D01*
X54475537Y-42301082D01*
X54207748Y-42480013D01*
X53980013Y-42707748D01*
X53801082Y-42975537D01*
X53677832Y-43273088D01*
X53615000Y-43588967D01*
X53615000Y-43911033D01*
X53677832Y-44226912D01*
X53801082Y-44524463D01*
X53980013Y-44792252D01*
X54207748Y-45019987D01*
X54475537Y-45198918D01*
X54490001Y-45204909D01*
X54490001Y-45712668D01*
X54486324Y-45750000D01*
X54490001Y-45787333D01*
X54500998Y-45898986D01*
X54501306Y-45900000D01*
X54544454Y-46042246D01*
X54615026Y-46174276D01*
X54686201Y-46261002D01*
X54710000Y-46290001D01*
X54738998Y-46313799D01*
X55048290Y-46623091D01*
X54773088Y-46677832D01*
X54475537Y-46801082D01*
X54207748Y-46980013D01*
X53980013Y-47207748D01*
X53801082Y-47475537D01*
X53677832Y-47773088D01*
X53615000Y-48088967D01*
X53615000Y-48411033D01*
X53677832Y-48726912D01*
X53801082Y-49024463D01*
X53980013Y-49292252D01*
X54207748Y-49519987D01*
X54475537Y-49698918D01*
X54773088Y-49822168D01*
X55088967Y-49885000D01*
X55411033Y-49885000D01*
X55726912Y-49822168D01*
X56024463Y-49698918D01*
X56292252Y-49519987D01*
X56519987Y-49292252D01*
X56698918Y-49024463D01*
X56822168Y-48726912D01*
X56876909Y-48451710D01*
X57740000Y-49314802D01*
X57740000Y-49465868D01*
X57700000Y-49461928D01*
X56700000Y-49461928D01*
X56575518Y-49474188D01*
X56455820Y-49510498D01*
X56345506Y-49569463D01*
X56248815Y-49648815D01*
X56169463Y-49745506D01*
X56110498Y-49855820D01*
X56074188Y-49975518D01*
X56062913Y-50090000D01*
X54453711Y-50090000D01*
X54409774Y-50046063D01*
X54240256Y-49932795D01*
X54051898Y-49854774D01*
X53851939Y-49815000D01*
X53648061Y-49815000D01*
X53448102Y-49854774D01*
X53259744Y-49932795D01*
X53090226Y-50046063D01*
X52946063Y-50190226D01*
X52832795Y-50359744D01*
X52754774Y-50548102D01*
X52715000Y-50748061D01*
X52715000Y-50951939D01*
X52754774Y-51151898D01*
X52832689Y-51340000D01*
X37160000Y-51340000D01*
X37160000Y-46796552D01*
X38270380Y-46796552D01*
X38270380Y-47236808D01*
X38356270Y-47668605D01*
X38524749Y-48075349D01*
X38769342Y-48441409D01*
X39080651Y-48752718D01*
X39446711Y-48997311D01*
X39853455Y-49165790D01*
X40285252Y-49251680D01*
X40725508Y-49251680D01*
X41157305Y-49165790D01*
X41564049Y-48997311D01*
X41930109Y-48752718D01*
X42241418Y-48441409D01*
X42486011Y-48075349D01*
X42654490Y-47668605D01*
X42740380Y-47236808D01*
X42740380Y-46796552D01*
X42654490Y-46364755D01*
X42486011Y-45958011D01*
X42241418Y-45591951D01*
X41930109Y-45280642D01*
X41564049Y-45036049D01*
X41157305Y-44867570D01*
X40725508Y-44781680D01*
X40285252Y-44781680D01*
X39853455Y-44867570D01*
X39446711Y-45036049D01*
X39080651Y-45280642D01*
X38769342Y-45591951D01*
X38524749Y-45958011D01*
X38356270Y-46364755D01*
X38270380Y-46796552D01*
X37160000Y-46796552D01*
X37160000Y-44088967D01*
X43615000Y-44088967D01*
X43615000Y-44411033D01*
X43677832Y-44726912D01*
X43801082Y-45024463D01*
X43980013Y-45292252D01*
X44207748Y-45519987D01*
X44475537Y-45698918D01*
X44773088Y-45822168D01*
X45088967Y-45885000D01*
X45411033Y-45885000D01*
X45726912Y-45822168D01*
X46024463Y-45698918D01*
X46292252Y-45519987D01*
X46519987Y-45292252D01*
X46698918Y-45024463D01*
X46704909Y-45010000D01*
X50295091Y-45010000D01*
X50301082Y-45024463D01*
X50480013Y-45292252D01*
X50707748Y-45519987D01*
X50975537Y-45698918D01*
X51273088Y-45822168D01*
X51588967Y-45885000D01*
X51911033Y-45885000D01*
X52226912Y-45822168D01*
X52524463Y-45698918D01*
X52792252Y-45519987D01*
X53019987Y-45292252D01*
X53198918Y-45024463D01*
X53322168Y-44726912D01*
X53385000Y-44411033D01*
X53385000Y-44088967D01*
X53322168Y-43773088D01*
X53198918Y-43475537D01*
X53019987Y-43207748D01*
X52792252Y-42980013D01*
X52524463Y-42801082D01*
X52226912Y-42677832D01*
X51911033Y-42615000D01*
X51588967Y-42615000D01*
X51273088Y-42677832D01*
X50975537Y-42801082D01*
X50707748Y-42980013D01*
X50480013Y-43207748D01*
X50301082Y-43475537D01*
X50295091Y-43490000D01*
X49548109Y-43490000D01*
X49660940Y-43414609D01*
X49914609Y-43160940D01*
X50113916Y-42862656D01*
X50251201Y-42531221D01*
X50321188Y-42179371D01*
X50321188Y-41820629D01*
X50251201Y-41468779D01*
X50113916Y-41137344D01*
X49914609Y-40839060D01*
X49660940Y-40585391D01*
X49362656Y-40386084D01*
X49031221Y-40248799D01*
X48679371Y-40178812D01*
X48320629Y-40178812D01*
X47968779Y-40248799D01*
X47637344Y-40386084D01*
X47339060Y-40585391D01*
X47085391Y-40839060D01*
X46886084Y-41137344D01*
X46748799Y-41468779D01*
X46678812Y-41820629D01*
X46678812Y-42179371D01*
X46748799Y-42531221D01*
X46886084Y-42862656D01*
X47085391Y-43160940D01*
X47339060Y-43414609D01*
X47451891Y-43490000D01*
X46704909Y-43490000D01*
X46698918Y-43475537D01*
X46519987Y-43207748D01*
X46292252Y-42980013D01*
X46024463Y-42801082D01*
X45726912Y-42677832D01*
X45411033Y-42615000D01*
X45088967Y-42615000D01*
X44773088Y-42677832D01*
X44475537Y-42801082D01*
X44207748Y-42980013D01*
X43980013Y-43207748D01*
X43801082Y-43475537D01*
X43677832Y-43773088D01*
X43615000Y-44088967D01*
X37160000Y-44088967D01*
X37160000Y-36796552D01*
X38270380Y-36796552D01*
X38270380Y-37236808D01*
X38356270Y-37668605D01*
X38524749Y-38075349D01*
X38769342Y-38441409D01*
X39080651Y-38752718D01*
X39446711Y-38997311D01*
X39853455Y-39165790D01*
X40285252Y-39251680D01*
X40725508Y-39251680D01*
X41157305Y-39165790D01*
X41564049Y-38997311D01*
X41930109Y-38752718D01*
X42241418Y-38441409D01*
X42486011Y-38075349D01*
X42647087Y-37686477D01*
X42696063Y-37759774D01*
X42840226Y-37903937D01*
X43009744Y-38017205D01*
X43198102Y-38095226D01*
X43398061Y-38135000D01*
X43601939Y-38135000D01*
X43801898Y-38095226D01*
X43990256Y-38017205D01*
X44159774Y-37903937D01*
X44203711Y-37860000D01*
X46162913Y-37860000D01*
X46174188Y-37974482D01*
X46210498Y-38094180D01*
X46269463Y-38204494D01*
X46348815Y-38301185D01*
X46445506Y-38380537D01*
X46555820Y-38439502D01*
X46675518Y-38475812D01*
X46800000Y-38488072D01*
X46851340Y-38488072D01*
X46564718Y-38774693D01*
X46519987Y-38707748D01*
X46292252Y-38480013D01*
X46024463Y-38301082D01*
X45726912Y-38177832D01*
X45411033Y-38115000D01*
X45088967Y-38115000D01*
X44773088Y-38177832D01*
X44475537Y-38301082D01*
X44207748Y-38480013D01*
X43980013Y-38707748D01*
X43801082Y-38975537D01*
X43677832Y-39273088D01*
X43615000Y-39588967D01*
X43615000Y-39911033D01*
X43677832Y-40226912D01*
X43801082Y-40524463D01*
X43980013Y-40792252D01*
X44207748Y-41019987D01*
X44475537Y-41198918D01*
X44773088Y-41322168D01*
X45088967Y-41385000D01*
X45411033Y-41385000D01*
X45726912Y-41322168D01*
X46024463Y-41198918D01*
X46292252Y-41019987D01*
X46519987Y-40792252D01*
X46698918Y-40524463D01*
X46705052Y-40509655D01*
X46813199Y-40499003D01*
X46956460Y-40455546D01*
X47088489Y-40384974D01*
X47204214Y-40290001D01*
X47228017Y-40260997D01*
X48500000Y-38989014D01*
X49771988Y-40261003D01*
X49795786Y-40290001D01*
X49824784Y-40313799D01*
X49911511Y-40384974D01*
X50043540Y-40455546D01*
X50186801Y-40499003D01*
X50294948Y-40509655D01*
X50301082Y-40524463D01*
X50480013Y-40792252D01*
X50707748Y-41019987D01*
X50975537Y-41198918D01*
X51273088Y-41322168D01*
X51588967Y-41385000D01*
X51911033Y-41385000D01*
X52226912Y-41322168D01*
X52524463Y-41198918D01*
X52792252Y-41019987D01*
X53019987Y-40792252D01*
X53198918Y-40524463D01*
X53322168Y-40226912D01*
X53385000Y-39911033D01*
X53385000Y-39588967D01*
X53322168Y-39273088D01*
X53198918Y-38975537D01*
X53019987Y-38707748D01*
X52792252Y-38480013D01*
X52524463Y-38301082D01*
X52226912Y-38177832D01*
X51911033Y-38115000D01*
X51588967Y-38115000D01*
X51273088Y-38177832D01*
X50975537Y-38301082D01*
X50707748Y-38480013D01*
X50480013Y-38707748D01*
X50435282Y-38774693D01*
X50027002Y-38366414D01*
X50027002Y-38326252D01*
X50185750Y-38485000D01*
X50400000Y-38488072D01*
X50524482Y-38475812D01*
X50644180Y-38439502D01*
X50754494Y-38380537D01*
X50851185Y-38301185D01*
X50930537Y-38204494D01*
X50989502Y-38094180D01*
X51025812Y-37974482D01*
X51038072Y-37850000D01*
X51035000Y-37385750D01*
X50876250Y-37227000D01*
X50027000Y-37227000D01*
X50027000Y-37247000D01*
X49773000Y-37247000D01*
X49773000Y-37227000D01*
X49753000Y-37227000D01*
X49753000Y-36973000D01*
X49773000Y-36973000D01*
X49773000Y-35873750D01*
X50027000Y-35873750D01*
X50027000Y-36973000D01*
X50876250Y-36973000D01*
X51035000Y-36814250D01*
X51038072Y-36350000D01*
X51025812Y-36225518D01*
X50989502Y-36105820D01*
X50930537Y-35995506D01*
X50851185Y-35898815D01*
X50754494Y-35819463D01*
X50644180Y-35760498D01*
X50524482Y-35724188D01*
X50400000Y-35711928D01*
X50185750Y-35715000D01*
X50027000Y-35873750D01*
X49773000Y-35873750D01*
X49614250Y-35715000D01*
X49400000Y-35711928D01*
X49275518Y-35724188D01*
X49250000Y-35731929D01*
X49224482Y-35724188D01*
X49100000Y-35711928D01*
X48100000Y-35711928D01*
X47975518Y-35724188D01*
X47950000Y-35731929D01*
X47924482Y-35724188D01*
X47800000Y-35711928D01*
X46800000Y-35711928D01*
X46675518Y-35724188D01*
X46555820Y-35760498D01*
X46445506Y-35819463D01*
X46348815Y-35898815D01*
X46269463Y-35995506D01*
X46210498Y-36105820D01*
X46174188Y-36225518D01*
X46162913Y-36340000D01*
X44203711Y-36340000D01*
X44159774Y-36296063D01*
X43990256Y-36182795D01*
X43801898Y-36104774D01*
X43601939Y-36065000D01*
X43398061Y-36065000D01*
X43198102Y-36104774D01*
X43009744Y-36182795D01*
X42840226Y-36296063D01*
X42696063Y-36440226D01*
X42675595Y-36470858D01*
X42654490Y-36364755D01*
X42486011Y-35958011D01*
X42241418Y-35591951D01*
X41930109Y-35280642D01*
X41564049Y-35036049D01*
X41157305Y-34867570D01*
X40725508Y-34781680D01*
X40285252Y-34781680D01*
X39853455Y-34867570D01*
X39446711Y-35036049D01*
X39080651Y-35280642D01*
X38769342Y-35591951D01*
X38524749Y-35958011D01*
X38356270Y-36364755D01*
X38270380Y-36796552D01*
X37160000Y-36796552D01*
X37160000Y-32667275D01*
X37160666Y-32660487D01*
X37165301Y-32660000D01*
X52914776Y-32660000D01*
X52859744Y-32682795D01*
%TA.AperFunction,Conductor*%
D17*
G36*
X52859744Y-32682795D02*
G01*
X52690226Y-32796063D01*
X52546063Y-32940226D01*
X52432795Y-33109744D01*
X52354774Y-33298102D01*
X52315000Y-33498061D01*
X52315000Y-33701939D01*
X52354774Y-33901898D01*
X52432795Y-34090256D01*
X52546063Y-34259774D01*
X52690226Y-34403937D01*
X52859744Y-34517205D01*
X53048102Y-34595226D01*
X53248061Y-34635000D01*
X53451939Y-34635000D01*
X53651898Y-34595226D01*
X53840256Y-34517205D01*
X54009774Y-34403937D01*
X54153937Y-34259774D01*
X54267205Y-34090256D01*
X54341870Y-33910000D01*
X56062913Y-33910000D01*
X56074188Y-34024482D01*
X56110498Y-34144180D01*
X56169463Y-34254494D01*
X56248815Y-34351185D01*
X56345506Y-34430537D01*
X56455820Y-34489502D01*
X56575518Y-34525812D01*
X56700000Y-34538072D01*
X56887127Y-34538072D01*
X56599080Y-34826119D01*
X56519987Y-34707748D01*
X56292252Y-34480013D01*
X56024463Y-34301082D01*
X55726912Y-34177832D01*
X55411033Y-34115000D01*
X55088967Y-34115000D01*
X54773088Y-34177832D01*
X54475537Y-34301082D01*
X54207748Y-34480013D01*
X53980013Y-34707748D01*
X53801082Y-34975537D01*
X53677832Y-35273088D01*
X53615000Y-35588967D01*
X53615000Y-35911033D01*
X53677832Y-36226912D01*
X53801082Y-36524463D01*
X53980013Y-36792252D01*
X54207748Y-37019987D01*
X54475537Y-37198918D01*
X54773088Y-37322168D01*
X55088967Y-37385000D01*
X55411033Y-37385000D01*
X55726912Y-37322168D01*
X56024463Y-37198918D01*
X56292252Y-37019987D01*
X56519987Y-36792252D01*
X56698918Y-36524463D01*
X56704909Y-36510000D01*
X56712678Y-36510000D01*
X56750000Y-36513676D01*
X56787322Y-36510000D01*
X56787333Y-36510000D01*
X56898986Y-36499003D01*
X57042247Y-36455546D01*
X57174276Y-36384974D01*
X57290001Y-36290001D01*
X57313804Y-36260997D01*
X58425000Y-35149801D01*
X59536201Y-36261003D01*
X59559999Y-36290001D01*
X59675724Y-36384974D01*
X59807753Y-36455546D01*
X59951014Y-36499003D01*
X60062667Y-36510000D01*
X60062675Y-36510000D01*
X60100000Y-36513676D01*
X60137325Y-36510000D01*
X60295091Y-36510000D01*
X60301082Y-36524463D01*
X60480013Y-36792252D01*
X60707748Y-37019987D01*
X60975537Y-37198918D01*
X61273088Y-37322168D01*
X61588967Y-37385000D01*
X61911033Y-37385000D01*
X62226912Y-37322168D01*
X62524463Y-37198918D01*
X62792252Y-37019987D01*
X63002449Y-36809790D01*
X62965000Y-36998061D01*
X62965000Y-37201939D01*
X63004774Y-37401898D01*
X63082795Y-37590256D01*
X63196063Y-37759774D01*
X63340226Y-37903937D01*
X63509744Y-38017205D01*
X63698102Y-38095226D01*
X63898061Y-38135000D01*
X64101939Y-38135000D01*
X64301898Y-38095226D01*
X64490256Y-38017205D01*
X64659774Y-37903937D01*
X64703711Y-37860000D01*
X66062913Y-37860000D01*
X66074188Y-37974482D01*
X66110498Y-38094180D01*
X66169463Y-38204494D01*
X66248815Y-38301185D01*
X66345506Y-38380537D01*
X66455820Y-38439502D01*
X66575518Y-38475812D01*
X66700000Y-38488072D01*
X67237127Y-38488072D01*
X66735199Y-38990000D01*
X66704909Y-38990000D01*
X66698918Y-38975537D01*
X66519987Y-38707748D01*
X66292252Y-38480013D01*
X66024463Y-38301082D01*
X65726912Y-38177832D01*
X65411033Y-38115000D01*
X65088967Y-38115000D01*
X64773088Y-38177832D01*
X64475537Y-38301082D01*
X64207748Y-38480013D01*
X63980013Y-38707748D01*
X63801082Y-38975537D01*
X63677832Y-39273088D01*
X63615000Y-39588967D01*
X63615000Y-39911033D01*
X63677832Y-40226912D01*
X63801082Y-40524463D01*
X63980013Y-40792252D01*
X64207748Y-41019987D01*
X64475537Y-41198918D01*
X64773088Y-41322168D01*
X65088967Y-41385000D01*
X65411033Y-41385000D01*
X65726912Y-41322168D01*
X66024463Y-41198918D01*
X66292252Y-41019987D01*
X66519987Y-40792252D01*
X66698918Y-40524463D01*
X66704909Y-40510000D01*
X67012678Y-40510000D01*
X67050000Y-40513676D01*
X67087322Y-40510000D01*
X67087333Y-40510000D01*
X67198986Y-40499003D01*
X67342247Y-40455546D01*
X67474276Y-40384974D01*
X67590001Y-40290001D01*
X67613804Y-40260997D01*
X68500000Y-39374802D01*
X69386201Y-40261003D01*
X69409999Y-40290001D01*
X69525724Y-40384974D01*
X69657753Y-40455546D01*
X69801014Y-40499003D01*
X69912667Y-40510000D01*
X69912675Y-40510000D01*
X69950000Y-40513676D01*
X69987325Y-40510000D01*
X70295091Y-40510000D01*
X70301082Y-40524463D01*
X70480013Y-40792252D01*
X70707748Y-41019987D01*
X70975537Y-41198918D01*
X71273088Y-41322168D01*
X71588967Y-41385000D01*
X71911033Y-41385000D01*
X72226912Y-41322168D01*
X72524463Y-41198918D01*
X72792252Y-41019987D01*
X73019987Y-40792252D01*
X73198918Y-40524463D01*
X73322168Y-40226912D01*
X73385000Y-39911033D01*
X73385000Y-39588967D01*
X73322168Y-39273088D01*
X73198918Y-38975537D01*
X73019987Y-38707748D01*
X72792252Y-38480013D01*
X72524463Y-38301082D01*
X72226912Y-38177832D01*
X71911033Y-38115000D01*
X71588967Y-38115000D01*
X71273088Y-38177832D01*
X70975537Y-38301082D01*
X70707748Y-38480013D01*
X70480013Y-38707748D01*
X70301082Y-38975537D01*
X70295091Y-38990000D01*
X70264802Y-38990000D01*
X69637026Y-38362224D01*
X69673000Y-38326250D01*
X69673000Y-37227000D01*
X69927000Y-37227000D01*
X69927000Y-38326250D01*
X70085750Y-38485000D01*
X70300000Y-38488072D01*
X70424482Y-38475812D01*
X70544180Y-38439502D01*
X70654494Y-38380537D01*
X70751185Y-38301185D01*
X70830537Y-38204494D01*
X70889502Y-38094180D01*
X70925812Y-37974482D01*
X70938072Y-37850000D01*
X70935000Y-37385750D01*
X70776250Y-37227000D01*
X69927000Y-37227000D01*
X69673000Y-37227000D01*
X69653000Y-37227000D01*
X69653000Y-36973000D01*
X69673000Y-36973000D01*
X69673000Y-35873750D01*
X69927000Y-35873750D01*
X69927000Y-36973000D01*
X70776250Y-36973000D01*
X70935000Y-36814250D01*
X70935117Y-36796552D01*
X74262180Y-36796552D01*
X74262180Y-37236808D01*
X74348070Y-37668605D01*
X74516549Y-38075349D01*
X74761142Y-38441409D01*
X75072451Y-38752718D01*
X75438511Y-38997311D01*
X75845255Y-39165790D01*
X76277052Y-39251680D01*
X76717308Y-39251680D01*
X77149105Y-39165790D01*
X77555849Y-38997311D01*
X77921909Y-38752718D01*
X78233218Y-38441409D01*
X78477811Y-38075349D01*
X78646290Y-37668605D01*
X78732180Y-37236808D01*
X78732180Y-36998061D01*
X79015000Y-36998061D01*
X79015000Y-37201939D01*
X79054774Y-37401898D01*
X79132795Y-37590256D01*
X79246063Y-37759774D01*
X79390226Y-37903937D01*
X79559744Y-38017205D01*
X79748102Y-38095226D01*
X79948061Y-38135000D01*
X80151939Y-38135000D01*
X80351898Y-38095226D01*
X80540256Y-38017205D01*
X80709774Y-37903937D01*
X80775000Y-37838711D01*
X80840226Y-37903937D01*
X81009744Y-38017205D01*
X81198102Y-38095226D01*
X81398061Y-38135000D01*
X81601939Y-38135000D01*
X81801898Y-38095226D01*
X81990256Y-38017205D01*
X82159774Y-37903937D01*
X82303937Y-37759774D01*
X82417205Y-37590256D01*
X82495226Y-37401898D01*
X82535000Y-37201939D01*
X82535000Y-36998061D01*
X82495226Y-36798102D01*
X82417205Y-36609744D01*
X82303937Y-36440226D01*
X82159774Y-36296063D01*
X81990256Y-36182795D01*
X81801898Y-36104774D01*
X81601939Y-36065000D01*
X81398061Y-36065000D01*
X81198102Y-36104774D01*
X81009744Y-36182795D01*
X80840226Y-36296063D01*
X80775000Y-36361289D01*
X80709774Y-36296063D01*
X80540256Y-36182795D01*
X80351898Y-36104774D01*
X80151939Y-36065000D01*
X79948061Y-36065000D01*
X79748102Y-36104774D01*
X79559744Y-36182795D01*
X79390226Y-36296063D01*
X79246063Y-36440226D01*
X79132795Y-36609744D01*
X79054774Y-36798102D01*
X79015000Y-36998061D01*
X78732180Y-36998061D01*
X78732180Y-36796552D01*
X78646290Y-36364755D01*
X78477811Y-35958011D01*
X78233218Y-35591951D01*
X77921909Y-35280642D01*
X77555849Y-35036049D01*
X77149105Y-34867570D01*
X76717308Y-34781680D01*
X76277052Y-34781680D01*
X75845255Y-34867570D01*
X75438511Y-35036049D01*
X75072451Y-35280642D01*
X74761142Y-35591951D01*
X74516549Y-35958011D01*
X74348070Y-36364755D01*
X74262180Y-36796552D01*
X70935117Y-36796552D01*
X70938072Y-36350000D01*
X70925812Y-36225518D01*
X70889502Y-36105820D01*
X70830537Y-35995506D01*
X70751185Y-35898815D01*
X70654494Y-35819463D01*
X70544180Y-35760498D01*
X70424482Y-35724188D01*
X70300000Y-35711928D01*
X70085750Y-35715000D01*
X69927000Y-35873750D01*
X69673000Y-35873750D01*
X69514250Y-35715000D01*
X69300000Y-35711928D01*
X69175518Y-35724188D01*
X69150000Y-35731929D01*
X69124482Y-35724188D01*
X69000000Y-35711928D01*
X68000000Y-35711928D01*
X67875518Y-35724188D01*
X67850000Y-35731929D01*
X67824482Y-35724188D01*
X67700000Y-35711928D01*
X66700000Y-35711928D01*
X66575518Y-35724188D01*
X66455820Y-35760498D01*
X66345506Y-35819463D01*
X66248815Y-35898815D01*
X66169463Y-35995506D01*
X66110498Y-36105820D01*
X66074188Y-36225518D01*
X66062913Y-36340000D01*
X64703711Y-36340000D01*
X64659774Y-36296063D01*
X64490256Y-36182795D01*
X64301898Y-36104774D01*
X64101939Y-36065000D01*
X63898061Y-36065000D01*
X63698102Y-36104774D01*
X63509744Y-36182795D01*
X63340226Y-36296063D01*
X63260502Y-36375787D01*
X63322168Y-36226912D01*
X63385000Y-35911033D01*
X63385000Y-35588967D01*
X63322168Y-35273088D01*
X63198918Y-34975537D01*
X63019987Y-34707748D01*
X62792252Y-34480013D01*
X62524463Y-34301082D01*
X62226912Y-34177832D01*
X61911033Y-34115000D01*
X61588967Y-34115000D01*
X61273088Y-34177832D01*
X60975537Y-34301082D01*
X60707748Y-34480013D01*
X60480013Y-34707748D01*
X60340839Y-34916037D01*
X59927002Y-34502201D01*
X59927002Y-34376252D01*
X60085750Y-34535000D01*
X60300000Y-34538072D01*
X60424482Y-34525812D01*
X60544180Y-34489502D01*
X60654494Y-34430537D01*
X60751185Y-34351185D01*
X60830537Y-34254494D01*
X60889502Y-34144180D01*
X60925812Y-34024482D01*
X60938072Y-33900000D01*
X60935000Y-33435750D01*
X60776250Y-33277000D01*
X59927000Y-33277000D01*
X59927000Y-33297000D01*
X59673000Y-33297000D01*
X59673000Y-33277000D01*
X59653000Y-33277000D01*
X59653000Y-33023000D01*
X59673000Y-33023000D01*
X59673000Y-33003000D01*
X59927000Y-33003000D01*
X59927000Y-33023000D01*
X60776250Y-33023000D01*
X60935000Y-32864250D01*
X60936352Y-32660000D01*
X87840000Y-32660000D01*
X87840001Y-51340000D01*
X60936352Y-51340000D01*
X60935000Y-51135750D01*
X60776250Y-50977000D01*
X59927000Y-50977000D01*
X59927000Y-50997000D01*
X59673000Y-50997000D01*
X59673000Y-50977000D01*
X59653000Y-50977000D01*
X59653000Y-50723000D01*
X59673000Y-50723000D01*
X59673000Y-49623750D01*
X59927000Y-49623750D01*
X59927000Y-50723000D01*
X60776250Y-50723000D01*
X60935000Y-50564250D01*
X60938072Y-50100000D01*
X60925812Y-49975518D01*
X60889502Y-49855820D01*
X60830537Y-49745506D01*
X60751185Y-49648815D01*
X60654494Y-49569463D01*
X60544180Y-49510498D01*
X60424482Y-49474188D01*
X60300000Y-49461928D01*
X60085750Y-49465000D01*
X59927000Y-49623750D01*
X59673000Y-49623750D01*
X59514250Y-49465000D01*
X59300000Y-49461928D01*
X59260000Y-49465868D01*
X59260000Y-49314801D01*
X60123091Y-48451710D01*
X60177832Y-48726912D01*
X60301082Y-49024463D01*
X60480013Y-49292252D01*
X60707748Y-49519987D01*
X60975537Y-49698918D01*
X61273088Y-49822168D01*
X61588967Y-49885000D01*
X61911033Y-49885000D01*
X62226912Y-49822168D01*
X62524463Y-49698918D01*
X62792252Y-49519987D01*
X63019987Y-49292252D01*
X63198918Y-49024463D01*
X63204909Y-49010000D01*
X71799088Y-49010000D01*
X71836410Y-49013676D01*
X71873732Y-49010000D01*
X71873743Y-49010000D01*
X71985396Y-48999003D01*
X72128657Y-48955546D01*
X72260686Y-48884974D01*
X72376411Y-48790001D01*
X72400214Y-48760997D01*
X74262180Y-46899031D01*
X74262180Y-47236808D01*
X74348070Y-47668605D01*
X74516549Y-48075349D01*
X74761142Y-48441409D01*
X75072451Y-48752718D01*
X75438511Y-48997311D01*
X75845255Y-49165790D01*
X76277052Y-49251680D01*
X76717308Y-49251680D01*
X77149105Y-49165790D01*
X77555849Y-48997311D01*
X77921909Y-48752718D01*
X78233218Y-48441409D01*
X78477811Y-48075349D01*
X78646290Y-47668605D01*
X78732180Y-47236808D01*
X78732180Y-46796552D01*
X78646290Y-46364755D01*
X78477811Y-45958011D01*
X78233218Y-45591951D01*
X77921909Y-45280642D01*
X77555849Y-45036049D01*
X77149105Y-44867570D01*
X76717308Y-44781680D01*
X76379532Y-44781680D01*
X78361212Y-42800000D01*
X81281822Y-42800000D01*
X81406525Y-42986632D01*
X81613368Y-43193475D01*
X81787760Y-43310000D01*
X81613368Y-43426525D01*
X81406525Y-43633368D01*
X81244010Y-43876589D01*
X81132068Y-44146842D01*
X81075000Y-44433740D01*
X81075000Y-44726260D01*
X81132068Y-45013158D01*
X81244010Y-45283411D01*
X81406525Y-45526632D01*
X81613368Y-45733475D01*
X81856589Y-45895990D01*
X82126842Y-46007932D01*
X82413740Y-46065000D01*
X82706260Y-46065000D01*
X82993158Y-46007932D01*
X83263411Y-45895990D01*
X83506632Y-45733475D01*
X83713475Y-45526632D01*
X83830000Y-45352240D01*
X83946525Y-45526632D01*
X84153368Y-45733475D01*
X84396589Y-45895990D01*
X84666842Y-46007932D01*
X84953740Y-46065000D01*
X85246260Y-46065000D01*
X85533158Y-46007932D01*
X85803411Y-45895990D01*
X86046632Y-45733475D01*
X86253475Y-45526632D01*
X86415990Y-45283411D01*
X86527932Y-45013158D01*
X86585000Y-44726260D01*
X86585000Y-44433740D01*
X86527932Y-44146842D01*
X86415990Y-43876589D01*
X86253475Y-43633368D01*
X86046632Y-43426525D01*
X85872240Y-43310000D01*
X86046632Y-43193475D01*
X86253475Y-42986632D01*
X86415990Y-42743411D01*
X86527932Y-42473158D01*
X86585000Y-42186260D01*
X86585000Y-41893740D01*
X86527932Y-41606842D01*
X86415990Y-41336589D01*
X86253475Y-41093368D01*
X86121620Y-40961513D01*
X86194180Y-40939502D01*
X86304494Y-40880537D01*
X86401185Y-40801185D01*
X86480537Y-40704494D01*
X86539502Y-40594180D01*
X86575812Y-40474482D01*
X86588072Y-40350000D01*
X86585000Y-39785750D01*
X86426250Y-39627000D01*
X85227000Y-39627000D01*
X85227000Y-39647000D01*
X84973000Y-39647000D01*
X84973000Y-39627000D01*
X84953000Y-39627000D01*
X84953000Y-39373000D01*
X84973000Y-39373000D01*
X84973000Y-38173750D01*
X85227000Y-38173750D01*
X85227000Y-39373000D01*
X86426250Y-39373000D01*
X86585000Y-39214250D01*
X86588072Y-38650000D01*
X86575812Y-38525518D01*
X86539502Y-38405820D01*
X86480537Y-38295506D01*
X86401185Y-38198815D01*
X86304494Y-38119463D01*
X86194180Y-38060498D01*
X86074482Y-38024188D01*
X85950000Y-38011928D01*
X85385750Y-38015000D01*
X85227000Y-38173750D01*
X84973000Y-38173750D01*
X84814250Y-38015000D01*
X84250000Y-38011928D01*
X84125518Y-38024188D01*
X84005820Y-38060498D01*
X83895506Y-38119463D01*
X83798815Y-38198815D01*
X83719463Y-38295506D01*
X83660498Y-38405820D01*
X83638487Y-38478380D01*
X83506632Y-38346525D01*
X83263411Y-38184010D01*
X82993158Y-38072068D01*
X82706260Y-38015000D01*
X82413740Y-38015000D01*
X82126842Y-38072068D01*
X81856589Y-38184010D01*
X81613368Y-38346525D01*
X81406525Y-38553368D01*
X81244010Y-38796589D01*
X81132068Y-39066842D01*
X81075000Y-39353740D01*
X81075000Y-39646260D01*
X81132068Y-39933158D01*
X81203247Y-40104999D01*
X78622334Y-40104999D01*
X78585001Y-40101322D01*
X78547668Y-40104999D01*
X78436015Y-40115996D01*
X78292754Y-40159453D01*
X78160725Y-40230025D01*
X78045000Y-40324998D01*
X78021202Y-40353996D01*
X72585199Y-45790000D01*
X72304572Y-45790000D01*
X72524463Y-45698918D01*
X72792252Y-45519987D01*
X73019987Y-45292252D01*
X73198918Y-45024463D01*
X73322168Y-44726912D01*
X73385000Y-44411033D01*
X73385000Y-44088967D01*
X73322168Y-43773088D01*
X73198918Y-43475537D01*
X73019987Y-43207748D01*
X72792252Y-42980013D01*
X72524463Y-42801082D01*
X72226912Y-42677832D01*
X71911033Y-42615000D01*
X71588967Y-42615000D01*
X71273088Y-42677832D01*
X70975537Y-42801082D01*
X70707748Y-42980013D01*
X70480013Y-43207748D01*
X70301082Y-43475537D01*
X70295091Y-43490000D01*
X69548109Y-43490000D01*
X69660940Y-43414609D01*
X69914609Y-43160940D01*
X70113916Y-42862656D01*
X70251201Y-42531221D01*
X70321188Y-42179371D01*
X70321188Y-41820629D01*
X70251201Y-41468779D01*
X70113916Y-41137344D01*
X69914609Y-40839060D01*
X69660940Y-40585391D01*
X69362656Y-40386084D01*
X69031221Y-40248799D01*
X68679371Y-40178812D01*
X68320629Y-40178812D01*
X67968779Y-40248799D01*
X67637344Y-40386084D01*
X67339060Y-40585391D01*
X67085391Y-40839060D01*
X66886084Y-41137344D01*
X66748799Y-41468779D01*
X66678812Y-41820629D01*
X66678812Y-42179371D01*
X66748799Y-42531221D01*
X66886084Y-42862656D01*
X67085391Y-43160940D01*
X67339060Y-43414609D01*
X67451891Y-43490000D01*
X66704909Y-43490000D01*
X66698918Y-43475537D01*
X66519987Y-43207748D01*
X66292252Y-42980013D01*
X66024463Y-42801082D01*
X65726912Y-42677832D01*
X65411033Y-42615000D01*
X65088967Y-42615000D01*
X64773088Y-42677832D01*
X64475537Y-42801082D01*
X64207748Y-42980013D01*
X64160000Y-43027761D01*
X64160000Y-41937322D01*
X64163676Y-41899999D01*
X64160000Y-41862676D01*
X64160000Y-41862667D01*
X64149003Y-41751014D01*
X64105546Y-41607753D01*
X64034974Y-41475724D01*
X63976954Y-41405026D01*
X63963799Y-41388996D01*
X63963795Y-41388992D01*
X63940001Y-41359999D01*
X63911009Y-41336206D01*
X63316177Y-40741375D01*
X63322168Y-40726912D01*
X63385000Y-40411033D01*
X63385000Y-40088967D01*
X63322168Y-39773088D01*
X63198918Y-39475537D01*
X63019987Y-39207748D01*
X62792252Y-38980013D01*
X62524463Y-38801082D01*
X62226912Y-38677832D01*
X61911033Y-38615000D01*
X61588967Y-38615000D01*
X61273088Y-38677832D01*
X60975537Y-38801082D01*
X60707748Y-38980013D01*
X60480013Y-39207748D01*
X60301082Y-39475537D01*
X60295091Y-39490000D01*
X59548109Y-39490000D01*
X59660940Y-39414609D01*
X59914609Y-39160940D01*
X60113916Y-38862656D01*
X60251201Y-38531221D01*
X60321188Y-38179371D01*
X60321188Y-37820629D01*
X60251201Y-37468779D01*
X60113916Y-37137344D01*
X59914609Y-36839060D01*
X59660940Y-36585391D01*
X59362656Y-36386084D01*
X59031221Y-36248799D01*
X58679371Y-36178812D01*
X58320629Y-36178812D01*
X57968779Y-36248799D01*
X57637344Y-36386084D01*
X57339060Y-36585391D01*
X57085391Y-36839060D01*
X56886084Y-37137344D01*
X56748799Y-37468779D01*
X56678812Y-37820629D01*
X56678812Y-38179371D01*
X56748799Y-38531221D01*
X56886084Y-38862656D01*
X57085391Y-39160940D01*
X57339060Y-39414609D01*
X57451891Y-39490000D01*
X56704909Y-39490000D01*
X56698918Y-39475537D01*
X56519987Y-39207748D01*
X56292252Y-38980013D01*
X56024463Y-38801082D01*
X55726912Y-38677832D01*
X55411033Y-38615000D01*
X55088967Y-38615000D01*
X54773088Y-38677832D01*
X54475537Y-38801082D01*
X54207748Y-38980013D01*
X53980013Y-39207748D01*
X53801082Y-39475537D01*
X53677832Y-39773088D01*
X53615000Y-40088967D01*
X53615000Y-40411033D01*
X53677832Y-40726912D01*
X53801082Y-41024463D01*
X53980013Y-41292252D01*
X54207748Y-41519987D01*
X54475537Y-41698918D01*
X54773088Y-41822168D01*
X55088967Y-41885000D01*
X55411033Y-41885000D01*
X55726912Y-41822168D01*
X56024463Y-41698918D01*
X56292252Y-41519987D01*
X56519987Y-41292252D01*
X56698918Y-41024463D01*
X56704909Y-41010000D01*
X60295091Y-41010000D01*
X60301082Y-41024463D01*
X60480013Y-41292252D01*
X60707748Y-41519987D01*
X60975537Y-41698918D01*
X61273088Y-41822168D01*
X61588967Y-41885000D01*
X61911033Y-41885000D01*
X62226912Y-41822168D01*
X62241375Y-41816177D01*
X62640000Y-42214803D01*
X62640000Y-42378281D01*
X62524463Y-42301082D01*
X62226912Y-42177832D01*
X61911033Y-42115000D01*
X61588967Y-42115000D01*
X61273088Y-42177832D01*
X60975537Y-42301082D01*
X60707748Y-42480013D01*
X60480013Y-42707748D01*
X60301082Y-42975537D01*
X60177832Y-43273088D01*
X60115000Y-43588967D01*
X60115000Y-43911033D01*
X60177832Y-44226912D01*
X60301082Y-44524463D01*
X60480013Y-44792252D01*
X60707748Y-45019987D01*
X60975537Y-45198918D01*
X60990001Y-45204909D01*
X60990001Y-45435197D01*
X60321188Y-46104010D01*
X60321188Y-45820629D01*
X60251201Y-45468779D01*
X60113916Y-45137344D01*
X59914609Y-44839060D01*
X59660940Y-44585391D01*
X59362656Y-44386084D01*
X59031221Y-44248799D01*
X58679371Y-44178812D01*
X58320629Y-44178812D01*
X57968779Y-44248799D01*
X57637344Y-44386084D01*
X57339060Y-44585391D01*
X57085391Y-44839060D01*
X56886084Y-45137344D01*
X56748799Y-45468779D01*
X56678812Y-45820629D01*
X56678812Y-46104011D01*
X56010000Y-45435199D01*
X56010000Y-45204909D01*
X56024463Y-45198918D01*
X56292252Y-45019987D01*
X56519987Y-44792252D01*
X56698918Y-44524463D01*
X56822168Y-44226912D01*
X56885000Y-43911033D01*
X56885000Y-43588967D01*
X56822168Y-43273088D01*
X56698918Y-42975537D01*
X56519987Y-42707748D01*
X56292252Y-42480013D01*
X56024463Y-42301082D01*
X55726912Y-42177832D01*
X55411033Y-42115000D01*
X55088967Y-42115000D01*
X54773088Y-42177832D01*
X54475537Y-42301082D01*
X54207748Y-42480013D01*
X53980013Y-42707748D01*
X53801082Y-42975537D01*
X53677832Y-43273088D01*
X53615000Y-43588967D01*
X53615000Y-43911033D01*
X53677832Y-44226912D01*
X53801082Y-44524463D01*
X53980013Y-44792252D01*
X54207748Y-45019987D01*
X54475537Y-45198918D01*
X54490001Y-45204909D01*
X54490001Y-45712668D01*
X54486324Y-45750000D01*
X54490001Y-45787333D01*
X54500998Y-45898986D01*
X54501306Y-45900000D01*
X54544454Y-46042246D01*
X54615026Y-46174276D01*
X54686201Y-46261002D01*
X54710000Y-46290001D01*
X54738998Y-46313799D01*
X55048290Y-46623091D01*
X54773088Y-46677832D01*
X54475537Y-46801082D01*
X54207748Y-46980013D01*
X53980013Y-47207748D01*
X53801082Y-47475537D01*
X53677832Y-47773088D01*
X53615000Y-48088967D01*
X53615000Y-48411033D01*
X53677832Y-48726912D01*
X53801082Y-49024463D01*
X53980013Y-49292252D01*
X54207748Y-49519987D01*
X54475537Y-49698918D01*
X54773088Y-49822168D01*
X55088967Y-49885000D01*
X55411033Y-49885000D01*
X55726912Y-49822168D01*
X56024463Y-49698918D01*
X56292252Y-49519987D01*
X56519987Y-49292252D01*
X56698918Y-49024463D01*
X56822168Y-48726912D01*
X56876909Y-48451710D01*
X57740000Y-49314802D01*
X57740000Y-49465868D01*
X57700000Y-49461928D01*
X56700000Y-49461928D01*
X56575518Y-49474188D01*
X56455820Y-49510498D01*
X56345506Y-49569463D01*
X56248815Y-49648815D01*
X56169463Y-49745506D01*
X56110498Y-49855820D01*
X56074188Y-49975518D01*
X56062913Y-50090000D01*
X54453711Y-50090000D01*
X54409774Y-50046063D01*
X54240256Y-49932795D01*
X54051898Y-49854774D01*
X53851939Y-49815000D01*
X53648061Y-49815000D01*
X53448102Y-49854774D01*
X53259744Y-49932795D01*
X53090226Y-50046063D01*
X52946063Y-50190226D01*
X52832795Y-50359744D01*
X52754774Y-50548102D01*
X52715000Y-50748061D01*
X52715000Y-50951939D01*
X52754774Y-51151898D01*
X52832689Y-51340000D01*
X37160000Y-51340000D01*
X37160000Y-46796552D01*
X38270380Y-46796552D01*
X38270380Y-47236808D01*
X38356270Y-47668605D01*
X38524749Y-48075349D01*
X38769342Y-48441409D01*
X39080651Y-48752718D01*
X39446711Y-48997311D01*
X39853455Y-49165790D01*
X40285252Y-49251680D01*
X40725508Y-49251680D01*
X41157305Y-49165790D01*
X41564049Y-48997311D01*
X41930109Y-48752718D01*
X42241418Y-48441409D01*
X42486011Y-48075349D01*
X42654490Y-47668605D01*
X42740380Y-47236808D01*
X42740380Y-46796552D01*
X42654490Y-46364755D01*
X42486011Y-45958011D01*
X42241418Y-45591951D01*
X41930109Y-45280642D01*
X41564049Y-45036049D01*
X41157305Y-44867570D01*
X40725508Y-44781680D01*
X40285252Y-44781680D01*
X39853455Y-44867570D01*
X39446711Y-45036049D01*
X39080651Y-45280642D01*
X38769342Y-45591951D01*
X38524749Y-45958011D01*
X38356270Y-46364755D01*
X38270380Y-46796552D01*
X37160000Y-46796552D01*
X37160000Y-44088967D01*
X43615000Y-44088967D01*
X43615000Y-44411033D01*
X43677832Y-44726912D01*
X43801082Y-45024463D01*
X43980013Y-45292252D01*
X44207748Y-45519987D01*
X44475537Y-45698918D01*
X44773088Y-45822168D01*
X45088967Y-45885000D01*
X45411033Y-45885000D01*
X45726912Y-45822168D01*
X46024463Y-45698918D01*
X46292252Y-45519987D01*
X46519987Y-45292252D01*
X46698918Y-45024463D01*
X46704909Y-45010000D01*
X50295091Y-45010000D01*
X50301082Y-45024463D01*
X50480013Y-45292252D01*
X50707748Y-45519987D01*
X50975537Y-45698918D01*
X51273088Y-45822168D01*
X51588967Y-45885000D01*
X51911033Y-45885000D01*
X52226912Y-45822168D01*
X52524463Y-45698918D01*
X52792252Y-45519987D01*
X53019987Y-45292252D01*
X53198918Y-45024463D01*
X53322168Y-44726912D01*
X53385000Y-44411033D01*
X53385000Y-44088967D01*
X53322168Y-43773088D01*
X53198918Y-43475537D01*
X53019987Y-43207748D01*
X52792252Y-42980013D01*
X52524463Y-42801082D01*
X52226912Y-42677832D01*
X51911033Y-42615000D01*
X51588967Y-42615000D01*
X51273088Y-42677832D01*
X50975537Y-42801082D01*
X50707748Y-42980013D01*
X50480013Y-43207748D01*
X50301082Y-43475537D01*
X50295091Y-43490000D01*
X49548109Y-43490000D01*
X49660940Y-43414609D01*
X49914609Y-43160940D01*
X50113916Y-42862656D01*
X50251201Y-42531221D01*
X50321188Y-42179371D01*
X50321188Y-41820629D01*
X50251201Y-41468779D01*
X50113916Y-41137344D01*
X49914609Y-40839060D01*
X49660940Y-40585391D01*
X49362656Y-40386084D01*
X49031221Y-40248799D01*
X48679371Y-40178812D01*
X48320629Y-40178812D01*
X47968779Y-40248799D01*
X47637344Y-40386084D01*
X47339060Y-40585391D01*
X47085391Y-40839060D01*
X46886084Y-41137344D01*
X46748799Y-41468779D01*
X46678812Y-41820629D01*
X46678812Y-42179371D01*
X46748799Y-42531221D01*
X46886084Y-42862656D01*
X47085391Y-43160940D01*
X47339060Y-43414609D01*
X47451891Y-43490000D01*
X46704909Y-43490000D01*
X46698918Y-43475537D01*
X46519987Y-43207748D01*
X46292252Y-42980013D01*
X46024463Y-42801082D01*
X45726912Y-42677832D01*
X45411033Y-42615000D01*
X45088967Y-42615000D01*
X44773088Y-42677832D01*
X44475537Y-42801082D01*
X44207748Y-42980013D01*
X43980013Y-43207748D01*
X43801082Y-43475537D01*
X43677832Y-43773088D01*
X43615000Y-44088967D01*
X37160000Y-44088967D01*
X37160000Y-36796552D01*
X38270380Y-36796552D01*
X38270380Y-37236808D01*
X38356270Y-37668605D01*
X38524749Y-38075349D01*
X38769342Y-38441409D01*
X39080651Y-38752718D01*
X39446711Y-38997311D01*
X39853455Y-39165790D01*
X40285252Y-39251680D01*
X40725508Y-39251680D01*
X41157305Y-39165790D01*
X41564049Y-38997311D01*
X41930109Y-38752718D01*
X42241418Y-38441409D01*
X42486011Y-38075349D01*
X42647087Y-37686477D01*
X42696063Y-37759774D01*
X42840226Y-37903937D01*
X43009744Y-38017205D01*
X43198102Y-38095226D01*
X43398061Y-38135000D01*
X43601939Y-38135000D01*
X43801898Y-38095226D01*
X43990256Y-38017205D01*
X44159774Y-37903937D01*
X44203711Y-37860000D01*
X46162913Y-37860000D01*
X46174188Y-37974482D01*
X46210498Y-38094180D01*
X46269463Y-38204494D01*
X46348815Y-38301185D01*
X46445506Y-38380537D01*
X46555820Y-38439502D01*
X46675518Y-38475812D01*
X46800000Y-38488072D01*
X46851340Y-38488072D01*
X46564718Y-38774693D01*
X46519987Y-38707748D01*
X46292252Y-38480013D01*
X46024463Y-38301082D01*
X45726912Y-38177832D01*
X45411033Y-38115000D01*
X45088967Y-38115000D01*
X44773088Y-38177832D01*
X44475537Y-38301082D01*
X44207748Y-38480013D01*
X43980013Y-38707748D01*
X43801082Y-38975537D01*
X43677832Y-39273088D01*
X43615000Y-39588967D01*
X43615000Y-39911033D01*
X43677832Y-40226912D01*
X43801082Y-40524463D01*
X43980013Y-40792252D01*
X44207748Y-41019987D01*
X44475537Y-41198918D01*
X44773088Y-41322168D01*
X45088967Y-41385000D01*
X45411033Y-41385000D01*
X45726912Y-41322168D01*
X46024463Y-41198918D01*
X46292252Y-41019987D01*
X46519987Y-40792252D01*
X46698918Y-40524463D01*
X46705052Y-40509655D01*
X46813199Y-40499003D01*
X46956460Y-40455546D01*
X47088489Y-40384974D01*
X47204214Y-40290001D01*
X47228017Y-40260997D01*
X48500000Y-38989014D01*
X49771988Y-40261003D01*
X49795786Y-40290001D01*
X49824784Y-40313799D01*
X49911511Y-40384974D01*
X50043540Y-40455546D01*
X50186801Y-40499003D01*
X50294948Y-40509655D01*
X50301082Y-40524463D01*
X50480013Y-40792252D01*
X50707748Y-41019987D01*
X50975537Y-41198918D01*
X51273088Y-41322168D01*
X51588967Y-41385000D01*
X51911033Y-41385000D01*
X52226912Y-41322168D01*
X52524463Y-41198918D01*
X52792252Y-41019987D01*
X53019987Y-40792252D01*
X53198918Y-40524463D01*
X53322168Y-40226912D01*
X53385000Y-39911033D01*
X53385000Y-39588967D01*
X53322168Y-39273088D01*
X53198918Y-38975537D01*
X53019987Y-38707748D01*
X52792252Y-38480013D01*
X52524463Y-38301082D01*
X52226912Y-38177832D01*
X51911033Y-38115000D01*
X51588967Y-38115000D01*
X51273088Y-38177832D01*
X50975537Y-38301082D01*
X50707748Y-38480013D01*
X50480013Y-38707748D01*
X50435282Y-38774693D01*
X50027002Y-38366414D01*
X50027002Y-38326252D01*
X50185750Y-38485000D01*
X50400000Y-38488072D01*
X50524482Y-38475812D01*
X50644180Y-38439502D01*
X50754494Y-38380537D01*
X50851185Y-38301185D01*
X50930537Y-38204494D01*
X50989502Y-38094180D01*
X51025812Y-37974482D01*
X51038072Y-37850000D01*
X51035000Y-37385750D01*
X50876250Y-37227000D01*
X50027000Y-37227000D01*
X50027000Y-37247000D01*
X49773000Y-37247000D01*
X49773000Y-37227000D01*
X49753000Y-37227000D01*
X49753000Y-36973000D01*
X49773000Y-36973000D01*
X49773000Y-35873750D01*
X50027000Y-35873750D01*
X50027000Y-36973000D01*
X50876250Y-36973000D01*
X51035000Y-36814250D01*
X51038072Y-36350000D01*
X51025812Y-36225518D01*
X50989502Y-36105820D01*
X50930537Y-35995506D01*
X50851185Y-35898815D01*
X50754494Y-35819463D01*
X50644180Y-35760498D01*
X50524482Y-35724188D01*
X50400000Y-35711928D01*
X50185750Y-35715000D01*
X50027000Y-35873750D01*
X49773000Y-35873750D01*
X49614250Y-35715000D01*
X49400000Y-35711928D01*
X49275518Y-35724188D01*
X49250000Y-35731929D01*
X49224482Y-35724188D01*
X49100000Y-35711928D01*
X48100000Y-35711928D01*
X47975518Y-35724188D01*
X47950000Y-35731929D01*
X47924482Y-35724188D01*
X47800000Y-35711928D01*
X46800000Y-35711928D01*
X46675518Y-35724188D01*
X46555820Y-35760498D01*
X46445506Y-35819463D01*
X46348815Y-35898815D01*
X46269463Y-35995506D01*
X46210498Y-36105820D01*
X46174188Y-36225518D01*
X46162913Y-36340000D01*
X44203711Y-36340000D01*
X44159774Y-36296063D01*
X43990256Y-36182795D01*
X43801898Y-36104774D01*
X43601939Y-36065000D01*
X43398061Y-36065000D01*
X43198102Y-36104774D01*
X43009744Y-36182795D01*
X42840226Y-36296063D01*
X42696063Y-36440226D01*
X42675595Y-36470858D01*
X42654490Y-36364755D01*
X42486011Y-35958011D01*
X42241418Y-35591951D01*
X41930109Y-35280642D01*
X41564049Y-35036049D01*
X41157305Y-34867570D01*
X40725508Y-34781680D01*
X40285252Y-34781680D01*
X39853455Y-34867570D01*
X39446711Y-35036049D01*
X39080651Y-35280642D01*
X38769342Y-35591951D01*
X38524749Y-35958011D01*
X38356270Y-36364755D01*
X38270380Y-36796552D01*
X37160000Y-36796552D01*
X37160000Y-32667275D01*
X37160666Y-32660487D01*
X37165301Y-32660000D01*
X52914776Y-32660000D01*
X52859744Y-32682795D01*
G37*
%TD.AperFunction*%
%TD*%
M02*
