%TF.GenerationSoftware,KiCad,Pcbnew,5.1.7-a382d34a8~88~ubuntu18.04.1*%
%TF.CreationDate,2021-06-07T00:47:52+02:00*%
%TF.ProjectId,button-board-6x6mm-4buttons,62757474-6f6e-42d6-926f-6172642d3678,v1r1*%
%TF.SameCoordinates,Original*%
%TF.FileFunction,Legend,Top*%
%TF.FilePolarity,Positive*%
%FSLAX46Y46*%
G04 Gerber Fmt 4.6, Leading zero omitted, Abs format (unit mm)*
G04 Created by KiCad (PCBNEW 5.1.7-a382d34a8~88~ubuntu18.04.1) date 2021-06-07 00:47:52*
%MOMM*%
%LPD*%
G01*
G04 APERTURE LIST*
%ADD10C,0.150000*%
%ADD11C,0.070000*%
%ADD12C,0.120000*%
%ADD13C,0.064000*%
G04 APERTURE END LIST*
D10*
X58166666Y-32852380D02*
X58785714Y-32852380D01*
X58452380Y-33233333D01*
X58595238Y-33233333D01*
X58690476Y-33280952D01*
X58738095Y-33328571D01*
X58785714Y-33423809D01*
X58785714Y-33661904D01*
X58738095Y-33757142D01*
X58690476Y-33804761D01*
X58595238Y-33852380D01*
X58309523Y-33852380D01*
X58214285Y-33804761D01*
X58166666Y-33757142D01*
X82342857Y-43085714D02*
X82342857Y-43752380D01*
X82104761Y-42704761D02*
X81866666Y-43419047D01*
X82485714Y-43419047D01*
X79866666Y-45352380D02*
X80200000Y-46352380D01*
X80533333Y-45352380D01*
X81438095Y-46257142D02*
X81390476Y-46304761D01*
X81247619Y-46352380D01*
X81152380Y-46352380D01*
X81009523Y-46304761D01*
X80914285Y-46209523D01*
X80866666Y-46114285D01*
X80819047Y-45923809D01*
X80819047Y-45780952D01*
X80866666Y-45590476D01*
X80914285Y-45495238D01*
X81009523Y-45400000D01*
X81152380Y-45352380D01*
X81247619Y-45352380D01*
X81390476Y-45400000D01*
X81438095Y-45447619D01*
X82438095Y-46257142D02*
X82390476Y-46304761D01*
X82247619Y-46352380D01*
X82152380Y-46352380D01*
X82009523Y-46304761D01*
X81914285Y-46209523D01*
X81866666Y-46114285D01*
X81819047Y-45923809D01*
X81819047Y-45780952D01*
X81866666Y-45590476D01*
X81914285Y-45495238D01*
X82009523Y-45400000D01*
X82152380Y-45352380D01*
X82247619Y-45352380D01*
X82390476Y-45400000D01*
X82438095Y-45447619D01*
D11*
X44050000Y-51116666D02*
X44050000Y-50416666D01*
X44050000Y-50683333D02*
X44116666Y-50650000D01*
X44250000Y-50650000D01*
X44316666Y-50683333D01*
X44350000Y-50716666D01*
X44383333Y-50783333D01*
X44383333Y-50983333D01*
X44350000Y-51050000D01*
X44316666Y-51083333D01*
X44250000Y-51116666D01*
X44116666Y-51116666D01*
X44050000Y-51083333D01*
X44683333Y-51116666D02*
X44683333Y-50416666D01*
X44683333Y-50683333D02*
X44750000Y-50650000D01*
X44883333Y-50650000D01*
X44950000Y-50683333D01*
X44983333Y-50716666D01*
X45016666Y-50783333D01*
X45016666Y-50983333D01*
X44983333Y-51050000D01*
X44950000Y-51083333D01*
X44883333Y-51116666D01*
X44750000Y-51116666D01*
X44683333Y-51083333D01*
X45316666Y-50850000D02*
X45850000Y-50850000D01*
X46483333Y-50416666D02*
X46350000Y-50416666D01*
X46283333Y-50450000D01*
X46250000Y-50483333D01*
X46183333Y-50583333D01*
X46150000Y-50716666D01*
X46150000Y-50983333D01*
X46183333Y-51050000D01*
X46216666Y-51083333D01*
X46283333Y-51116666D01*
X46416666Y-51116666D01*
X46483333Y-51083333D01*
X46516666Y-51050000D01*
X46550000Y-50983333D01*
X46550000Y-50816666D01*
X46516666Y-50750000D01*
X46483333Y-50716666D01*
X46416666Y-50683333D01*
X46283333Y-50683333D01*
X46216666Y-50716666D01*
X46183333Y-50750000D01*
X46150000Y-50816666D01*
X46783333Y-51116666D02*
X47150000Y-50650000D01*
X46783333Y-50650000D02*
X47150000Y-51116666D01*
X47716666Y-50416666D02*
X47583333Y-50416666D01*
X47516666Y-50450000D01*
X47483333Y-50483333D01*
X47416666Y-50583333D01*
X47383333Y-50716666D01*
X47383333Y-50983333D01*
X47416666Y-51050000D01*
X47450000Y-51083333D01*
X47516666Y-51116666D01*
X47650000Y-51116666D01*
X47716666Y-51083333D01*
X47750000Y-51050000D01*
X47783333Y-50983333D01*
X47783333Y-50816666D01*
X47750000Y-50750000D01*
X47716666Y-50716666D01*
X47650000Y-50683333D01*
X47516666Y-50683333D01*
X47450000Y-50716666D01*
X47416666Y-50750000D01*
X47383333Y-50816666D01*
X48083333Y-50850000D02*
X48616666Y-50850000D01*
X49250000Y-50650000D02*
X49250000Y-51116666D01*
X49083333Y-50383333D02*
X48916666Y-50883333D01*
X49350000Y-50883333D01*
X49616666Y-51116666D02*
X49616666Y-50416666D01*
X49616666Y-50683333D02*
X49683333Y-50650000D01*
X49816666Y-50650000D01*
X49883333Y-50683333D01*
X49916666Y-50716666D01*
X49950000Y-50783333D01*
X49950000Y-50983333D01*
X49916666Y-51050000D01*
X49883333Y-51083333D01*
X49816666Y-51116666D01*
X49683333Y-51116666D01*
X49616666Y-51083333D01*
X50716666Y-50650000D02*
X50883333Y-51116666D01*
X51050000Y-50650000D01*
X51683333Y-51116666D02*
X51283333Y-51116666D01*
X51483333Y-51116666D02*
X51483333Y-50416666D01*
X51416666Y-50516666D01*
X51350000Y-50583333D01*
X51283333Y-50616666D01*
X51983333Y-51116666D02*
X51983333Y-50650000D01*
X51983333Y-50783333D02*
X52016666Y-50716666D01*
X52050000Y-50683333D01*
X52116666Y-50650000D01*
X52183333Y-50650000D01*
X52783333Y-51116666D02*
X52383333Y-51116666D01*
X52583333Y-51116666D02*
X52583333Y-50416666D01*
X52516666Y-50516666D01*
X52450000Y-50583333D01*
X52383333Y-50616666D01*
D10*
X48835714Y-47102380D02*
X48264285Y-47102380D01*
X48550000Y-47102380D02*
X48550000Y-46102380D01*
X48454761Y-46245238D01*
X48359523Y-46340476D01*
X48264285Y-46388095D01*
X58214285Y-50147619D02*
X58261904Y-50100000D01*
X58357142Y-50052380D01*
X58595238Y-50052380D01*
X58690476Y-50100000D01*
X58738095Y-50147619D01*
X58785714Y-50242857D01*
X58785714Y-50338095D01*
X58738095Y-50480952D01*
X58166666Y-51052380D01*
X58785714Y-51052380D01*
X68690476Y-46435714D02*
X68690476Y-47102380D01*
X68452380Y-46054761D02*
X68214285Y-46769047D01*
X68833333Y-46769047D01*
X81819047Y-40252380D02*
X82438095Y-40252380D01*
X82104761Y-40633333D01*
X82247619Y-40633333D01*
X82342857Y-40680952D01*
X82390476Y-40728571D01*
X82438095Y-40823809D01*
X82438095Y-41061904D01*
X82390476Y-41157142D01*
X82342857Y-41204761D01*
X82247619Y-41252380D01*
X81961904Y-41252380D01*
X81866666Y-41204761D01*
X81819047Y-41157142D01*
X81866666Y-37847619D02*
X81914285Y-37800000D01*
X82009523Y-37752380D01*
X82247619Y-37752380D01*
X82342857Y-37800000D01*
X82390476Y-37847619D01*
X82438095Y-37942857D01*
X82438095Y-38038095D01*
X82390476Y-38180952D01*
X81819047Y-38752380D01*
X82438095Y-38752380D01*
X82438095Y-36152380D02*
X81866666Y-36152380D01*
X82152381Y-36152380D02*
X82152381Y-35152380D01*
X82057142Y-35295238D01*
X81961904Y-35390476D01*
X81866666Y-35438095D01*
D12*
%TO.C,J1*%
X83270000Y-36920000D02*
X85930000Y-36920000D01*
X83270000Y-36920000D02*
X83270000Y-49680000D01*
X83270000Y-49680000D02*
X85930000Y-49680000D01*
X85930000Y-36920000D02*
X85930000Y-49680000D01*
X85930000Y-34320000D02*
X85930000Y-35650000D01*
X84600000Y-34320000D02*
X85930000Y-34320000D01*
%TO.C,SW4*%
X72000000Y-42750000D02*
X72000000Y-41250000D01*
X70750000Y-38750000D02*
X66250000Y-38750000D01*
X65000000Y-41250000D02*
X65000000Y-42750000D01*
X66250000Y-45250000D02*
X70750000Y-45250000D01*
%TO.C,SW3*%
X62000000Y-38750000D02*
X62000000Y-37250000D01*
X60750000Y-34750000D02*
X56250000Y-34750000D01*
X55000000Y-37250000D02*
X55000000Y-38750000D01*
X56250000Y-41250000D02*
X60750000Y-41250000D01*
%TO.C,SW2*%
X62000000Y-46750000D02*
X62000000Y-45250000D01*
X60750000Y-42750000D02*
X56250000Y-42750000D01*
X55000000Y-45250000D02*
X55000000Y-46750000D01*
X56250000Y-49250000D02*
X60750000Y-49250000D01*
D13*
%TO.C,REF\u002A\u002A*%
X80495687Y-48640752D02*
X80466271Y-48699904D01*
X80466271Y-48699904D02*
X80406639Y-48710911D01*
X80495687Y-48503133D02*
X80495687Y-48640752D01*
X80219923Y-48710911D02*
X80156671Y-48699740D01*
X80156671Y-48699740D02*
X80127673Y-48639246D01*
X80127673Y-48639246D02*
X80126828Y-48613767D01*
X80406639Y-48710911D02*
X80219923Y-48710911D01*
X80126828Y-48349323D02*
X80129820Y-48284921D01*
X80129820Y-48284921D02*
X80144782Y-48220616D01*
X80144782Y-48220616D02*
X80168653Y-48173927D01*
X80126828Y-48613767D02*
X80126828Y-48349323D01*
X80287909Y-48016977D02*
X80330954Y-47969417D01*
X80330954Y-47969417D02*
X80394514Y-47961656D01*
X80394514Y-47961656D02*
X80401242Y-47961659D01*
X80168653Y-48173927D02*
X80287909Y-48016977D01*
X80563148Y-47961659D02*
X80622203Y-47929602D01*
X80622203Y-47929602D02*
X80648683Y-47867781D01*
X80648683Y-47867781D02*
X80622203Y-47804698D01*
X80622203Y-47804698D02*
X80566479Y-47771260D01*
X80566479Y-47771260D02*
X80563148Y-47771121D01*
X80401242Y-47961659D02*
X80563148Y-47961659D01*
X80382355Y-47771121D02*
X80312087Y-47776806D01*
X80312087Y-47776806D02*
X80249530Y-47796149D01*
X80249530Y-47796149D02*
X80195062Y-47832585D01*
X80195062Y-47832585D02*
X80168436Y-47861476D01*
X80563148Y-47771121D02*
X80382355Y-47771121D01*
X80009231Y-48065207D02*
X79973624Y-48122369D01*
X79973624Y-48122369D02*
X79951874Y-48183236D01*
X79951874Y-48183236D02*
X79941807Y-48249220D01*
X79941807Y-48249220D02*
X79940464Y-48288608D01*
X80168436Y-47861476D02*
X80009231Y-48065207D01*
X79940464Y-48625911D02*
X79943716Y-48694478D01*
X79943716Y-48694478D02*
X79960981Y-48758252D01*
X79960981Y-48758252D02*
X79998312Y-48808548D01*
X79998312Y-48808548D02*
X80055223Y-48845129D01*
X80055223Y-48845129D02*
X80121922Y-48866171D01*
X80121922Y-48866171D02*
X80182672Y-48872250D01*
X79940464Y-48288608D02*
X79940464Y-48625911D01*
X80414734Y-48872250D02*
X80482798Y-48868521D01*
X80482798Y-48868521D02*
X80555186Y-48853379D01*
X80555186Y-48853379D02*
X80613444Y-48826600D01*
X80613444Y-48826600D02*
X80664656Y-48779120D01*
X80664656Y-48779120D02*
X80695422Y-48714916D01*
X80695422Y-48714916D02*
X80705404Y-48648650D01*
X80705404Y-48648650D02*
X80705690Y-48634006D01*
X80182672Y-48872250D02*
X80414734Y-48872250D01*
X80364814Y-48322327D02*
X80311395Y-48357891D01*
X80311395Y-48357891D02*
X80297354Y-48410644D01*
X80297354Y-48410644D02*
X80317929Y-48475102D01*
X80317929Y-48475102D02*
X80364814Y-48503133D01*
X80705690Y-48634006D02*
X80705690Y-48322327D01*
X80705690Y-48322327D02*
X80364814Y-48322327D01*
X81468064Y-48505003D02*
X81466715Y-48505003D01*
X80364814Y-48503133D02*
X80495687Y-48503133D01*
X80861953Y-48805901D02*
X80896769Y-48859867D01*
X80896769Y-48859867D02*
X80954639Y-48873361D01*
X80954639Y-48873361D02*
X81017660Y-48861698D01*
X81017660Y-48861698D02*
X81068372Y-48821195D01*
X81068372Y-48821195D02*
X81071397Y-48805901D01*
X81071397Y-48805901D02*
X81071019Y-48739408D01*
X81071019Y-48739408D02*
X81070825Y-48672914D01*
X81070825Y-48672914D02*
X81070797Y-48606420D01*
X81070797Y-48606420D02*
X81070915Y-48539927D01*
X81070915Y-48539927D02*
X81071161Y-48473433D01*
X81071161Y-48473433D02*
X81071518Y-48406939D01*
X81071518Y-48406939D02*
X81071966Y-48340446D01*
X81071966Y-48340446D02*
X81072487Y-48273954D01*
X81072487Y-48273954D02*
X81073063Y-48207463D01*
X81073063Y-48207463D02*
X81073676Y-48140973D01*
X81073676Y-48140973D02*
X81074096Y-48096647D01*
X81466715Y-48505003D02*
X81114572Y-47770036D01*
X81114572Y-47770036D02*
X80861953Y-47770036D01*
X80861953Y-47770036D02*
X80861953Y-48805901D01*
X81677031Y-47837429D02*
X81634351Y-47787572D01*
X81634351Y-47787572D02*
X81568325Y-47773962D01*
X81568325Y-47773962D02*
X81563727Y-47773903D01*
X81563727Y-47773903D02*
X81498355Y-47789475D01*
X81498355Y-47789475D02*
X81469413Y-47837429D01*
X81074096Y-48096647D02*
X81426240Y-48873203D01*
X81426240Y-48873203D02*
X81677031Y-48873203D01*
X81677031Y-48873203D02*
X81677031Y-47837429D01*
X81469413Y-47837429D02*
X81468064Y-48505003D01*
X81901593Y-48671980D02*
X81848175Y-48708430D01*
X81848175Y-48708430D02*
X81834133Y-48761687D01*
X81834133Y-48761687D02*
X81850241Y-48824000D01*
X81850241Y-48824000D02*
X81901593Y-48865299D01*
X81966356Y-48671980D02*
X81901593Y-48671980D01*
X82308735Y-48865299D02*
X82379799Y-48855911D01*
X82379799Y-48855911D02*
X82443413Y-48823322D01*
X82443413Y-48823322D02*
X82488658Y-48775314D01*
X82488658Y-48775314D02*
X82521910Y-48719007D01*
X81901593Y-48865299D02*
X82308735Y-48865299D01*
X82644688Y-48473449D02*
X82670686Y-48410345D01*
X82670686Y-48410345D02*
X82683128Y-48344918D01*
X82683128Y-48344918D02*
X82683814Y-48325039D01*
X82683814Y-48325039D02*
X82677133Y-48258130D01*
X82677133Y-48258130D02*
X82654998Y-48193423D01*
X82654998Y-48193423D02*
X82643339Y-48168530D01*
X82521910Y-48719007D02*
X82644688Y-48473449D01*
X82524608Y-47931070D02*
X82493054Y-47874884D01*
X82493054Y-47874884D02*
X82450927Y-47822820D01*
X82450927Y-47822820D02*
X82390657Y-47784420D01*
X82390657Y-47784420D02*
X82320878Y-47772554D01*
X82643339Y-48168530D02*
X82524608Y-47931070D01*
X81912388Y-47772554D02*
X81854950Y-47805347D01*
X81854950Y-47805347D02*
X81834133Y-47867781D01*
X81834133Y-47867781D02*
X81855839Y-47929412D01*
X81855839Y-47929412D02*
X81916435Y-47958878D01*
X82320878Y-47772554D02*
X81912388Y-47772554D01*
X81916435Y-47958878D02*
X81966356Y-47958878D01*
X81966356Y-47958878D02*
X81966356Y-48671980D01*
X82192188Y-47958878D02*
X82256106Y-47965455D01*
X82256106Y-47965455D02*
X82294727Y-48015544D01*
X82175996Y-47958878D02*
X82192188Y-47958878D01*
X82406712Y-48215751D02*
X82432822Y-48274974D01*
X82432822Y-48274974D02*
X82440441Y-48326387D01*
X82440441Y-48326387D02*
X82426218Y-48389402D01*
X82426218Y-48389402D02*
X82414808Y-48414084D01*
X82294727Y-48015544D02*
X82406712Y-48215751D01*
X82296076Y-48615314D02*
X82255735Y-48665055D01*
X82255735Y-48665055D02*
X82201632Y-48671980D01*
X82414808Y-48414084D02*
X82296076Y-48615314D01*
X82201632Y-48671980D02*
X82175996Y-48671980D01*
X82175996Y-48671980D02*
X82175996Y-47958878D01*
X79682579Y-47493016D02*
X82925011Y-47493016D01*
X82925011Y-47493016D02*
X82925011Y-49150382D01*
X82925011Y-49150382D02*
X79682579Y-49150382D01*
X79682579Y-49150382D02*
X79682579Y-47493016D01*
X79724107Y-47543916D02*
X82903156Y-47543916D01*
X79724107Y-47605171D02*
X82903156Y-47605171D01*
X79724107Y-47666415D02*
X82903156Y-47666415D01*
X79724107Y-47727674D02*
X82903156Y-47727674D01*
X79724107Y-47788923D02*
X80223261Y-47788923D01*
X80620824Y-47788923D02*
X80862870Y-47788923D01*
X81122456Y-47788923D02*
X81475588Y-47788923D01*
X81650981Y-47788923D02*
X81856296Y-47788923D01*
X82406136Y-47788923D02*
X82903156Y-47788923D01*
X79724107Y-47850171D02*
X80167136Y-47850171D01*
X80655905Y-47850171D02*
X80861702Y-47850171D01*
X81166890Y-47850171D02*
X81455708Y-47850171D01*
X81686062Y-47850171D02*
X81823224Y-47850171D01*
X82482201Y-47850171D02*
X82903156Y-47850171D01*
X79724107Y-47911419D02*
X80116029Y-47911419D01*
X80633687Y-47911419D02*
X80854685Y-47911419D01*
X81200800Y-47911419D02*
X81445184Y-47911419D01*
X81695415Y-47911419D02*
X81831492Y-47911419D01*
X82517756Y-47911419D02*
X82903156Y-47911419D01*
X79724107Y-47972676D02*
X80060437Y-47972676D01*
X80324195Y-47972676D02*
X80856668Y-47972676D01*
X81224604Y-47972676D02*
X81455288Y-47972676D01*
X81684318Y-47972676D02*
X81939806Y-47972676D01*
X82186200Y-47972676D02*
X82255654Y-47972676D01*
X82545868Y-47972676D02*
X82903156Y-47972676D01*
X79724107Y-48033927D02*
X80019096Y-48033927D01*
X80293604Y-48033927D02*
X80851708Y-48033927D01*
X81244449Y-48033927D02*
X81456115Y-48033927D01*
X81690105Y-48033927D02*
X81952209Y-48033927D01*
X82189506Y-48033927D02*
X82287072Y-48033927D01*
X82587209Y-48033927D02*
X82903156Y-48033927D01*
X79724107Y-48095175D02*
X79971141Y-48095175D01*
X80246473Y-48095175D02*
X80855841Y-48095175D01*
X81275868Y-48095175D02*
X81457768Y-48095175D01*
X81682664Y-48095175D02*
X81948901Y-48095175D01*
X82179586Y-48095175D02*
X82324279Y-48095175D01*
X82616147Y-48095175D02*
X82903156Y-48095175D01*
X79724107Y-48156424D02*
X79943856Y-48156424D01*
X80184460Y-48156424D02*
X80859149Y-48156424D01*
X81303979Y-48156424D02*
X81455288Y-48156424D01*
X81685972Y-48156424D02*
X81950555Y-48156424D01*
X82181238Y-48156424D02*
X82358178Y-48156424D01*
X82647568Y-48156424D02*
X82903156Y-48156424D01*
X79724107Y-48217680D02*
X79931454Y-48217680D01*
X80152215Y-48217680D02*
X80853360Y-48217680D01*
X81074950Y-48217680D02*
X81121251Y-48217680D01*
X81342014Y-48217680D02*
X81445365Y-48217680D01*
X81681010Y-48217680D02*
X81949728Y-48217680D01*
X82184546Y-48217680D02*
X82387118Y-48217680D01*
X82676505Y-48217680D02*
X82903156Y-48217680D01*
X79724107Y-48278931D02*
X79929800Y-48278931D01*
X80132372Y-48278931D02*
X80850054Y-48278931D01*
X81084872Y-48278931D02*
X81138615Y-48278931D01*
X81368470Y-48278931D02*
X81456115Y-48278931D01*
X81681837Y-48278931D02*
X81948901Y-48278931D01*
X82183719Y-48278931D02*
X82412750Y-48278931D01*
X82688082Y-48278931D02*
X82903156Y-48278931D01*
X79724107Y-48340179D02*
X79926492Y-48340179D01*
X80134852Y-48340179D02*
X80323368Y-48340179D01*
X80711147Y-48340179D02*
X80845920Y-48340179D01*
X81076604Y-48340179D02*
X81170033Y-48340179D01*
X81393277Y-48340179D02*
X81462728Y-48340179D01*
X81679356Y-48340179D02*
X81953863Y-48340179D01*
X82191160Y-48340179D02*
X82420191Y-48340179D01*
X82702137Y-48340179D02*
X82903156Y-48340179D01*
X79724107Y-48401431D02*
X79921532Y-48401431D01*
X80134024Y-48401431D02*
X80275411Y-48401431D01*
X80726032Y-48401431D02*
X80841823Y-48401431D01*
X81080361Y-48401431D02*
X81189108Y-48401431D01*
X81421798Y-48401431D02*
X81467400Y-48401431D01*
X81681384Y-48401431D02*
X81949728Y-48401431D01*
X82180413Y-48401431D02*
X82396213Y-48401431D01*
X82684773Y-48401431D02*
X82903156Y-48401431D01*
X79724107Y-48462687D02*
X79923186Y-48462687D01*
X80137332Y-48462687D02*
X80302696Y-48462687D01*
X80717761Y-48462687D02*
X80842993Y-48462687D01*
X81080361Y-48462687D02*
X81221848Y-48462687D01*
X81682552Y-48462687D02*
X81946422Y-48462687D01*
X82191987Y-48462687D02*
X82363139Y-48462687D01*
X82665756Y-48462687D02*
X82903156Y-48462687D01*
X79724107Y-48523935D02*
X79918224Y-48523935D01*
X80135678Y-48523935D02*
X80487905Y-48523935D01*
X80720242Y-48523935D02*
X80852347Y-48523935D01*
X81075684Y-48523935D02*
X81247572Y-48523935D01*
X81686062Y-48523935D02*
X81951382Y-48523935D01*
X82184546Y-48523935D02*
X82320972Y-48523935D01*
X82631032Y-48523935D02*
X82903156Y-48523935D01*
X79724107Y-48585184D02*
X79925665Y-48585184D01*
X80130718Y-48585184D02*
X80487078Y-48585184D01*
X80712801Y-48585184D02*
X80852347Y-48585184D01*
X81076854Y-48585184D02*
X81268620Y-48585184D01*
X81686062Y-48585184D02*
X81953863Y-48585184D01*
X82184546Y-48585184D02*
X82286245Y-48585184D01*
X82609532Y-48585184D02*
X82903156Y-48585184D01*
X79724107Y-48646435D02*
X79930627Y-48646435D01*
X80135678Y-48646435D02*
X80482945Y-48646435D01*
X80711147Y-48646435D02*
X80851178Y-48646435D01*
X81085039Y-48646435D02*
X81307208Y-48646435D01*
X81680214Y-48646435D02*
X81955515Y-48646435D01*
X82179586Y-48646435D02*
X82258960Y-48646435D01*
X82572327Y-48646435D02*
X82903156Y-48646435D01*
X79724107Y-48707689D02*
X79930627Y-48707689D01*
X80703706Y-48707689D02*
X80853517Y-48707689D01*
X81081532Y-48707689D02*
X81334101Y-48707689D01*
X81687230Y-48707689D02*
X81841414Y-48707689D01*
X82544214Y-48707689D02*
X82903156Y-48707689D01*
X79724107Y-48768938D02*
X79957911Y-48768938D01*
X80681382Y-48768938D02*
X80848840Y-48768938D01*
X81080361Y-48768938D02*
X81358656Y-48768938D01*
X81682552Y-48768938D02*
X81814956Y-48768938D01*
X82510314Y-48768938D02*
X82903156Y-48768938D01*
X79724107Y-48830188D02*
X80000906Y-48830188D01*
X80628464Y-48830188D02*
X80861702Y-48830188D01*
X81056975Y-48830188D02*
X81399582Y-48830188D01*
X81675538Y-48830188D02*
X81839760Y-48830188D01*
X82442515Y-48830188D02*
X82903156Y-48830188D01*
X79724107Y-48891437D02*
X82903156Y-48891437D01*
X79724107Y-48952699D02*
X82903156Y-48952699D01*
X79724107Y-49013948D02*
X82903156Y-49013948D01*
X79724107Y-49075193D02*
X82903156Y-49075193D01*
D12*
X80170500Y-48667500D02*
X80437200Y-48667500D01*
X79726000Y-47549900D02*
X79738700Y-49099300D01*
X79738700Y-49099300D02*
X82875600Y-49099300D01*
X82342200Y-48451600D02*
X82316800Y-48527800D01*
X81351600Y-47715000D02*
X81973900Y-47715000D01*
X80361000Y-47740400D02*
X80132400Y-47753100D01*
X80589600Y-47753100D02*
X80678500Y-47753100D01*
%TO.C,SW1*%
X52000000Y-42750000D02*
X52000000Y-41250000D01*
X50750000Y-38750000D02*
X46250000Y-38750000D01*
X45000000Y-41250000D02*
X45000000Y-42750000D01*
X46250000Y-45250000D02*
X50750000Y-45250000D01*
%TD*%
M02*
