%TF.GenerationSoftware,KiCad,Pcbnew,5.1.12-84ad8e8a86~92~ubuntu18.04.1*%
%TF.CreationDate,2022-05-07T17:48:54+02:00*%
%TF.ProjectId,button-board-6x6mm-4buttons,62757474-6f6e-42d6-926f-6172642d3678,v1r1*%
%TF.SameCoordinates,Original*%
%TF.FileFunction,Copper,L2,Bot*%
%TF.FilePolarity,Positive*%
%FSLAX46Y46*%
G04 Gerber Fmt 4.6, Leading zero omitted, Abs format (unit mm)*
G04 Created by KiCad (PCBNEW 5.1.12-84ad8e8a86~92~ubuntu18.04.1) date 2022-05-07 17:48:54*
%MOMM*%
%LPD*%
G01*
G04 APERTURE LIST*
%TA.AperFunction,SMDPad,CuDef*%
%ADD10R,1.000000X1.500000*%
%TD*%
%TA.AperFunction,ComponentPad*%
%ADD11R,1.700000X1.700000*%
%TD*%
%TA.AperFunction,ComponentPad*%
%ADD12O,1.700000X1.700000*%
%TD*%
%TA.AperFunction,ComponentPad*%
%ADD13C,1.700000*%
%TD*%
%TA.AperFunction,ComponentPad*%
%ADD14C,2.000000*%
%TD*%
%TA.AperFunction,ViaPad*%
%ADD15C,0.800000*%
%TD*%
%TA.AperFunction,Conductor*%
%ADD16C,0.250000*%
%TD*%
%TA.AperFunction,Conductor*%
%ADD17C,0.254000*%
%TD*%
%TA.AperFunction,Conductor*%
%ADD18C,0.100000*%
%TD*%
G04 APERTURE END LIST*
D10*
%TO.P,JP4,1*%
%TO.N,GND*%
X67200000Y-37100000D03*
%TO.P,JP4,2*%
%TO.N,Net-(JP4-Pad2)*%
X68500000Y-37100000D03*
%TO.P,JP4,3*%
%TO.N,VCC*%
X69800000Y-37100000D03*
%TD*%
%TO.P,JP3,1*%
%TO.N,GND*%
X49150000Y-35750000D03*
%TO.P,JP3,2*%
%TO.N,Net-(JP3-Pad2)*%
X50450000Y-35750000D03*
%TO.P,JP3,3*%
%TO.N,VCC*%
X51750000Y-35750000D03*
%TD*%
%TO.P,JP2,1*%
%TO.N,GND*%
X48950000Y-48250000D03*
%TO.P,JP2,2*%
%TO.N,Net-(JP2-Pad2)*%
X50250000Y-48250000D03*
%TO.P,JP2,3*%
%TO.N,VCC*%
X51550000Y-48250000D03*
%TD*%
%TO.P,JP1,1*%
%TO.N,GND*%
X39200000Y-39750000D03*
%TO.P,JP1,2*%
%TO.N,Net-(JP1-Pad2)*%
X40500000Y-39750000D03*
%TO.P,JP1,3*%
%TO.N,VCC*%
X41800000Y-39750000D03*
%TD*%
D11*
%TO.P,J1,6*%
%TO.N,GND*%
X84600000Y-48350000D03*
D12*
%TO.P,J1,5*%
%TO.N,VCC*%
X84600000Y-45810000D03*
%TO.P,J1,4*%
%TO.N,Net-(J1-Pad4)*%
X84600000Y-43270000D03*
%TO.P,J1,3*%
%TO.N,Net-(J1-Pad3)*%
X84600000Y-40730000D03*
%TO.P,J1,2*%
%TO.N,Net-(J1-Pad2)*%
X84600000Y-38190000D03*
D13*
%TO.P,J1,1*%
%TO.N,Net-(J1-Pad1)*%
X84600000Y-35650000D03*
%TD*%
D14*
%TO.P,SW4,1*%
%TO.N,Net-(JP4-Pad2)*%
X71750000Y-39750000D03*
%TO.P,SW4,2*%
%TO.N,Net-(J1-Pad4)*%
X71750000Y-44250000D03*
%TO.P,SW4,1*%
%TO.N,Net-(JP4-Pad2)*%
X65250000Y-39750000D03*
%TO.P,SW4,2*%
%TO.N,Net-(J1-Pad4)*%
X65250000Y-44250000D03*
%TD*%
%TO.P,SW3,1*%
%TO.N,Net-(JP3-Pad2)*%
X61750000Y-35750000D03*
%TO.P,SW3,2*%
%TO.N,Net-(J1-Pad3)*%
X61750000Y-40250000D03*
%TO.P,SW3,1*%
%TO.N,Net-(JP3-Pad2)*%
X55250000Y-35750000D03*
%TO.P,SW3,2*%
%TO.N,Net-(J1-Pad3)*%
X55250000Y-40250000D03*
%TD*%
%TO.P,SW2,1*%
%TO.N,Net-(JP2-Pad2)*%
X61750000Y-43750000D03*
%TO.P,SW2,2*%
%TO.N,Net-(J1-Pad2)*%
X61750000Y-48250000D03*
%TO.P,SW2,1*%
%TO.N,Net-(JP2-Pad2)*%
X55250000Y-43750000D03*
%TO.P,SW2,2*%
%TO.N,Net-(J1-Pad2)*%
X55250000Y-48250000D03*
%TD*%
%TO.P,SW1,1*%
%TO.N,Net-(JP1-Pad2)*%
X51750000Y-39750000D03*
%TO.P,SW1,2*%
%TO.N,Net-(J1-Pad1)*%
X51750000Y-44250000D03*
%TO.P,SW1,1*%
%TO.N,Net-(JP1-Pad2)*%
X45250000Y-39750000D03*
%TO.P,SW1,2*%
%TO.N,Net-(J1-Pad1)*%
X45250000Y-44250000D03*
%TD*%
D15*
%TO.N,VCC*%
X73200000Y-37100000D03*
X53350000Y-35750000D03*
X53150000Y-48250000D03*
X43350000Y-39750000D03*
%TD*%
D16*
%TO.N,Net-(J1-Pad3)*%
X55250000Y-40250000D02*
X61750000Y-40250000D01*
%TO.N,VCC*%
X69800000Y-37100000D02*
X73200000Y-37100000D01*
X73200000Y-37100000D02*
X73300000Y-37100000D01*
X51750000Y-35750000D02*
X53350000Y-35750000D01*
X53350000Y-35750000D02*
X53350000Y-35750000D01*
X41800000Y-39750000D02*
X43350000Y-39750000D01*
X51550000Y-48250000D02*
X53150000Y-48250000D01*
X53150000Y-48250000D02*
X53150000Y-48250000D01*
X43350000Y-39750000D02*
X43350000Y-39750000D01*
%TO.N,Net-(J1-Pad4)*%
X83620000Y-44250000D02*
X84600000Y-43270000D01*
X71750000Y-44250000D02*
X83620000Y-44250000D01*
X65250000Y-44250000D02*
X71750000Y-44250000D01*
%TO.N,Net-(J1-Pad2)*%
X55250000Y-48250000D02*
X61750000Y-48250000D01*
X81264989Y-41525011D02*
X84600000Y-38190000D01*
X72513987Y-41525011D02*
X81264989Y-41525011D01*
X67875807Y-43501978D02*
X70537020Y-43501978D01*
X67298828Y-42924999D02*
X67875807Y-43501978D01*
X64613999Y-42924999D02*
X67298828Y-42924999D01*
X70537020Y-43501978D02*
X72513987Y-41525011D01*
X61750000Y-45788998D02*
X64613999Y-42924999D01*
X61750000Y-48250000D02*
X61750000Y-45788998D01*
%TO.N,Net-(JP1-Pad2)*%
X51750000Y-39750000D02*
X45250000Y-39750000D01*
X45250000Y-39750000D02*
X42950000Y-42050000D01*
X42950000Y-42050000D02*
X40950000Y-42050000D01*
X40500000Y-41600000D02*
X40500000Y-39750000D01*
X40950000Y-42050000D02*
X40500000Y-41600000D01*
%TO.N,Net-(JP2-Pad2)*%
X61750000Y-43750000D02*
X55250000Y-43750000D01*
X55250000Y-43750000D02*
X52950000Y-46050000D01*
X52950000Y-46050000D02*
X50650000Y-46050000D01*
X50250000Y-46450000D02*
X50250000Y-48250000D01*
X50650000Y-46050000D02*
X50250000Y-46450000D01*
%TO.N,Net-(JP3-Pad2)*%
X61750000Y-35750000D02*
X55250000Y-35750000D01*
X55250000Y-35750000D02*
X53750000Y-37250000D01*
X53750000Y-37250000D02*
X50800000Y-37250000D01*
X50450000Y-36900000D02*
X50450000Y-35750000D01*
X50800000Y-37250000D02*
X50450000Y-36900000D01*
%TO.N,Net-(JP4-Pad2)*%
X71750000Y-39750000D02*
X65250000Y-39750000D01*
X68500000Y-38500000D02*
X68500000Y-37100000D01*
X68200000Y-38800000D02*
X68500000Y-38500000D01*
X65250000Y-39750000D02*
X66200000Y-38800000D01*
X66200000Y-38800000D02*
X68200000Y-38800000D01*
%TO.N,Net-(J1-Pad1)*%
X79174999Y-41075001D02*
X84600000Y-35650000D01*
X71113999Y-41075001D02*
X79174999Y-41075001D01*
X70424999Y-40386001D02*
X71113999Y-41075001D01*
X66575001Y-40386001D02*
X70424999Y-40386001D01*
X64536003Y-42424999D02*
X66575001Y-40386001D01*
X53575001Y-42424999D02*
X64536003Y-42424999D01*
X51750000Y-44250000D02*
X53575001Y-42424999D01*
X51750000Y-44250000D02*
X45250000Y-44250000D01*
%TD*%
D17*
%TO.N,GND*%
X87840001Y-51340000D02*
X37160000Y-51340000D01*
X37160000Y-47796552D01*
X38270380Y-47796552D01*
X38270380Y-48236808D01*
X38356270Y-48668605D01*
X38524749Y-49075349D01*
X38769342Y-49441409D01*
X39080651Y-49752718D01*
X39446711Y-49997311D01*
X39853455Y-50165790D01*
X40285252Y-50251680D01*
X40725508Y-50251680D01*
X41157305Y-50165790D01*
X41564049Y-49997311D01*
X41930109Y-49752718D01*
X42241418Y-49441409D01*
X42486011Y-49075349D01*
X42517221Y-49000000D01*
X47811928Y-49000000D01*
X47824188Y-49124482D01*
X47860498Y-49244180D01*
X47919463Y-49354494D01*
X47998815Y-49451185D01*
X48095506Y-49530537D01*
X48205820Y-49589502D01*
X48325518Y-49625812D01*
X48450000Y-49638072D01*
X48664250Y-49635000D01*
X48823000Y-49476250D01*
X48823000Y-48377000D01*
X47973750Y-48377000D01*
X47815000Y-48535750D01*
X47811928Y-49000000D01*
X42517221Y-49000000D01*
X42654490Y-48668605D01*
X42740380Y-48236808D01*
X42740380Y-47796552D01*
X42681392Y-47500000D01*
X47811928Y-47500000D01*
X47815000Y-47964250D01*
X47973750Y-48123000D01*
X48823000Y-48123000D01*
X48823000Y-47023750D01*
X48664250Y-46865000D01*
X48450000Y-46861928D01*
X48325518Y-46874188D01*
X48205820Y-46910498D01*
X48095506Y-46969463D01*
X47998815Y-47048815D01*
X47919463Y-47145506D01*
X47860498Y-47255820D01*
X47824188Y-47375518D01*
X47811928Y-47500000D01*
X42681392Y-47500000D01*
X42654490Y-47364755D01*
X42486011Y-46958011D01*
X42241418Y-46591951D01*
X41930109Y-46280642D01*
X41564049Y-46036049D01*
X41157305Y-45867570D01*
X40725508Y-45781680D01*
X40285252Y-45781680D01*
X39853455Y-45867570D01*
X39446711Y-46036049D01*
X39080651Y-46280642D01*
X38769342Y-46591951D01*
X38524749Y-46958011D01*
X38356270Y-47364755D01*
X38270380Y-47796552D01*
X37160000Y-47796552D01*
X37160000Y-40500000D01*
X38061928Y-40500000D01*
X38074188Y-40624482D01*
X38110498Y-40744180D01*
X38169463Y-40854494D01*
X38248815Y-40951185D01*
X38345506Y-41030537D01*
X38455820Y-41089502D01*
X38575518Y-41125812D01*
X38700000Y-41138072D01*
X38914250Y-41135000D01*
X39073000Y-40976250D01*
X39073000Y-39877000D01*
X38223750Y-39877000D01*
X38065000Y-40035750D01*
X38061928Y-40500000D01*
X37160000Y-40500000D01*
X37160000Y-39000000D01*
X38061928Y-39000000D01*
X38065000Y-39464250D01*
X38223750Y-39623000D01*
X39073000Y-39623000D01*
X39073000Y-38523750D01*
X39327000Y-38523750D01*
X39327000Y-39623000D01*
X39347000Y-39623000D01*
X39347000Y-39877000D01*
X39327000Y-39877000D01*
X39327000Y-40976250D01*
X39485750Y-41135000D01*
X39700000Y-41138072D01*
X39740000Y-41134132D01*
X39740000Y-41562677D01*
X39736324Y-41600000D01*
X39740000Y-41637322D01*
X39740000Y-41637332D01*
X39750997Y-41748985D01*
X39791793Y-41883475D01*
X39794454Y-41892246D01*
X39865026Y-42024276D01*
X39898458Y-42065012D01*
X39959999Y-42140001D01*
X39989003Y-42163804D01*
X40386196Y-42560997D01*
X40409999Y-42590001D01*
X40483146Y-42650031D01*
X40525723Y-42684974D01*
X40609960Y-42730000D01*
X40657753Y-42755546D01*
X40801014Y-42799003D01*
X40912667Y-42810000D01*
X40912676Y-42810000D01*
X40949999Y-42813676D01*
X40987322Y-42810000D01*
X42912678Y-42810000D01*
X42950000Y-42813676D01*
X42987322Y-42810000D01*
X42987333Y-42810000D01*
X43098986Y-42799003D01*
X43242247Y-42755546D01*
X43374276Y-42684974D01*
X43490001Y-42590001D01*
X43513804Y-42560997D01*
X44758625Y-41316177D01*
X44773088Y-41322168D01*
X45088967Y-41385000D01*
X45411033Y-41385000D01*
X45726912Y-41322168D01*
X46024463Y-41198918D01*
X46292252Y-41019987D01*
X46519987Y-40792252D01*
X46698918Y-40524463D01*
X46704909Y-40510000D01*
X47451891Y-40510000D01*
X47339060Y-40585391D01*
X47085391Y-40839060D01*
X46886084Y-41137344D01*
X46748799Y-41468779D01*
X46678812Y-41820629D01*
X46678812Y-42179371D01*
X46748799Y-42531221D01*
X46886084Y-42862656D01*
X47085391Y-43160940D01*
X47339060Y-43414609D01*
X47451891Y-43490000D01*
X46704909Y-43490000D01*
X46698918Y-43475537D01*
X46519987Y-43207748D01*
X46292252Y-42980013D01*
X46024463Y-42801082D01*
X45726912Y-42677832D01*
X45411033Y-42615000D01*
X45088967Y-42615000D01*
X44773088Y-42677832D01*
X44475537Y-42801082D01*
X44207748Y-42980013D01*
X43980013Y-43207748D01*
X43801082Y-43475537D01*
X43677832Y-43773088D01*
X43615000Y-44088967D01*
X43615000Y-44411033D01*
X43677832Y-44726912D01*
X43801082Y-45024463D01*
X43980013Y-45292252D01*
X44207748Y-45519987D01*
X44475537Y-45698918D01*
X44773088Y-45822168D01*
X45088967Y-45885000D01*
X45411033Y-45885000D01*
X45726912Y-45822168D01*
X46024463Y-45698918D01*
X46292252Y-45519987D01*
X46519987Y-45292252D01*
X46698918Y-45024463D01*
X46704909Y-45010000D01*
X50295091Y-45010000D01*
X50301082Y-45024463D01*
X50480013Y-45292252D01*
X50491610Y-45303849D01*
X50357753Y-45344454D01*
X50225724Y-45415026D01*
X50109999Y-45509999D01*
X50086200Y-45538998D01*
X49739002Y-45886197D01*
X49709999Y-45909999D01*
X49675553Y-45951972D01*
X49615026Y-46025724D01*
X49602050Y-46050001D01*
X49544454Y-46157754D01*
X49500997Y-46301015D01*
X49490000Y-46412668D01*
X49490000Y-46412678D01*
X49486324Y-46450000D01*
X49490000Y-46487323D01*
X49490000Y-46865868D01*
X49450000Y-46861928D01*
X49235750Y-46865000D01*
X49077000Y-47023750D01*
X49077000Y-48123000D01*
X49097000Y-48123000D01*
X49097000Y-48377000D01*
X49077000Y-48377000D01*
X49077000Y-49476250D01*
X49235750Y-49635000D01*
X49450000Y-49638072D01*
X49574482Y-49625812D01*
X49600000Y-49618071D01*
X49625518Y-49625812D01*
X49750000Y-49638072D01*
X50750000Y-49638072D01*
X50874482Y-49625812D01*
X50900000Y-49618071D01*
X50925518Y-49625812D01*
X51050000Y-49638072D01*
X52050000Y-49638072D01*
X52174482Y-49625812D01*
X52294180Y-49589502D01*
X52404494Y-49530537D01*
X52501185Y-49451185D01*
X52580537Y-49354494D01*
X52639502Y-49244180D01*
X52662505Y-49168349D01*
X52848102Y-49245226D01*
X53048061Y-49285000D01*
X53251939Y-49285000D01*
X53451898Y-49245226D01*
X53640256Y-49167205D01*
X53809774Y-49053937D01*
X53816369Y-49047342D01*
X53980013Y-49292252D01*
X54207748Y-49519987D01*
X54475537Y-49698918D01*
X54773088Y-49822168D01*
X55088967Y-49885000D01*
X55411033Y-49885000D01*
X55726912Y-49822168D01*
X56024463Y-49698918D01*
X56292252Y-49519987D01*
X56519987Y-49292252D01*
X56698918Y-49024463D01*
X56704909Y-49010000D01*
X60295091Y-49010000D01*
X60301082Y-49024463D01*
X60480013Y-49292252D01*
X60707748Y-49519987D01*
X60975537Y-49698918D01*
X61273088Y-49822168D01*
X61588967Y-49885000D01*
X61911033Y-49885000D01*
X62226912Y-49822168D01*
X62524463Y-49698918D01*
X62792252Y-49519987D01*
X63019987Y-49292252D01*
X63198918Y-49024463D01*
X63322168Y-48726912D01*
X63385000Y-48411033D01*
X63385000Y-48088967D01*
X63326836Y-47796552D01*
X74262180Y-47796552D01*
X74262180Y-48236808D01*
X74348070Y-48668605D01*
X74516549Y-49075349D01*
X74761142Y-49441409D01*
X75072451Y-49752718D01*
X75438511Y-49997311D01*
X75845255Y-50165790D01*
X76277052Y-50251680D01*
X76717308Y-50251680D01*
X77149105Y-50165790D01*
X77555849Y-49997311D01*
X77921909Y-49752718D01*
X78233218Y-49441409D01*
X78394522Y-49200000D01*
X83111928Y-49200000D01*
X83124188Y-49324482D01*
X83160498Y-49444180D01*
X83219463Y-49554494D01*
X83298815Y-49651185D01*
X83395506Y-49730537D01*
X83505820Y-49789502D01*
X83625518Y-49825812D01*
X83750000Y-49838072D01*
X84314250Y-49835000D01*
X84473000Y-49676250D01*
X84473000Y-48477000D01*
X84727000Y-48477000D01*
X84727000Y-49676250D01*
X84885750Y-49835000D01*
X85450000Y-49838072D01*
X85574482Y-49825812D01*
X85694180Y-49789502D01*
X85804494Y-49730537D01*
X85901185Y-49651185D01*
X85980537Y-49554494D01*
X86039502Y-49444180D01*
X86075812Y-49324482D01*
X86088072Y-49200000D01*
X86085000Y-48635750D01*
X85926250Y-48477000D01*
X84727000Y-48477000D01*
X84473000Y-48477000D01*
X83273750Y-48477000D01*
X83115000Y-48635750D01*
X83111928Y-49200000D01*
X78394522Y-49200000D01*
X78477811Y-49075349D01*
X78646290Y-48668605D01*
X78732180Y-48236808D01*
X78732180Y-47796552D01*
X78646290Y-47364755D01*
X78477811Y-46958011D01*
X78233218Y-46591951D01*
X77921909Y-46280642D01*
X77555849Y-46036049D01*
X77149105Y-45867570D01*
X76717308Y-45781680D01*
X76277052Y-45781680D01*
X75845255Y-45867570D01*
X75438511Y-46036049D01*
X75072451Y-46280642D01*
X74761142Y-46591951D01*
X74516549Y-46958011D01*
X74348070Y-47364755D01*
X74262180Y-47796552D01*
X63326836Y-47796552D01*
X63322168Y-47773088D01*
X63198918Y-47475537D01*
X63019987Y-47207748D01*
X62792252Y-46980013D01*
X62524463Y-46801082D01*
X62510000Y-46795091D01*
X62510000Y-46103799D01*
X63739063Y-44874736D01*
X63801082Y-45024463D01*
X63980013Y-45292252D01*
X64207748Y-45519987D01*
X64475537Y-45698918D01*
X64773088Y-45822168D01*
X65088967Y-45885000D01*
X65411033Y-45885000D01*
X65726912Y-45822168D01*
X66024463Y-45698918D01*
X66292252Y-45519987D01*
X66519987Y-45292252D01*
X66698918Y-45024463D01*
X66704909Y-45010000D01*
X70295091Y-45010000D01*
X70301082Y-45024463D01*
X70480013Y-45292252D01*
X70707748Y-45519987D01*
X70975537Y-45698918D01*
X71273088Y-45822168D01*
X71588967Y-45885000D01*
X71911033Y-45885000D01*
X72226912Y-45822168D01*
X72524463Y-45698918D01*
X72792252Y-45519987D01*
X73019987Y-45292252D01*
X73198918Y-45024463D01*
X73204909Y-45010000D01*
X83348549Y-45010000D01*
X83284010Y-45106589D01*
X83172068Y-45376842D01*
X83115000Y-45663740D01*
X83115000Y-45956260D01*
X83172068Y-46243158D01*
X83284010Y-46513411D01*
X83446525Y-46756632D01*
X83578380Y-46888487D01*
X83505820Y-46910498D01*
X83395506Y-46969463D01*
X83298815Y-47048815D01*
X83219463Y-47145506D01*
X83160498Y-47255820D01*
X83124188Y-47375518D01*
X83111928Y-47500000D01*
X83115000Y-48064250D01*
X83273750Y-48223000D01*
X84473000Y-48223000D01*
X84473000Y-48203000D01*
X84727000Y-48203000D01*
X84727000Y-48223000D01*
X85926250Y-48223000D01*
X86085000Y-48064250D01*
X86088072Y-47500000D01*
X86075812Y-47375518D01*
X86039502Y-47255820D01*
X85980537Y-47145506D01*
X85901185Y-47048815D01*
X85804494Y-46969463D01*
X85694180Y-46910498D01*
X85621620Y-46888487D01*
X85753475Y-46756632D01*
X85915990Y-46513411D01*
X86027932Y-46243158D01*
X86085000Y-45956260D01*
X86085000Y-45663740D01*
X86027932Y-45376842D01*
X85915990Y-45106589D01*
X85753475Y-44863368D01*
X85546632Y-44656525D01*
X85372240Y-44540000D01*
X85546632Y-44423475D01*
X85753475Y-44216632D01*
X85915990Y-43973411D01*
X86027932Y-43703158D01*
X86085000Y-43416260D01*
X86085000Y-43123740D01*
X86027932Y-42836842D01*
X85915990Y-42566589D01*
X85753475Y-42323368D01*
X85546632Y-42116525D01*
X85372240Y-42000000D01*
X85546632Y-41883475D01*
X85753475Y-41676632D01*
X85915990Y-41433411D01*
X86027932Y-41163158D01*
X86085000Y-40876260D01*
X86085000Y-40583740D01*
X86027932Y-40296842D01*
X85915990Y-40026589D01*
X85753475Y-39783368D01*
X85546632Y-39576525D01*
X85372240Y-39460000D01*
X85546632Y-39343475D01*
X85753475Y-39136632D01*
X85915990Y-38893411D01*
X86027932Y-38623158D01*
X86085000Y-38336260D01*
X86085000Y-38043740D01*
X86027932Y-37756842D01*
X85915990Y-37486589D01*
X85753475Y-37243368D01*
X85546632Y-37036525D01*
X85372240Y-36920000D01*
X85546632Y-36803475D01*
X85753475Y-36596632D01*
X85915990Y-36353411D01*
X86027932Y-36083158D01*
X86085000Y-35796260D01*
X86085000Y-35503740D01*
X86027932Y-35216842D01*
X85915990Y-34946589D01*
X85753475Y-34703368D01*
X85546632Y-34496525D01*
X85303411Y-34334010D01*
X85033158Y-34222068D01*
X84746260Y-34165000D01*
X84453740Y-34165000D01*
X84166842Y-34222068D01*
X83896589Y-34334010D01*
X83653368Y-34496525D01*
X83446525Y-34703368D01*
X83284010Y-34946589D01*
X83172068Y-35216842D01*
X83115000Y-35503740D01*
X83115000Y-35796260D01*
X83158790Y-36016408D01*
X78860198Y-40315001D01*
X73285680Y-40315001D01*
X73322168Y-40226912D01*
X73385000Y-39911033D01*
X73385000Y-39588967D01*
X73322168Y-39273088D01*
X73198918Y-38975537D01*
X73019987Y-38707748D01*
X72792252Y-38480013D01*
X72524463Y-38301082D01*
X72226912Y-38177832D01*
X71911033Y-38115000D01*
X71588967Y-38115000D01*
X71273088Y-38177832D01*
X70975537Y-38301082D01*
X70707748Y-38480013D01*
X70480013Y-38707748D01*
X70301082Y-38975537D01*
X70295091Y-38990000D01*
X69081036Y-38990000D01*
X69134974Y-38924276D01*
X69205546Y-38792247D01*
X69249003Y-38648986D01*
X69260000Y-38537333D01*
X69260000Y-38537324D01*
X69263676Y-38500001D01*
X69262134Y-38484343D01*
X69300000Y-38488072D01*
X70300000Y-38488072D01*
X70424482Y-38475812D01*
X70544180Y-38439502D01*
X70654494Y-38380537D01*
X70751185Y-38301185D01*
X70830537Y-38204494D01*
X70889502Y-38094180D01*
X70925812Y-37974482D01*
X70937087Y-37860000D01*
X72496289Y-37860000D01*
X72540226Y-37903937D01*
X72709744Y-38017205D01*
X72898102Y-38095226D01*
X73098061Y-38135000D01*
X73301939Y-38135000D01*
X73501898Y-38095226D01*
X73690256Y-38017205D01*
X73859774Y-37903937D01*
X74003937Y-37759774D01*
X74117205Y-37590256D01*
X74195226Y-37401898D01*
X74235000Y-37201939D01*
X74235000Y-36998061D01*
X74195226Y-36798102D01*
X74117205Y-36609744D01*
X74003937Y-36440226D01*
X73859774Y-36296063D01*
X73690256Y-36182795D01*
X73501898Y-36104774D01*
X73301939Y-36065000D01*
X73098061Y-36065000D01*
X72898102Y-36104774D01*
X72709744Y-36182795D01*
X72540226Y-36296063D01*
X72496289Y-36340000D01*
X70937087Y-36340000D01*
X70925812Y-36225518D01*
X70889502Y-36105820D01*
X70830537Y-35995506D01*
X70751185Y-35898815D01*
X70654494Y-35819463D01*
X70611632Y-35796552D01*
X74262180Y-35796552D01*
X74262180Y-36236808D01*
X74348070Y-36668605D01*
X74516549Y-37075349D01*
X74761142Y-37441409D01*
X75072451Y-37752718D01*
X75438511Y-37997311D01*
X75845255Y-38165790D01*
X76277052Y-38251680D01*
X76717308Y-38251680D01*
X77149105Y-38165790D01*
X77555849Y-37997311D01*
X77921909Y-37752718D01*
X78233218Y-37441409D01*
X78477811Y-37075349D01*
X78646290Y-36668605D01*
X78732180Y-36236808D01*
X78732180Y-35796552D01*
X78646290Y-35364755D01*
X78477811Y-34958011D01*
X78233218Y-34591951D01*
X77921909Y-34280642D01*
X77555849Y-34036049D01*
X77149105Y-33867570D01*
X76717308Y-33781680D01*
X76277052Y-33781680D01*
X75845255Y-33867570D01*
X75438511Y-34036049D01*
X75072451Y-34280642D01*
X74761142Y-34591951D01*
X74516549Y-34958011D01*
X74348070Y-35364755D01*
X74262180Y-35796552D01*
X70611632Y-35796552D01*
X70544180Y-35760498D01*
X70424482Y-35724188D01*
X70300000Y-35711928D01*
X69300000Y-35711928D01*
X69175518Y-35724188D01*
X69150000Y-35731929D01*
X69124482Y-35724188D01*
X69000000Y-35711928D01*
X68000000Y-35711928D01*
X67875518Y-35724188D01*
X67850000Y-35731929D01*
X67824482Y-35724188D01*
X67700000Y-35711928D01*
X67485750Y-35715000D01*
X67327000Y-35873750D01*
X67327000Y-36973000D01*
X67347000Y-36973000D01*
X67347000Y-37227000D01*
X67327000Y-37227000D01*
X67327000Y-37247000D01*
X67073000Y-37247000D01*
X67073000Y-37227000D01*
X66223750Y-37227000D01*
X66065000Y-37385750D01*
X66061928Y-37850000D01*
X66074188Y-37974482D01*
X66096053Y-38046561D01*
X66051014Y-38050997D01*
X65908656Y-38094180D01*
X65907753Y-38094454D01*
X65775723Y-38165026D01*
X65748981Y-38186973D01*
X65726912Y-38177832D01*
X65411033Y-38115000D01*
X65088967Y-38115000D01*
X64773088Y-38177832D01*
X64475537Y-38301082D01*
X64207748Y-38480013D01*
X63980013Y-38707748D01*
X63801082Y-38975537D01*
X63677832Y-39273088D01*
X63615000Y-39588967D01*
X63615000Y-39911033D01*
X63677832Y-40226912D01*
X63801082Y-40524463D01*
X63980013Y-40792252D01*
X64207748Y-41019987D01*
X64475537Y-41198918D01*
X64625264Y-41260937D01*
X64221202Y-41664999D01*
X62575226Y-41664999D01*
X62792252Y-41519987D01*
X63019987Y-41292252D01*
X63198918Y-41024463D01*
X63322168Y-40726912D01*
X63385000Y-40411033D01*
X63385000Y-40088967D01*
X63322168Y-39773088D01*
X63198918Y-39475537D01*
X63019987Y-39207748D01*
X62792252Y-38980013D01*
X62524463Y-38801082D01*
X62226912Y-38677832D01*
X61911033Y-38615000D01*
X61588967Y-38615000D01*
X61273088Y-38677832D01*
X60975537Y-38801082D01*
X60707748Y-38980013D01*
X60480013Y-39207748D01*
X60301082Y-39475537D01*
X60295091Y-39490000D01*
X59548109Y-39490000D01*
X59660940Y-39414609D01*
X59914609Y-39160940D01*
X60113916Y-38862656D01*
X60251201Y-38531221D01*
X60321188Y-38179371D01*
X60321188Y-37820629D01*
X60251201Y-37468779D01*
X60113916Y-37137344D01*
X59914609Y-36839060D01*
X59660940Y-36585391D01*
X59548109Y-36510000D01*
X60295091Y-36510000D01*
X60301082Y-36524463D01*
X60480013Y-36792252D01*
X60707748Y-37019987D01*
X60975537Y-37198918D01*
X61273088Y-37322168D01*
X61588967Y-37385000D01*
X61911033Y-37385000D01*
X62226912Y-37322168D01*
X62524463Y-37198918D01*
X62792252Y-37019987D01*
X63019987Y-36792252D01*
X63198918Y-36524463D01*
X63271183Y-36350000D01*
X66061928Y-36350000D01*
X66065000Y-36814250D01*
X66223750Y-36973000D01*
X67073000Y-36973000D01*
X67073000Y-35873750D01*
X66914250Y-35715000D01*
X66700000Y-35711928D01*
X66575518Y-35724188D01*
X66455820Y-35760498D01*
X66345506Y-35819463D01*
X66248815Y-35898815D01*
X66169463Y-35995506D01*
X66110498Y-36105820D01*
X66074188Y-36225518D01*
X66061928Y-36350000D01*
X63271183Y-36350000D01*
X63322168Y-36226912D01*
X63385000Y-35911033D01*
X63385000Y-35588967D01*
X63322168Y-35273088D01*
X63198918Y-34975537D01*
X63019987Y-34707748D01*
X62792252Y-34480013D01*
X62524463Y-34301082D01*
X62226912Y-34177832D01*
X61911033Y-34115000D01*
X61588967Y-34115000D01*
X61273088Y-34177832D01*
X60975537Y-34301082D01*
X60707748Y-34480013D01*
X60480013Y-34707748D01*
X60301082Y-34975537D01*
X60295091Y-34990000D01*
X56704909Y-34990000D01*
X56698918Y-34975537D01*
X56519987Y-34707748D01*
X56292252Y-34480013D01*
X56024463Y-34301082D01*
X55726912Y-34177832D01*
X55411033Y-34115000D01*
X55088967Y-34115000D01*
X54773088Y-34177832D01*
X54475537Y-34301082D01*
X54207748Y-34480013D01*
X53980013Y-34707748D01*
X53879112Y-34858757D01*
X53840256Y-34832795D01*
X53651898Y-34754774D01*
X53451939Y-34715000D01*
X53248061Y-34715000D01*
X53048102Y-34754774D01*
X52862505Y-34831651D01*
X52839502Y-34755820D01*
X52780537Y-34645506D01*
X52701185Y-34548815D01*
X52604494Y-34469463D01*
X52494180Y-34410498D01*
X52374482Y-34374188D01*
X52250000Y-34361928D01*
X51250000Y-34361928D01*
X51125518Y-34374188D01*
X51100000Y-34381929D01*
X51074482Y-34374188D01*
X50950000Y-34361928D01*
X49950000Y-34361928D01*
X49825518Y-34374188D01*
X49800000Y-34381929D01*
X49774482Y-34374188D01*
X49650000Y-34361928D01*
X49435750Y-34365000D01*
X49277000Y-34523750D01*
X49277000Y-35623000D01*
X49297000Y-35623000D01*
X49297000Y-35877000D01*
X49277000Y-35877000D01*
X49277000Y-36976250D01*
X49435750Y-37135000D01*
X49650000Y-37138072D01*
X49725758Y-37130611D01*
X49744454Y-37192246D01*
X49815026Y-37324276D01*
X49854871Y-37372826D01*
X49909999Y-37440001D01*
X49939003Y-37463804D01*
X50236196Y-37760997D01*
X50259999Y-37790001D01*
X50375724Y-37884974D01*
X50507753Y-37955546D01*
X50651014Y-37999003D01*
X50762667Y-38010000D01*
X50762675Y-38010000D01*
X50800000Y-38013676D01*
X50837325Y-38010000D01*
X53712678Y-38010000D01*
X53750000Y-38013676D01*
X53787322Y-38010000D01*
X53787333Y-38010000D01*
X53898986Y-37999003D01*
X54042247Y-37955546D01*
X54174276Y-37884974D01*
X54290001Y-37790001D01*
X54313804Y-37760997D01*
X54758624Y-37316177D01*
X54773088Y-37322168D01*
X55088967Y-37385000D01*
X55411033Y-37385000D01*
X55726912Y-37322168D01*
X56024463Y-37198918D01*
X56292252Y-37019987D01*
X56519987Y-36792252D01*
X56698918Y-36524463D01*
X56704909Y-36510000D01*
X57451891Y-36510000D01*
X57339060Y-36585391D01*
X57085391Y-36839060D01*
X56886084Y-37137344D01*
X56748799Y-37468779D01*
X56678812Y-37820629D01*
X56678812Y-38179371D01*
X56748799Y-38531221D01*
X56886084Y-38862656D01*
X57085391Y-39160940D01*
X57339060Y-39414609D01*
X57451891Y-39490000D01*
X56704909Y-39490000D01*
X56698918Y-39475537D01*
X56519987Y-39207748D01*
X56292252Y-38980013D01*
X56024463Y-38801082D01*
X55726912Y-38677832D01*
X55411033Y-38615000D01*
X55088967Y-38615000D01*
X54773088Y-38677832D01*
X54475537Y-38801082D01*
X54207748Y-38980013D01*
X53980013Y-39207748D01*
X53801082Y-39475537D01*
X53677832Y-39773088D01*
X53615000Y-40088967D01*
X53615000Y-40411033D01*
X53677832Y-40726912D01*
X53801082Y-41024463D01*
X53980013Y-41292252D01*
X54207748Y-41519987D01*
X54424774Y-41664999D01*
X53612323Y-41664999D01*
X53575000Y-41661323D01*
X53537677Y-41664999D01*
X53537668Y-41664999D01*
X53426015Y-41675996D01*
X53282754Y-41719453D01*
X53150725Y-41790025D01*
X53035000Y-41884998D01*
X53011202Y-41913996D01*
X52241375Y-42683823D01*
X52226912Y-42677832D01*
X51911033Y-42615000D01*
X51588967Y-42615000D01*
X51273088Y-42677832D01*
X50975537Y-42801082D01*
X50707748Y-42980013D01*
X50480013Y-43207748D01*
X50301082Y-43475537D01*
X50295091Y-43490000D01*
X49548109Y-43490000D01*
X49660940Y-43414609D01*
X49914609Y-43160940D01*
X50113916Y-42862656D01*
X50251201Y-42531221D01*
X50321188Y-42179371D01*
X50321188Y-41820629D01*
X50251201Y-41468779D01*
X50113916Y-41137344D01*
X49914609Y-40839060D01*
X49660940Y-40585391D01*
X49548109Y-40510000D01*
X50295091Y-40510000D01*
X50301082Y-40524463D01*
X50480013Y-40792252D01*
X50707748Y-41019987D01*
X50975537Y-41198918D01*
X51273088Y-41322168D01*
X51588967Y-41385000D01*
X51911033Y-41385000D01*
X52226912Y-41322168D01*
X52524463Y-41198918D01*
X52792252Y-41019987D01*
X53019987Y-40792252D01*
X53198918Y-40524463D01*
X53322168Y-40226912D01*
X53385000Y-39911033D01*
X53385000Y-39588967D01*
X53322168Y-39273088D01*
X53198918Y-38975537D01*
X53019987Y-38707748D01*
X52792252Y-38480013D01*
X52524463Y-38301082D01*
X52226912Y-38177832D01*
X51911033Y-38115000D01*
X51588967Y-38115000D01*
X51273088Y-38177832D01*
X50975537Y-38301082D01*
X50707748Y-38480013D01*
X50480013Y-38707748D01*
X50301082Y-38975537D01*
X50295091Y-38990000D01*
X46704909Y-38990000D01*
X46698918Y-38975537D01*
X46519987Y-38707748D01*
X46292252Y-38480013D01*
X46024463Y-38301082D01*
X45726912Y-38177832D01*
X45411033Y-38115000D01*
X45088967Y-38115000D01*
X44773088Y-38177832D01*
X44475537Y-38301082D01*
X44207748Y-38480013D01*
X43980013Y-38707748D01*
X43879112Y-38858757D01*
X43840256Y-38832795D01*
X43651898Y-38754774D01*
X43451939Y-38715000D01*
X43248061Y-38715000D01*
X43048102Y-38754774D01*
X42906924Y-38813252D01*
X42889502Y-38755820D01*
X42830537Y-38645506D01*
X42751185Y-38548815D01*
X42654494Y-38469463D01*
X42544180Y-38410498D01*
X42424482Y-38374188D01*
X42300000Y-38361928D01*
X41300000Y-38361928D01*
X41175518Y-38374188D01*
X41150000Y-38381929D01*
X41124482Y-38374188D01*
X41000000Y-38361928D01*
X40000000Y-38361928D01*
X39875518Y-38374188D01*
X39850000Y-38381929D01*
X39824482Y-38374188D01*
X39700000Y-38361928D01*
X39485750Y-38365000D01*
X39327000Y-38523750D01*
X39073000Y-38523750D01*
X38914250Y-38365000D01*
X38700000Y-38361928D01*
X38575518Y-38374188D01*
X38455820Y-38410498D01*
X38345506Y-38469463D01*
X38248815Y-38548815D01*
X38169463Y-38645506D01*
X38110498Y-38755820D01*
X38074188Y-38875518D01*
X38061928Y-39000000D01*
X37160000Y-39000000D01*
X37160000Y-35796552D01*
X38270380Y-35796552D01*
X38270380Y-36236808D01*
X38356270Y-36668605D01*
X38524749Y-37075349D01*
X38769342Y-37441409D01*
X39080651Y-37752718D01*
X39446711Y-37997311D01*
X39853455Y-38165790D01*
X40285252Y-38251680D01*
X40725508Y-38251680D01*
X41157305Y-38165790D01*
X41564049Y-37997311D01*
X41930109Y-37752718D01*
X42241418Y-37441409D01*
X42486011Y-37075349D01*
X42654490Y-36668605D01*
X42688027Y-36500000D01*
X48011928Y-36500000D01*
X48024188Y-36624482D01*
X48060498Y-36744180D01*
X48119463Y-36854494D01*
X48198815Y-36951185D01*
X48295506Y-37030537D01*
X48405820Y-37089502D01*
X48525518Y-37125812D01*
X48650000Y-37138072D01*
X48864250Y-37135000D01*
X49023000Y-36976250D01*
X49023000Y-35877000D01*
X48173750Y-35877000D01*
X48015000Y-36035750D01*
X48011928Y-36500000D01*
X42688027Y-36500000D01*
X42740380Y-36236808D01*
X42740380Y-35796552D01*
X42654490Y-35364755D01*
X42503404Y-35000000D01*
X48011928Y-35000000D01*
X48015000Y-35464250D01*
X48173750Y-35623000D01*
X49023000Y-35623000D01*
X49023000Y-34523750D01*
X48864250Y-34365000D01*
X48650000Y-34361928D01*
X48525518Y-34374188D01*
X48405820Y-34410498D01*
X48295506Y-34469463D01*
X48198815Y-34548815D01*
X48119463Y-34645506D01*
X48060498Y-34755820D01*
X48024188Y-34875518D01*
X48011928Y-35000000D01*
X42503404Y-35000000D01*
X42486011Y-34958011D01*
X42241418Y-34591951D01*
X41930109Y-34280642D01*
X41564049Y-34036049D01*
X41157305Y-33867570D01*
X40725508Y-33781680D01*
X40285252Y-33781680D01*
X39853455Y-33867570D01*
X39446711Y-34036049D01*
X39080651Y-34280642D01*
X38769342Y-34591951D01*
X38524749Y-34958011D01*
X38356270Y-35364755D01*
X38270380Y-35796552D01*
X37160000Y-35796552D01*
X37160000Y-32667275D01*
X37160666Y-32660487D01*
X37165301Y-32660000D01*
X87840000Y-32660000D01*
X87840001Y-51340000D01*
%TA.AperFunction,Conductor*%
D18*
G36*
X87840001Y-51340000D02*
G01*
X37160000Y-51340000D01*
X37160000Y-47796552D01*
X38270380Y-47796552D01*
X38270380Y-48236808D01*
X38356270Y-48668605D01*
X38524749Y-49075349D01*
X38769342Y-49441409D01*
X39080651Y-49752718D01*
X39446711Y-49997311D01*
X39853455Y-50165790D01*
X40285252Y-50251680D01*
X40725508Y-50251680D01*
X41157305Y-50165790D01*
X41564049Y-49997311D01*
X41930109Y-49752718D01*
X42241418Y-49441409D01*
X42486011Y-49075349D01*
X42517221Y-49000000D01*
X47811928Y-49000000D01*
X47824188Y-49124482D01*
X47860498Y-49244180D01*
X47919463Y-49354494D01*
X47998815Y-49451185D01*
X48095506Y-49530537D01*
X48205820Y-49589502D01*
X48325518Y-49625812D01*
X48450000Y-49638072D01*
X48664250Y-49635000D01*
X48823000Y-49476250D01*
X48823000Y-48377000D01*
X47973750Y-48377000D01*
X47815000Y-48535750D01*
X47811928Y-49000000D01*
X42517221Y-49000000D01*
X42654490Y-48668605D01*
X42740380Y-48236808D01*
X42740380Y-47796552D01*
X42681392Y-47500000D01*
X47811928Y-47500000D01*
X47815000Y-47964250D01*
X47973750Y-48123000D01*
X48823000Y-48123000D01*
X48823000Y-47023750D01*
X48664250Y-46865000D01*
X48450000Y-46861928D01*
X48325518Y-46874188D01*
X48205820Y-46910498D01*
X48095506Y-46969463D01*
X47998815Y-47048815D01*
X47919463Y-47145506D01*
X47860498Y-47255820D01*
X47824188Y-47375518D01*
X47811928Y-47500000D01*
X42681392Y-47500000D01*
X42654490Y-47364755D01*
X42486011Y-46958011D01*
X42241418Y-46591951D01*
X41930109Y-46280642D01*
X41564049Y-46036049D01*
X41157305Y-45867570D01*
X40725508Y-45781680D01*
X40285252Y-45781680D01*
X39853455Y-45867570D01*
X39446711Y-46036049D01*
X39080651Y-46280642D01*
X38769342Y-46591951D01*
X38524749Y-46958011D01*
X38356270Y-47364755D01*
X38270380Y-47796552D01*
X37160000Y-47796552D01*
X37160000Y-40500000D01*
X38061928Y-40500000D01*
X38074188Y-40624482D01*
X38110498Y-40744180D01*
X38169463Y-40854494D01*
X38248815Y-40951185D01*
X38345506Y-41030537D01*
X38455820Y-41089502D01*
X38575518Y-41125812D01*
X38700000Y-41138072D01*
X38914250Y-41135000D01*
X39073000Y-40976250D01*
X39073000Y-39877000D01*
X38223750Y-39877000D01*
X38065000Y-40035750D01*
X38061928Y-40500000D01*
X37160000Y-40500000D01*
X37160000Y-39000000D01*
X38061928Y-39000000D01*
X38065000Y-39464250D01*
X38223750Y-39623000D01*
X39073000Y-39623000D01*
X39073000Y-38523750D01*
X39327000Y-38523750D01*
X39327000Y-39623000D01*
X39347000Y-39623000D01*
X39347000Y-39877000D01*
X39327000Y-39877000D01*
X39327000Y-40976250D01*
X39485750Y-41135000D01*
X39700000Y-41138072D01*
X39740000Y-41134132D01*
X39740000Y-41562677D01*
X39736324Y-41600000D01*
X39740000Y-41637322D01*
X39740000Y-41637332D01*
X39750997Y-41748985D01*
X39791793Y-41883475D01*
X39794454Y-41892246D01*
X39865026Y-42024276D01*
X39898458Y-42065012D01*
X39959999Y-42140001D01*
X39989003Y-42163804D01*
X40386196Y-42560997D01*
X40409999Y-42590001D01*
X40483146Y-42650031D01*
X40525723Y-42684974D01*
X40609960Y-42730000D01*
X40657753Y-42755546D01*
X40801014Y-42799003D01*
X40912667Y-42810000D01*
X40912676Y-42810000D01*
X40949999Y-42813676D01*
X40987322Y-42810000D01*
X42912678Y-42810000D01*
X42950000Y-42813676D01*
X42987322Y-42810000D01*
X42987333Y-42810000D01*
X43098986Y-42799003D01*
X43242247Y-42755546D01*
X43374276Y-42684974D01*
X43490001Y-42590001D01*
X43513804Y-42560997D01*
X44758625Y-41316177D01*
X44773088Y-41322168D01*
X45088967Y-41385000D01*
X45411033Y-41385000D01*
X45726912Y-41322168D01*
X46024463Y-41198918D01*
X46292252Y-41019987D01*
X46519987Y-40792252D01*
X46698918Y-40524463D01*
X46704909Y-40510000D01*
X47451891Y-40510000D01*
X47339060Y-40585391D01*
X47085391Y-40839060D01*
X46886084Y-41137344D01*
X46748799Y-41468779D01*
X46678812Y-41820629D01*
X46678812Y-42179371D01*
X46748799Y-42531221D01*
X46886084Y-42862656D01*
X47085391Y-43160940D01*
X47339060Y-43414609D01*
X47451891Y-43490000D01*
X46704909Y-43490000D01*
X46698918Y-43475537D01*
X46519987Y-43207748D01*
X46292252Y-42980013D01*
X46024463Y-42801082D01*
X45726912Y-42677832D01*
X45411033Y-42615000D01*
X45088967Y-42615000D01*
X44773088Y-42677832D01*
X44475537Y-42801082D01*
X44207748Y-42980013D01*
X43980013Y-43207748D01*
X43801082Y-43475537D01*
X43677832Y-43773088D01*
X43615000Y-44088967D01*
X43615000Y-44411033D01*
X43677832Y-44726912D01*
X43801082Y-45024463D01*
X43980013Y-45292252D01*
X44207748Y-45519987D01*
X44475537Y-45698918D01*
X44773088Y-45822168D01*
X45088967Y-45885000D01*
X45411033Y-45885000D01*
X45726912Y-45822168D01*
X46024463Y-45698918D01*
X46292252Y-45519987D01*
X46519987Y-45292252D01*
X46698918Y-45024463D01*
X46704909Y-45010000D01*
X50295091Y-45010000D01*
X50301082Y-45024463D01*
X50480013Y-45292252D01*
X50491610Y-45303849D01*
X50357753Y-45344454D01*
X50225724Y-45415026D01*
X50109999Y-45509999D01*
X50086200Y-45538998D01*
X49739002Y-45886197D01*
X49709999Y-45909999D01*
X49675553Y-45951972D01*
X49615026Y-46025724D01*
X49602050Y-46050001D01*
X49544454Y-46157754D01*
X49500997Y-46301015D01*
X49490000Y-46412668D01*
X49490000Y-46412678D01*
X49486324Y-46450000D01*
X49490000Y-46487323D01*
X49490000Y-46865868D01*
X49450000Y-46861928D01*
X49235750Y-46865000D01*
X49077000Y-47023750D01*
X49077000Y-48123000D01*
X49097000Y-48123000D01*
X49097000Y-48377000D01*
X49077000Y-48377000D01*
X49077000Y-49476250D01*
X49235750Y-49635000D01*
X49450000Y-49638072D01*
X49574482Y-49625812D01*
X49600000Y-49618071D01*
X49625518Y-49625812D01*
X49750000Y-49638072D01*
X50750000Y-49638072D01*
X50874482Y-49625812D01*
X50900000Y-49618071D01*
X50925518Y-49625812D01*
X51050000Y-49638072D01*
X52050000Y-49638072D01*
X52174482Y-49625812D01*
X52294180Y-49589502D01*
X52404494Y-49530537D01*
X52501185Y-49451185D01*
X52580537Y-49354494D01*
X52639502Y-49244180D01*
X52662505Y-49168349D01*
X52848102Y-49245226D01*
X53048061Y-49285000D01*
X53251939Y-49285000D01*
X53451898Y-49245226D01*
X53640256Y-49167205D01*
X53809774Y-49053937D01*
X53816369Y-49047342D01*
X53980013Y-49292252D01*
X54207748Y-49519987D01*
X54475537Y-49698918D01*
X54773088Y-49822168D01*
X55088967Y-49885000D01*
X55411033Y-49885000D01*
X55726912Y-49822168D01*
X56024463Y-49698918D01*
X56292252Y-49519987D01*
X56519987Y-49292252D01*
X56698918Y-49024463D01*
X56704909Y-49010000D01*
X60295091Y-49010000D01*
X60301082Y-49024463D01*
X60480013Y-49292252D01*
X60707748Y-49519987D01*
X60975537Y-49698918D01*
X61273088Y-49822168D01*
X61588967Y-49885000D01*
X61911033Y-49885000D01*
X62226912Y-49822168D01*
X62524463Y-49698918D01*
X62792252Y-49519987D01*
X63019987Y-49292252D01*
X63198918Y-49024463D01*
X63322168Y-48726912D01*
X63385000Y-48411033D01*
X63385000Y-48088967D01*
X63326836Y-47796552D01*
X74262180Y-47796552D01*
X74262180Y-48236808D01*
X74348070Y-48668605D01*
X74516549Y-49075349D01*
X74761142Y-49441409D01*
X75072451Y-49752718D01*
X75438511Y-49997311D01*
X75845255Y-50165790D01*
X76277052Y-50251680D01*
X76717308Y-50251680D01*
X77149105Y-50165790D01*
X77555849Y-49997311D01*
X77921909Y-49752718D01*
X78233218Y-49441409D01*
X78394522Y-49200000D01*
X83111928Y-49200000D01*
X83124188Y-49324482D01*
X83160498Y-49444180D01*
X83219463Y-49554494D01*
X83298815Y-49651185D01*
X83395506Y-49730537D01*
X83505820Y-49789502D01*
X83625518Y-49825812D01*
X83750000Y-49838072D01*
X84314250Y-49835000D01*
X84473000Y-49676250D01*
X84473000Y-48477000D01*
X84727000Y-48477000D01*
X84727000Y-49676250D01*
X84885750Y-49835000D01*
X85450000Y-49838072D01*
X85574482Y-49825812D01*
X85694180Y-49789502D01*
X85804494Y-49730537D01*
X85901185Y-49651185D01*
X85980537Y-49554494D01*
X86039502Y-49444180D01*
X86075812Y-49324482D01*
X86088072Y-49200000D01*
X86085000Y-48635750D01*
X85926250Y-48477000D01*
X84727000Y-48477000D01*
X84473000Y-48477000D01*
X83273750Y-48477000D01*
X83115000Y-48635750D01*
X83111928Y-49200000D01*
X78394522Y-49200000D01*
X78477811Y-49075349D01*
X78646290Y-48668605D01*
X78732180Y-48236808D01*
X78732180Y-47796552D01*
X78646290Y-47364755D01*
X78477811Y-46958011D01*
X78233218Y-46591951D01*
X77921909Y-46280642D01*
X77555849Y-46036049D01*
X77149105Y-45867570D01*
X76717308Y-45781680D01*
X76277052Y-45781680D01*
X75845255Y-45867570D01*
X75438511Y-46036049D01*
X75072451Y-46280642D01*
X74761142Y-46591951D01*
X74516549Y-46958011D01*
X74348070Y-47364755D01*
X74262180Y-47796552D01*
X63326836Y-47796552D01*
X63322168Y-47773088D01*
X63198918Y-47475537D01*
X63019987Y-47207748D01*
X62792252Y-46980013D01*
X62524463Y-46801082D01*
X62510000Y-46795091D01*
X62510000Y-46103799D01*
X63739063Y-44874736D01*
X63801082Y-45024463D01*
X63980013Y-45292252D01*
X64207748Y-45519987D01*
X64475537Y-45698918D01*
X64773088Y-45822168D01*
X65088967Y-45885000D01*
X65411033Y-45885000D01*
X65726912Y-45822168D01*
X66024463Y-45698918D01*
X66292252Y-45519987D01*
X66519987Y-45292252D01*
X66698918Y-45024463D01*
X66704909Y-45010000D01*
X70295091Y-45010000D01*
X70301082Y-45024463D01*
X70480013Y-45292252D01*
X70707748Y-45519987D01*
X70975537Y-45698918D01*
X71273088Y-45822168D01*
X71588967Y-45885000D01*
X71911033Y-45885000D01*
X72226912Y-45822168D01*
X72524463Y-45698918D01*
X72792252Y-45519987D01*
X73019987Y-45292252D01*
X73198918Y-45024463D01*
X73204909Y-45010000D01*
X83348549Y-45010000D01*
X83284010Y-45106589D01*
X83172068Y-45376842D01*
X83115000Y-45663740D01*
X83115000Y-45956260D01*
X83172068Y-46243158D01*
X83284010Y-46513411D01*
X83446525Y-46756632D01*
X83578380Y-46888487D01*
X83505820Y-46910498D01*
X83395506Y-46969463D01*
X83298815Y-47048815D01*
X83219463Y-47145506D01*
X83160498Y-47255820D01*
X83124188Y-47375518D01*
X83111928Y-47500000D01*
X83115000Y-48064250D01*
X83273750Y-48223000D01*
X84473000Y-48223000D01*
X84473000Y-48203000D01*
X84727000Y-48203000D01*
X84727000Y-48223000D01*
X85926250Y-48223000D01*
X86085000Y-48064250D01*
X86088072Y-47500000D01*
X86075812Y-47375518D01*
X86039502Y-47255820D01*
X85980537Y-47145506D01*
X85901185Y-47048815D01*
X85804494Y-46969463D01*
X85694180Y-46910498D01*
X85621620Y-46888487D01*
X85753475Y-46756632D01*
X85915990Y-46513411D01*
X86027932Y-46243158D01*
X86085000Y-45956260D01*
X86085000Y-45663740D01*
X86027932Y-45376842D01*
X85915990Y-45106589D01*
X85753475Y-44863368D01*
X85546632Y-44656525D01*
X85372240Y-44540000D01*
X85546632Y-44423475D01*
X85753475Y-44216632D01*
X85915990Y-43973411D01*
X86027932Y-43703158D01*
X86085000Y-43416260D01*
X86085000Y-43123740D01*
X86027932Y-42836842D01*
X85915990Y-42566589D01*
X85753475Y-42323368D01*
X85546632Y-42116525D01*
X85372240Y-42000000D01*
X85546632Y-41883475D01*
X85753475Y-41676632D01*
X85915990Y-41433411D01*
X86027932Y-41163158D01*
X86085000Y-40876260D01*
X86085000Y-40583740D01*
X86027932Y-40296842D01*
X85915990Y-40026589D01*
X85753475Y-39783368D01*
X85546632Y-39576525D01*
X85372240Y-39460000D01*
X85546632Y-39343475D01*
X85753475Y-39136632D01*
X85915990Y-38893411D01*
X86027932Y-38623158D01*
X86085000Y-38336260D01*
X86085000Y-38043740D01*
X86027932Y-37756842D01*
X85915990Y-37486589D01*
X85753475Y-37243368D01*
X85546632Y-37036525D01*
X85372240Y-36920000D01*
X85546632Y-36803475D01*
X85753475Y-36596632D01*
X85915990Y-36353411D01*
X86027932Y-36083158D01*
X86085000Y-35796260D01*
X86085000Y-35503740D01*
X86027932Y-35216842D01*
X85915990Y-34946589D01*
X85753475Y-34703368D01*
X85546632Y-34496525D01*
X85303411Y-34334010D01*
X85033158Y-34222068D01*
X84746260Y-34165000D01*
X84453740Y-34165000D01*
X84166842Y-34222068D01*
X83896589Y-34334010D01*
X83653368Y-34496525D01*
X83446525Y-34703368D01*
X83284010Y-34946589D01*
X83172068Y-35216842D01*
X83115000Y-35503740D01*
X83115000Y-35796260D01*
X83158790Y-36016408D01*
X78860198Y-40315001D01*
X73285680Y-40315001D01*
X73322168Y-40226912D01*
X73385000Y-39911033D01*
X73385000Y-39588967D01*
X73322168Y-39273088D01*
X73198918Y-38975537D01*
X73019987Y-38707748D01*
X72792252Y-38480013D01*
X72524463Y-38301082D01*
X72226912Y-38177832D01*
X71911033Y-38115000D01*
X71588967Y-38115000D01*
X71273088Y-38177832D01*
X70975537Y-38301082D01*
X70707748Y-38480013D01*
X70480013Y-38707748D01*
X70301082Y-38975537D01*
X70295091Y-38990000D01*
X69081036Y-38990000D01*
X69134974Y-38924276D01*
X69205546Y-38792247D01*
X69249003Y-38648986D01*
X69260000Y-38537333D01*
X69260000Y-38537324D01*
X69263676Y-38500001D01*
X69262134Y-38484343D01*
X69300000Y-38488072D01*
X70300000Y-38488072D01*
X70424482Y-38475812D01*
X70544180Y-38439502D01*
X70654494Y-38380537D01*
X70751185Y-38301185D01*
X70830537Y-38204494D01*
X70889502Y-38094180D01*
X70925812Y-37974482D01*
X70937087Y-37860000D01*
X72496289Y-37860000D01*
X72540226Y-37903937D01*
X72709744Y-38017205D01*
X72898102Y-38095226D01*
X73098061Y-38135000D01*
X73301939Y-38135000D01*
X73501898Y-38095226D01*
X73690256Y-38017205D01*
X73859774Y-37903937D01*
X74003937Y-37759774D01*
X74117205Y-37590256D01*
X74195226Y-37401898D01*
X74235000Y-37201939D01*
X74235000Y-36998061D01*
X74195226Y-36798102D01*
X74117205Y-36609744D01*
X74003937Y-36440226D01*
X73859774Y-36296063D01*
X73690256Y-36182795D01*
X73501898Y-36104774D01*
X73301939Y-36065000D01*
X73098061Y-36065000D01*
X72898102Y-36104774D01*
X72709744Y-36182795D01*
X72540226Y-36296063D01*
X72496289Y-36340000D01*
X70937087Y-36340000D01*
X70925812Y-36225518D01*
X70889502Y-36105820D01*
X70830537Y-35995506D01*
X70751185Y-35898815D01*
X70654494Y-35819463D01*
X70611632Y-35796552D01*
X74262180Y-35796552D01*
X74262180Y-36236808D01*
X74348070Y-36668605D01*
X74516549Y-37075349D01*
X74761142Y-37441409D01*
X75072451Y-37752718D01*
X75438511Y-37997311D01*
X75845255Y-38165790D01*
X76277052Y-38251680D01*
X76717308Y-38251680D01*
X77149105Y-38165790D01*
X77555849Y-37997311D01*
X77921909Y-37752718D01*
X78233218Y-37441409D01*
X78477811Y-37075349D01*
X78646290Y-36668605D01*
X78732180Y-36236808D01*
X78732180Y-35796552D01*
X78646290Y-35364755D01*
X78477811Y-34958011D01*
X78233218Y-34591951D01*
X77921909Y-34280642D01*
X77555849Y-34036049D01*
X77149105Y-33867570D01*
X76717308Y-33781680D01*
X76277052Y-33781680D01*
X75845255Y-33867570D01*
X75438511Y-34036049D01*
X75072451Y-34280642D01*
X74761142Y-34591951D01*
X74516549Y-34958011D01*
X74348070Y-35364755D01*
X74262180Y-35796552D01*
X70611632Y-35796552D01*
X70544180Y-35760498D01*
X70424482Y-35724188D01*
X70300000Y-35711928D01*
X69300000Y-35711928D01*
X69175518Y-35724188D01*
X69150000Y-35731929D01*
X69124482Y-35724188D01*
X69000000Y-35711928D01*
X68000000Y-35711928D01*
X67875518Y-35724188D01*
X67850000Y-35731929D01*
X67824482Y-35724188D01*
X67700000Y-35711928D01*
X67485750Y-35715000D01*
X67327000Y-35873750D01*
X67327000Y-36973000D01*
X67347000Y-36973000D01*
X67347000Y-37227000D01*
X67327000Y-37227000D01*
X67327000Y-37247000D01*
X67073000Y-37247000D01*
X67073000Y-37227000D01*
X66223750Y-37227000D01*
X66065000Y-37385750D01*
X66061928Y-37850000D01*
X66074188Y-37974482D01*
X66096053Y-38046561D01*
X66051014Y-38050997D01*
X65908656Y-38094180D01*
X65907753Y-38094454D01*
X65775723Y-38165026D01*
X65748981Y-38186973D01*
X65726912Y-38177832D01*
X65411033Y-38115000D01*
X65088967Y-38115000D01*
X64773088Y-38177832D01*
X64475537Y-38301082D01*
X64207748Y-38480013D01*
X63980013Y-38707748D01*
X63801082Y-38975537D01*
X63677832Y-39273088D01*
X63615000Y-39588967D01*
X63615000Y-39911033D01*
X63677832Y-40226912D01*
X63801082Y-40524463D01*
X63980013Y-40792252D01*
X64207748Y-41019987D01*
X64475537Y-41198918D01*
X64625264Y-41260937D01*
X64221202Y-41664999D01*
X62575226Y-41664999D01*
X62792252Y-41519987D01*
X63019987Y-41292252D01*
X63198918Y-41024463D01*
X63322168Y-40726912D01*
X63385000Y-40411033D01*
X63385000Y-40088967D01*
X63322168Y-39773088D01*
X63198918Y-39475537D01*
X63019987Y-39207748D01*
X62792252Y-38980013D01*
X62524463Y-38801082D01*
X62226912Y-38677832D01*
X61911033Y-38615000D01*
X61588967Y-38615000D01*
X61273088Y-38677832D01*
X60975537Y-38801082D01*
X60707748Y-38980013D01*
X60480013Y-39207748D01*
X60301082Y-39475537D01*
X60295091Y-39490000D01*
X59548109Y-39490000D01*
X59660940Y-39414609D01*
X59914609Y-39160940D01*
X60113916Y-38862656D01*
X60251201Y-38531221D01*
X60321188Y-38179371D01*
X60321188Y-37820629D01*
X60251201Y-37468779D01*
X60113916Y-37137344D01*
X59914609Y-36839060D01*
X59660940Y-36585391D01*
X59548109Y-36510000D01*
X60295091Y-36510000D01*
X60301082Y-36524463D01*
X60480013Y-36792252D01*
X60707748Y-37019987D01*
X60975537Y-37198918D01*
X61273088Y-37322168D01*
X61588967Y-37385000D01*
X61911033Y-37385000D01*
X62226912Y-37322168D01*
X62524463Y-37198918D01*
X62792252Y-37019987D01*
X63019987Y-36792252D01*
X63198918Y-36524463D01*
X63271183Y-36350000D01*
X66061928Y-36350000D01*
X66065000Y-36814250D01*
X66223750Y-36973000D01*
X67073000Y-36973000D01*
X67073000Y-35873750D01*
X66914250Y-35715000D01*
X66700000Y-35711928D01*
X66575518Y-35724188D01*
X66455820Y-35760498D01*
X66345506Y-35819463D01*
X66248815Y-35898815D01*
X66169463Y-35995506D01*
X66110498Y-36105820D01*
X66074188Y-36225518D01*
X66061928Y-36350000D01*
X63271183Y-36350000D01*
X63322168Y-36226912D01*
X63385000Y-35911033D01*
X63385000Y-35588967D01*
X63322168Y-35273088D01*
X63198918Y-34975537D01*
X63019987Y-34707748D01*
X62792252Y-34480013D01*
X62524463Y-34301082D01*
X62226912Y-34177832D01*
X61911033Y-34115000D01*
X61588967Y-34115000D01*
X61273088Y-34177832D01*
X60975537Y-34301082D01*
X60707748Y-34480013D01*
X60480013Y-34707748D01*
X60301082Y-34975537D01*
X60295091Y-34990000D01*
X56704909Y-34990000D01*
X56698918Y-34975537D01*
X56519987Y-34707748D01*
X56292252Y-34480013D01*
X56024463Y-34301082D01*
X55726912Y-34177832D01*
X55411033Y-34115000D01*
X55088967Y-34115000D01*
X54773088Y-34177832D01*
X54475537Y-34301082D01*
X54207748Y-34480013D01*
X53980013Y-34707748D01*
X53879112Y-34858757D01*
X53840256Y-34832795D01*
X53651898Y-34754774D01*
X53451939Y-34715000D01*
X53248061Y-34715000D01*
X53048102Y-34754774D01*
X52862505Y-34831651D01*
X52839502Y-34755820D01*
X52780537Y-34645506D01*
X52701185Y-34548815D01*
X52604494Y-34469463D01*
X52494180Y-34410498D01*
X52374482Y-34374188D01*
X52250000Y-34361928D01*
X51250000Y-34361928D01*
X51125518Y-34374188D01*
X51100000Y-34381929D01*
X51074482Y-34374188D01*
X50950000Y-34361928D01*
X49950000Y-34361928D01*
X49825518Y-34374188D01*
X49800000Y-34381929D01*
X49774482Y-34374188D01*
X49650000Y-34361928D01*
X49435750Y-34365000D01*
X49277000Y-34523750D01*
X49277000Y-35623000D01*
X49297000Y-35623000D01*
X49297000Y-35877000D01*
X49277000Y-35877000D01*
X49277000Y-36976250D01*
X49435750Y-37135000D01*
X49650000Y-37138072D01*
X49725758Y-37130611D01*
X49744454Y-37192246D01*
X49815026Y-37324276D01*
X49854871Y-37372826D01*
X49909999Y-37440001D01*
X49939003Y-37463804D01*
X50236196Y-37760997D01*
X50259999Y-37790001D01*
X50375724Y-37884974D01*
X50507753Y-37955546D01*
X50651014Y-37999003D01*
X50762667Y-38010000D01*
X50762675Y-38010000D01*
X50800000Y-38013676D01*
X50837325Y-38010000D01*
X53712678Y-38010000D01*
X53750000Y-38013676D01*
X53787322Y-38010000D01*
X53787333Y-38010000D01*
X53898986Y-37999003D01*
X54042247Y-37955546D01*
X54174276Y-37884974D01*
X54290001Y-37790001D01*
X54313804Y-37760997D01*
X54758624Y-37316177D01*
X54773088Y-37322168D01*
X55088967Y-37385000D01*
X55411033Y-37385000D01*
X55726912Y-37322168D01*
X56024463Y-37198918D01*
X56292252Y-37019987D01*
X56519987Y-36792252D01*
X56698918Y-36524463D01*
X56704909Y-36510000D01*
X57451891Y-36510000D01*
X57339060Y-36585391D01*
X57085391Y-36839060D01*
X56886084Y-37137344D01*
X56748799Y-37468779D01*
X56678812Y-37820629D01*
X56678812Y-38179371D01*
X56748799Y-38531221D01*
X56886084Y-38862656D01*
X57085391Y-39160940D01*
X57339060Y-39414609D01*
X57451891Y-39490000D01*
X56704909Y-39490000D01*
X56698918Y-39475537D01*
X56519987Y-39207748D01*
X56292252Y-38980013D01*
X56024463Y-38801082D01*
X55726912Y-38677832D01*
X55411033Y-38615000D01*
X55088967Y-38615000D01*
X54773088Y-38677832D01*
X54475537Y-38801082D01*
X54207748Y-38980013D01*
X53980013Y-39207748D01*
X53801082Y-39475537D01*
X53677832Y-39773088D01*
X53615000Y-40088967D01*
X53615000Y-40411033D01*
X53677832Y-40726912D01*
X53801082Y-41024463D01*
X53980013Y-41292252D01*
X54207748Y-41519987D01*
X54424774Y-41664999D01*
X53612323Y-41664999D01*
X53575000Y-41661323D01*
X53537677Y-41664999D01*
X53537668Y-41664999D01*
X53426015Y-41675996D01*
X53282754Y-41719453D01*
X53150725Y-41790025D01*
X53035000Y-41884998D01*
X53011202Y-41913996D01*
X52241375Y-42683823D01*
X52226912Y-42677832D01*
X51911033Y-42615000D01*
X51588967Y-42615000D01*
X51273088Y-42677832D01*
X50975537Y-42801082D01*
X50707748Y-42980013D01*
X50480013Y-43207748D01*
X50301082Y-43475537D01*
X50295091Y-43490000D01*
X49548109Y-43490000D01*
X49660940Y-43414609D01*
X49914609Y-43160940D01*
X50113916Y-42862656D01*
X50251201Y-42531221D01*
X50321188Y-42179371D01*
X50321188Y-41820629D01*
X50251201Y-41468779D01*
X50113916Y-41137344D01*
X49914609Y-40839060D01*
X49660940Y-40585391D01*
X49548109Y-40510000D01*
X50295091Y-40510000D01*
X50301082Y-40524463D01*
X50480013Y-40792252D01*
X50707748Y-41019987D01*
X50975537Y-41198918D01*
X51273088Y-41322168D01*
X51588967Y-41385000D01*
X51911033Y-41385000D01*
X52226912Y-41322168D01*
X52524463Y-41198918D01*
X52792252Y-41019987D01*
X53019987Y-40792252D01*
X53198918Y-40524463D01*
X53322168Y-40226912D01*
X53385000Y-39911033D01*
X53385000Y-39588967D01*
X53322168Y-39273088D01*
X53198918Y-38975537D01*
X53019987Y-38707748D01*
X52792252Y-38480013D01*
X52524463Y-38301082D01*
X52226912Y-38177832D01*
X51911033Y-38115000D01*
X51588967Y-38115000D01*
X51273088Y-38177832D01*
X50975537Y-38301082D01*
X50707748Y-38480013D01*
X50480013Y-38707748D01*
X50301082Y-38975537D01*
X50295091Y-38990000D01*
X46704909Y-38990000D01*
X46698918Y-38975537D01*
X46519987Y-38707748D01*
X46292252Y-38480013D01*
X46024463Y-38301082D01*
X45726912Y-38177832D01*
X45411033Y-38115000D01*
X45088967Y-38115000D01*
X44773088Y-38177832D01*
X44475537Y-38301082D01*
X44207748Y-38480013D01*
X43980013Y-38707748D01*
X43879112Y-38858757D01*
X43840256Y-38832795D01*
X43651898Y-38754774D01*
X43451939Y-38715000D01*
X43248061Y-38715000D01*
X43048102Y-38754774D01*
X42906924Y-38813252D01*
X42889502Y-38755820D01*
X42830537Y-38645506D01*
X42751185Y-38548815D01*
X42654494Y-38469463D01*
X42544180Y-38410498D01*
X42424482Y-38374188D01*
X42300000Y-38361928D01*
X41300000Y-38361928D01*
X41175518Y-38374188D01*
X41150000Y-38381929D01*
X41124482Y-38374188D01*
X41000000Y-38361928D01*
X40000000Y-38361928D01*
X39875518Y-38374188D01*
X39850000Y-38381929D01*
X39824482Y-38374188D01*
X39700000Y-38361928D01*
X39485750Y-38365000D01*
X39327000Y-38523750D01*
X39073000Y-38523750D01*
X38914250Y-38365000D01*
X38700000Y-38361928D01*
X38575518Y-38374188D01*
X38455820Y-38410498D01*
X38345506Y-38469463D01*
X38248815Y-38548815D01*
X38169463Y-38645506D01*
X38110498Y-38755820D01*
X38074188Y-38875518D01*
X38061928Y-39000000D01*
X37160000Y-39000000D01*
X37160000Y-35796552D01*
X38270380Y-35796552D01*
X38270380Y-36236808D01*
X38356270Y-36668605D01*
X38524749Y-37075349D01*
X38769342Y-37441409D01*
X39080651Y-37752718D01*
X39446711Y-37997311D01*
X39853455Y-38165790D01*
X40285252Y-38251680D01*
X40725508Y-38251680D01*
X41157305Y-38165790D01*
X41564049Y-37997311D01*
X41930109Y-37752718D01*
X42241418Y-37441409D01*
X42486011Y-37075349D01*
X42654490Y-36668605D01*
X42688027Y-36500000D01*
X48011928Y-36500000D01*
X48024188Y-36624482D01*
X48060498Y-36744180D01*
X48119463Y-36854494D01*
X48198815Y-36951185D01*
X48295506Y-37030537D01*
X48405820Y-37089502D01*
X48525518Y-37125812D01*
X48650000Y-37138072D01*
X48864250Y-37135000D01*
X49023000Y-36976250D01*
X49023000Y-35877000D01*
X48173750Y-35877000D01*
X48015000Y-36035750D01*
X48011928Y-36500000D01*
X42688027Y-36500000D01*
X42740380Y-36236808D01*
X42740380Y-35796552D01*
X42654490Y-35364755D01*
X42503404Y-35000000D01*
X48011928Y-35000000D01*
X48015000Y-35464250D01*
X48173750Y-35623000D01*
X49023000Y-35623000D01*
X49023000Y-34523750D01*
X48864250Y-34365000D01*
X48650000Y-34361928D01*
X48525518Y-34374188D01*
X48405820Y-34410498D01*
X48295506Y-34469463D01*
X48198815Y-34548815D01*
X48119463Y-34645506D01*
X48060498Y-34755820D01*
X48024188Y-34875518D01*
X48011928Y-35000000D01*
X42503404Y-35000000D01*
X42486011Y-34958011D01*
X42241418Y-34591951D01*
X41930109Y-34280642D01*
X41564049Y-34036049D01*
X41157305Y-33867570D01*
X40725508Y-33781680D01*
X40285252Y-33781680D01*
X39853455Y-33867570D01*
X39446711Y-34036049D01*
X39080651Y-34280642D01*
X38769342Y-34591951D01*
X38524749Y-34958011D01*
X38356270Y-35364755D01*
X38270380Y-35796552D01*
X37160000Y-35796552D01*
X37160000Y-32667275D01*
X37160666Y-32660487D01*
X37165301Y-32660000D01*
X87840000Y-32660000D01*
X87840001Y-51340000D01*
G37*
%TD.AperFunction*%
%TD*%
M02*
