%TF.GenerationSoftware,KiCad,Pcbnew,5.1.7-a382d34a8~88~ubuntu18.04.1*%
%TF.CreationDate,2021-05-22T23:43:46+02:00*%
%TF.ProjectId,button-board-6x6mm-4buttons,62757474-6f6e-42d6-926f-6172642d3678,v1r1*%
%TF.SameCoordinates,Original*%
%TF.FileFunction,Copper,L2,Bot*%
%TF.FilePolarity,Positive*%
%FSLAX46Y46*%
G04 Gerber Fmt 4.6, Leading zero omitted, Abs format (unit mm)*
G04 Created by KiCad (PCBNEW 5.1.7-a382d34a8~88~ubuntu18.04.1) date 2021-05-22 23:43:46*
%MOMM*%
%LPD*%
G01*
G04 APERTURE LIST*
%TA.AperFunction,ComponentPad*%
%ADD10C,2.000000*%
%TD*%
%TA.AperFunction,ComponentPad*%
%ADD11O,1.700000X1.700000*%
%TD*%
%TA.AperFunction,ComponentPad*%
%ADD12R,1.700000X1.700000*%
%TD*%
%TA.AperFunction,ViaPad*%
%ADD13C,0.800000*%
%TD*%
%TA.AperFunction,Conductor*%
%ADD14C,0.250000*%
%TD*%
%TA.AperFunction,Conductor*%
%ADD15C,0.254000*%
%TD*%
%TA.AperFunction,Conductor*%
%ADD16C,0.100000*%
%TD*%
G04 APERTURE END LIST*
D10*
%TO.P,SW4,1*%
%TO.N,Net-(JP4-Pad2)*%
X71750000Y-39750000D03*
%TO.P,SW4,2*%
%TO.N,Net-(J1-Pad3)*%
X71750000Y-44250000D03*
%TO.P,SW4,1*%
%TO.N,Net-(JP4-Pad2)*%
X65250000Y-39750000D03*
%TO.P,SW4,2*%
%TO.N,Net-(J1-Pad3)*%
X65250000Y-44250000D03*
%TD*%
%TO.P,SW3,1*%
%TO.N,Net-(JP3-Pad2)*%
X61750000Y-35750000D03*
%TO.P,SW3,2*%
%TO.N,Net-(J1-Pad6)*%
X61750000Y-40250000D03*
%TO.P,SW3,1*%
%TO.N,Net-(JP3-Pad2)*%
X55250000Y-35750000D03*
%TO.P,SW3,2*%
%TO.N,Net-(J1-Pad6)*%
X55250000Y-40250000D03*
%TD*%
%TO.P,SW2,1*%
%TO.N,Net-(JP2-Pad2)*%
X61750000Y-43750000D03*
%TO.P,SW2,2*%
%TO.N,Net-(J1-Pad4)*%
X61750000Y-48250000D03*
%TO.P,SW2,1*%
%TO.N,Net-(JP2-Pad2)*%
X55250000Y-43750000D03*
%TO.P,SW2,2*%
%TO.N,Net-(J1-Pad4)*%
X55250000Y-48250000D03*
%TD*%
D11*
%TO.P,J1,6*%
%TO.N,Net-(J1-Pad6)*%
X82560000Y-44580000D03*
%TO.P,J1,5*%
%TO.N,GND*%
X85100000Y-44580000D03*
%TO.P,J1,4*%
%TO.N,Net-(J1-Pad4)*%
X82560000Y-42040000D03*
%TO.P,J1,3*%
%TO.N,Net-(J1-Pad3)*%
X85100000Y-42040000D03*
%TO.P,J1,2*%
%TO.N,Net-(J1-Pad2)*%
X82560000Y-39500000D03*
D12*
%TO.P,J1,1*%
%TO.N,VCC*%
X85100000Y-39500000D03*
%TD*%
D10*
%TO.P,SW1,1*%
%TO.N,Net-(JP1-Pad2)*%
X51750000Y-39750000D03*
%TO.P,SW1,2*%
%TO.N,Net-(J1-Pad2)*%
X51750000Y-44250000D03*
%TO.P,SW1,1*%
%TO.N,Net-(JP1-Pad2)*%
X45250000Y-39750000D03*
%TO.P,SW1,2*%
%TO.N,Net-(J1-Pad2)*%
X45250000Y-44250000D03*
%TD*%
D13*
%TO.N,GND*%
X64000000Y-37100000D03*
X43500000Y-37100000D03*
X81500000Y-37100000D03*
X80050000Y-37100000D03*
X53350000Y-33600000D03*
X53750000Y-50850000D03*
%TD*%
D14*
%TO.N,Net-(J1-Pad3)*%
X86210001Y-38324999D02*
X86275001Y-38389999D01*
X86275001Y-38389999D02*
X86275001Y-40864999D01*
X80788591Y-38324999D02*
X86210001Y-38324999D01*
X74863590Y-44250000D02*
X80788591Y-38324999D01*
X86275001Y-40864999D02*
X85100000Y-42040000D01*
X71750000Y-44250000D02*
X74863590Y-44250000D01*
%TO.N,Net-(J1-Pad4)*%
X61750000Y-48250000D02*
X55250000Y-48250000D01*
%TO.N,Net-(J1-Pad2)*%
X51750000Y-44250000D02*
X51750000Y-47500000D01*
X51750000Y-47500000D02*
X55250000Y-51000000D01*
X55250000Y-51000000D02*
X68750000Y-51000000D01*
X80250000Y-39500000D02*
X82560000Y-39500000D01*
X68750000Y-51000000D02*
X80250000Y-39500000D01*
%TO.N,Net-(JP4-Pad2)*%
X65250000Y-39750000D02*
X71750000Y-39750000D01*
%TD*%
D15*
%TO.N,GND*%
X87840001Y-51340000D02*
X69484801Y-51340000D01*
X74320266Y-46504536D01*
X74262180Y-46796552D01*
X74262180Y-47236808D01*
X74348070Y-47668605D01*
X74516549Y-48075349D01*
X74761142Y-48441409D01*
X75072451Y-48752718D01*
X75438511Y-48997311D01*
X75845255Y-49165790D01*
X76277052Y-49251680D01*
X76717308Y-49251680D01*
X77149105Y-49165790D01*
X77555849Y-48997311D01*
X77921909Y-48752718D01*
X78233218Y-48441409D01*
X78477811Y-48075349D01*
X78646290Y-47668605D01*
X78732180Y-47236808D01*
X78732180Y-46796552D01*
X78646290Y-46364755D01*
X78477811Y-45958011D01*
X78233218Y-45591951D01*
X77921909Y-45280642D01*
X77555849Y-45036049D01*
X77149105Y-44867570D01*
X76717308Y-44781680D01*
X76277052Y-44781680D01*
X75985036Y-44839766D01*
X80564802Y-40260000D01*
X81281822Y-40260000D01*
X81406525Y-40446632D01*
X81613368Y-40653475D01*
X81787760Y-40770000D01*
X81613368Y-40886525D01*
X81406525Y-41093368D01*
X81244010Y-41336589D01*
X81132068Y-41606842D01*
X81075000Y-41893740D01*
X81075000Y-42186260D01*
X81132068Y-42473158D01*
X81244010Y-42743411D01*
X81406525Y-42986632D01*
X81613368Y-43193475D01*
X81787760Y-43310000D01*
X81613368Y-43426525D01*
X81406525Y-43633368D01*
X81244010Y-43876589D01*
X81132068Y-44146842D01*
X81075000Y-44433740D01*
X81075000Y-44726260D01*
X81132068Y-45013158D01*
X81244010Y-45283411D01*
X81406525Y-45526632D01*
X81613368Y-45733475D01*
X81856589Y-45895990D01*
X82126842Y-46007932D01*
X82413740Y-46065000D01*
X82706260Y-46065000D01*
X82993158Y-46007932D01*
X83263411Y-45895990D01*
X83506632Y-45733475D01*
X83713475Y-45526632D01*
X83831100Y-45350594D01*
X84002412Y-45580269D01*
X84218645Y-45775178D01*
X84468748Y-45924157D01*
X84743109Y-46021481D01*
X84973000Y-45900814D01*
X84973000Y-44707000D01*
X85227000Y-44707000D01*
X85227000Y-45900814D01*
X85456891Y-46021481D01*
X85731252Y-45924157D01*
X85981355Y-45775178D01*
X86197588Y-45580269D01*
X86371641Y-45346920D01*
X86496825Y-45084099D01*
X86541476Y-44936890D01*
X86420155Y-44707000D01*
X85227000Y-44707000D01*
X84973000Y-44707000D01*
X84953000Y-44707000D01*
X84953000Y-44453000D01*
X84973000Y-44453000D01*
X84973000Y-44433000D01*
X85227000Y-44433000D01*
X85227000Y-44453000D01*
X86420155Y-44453000D01*
X86541476Y-44223110D01*
X86496825Y-44075901D01*
X86371641Y-43813080D01*
X86197588Y-43579731D01*
X85981355Y-43384822D01*
X85864466Y-43315195D01*
X86046632Y-43193475D01*
X86253475Y-42986632D01*
X86415990Y-42743411D01*
X86527932Y-42473158D01*
X86585000Y-42186260D01*
X86585000Y-41893740D01*
X86541210Y-41673592D01*
X86786004Y-41428798D01*
X86815002Y-41405000D01*
X86909975Y-41289275D01*
X86980547Y-41157246D01*
X87024004Y-41013985D01*
X87035001Y-40902332D01*
X87035001Y-40902323D01*
X87038677Y-40865000D01*
X87035001Y-40827677D01*
X87035001Y-38427322D01*
X87038677Y-38389999D01*
X87035001Y-38352677D01*
X87035001Y-38352666D01*
X87024004Y-38241013D01*
X86980547Y-38097752D01*
X86909975Y-37965723D01*
X86815002Y-37849998D01*
X86785999Y-37826196D01*
X86773805Y-37814002D01*
X86750002Y-37784998D01*
X86634277Y-37690025D01*
X86502248Y-37619453D01*
X86358987Y-37575996D01*
X86247334Y-37564999D01*
X86247323Y-37564999D01*
X86210001Y-37561323D01*
X86172679Y-37564999D01*
X80825916Y-37564999D01*
X80788591Y-37561323D01*
X80751266Y-37564999D01*
X80751258Y-37564999D01*
X80639605Y-37575996D01*
X80496344Y-37619453D01*
X80364315Y-37690025D01*
X80248590Y-37784998D01*
X80224792Y-37813996D01*
X74548789Y-43490000D01*
X73204909Y-43490000D01*
X73198918Y-43475537D01*
X73019987Y-43207748D01*
X72792252Y-42980013D01*
X72524463Y-42801082D01*
X72226912Y-42677832D01*
X71911033Y-42615000D01*
X71588967Y-42615000D01*
X71273088Y-42677832D01*
X70975537Y-42801082D01*
X70707748Y-42980013D01*
X70480013Y-43207748D01*
X70301082Y-43475537D01*
X70177832Y-43773088D01*
X70115000Y-44088967D01*
X70115000Y-44411033D01*
X70177832Y-44726912D01*
X70301082Y-45024463D01*
X70480013Y-45292252D01*
X70707748Y-45519987D01*
X70975537Y-45698918D01*
X71273088Y-45822168D01*
X71588967Y-45885000D01*
X71911033Y-45885000D01*
X72226912Y-45822168D01*
X72524463Y-45698918D01*
X72792252Y-45519987D01*
X73019987Y-45292252D01*
X73198918Y-45024463D01*
X73204909Y-45010000D01*
X73665199Y-45010000D01*
X68435199Y-50240000D01*
X55564803Y-50240000D01*
X55209803Y-49885000D01*
X55411033Y-49885000D01*
X55726912Y-49822168D01*
X56024463Y-49698918D01*
X56292252Y-49519987D01*
X56519987Y-49292252D01*
X56698918Y-49024463D01*
X56704909Y-49010000D01*
X60295091Y-49010000D01*
X60301082Y-49024463D01*
X60480013Y-49292252D01*
X60707748Y-49519987D01*
X60975537Y-49698918D01*
X61273088Y-49822168D01*
X61588967Y-49885000D01*
X61911033Y-49885000D01*
X62226912Y-49822168D01*
X62524463Y-49698918D01*
X62792252Y-49519987D01*
X63019987Y-49292252D01*
X63198918Y-49024463D01*
X63322168Y-48726912D01*
X63385000Y-48411033D01*
X63385000Y-48088967D01*
X63322168Y-47773088D01*
X63198918Y-47475537D01*
X63019987Y-47207748D01*
X62792252Y-46980013D01*
X62524463Y-46801082D01*
X62226912Y-46677832D01*
X61911033Y-46615000D01*
X61588967Y-46615000D01*
X61273088Y-46677832D01*
X60975537Y-46801082D01*
X60707748Y-46980013D01*
X60480013Y-47207748D01*
X60301082Y-47475537D01*
X60295091Y-47490000D01*
X59548109Y-47490000D01*
X59660940Y-47414609D01*
X59914609Y-47160940D01*
X60113916Y-46862656D01*
X60251201Y-46531221D01*
X60321188Y-46179371D01*
X60321188Y-45820629D01*
X60251201Y-45468779D01*
X60113916Y-45137344D01*
X59914609Y-44839060D01*
X59660940Y-44585391D01*
X59362656Y-44386084D01*
X59031221Y-44248799D01*
X58679371Y-44178812D01*
X58320629Y-44178812D01*
X57968779Y-44248799D01*
X57637344Y-44386084D01*
X57339060Y-44585391D01*
X57085391Y-44839060D01*
X56886084Y-45137344D01*
X56748799Y-45468779D01*
X56678812Y-45820629D01*
X56678812Y-46179371D01*
X56748799Y-46531221D01*
X56886084Y-46862656D01*
X57085391Y-47160940D01*
X57339060Y-47414609D01*
X57451891Y-47490000D01*
X56704909Y-47490000D01*
X56698918Y-47475537D01*
X56519987Y-47207748D01*
X56292252Y-46980013D01*
X56024463Y-46801082D01*
X55726912Y-46677832D01*
X55411033Y-46615000D01*
X55088967Y-46615000D01*
X54773088Y-46677832D01*
X54475537Y-46801082D01*
X54207748Y-46980013D01*
X53980013Y-47207748D01*
X53801082Y-47475537D01*
X53677832Y-47773088D01*
X53615000Y-48088967D01*
X53615000Y-48290198D01*
X52510000Y-47185199D01*
X52510000Y-45704909D01*
X52524463Y-45698918D01*
X52792252Y-45519987D01*
X53019987Y-45292252D01*
X53198918Y-45024463D01*
X53322168Y-44726912D01*
X53385000Y-44411033D01*
X53385000Y-44088967D01*
X53322168Y-43773088D01*
X53245903Y-43588967D01*
X53615000Y-43588967D01*
X53615000Y-43911033D01*
X53677832Y-44226912D01*
X53801082Y-44524463D01*
X53980013Y-44792252D01*
X54207748Y-45019987D01*
X54475537Y-45198918D01*
X54773088Y-45322168D01*
X55088967Y-45385000D01*
X55411033Y-45385000D01*
X55726912Y-45322168D01*
X56024463Y-45198918D01*
X56292252Y-45019987D01*
X56519987Y-44792252D01*
X56698918Y-44524463D01*
X56822168Y-44226912D01*
X56885000Y-43911033D01*
X56885000Y-43588967D01*
X60115000Y-43588967D01*
X60115000Y-43911033D01*
X60177832Y-44226912D01*
X60301082Y-44524463D01*
X60480013Y-44792252D01*
X60707748Y-45019987D01*
X60975537Y-45198918D01*
X61273088Y-45322168D01*
X61588967Y-45385000D01*
X61911033Y-45385000D01*
X62226912Y-45322168D01*
X62524463Y-45198918D01*
X62792252Y-45019987D01*
X63019987Y-44792252D01*
X63198918Y-44524463D01*
X63322168Y-44226912D01*
X63349606Y-44088967D01*
X63615000Y-44088967D01*
X63615000Y-44411033D01*
X63677832Y-44726912D01*
X63801082Y-45024463D01*
X63980013Y-45292252D01*
X64207748Y-45519987D01*
X64475537Y-45698918D01*
X64773088Y-45822168D01*
X65088967Y-45885000D01*
X65411033Y-45885000D01*
X65726912Y-45822168D01*
X66024463Y-45698918D01*
X66292252Y-45519987D01*
X66519987Y-45292252D01*
X66698918Y-45024463D01*
X66822168Y-44726912D01*
X66885000Y-44411033D01*
X66885000Y-44088967D01*
X66822168Y-43773088D01*
X66698918Y-43475537D01*
X66519987Y-43207748D01*
X66292252Y-42980013D01*
X66024463Y-42801082D01*
X65726912Y-42677832D01*
X65411033Y-42615000D01*
X65088967Y-42615000D01*
X64773088Y-42677832D01*
X64475537Y-42801082D01*
X64207748Y-42980013D01*
X63980013Y-43207748D01*
X63801082Y-43475537D01*
X63677832Y-43773088D01*
X63615000Y-44088967D01*
X63349606Y-44088967D01*
X63385000Y-43911033D01*
X63385000Y-43588967D01*
X63322168Y-43273088D01*
X63198918Y-42975537D01*
X63019987Y-42707748D01*
X62792252Y-42480013D01*
X62524463Y-42301082D01*
X62226912Y-42177832D01*
X61911033Y-42115000D01*
X61588967Y-42115000D01*
X61273088Y-42177832D01*
X60975537Y-42301082D01*
X60707748Y-42480013D01*
X60480013Y-42707748D01*
X60301082Y-42975537D01*
X60177832Y-43273088D01*
X60115000Y-43588967D01*
X56885000Y-43588967D01*
X56822168Y-43273088D01*
X56698918Y-42975537D01*
X56519987Y-42707748D01*
X56292252Y-42480013D01*
X56024463Y-42301082D01*
X55726912Y-42177832D01*
X55411033Y-42115000D01*
X55088967Y-42115000D01*
X54773088Y-42177832D01*
X54475537Y-42301082D01*
X54207748Y-42480013D01*
X53980013Y-42707748D01*
X53801082Y-42975537D01*
X53677832Y-43273088D01*
X53615000Y-43588967D01*
X53245903Y-43588967D01*
X53198918Y-43475537D01*
X53019987Y-43207748D01*
X52792252Y-42980013D01*
X52524463Y-42801082D01*
X52226912Y-42677832D01*
X51911033Y-42615000D01*
X51588967Y-42615000D01*
X51273088Y-42677832D01*
X50975537Y-42801082D01*
X50707748Y-42980013D01*
X50480013Y-43207748D01*
X50301082Y-43475537D01*
X50177832Y-43773088D01*
X50115000Y-44088967D01*
X50115000Y-44411033D01*
X50177832Y-44726912D01*
X50301082Y-45024463D01*
X50480013Y-45292252D01*
X50707748Y-45519987D01*
X50975537Y-45698918D01*
X50990000Y-45704909D01*
X50990001Y-47462668D01*
X50986324Y-47500000D01*
X51000998Y-47648985D01*
X51044454Y-47792246D01*
X51115026Y-47924276D01*
X51186201Y-48011002D01*
X51210000Y-48040001D01*
X51238998Y-48063799D01*
X54515197Y-51340000D01*
X37160000Y-51340000D01*
X37160000Y-46796552D01*
X38270380Y-46796552D01*
X38270380Y-47236808D01*
X38356270Y-47668605D01*
X38524749Y-48075349D01*
X38769342Y-48441409D01*
X39080651Y-48752718D01*
X39446711Y-48997311D01*
X39853455Y-49165790D01*
X40285252Y-49251680D01*
X40725508Y-49251680D01*
X41157305Y-49165790D01*
X41564049Y-48997311D01*
X41930109Y-48752718D01*
X42241418Y-48441409D01*
X42486011Y-48075349D01*
X42654490Y-47668605D01*
X42740380Y-47236808D01*
X42740380Y-46796552D01*
X42654490Y-46364755D01*
X42486011Y-45958011D01*
X42241418Y-45591951D01*
X41930109Y-45280642D01*
X41564049Y-45036049D01*
X41157305Y-44867570D01*
X40725508Y-44781680D01*
X40285252Y-44781680D01*
X39853455Y-44867570D01*
X39446711Y-45036049D01*
X39080651Y-45280642D01*
X38769342Y-45591951D01*
X38524749Y-45958011D01*
X38356270Y-46364755D01*
X38270380Y-46796552D01*
X37160000Y-46796552D01*
X37160000Y-44088967D01*
X43615000Y-44088967D01*
X43615000Y-44411033D01*
X43677832Y-44726912D01*
X43801082Y-45024463D01*
X43980013Y-45292252D01*
X44207748Y-45519987D01*
X44475537Y-45698918D01*
X44773088Y-45822168D01*
X45088967Y-45885000D01*
X45411033Y-45885000D01*
X45726912Y-45822168D01*
X46024463Y-45698918D01*
X46292252Y-45519987D01*
X46519987Y-45292252D01*
X46698918Y-45024463D01*
X46822168Y-44726912D01*
X46885000Y-44411033D01*
X46885000Y-44088967D01*
X46822168Y-43773088D01*
X46698918Y-43475537D01*
X46519987Y-43207748D01*
X46292252Y-42980013D01*
X46024463Y-42801082D01*
X45726912Y-42677832D01*
X45411033Y-42615000D01*
X45088967Y-42615000D01*
X44773088Y-42677832D01*
X44475537Y-42801082D01*
X44207748Y-42980013D01*
X43980013Y-43207748D01*
X43801082Y-43475537D01*
X43677832Y-43773088D01*
X43615000Y-44088967D01*
X37160000Y-44088967D01*
X37160000Y-41820629D01*
X46678812Y-41820629D01*
X46678812Y-42179371D01*
X46748799Y-42531221D01*
X46886084Y-42862656D01*
X47085391Y-43160940D01*
X47339060Y-43414609D01*
X47637344Y-43613916D01*
X47968779Y-43751201D01*
X48320629Y-43821188D01*
X48679371Y-43821188D01*
X49031221Y-43751201D01*
X49362656Y-43613916D01*
X49660940Y-43414609D01*
X49914609Y-43160940D01*
X50113916Y-42862656D01*
X50251201Y-42531221D01*
X50321188Y-42179371D01*
X50321188Y-41820629D01*
X50251201Y-41468779D01*
X50113916Y-41137344D01*
X49914609Y-40839060D01*
X49660940Y-40585391D01*
X49362656Y-40386084D01*
X49031221Y-40248799D01*
X48679371Y-40178812D01*
X48320629Y-40178812D01*
X47968779Y-40248799D01*
X47637344Y-40386084D01*
X47339060Y-40585391D01*
X47085391Y-40839060D01*
X46886084Y-41137344D01*
X46748799Y-41468779D01*
X46678812Y-41820629D01*
X37160000Y-41820629D01*
X37160000Y-39588967D01*
X43615000Y-39588967D01*
X43615000Y-39911033D01*
X43677832Y-40226912D01*
X43801082Y-40524463D01*
X43980013Y-40792252D01*
X44207748Y-41019987D01*
X44475537Y-41198918D01*
X44773088Y-41322168D01*
X45088967Y-41385000D01*
X45411033Y-41385000D01*
X45726912Y-41322168D01*
X46024463Y-41198918D01*
X46292252Y-41019987D01*
X46519987Y-40792252D01*
X46698918Y-40524463D01*
X46822168Y-40226912D01*
X46885000Y-39911033D01*
X46885000Y-39588967D01*
X50115000Y-39588967D01*
X50115000Y-39911033D01*
X50177832Y-40226912D01*
X50301082Y-40524463D01*
X50480013Y-40792252D01*
X50707748Y-41019987D01*
X50975537Y-41198918D01*
X51273088Y-41322168D01*
X51588967Y-41385000D01*
X51911033Y-41385000D01*
X52226912Y-41322168D01*
X52524463Y-41198918D01*
X52792252Y-41019987D01*
X53019987Y-40792252D01*
X53198918Y-40524463D01*
X53322168Y-40226912D01*
X53349606Y-40088967D01*
X53615000Y-40088967D01*
X53615000Y-40411033D01*
X53677832Y-40726912D01*
X53801082Y-41024463D01*
X53980013Y-41292252D01*
X54207748Y-41519987D01*
X54475537Y-41698918D01*
X54773088Y-41822168D01*
X55088967Y-41885000D01*
X55411033Y-41885000D01*
X55726912Y-41822168D01*
X56024463Y-41698918D01*
X56292252Y-41519987D01*
X56519987Y-41292252D01*
X56698918Y-41024463D01*
X56822168Y-40726912D01*
X56885000Y-40411033D01*
X56885000Y-40088967D01*
X60115000Y-40088967D01*
X60115000Y-40411033D01*
X60177832Y-40726912D01*
X60301082Y-41024463D01*
X60480013Y-41292252D01*
X60707748Y-41519987D01*
X60975537Y-41698918D01*
X61273088Y-41822168D01*
X61588967Y-41885000D01*
X61911033Y-41885000D01*
X62226912Y-41822168D01*
X62524463Y-41698918D01*
X62792252Y-41519987D01*
X63019987Y-41292252D01*
X63198918Y-41024463D01*
X63322168Y-40726912D01*
X63385000Y-40411033D01*
X63385000Y-40088967D01*
X63322168Y-39773088D01*
X63245903Y-39588967D01*
X63615000Y-39588967D01*
X63615000Y-39911033D01*
X63677832Y-40226912D01*
X63801082Y-40524463D01*
X63980013Y-40792252D01*
X64207748Y-41019987D01*
X64475537Y-41198918D01*
X64773088Y-41322168D01*
X65088967Y-41385000D01*
X65411033Y-41385000D01*
X65726912Y-41322168D01*
X66024463Y-41198918D01*
X66292252Y-41019987D01*
X66519987Y-40792252D01*
X66698918Y-40524463D01*
X66704909Y-40510000D01*
X67451891Y-40510000D01*
X67339060Y-40585391D01*
X67085391Y-40839060D01*
X66886084Y-41137344D01*
X66748799Y-41468779D01*
X66678812Y-41820629D01*
X66678812Y-42179371D01*
X66748799Y-42531221D01*
X66886084Y-42862656D01*
X67085391Y-43160940D01*
X67339060Y-43414609D01*
X67637344Y-43613916D01*
X67968779Y-43751201D01*
X68320629Y-43821188D01*
X68679371Y-43821188D01*
X69031221Y-43751201D01*
X69362656Y-43613916D01*
X69660940Y-43414609D01*
X69914609Y-43160940D01*
X70113916Y-42862656D01*
X70251201Y-42531221D01*
X70321188Y-42179371D01*
X70321188Y-41820629D01*
X70251201Y-41468779D01*
X70113916Y-41137344D01*
X69914609Y-40839060D01*
X69660940Y-40585391D01*
X69548109Y-40510000D01*
X70295091Y-40510000D01*
X70301082Y-40524463D01*
X70480013Y-40792252D01*
X70707748Y-41019987D01*
X70975537Y-41198918D01*
X71273088Y-41322168D01*
X71588967Y-41385000D01*
X71911033Y-41385000D01*
X72226912Y-41322168D01*
X72524463Y-41198918D01*
X72792252Y-41019987D01*
X73019987Y-40792252D01*
X73198918Y-40524463D01*
X73322168Y-40226912D01*
X73385000Y-39911033D01*
X73385000Y-39588967D01*
X73322168Y-39273088D01*
X73198918Y-38975537D01*
X73019987Y-38707748D01*
X72792252Y-38480013D01*
X72524463Y-38301082D01*
X72226912Y-38177832D01*
X71911033Y-38115000D01*
X71588967Y-38115000D01*
X71273088Y-38177832D01*
X70975537Y-38301082D01*
X70707748Y-38480013D01*
X70480013Y-38707748D01*
X70301082Y-38975537D01*
X70295091Y-38990000D01*
X66704909Y-38990000D01*
X66698918Y-38975537D01*
X66519987Y-38707748D01*
X66292252Y-38480013D01*
X66024463Y-38301082D01*
X65726912Y-38177832D01*
X65411033Y-38115000D01*
X65088967Y-38115000D01*
X64773088Y-38177832D01*
X64475537Y-38301082D01*
X64207748Y-38480013D01*
X63980013Y-38707748D01*
X63801082Y-38975537D01*
X63677832Y-39273088D01*
X63615000Y-39588967D01*
X63245903Y-39588967D01*
X63198918Y-39475537D01*
X63019987Y-39207748D01*
X62792252Y-38980013D01*
X62524463Y-38801082D01*
X62226912Y-38677832D01*
X61911033Y-38615000D01*
X61588967Y-38615000D01*
X61273088Y-38677832D01*
X60975537Y-38801082D01*
X60707748Y-38980013D01*
X60480013Y-39207748D01*
X60301082Y-39475537D01*
X60177832Y-39773088D01*
X60115000Y-40088967D01*
X56885000Y-40088967D01*
X56822168Y-39773088D01*
X56698918Y-39475537D01*
X56519987Y-39207748D01*
X56292252Y-38980013D01*
X56024463Y-38801082D01*
X55726912Y-38677832D01*
X55411033Y-38615000D01*
X55088967Y-38615000D01*
X54773088Y-38677832D01*
X54475537Y-38801082D01*
X54207748Y-38980013D01*
X53980013Y-39207748D01*
X53801082Y-39475537D01*
X53677832Y-39773088D01*
X53615000Y-40088967D01*
X53349606Y-40088967D01*
X53385000Y-39911033D01*
X53385000Y-39588967D01*
X53322168Y-39273088D01*
X53198918Y-38975537D01*
X53019987Y-38707748D01*
X52792252Y-38480013D01*
X52524463Y-38301082D01*
X52226912Y-38177832D01*
X51911033Y-38115000D01*
X51588967Y-38115000D01*
X51273088Y-38177832D01*
X50975537Y-38301082D01*
X50707748Y-38480013D01*
X50480013Y-38707748D01*
X50301082Y-38975537D01*
X50177832Y-39273088D01*
X50115000Y-39588967D01*
X46885000Y-39588967D01*
X46822168Y-39273088D01*
X46698918Y-38975537D01*
X46519987Y-38707748D01*
X46292252Y-38480013D01*
X46024463Y-38301082D01*
X45726912Y-38177832D01*
X45411033Y-38115000D01*
X45088967Y-38115000D01*
X44773088Y-38177832D01*
X44475537Y-38301082D01*
X44207748Y-38480013D01*
X43980013Y-38707748D01*
X43801082Y-38975537D01*
X43677832Y-39273088D01*
X43615000Y-39588967D01*
X37160000Y-39588967D01*
X37160000Y-36796552D01*
X38270380Y-36796552D01*
X38270380Y-37236808D01*
X38356270Y-37668605D01*
X38524749Y-38075349D01*
X38769342Y-38441409D01*
X39080651Y-38752718D01*
X39446711Y-38997311D01*
X39853455Y-39165790D01*
X40285252Y-39251680D01*
X40725508Y-39251680D01*
X41157305Y-39165790D01*
X41564049Y-38997311D01*
X41930109Y-38752718D01*
X42241418Y-38441409D01*
X42486011Y-38075349D01*
X42591519Y-37820629D01*
X56678812Y-37820629D01*
X56678812Y-38179371D01*
X56748799Y-38531221D01*
X56886084Y-38862656D01*
X57085391Y-39160940D01*
X57339060Y-39414609D01*
X57637344Y-39613916D01*
X57968779Y-39751201D01*
X58320629Y-39821188D01*
X58679371Y-39821188D01*
X59031221Y-39751201D01*
X59362656Y-39613916D01*
X59660940Y-39414609D01*
X59914609Y-39160940D01*
X60113916Y-38862656D01*
X60251201Y-38531221D01*
X60321188Y-38179371D01*
X60321188Y-37820629D01*
X60251201Y-37468779D01*
X60113916Y-37137344D01*
X59914609Y-36839060D01*
X59660940Y-36585391D01*
X59362656Y-36386084D01*
X59031221Y-36248799D01*
X58679371Y-36178812D01*
X58320629Y-36178812D01*
X57968779Y-36248799D01*
X57637344Y-36386084D01*
X57339060Y-36585391D01*
X57085391Y-36839060D01*
X56886084Y-37137344D01*
X56748799Y-37468779D01*
X56678812Y-37820629D01*
X42591519Y-37820629D01*
X42654490Y-37668605D01*
X42740380Y-37236808D01*
X42740380Y-36796552D01*
X42654490Y-36364755D01*
X42486011Y-35958011D01*
X42241418Y-35591951D01*
X42238434Y-35588967D01*
X53615000Y-35588967D01*
X53615000Y-35911033D01*
X53677832Y-36226912D01*
X53801082Y-36524463D01*
X53980013Y-36792252D01*
X54207748Y-37019987D01*
X54475537Y-37198918D01*
X54773088Y-37322168D01*
X55088967Y-37385000D01*
X55411033Y-37385000D01*
X55726912Y-37322168D01*
X56024463Y-37198918D01*
X56292252Y-37019987D01*
X56519987Y-36792252D01*
X56698918Y-36524463D01*
X56822168Y-36226912D01*
X56885000Y-35911033D01*
X56885000Y-35588967D01*
X60115000Y-35588967D01*
X60115000Y-35911033D01*
X60177832Y-36226912D01*
X60301082Y-36524463D01*
X60480013Y-36792252D01*
X60707748Y-37019987D01*
X60975537Y-37198918D01*
X61273088Y-37322168D01*
X61588967Y-37385000D01*
X61911033Y-37385000D01*
X62226912Y-37322168D01*
X62524463Y-37198918D01*
X62792252Y-37019987D01*
X63015687Y-36796552D01*
X74262180Y-36796552D01*
X74262180Y-37236808D01*
X74348070Y-37668605D01*
X74516549Y-38075349D01*
X74761142Y-38441409D01*
X75072451Y-38752718D01*
X75438511Y-38997311D01*
X75845255Y-39165790D01*
X76277052Y-39251680D01*
X76717308Y-39251680D01*
X77149105Y-39165790D01*
X77555849Y-38997311D01*
X77921909Y-38752718D01*
X78233218Y-38441409D01*
X78477811Y-38075349D01*
X78646290Y-37668605D01*
X78732180Y-37236808D01*
X78732180Y-36796552D01*
X78646290Y-36364755D01*
X78477811Y-35958011D01*
X78233218Y-35591951D01*
X77921909Y-35280642D01*
X77555849Y-35036049D01*
X77149105Y-34867570D01*
X76717308Y-34781680D01*
X76277052Y-34781680D01*
X75845255Y-34867570D01*
X75438511Y-35036049D01*
X75072451Y-35280642D01*
X74761142Y-35591951D01*
X74516549Y-35958011D01*
X74348070Y-36364755D01*
X74262180Y-36796552D01*
X63015687Y-36796552D01*
X63019987Y-36792252D01*
X63198918Y-36524463D01*
X63322168Y-36226912D01*
X63385000Y-35911033D01*
X63385000Y-35588967D01*
X63322168Y-35273088D01*
X63198918Y-34975537D01*
X63019987Y-34707748D01*
X62792252Y-34480013D01*
X62524463Y-34301082D01*
X62226912Y-34177832D01*
X61911033Y-34115000D01*
X61588967Y-34115000D01*
X61273088Y-34177832D01*
X60975537Y-34301082D01*
X60707748Y-34480013D01*
X60480013Y-34707748D01*
X60301082Y-34975537D01*
X60177832Y-35273088D01*
X60115000Y-35588967D01*
X56885000Y-35588967D01*
X56822168Y-35273088D01*
X56698918Y-34975537D01*
X56519987Y-34707748D01*
X56292252Y-34480013D01*
X56024463Y-34301082D01*
X55726912Y-34177832D01*
X55411033Y-34115000D01*
X55088967Y-34115000D01*
X54773088Y-34177832D01*
X54475537Y-34301082D01*
X54207748Y-34480013D01*
X53980013Y-34707748D01*
X53801082Y-34975537D01*
X53677832Y-35273088D01*
X53615000Y-35588967D01*
X42238434Y-35588967D01*
X41930109Y-35280642D01*
X41564049Y-35036049D01*
X41157305Y-34867570D01*
X40725508Y-34781680D01*
X40285252Y-34781680D01*
X39853455Y-34867570D01*
X39446711Y-35036049D01*
X39080651Y-35280642D01*
X38769342Y-35591951D01*
X38524749Y-35958011D01*
X38356270Y-36364755D01*
X38270380Y-36796552D01*
X37160000Y-36796552D01*
X37160000Y-32667275D01*
X37160666Y-32660487D01*
X37165301Y-32660000D01*
X87840000Y-32660000D01*
X87840001Y-51340000D01*
%TA.AperFunction,Conductor*%
D16*
G36*
X87840001Y-51340000D02*
G01*
X69484801Y-51340000D01*
X74320266Y-46504536D01*
X74262180Y-46796552D01*
X74262180Y-47236808D01*
X74348070Y-47668605D01*
X74516549Y-48075349D01*
X74761142Y-48441409D01*
X75072451Y-48752718D01*
X75438511Y-48997311D01*
X75845255Y-49165790D01*
X76277052Y-49251680D01*
X76717308Y-49251680D01*
X77149105Y-49165790D01*
X77555849Y-48997311D01*
X77921909Y-48752718D01*
X78233218Y-48441409D01*
X78477811Y-48075349D01*
X78646290Y-47668605D01*
X78732180Y-47236808D01*
X78732180Y-46796552D01*
X78646290Y-46364755D01*
X78477811Y-45958011D01*
X78233218Y-45591951D01*
X77921909Y-45280642D01*
X77555849Y-45036049D01*
X77149105Y-44867570D01*
X76717308Y-44781680D01*
X76277052Y-44781680D01*
X75985036Y-44839766D01*
X80564802Y-40260000D01*
X81281822Y-40260000D01*
X81406525Y-40446632D01*
X81613368Y-40653475D01*
X81787760Y-40770000D01*
X81613368Y-40886525D01*
X81406525Y-41093368D01*
X81244010Y-41336589D01*
X81132068Y-41606842D01*
X81075000Y-41893740D01*
X81075000Y-42186260D01*
X81132068Y-42473158D01*
X81244010Y-42743411D01*
X81406525Y-42986632D01*
X81613368Y-43193475D01*
X81787760Y-43310000D01*
X81613368Y-43426525D01*
X81406525Y-43633368D01*
X81244010Y-43876589D01*
X81132068Y-44146842D01*
X81075000Y-44433740D01*
X81075000Y-44726260D01*
X81132068Y-45013158D01*
X81244010Y-45283411D01*
X81406525Y-45526632D01*
X81613368Y-45733475D01*
X81856589Y-45895990D01*
X82126842Y-46007932D01*
X82413740Y-46065000D01*
X82706260Y-46065000D01*
X82993158Y-46007932D01*
X83263411Y-45895990D01*
X83506632Y-45733475D01*
X83713475Y-45526632D01*
X83831100Y-45350594D01*
X84002412Y-45580269D01*
X84218645Y-45775178D01*
X84468748Y-45924157D01*
X84743109Y-46021481D01*
X84973000Y-45900814D01*
X84973000Y-44707000D01*
X85227000Y-44707000D01*
X85227000Y-45900814D01*
X85456891Y-46021481D01*
X85731252Y-45924157D01*
X85981355Y-45775178D01*
X86197588Y-45580269D01*
X86371641Y-45346920D01*
X86496825Y-45084099D01*
X86541476Y-44936890D01*
X86420155Y-44707000D01*
X85227000Y-44707000D01*
X84973000Y-44707000D01*
X84953000Y-44707000D01*
X84953000Y-44453000D01*
X84973000Y-44453000D01*
X84973000Y-44433000D01*
X85227000Y-44433000D01*
X85227000Y-44453000D01*
X86420155Y-44453000D01*
X86541476Y-44223110D01*
X86496825Y-44075901D01*
X86371641Y-43813080D01*
X86197588Y-43579731D01*
X85981355Y-43384822D01*
X85864466Y-43315195D01*
X86046632Y-43193475D01*
X86253475Y-42986632D01*
X86415990Y-42743411D01*
X86527932Y-42473158D01*
X86585000Y-42186260D01*
X86585000Y-41893740D01*
X86541210Y-41673592D01*
X86786004Y-41428798D01*
X86815002Y-41405000D01*
X86909975Y-41289275D01*
X86980547Y-41157246D01*
X87024004Y-41013985D01*
X87035001Y-40902332D01*
X87035001Y-40902323D01*
X87038677Y-40865000D01*
X87035001Y-40827677D01*
X87035001Y-38427322D01*
X87038677Y-38389999D01*
X87035001Y-38352677D01*
X87035001Y-38352666D01*
X87024004Y-38241013D01*
X86980547Y-38097752D01*
X86909975Y-37965723D01*
X86815002Y-37849998D01*
X86785999Y-37826196D01*
X86773805Y-37814002D01*
X86750002Y-37784998D01*
X86634277Y-37690025D01*
X86502248Y-37619453D01*
X86358987Y-37575996D01*
X86247334Y-37564999D01*
X86247323Y-37564999D01*
X86210001Y-37561323D01*
X86172679Y-37564999D01*
X80825916Y-37564999D01*
X80788591Y-37561323D01*
X80751266Y-37564999D01*
X80751258Y-37564999D01*
X80639605Y-37575996D01*
X80496344Y-37619453D01*
X80364315Y-37690025D01*
X80248590Y-37784998D01*
X80224792Y-37813996D01*
X74548789Y-43490000D01*
X73204909Y-43490000D01*
X73198918Y-43475537D01*
X73019987Y-43207748D01*
X72792252Y-42980013D01*
X72524463Y-42801082D01*
X72226912Y-42677832D01*
X71911033Y-42615000D01*
X71588967Y-42615000D01*
X71273088Y-42677832D01*
X70975537Y-42801082D01*
X70707748Y-42980013D01*
X70480013Y-43207748D01*
X70301082Y-43475537D01*
X70177832Y-43773088D01*
X70115000Y-44088967D01*
X70115000Y-44411033D01*
X70177832Y-44726912D01*
X70301082Y-45024463D01*
X70480013Y-45292252D01*
X70707748Y-45519987D01*
X70975537Y-45698918D01*
X71273088Y-45822168D01*
X71588967Y-45885000D01*
X71911033Y-45885000D01*
X72226912Y-45822168D01*
X72524463Y-45698918D01*
X72792252Y-45519987D01*
X73019987Y-45292252D01*
X73198918Y-45024463D01*
X73204909Y-45010000D01*
X73665199Y-45010000D01*
X68435199Y-50240000D01*
X55564803Y-50240000D01*
X55209803Y-49885000D01*
X55411033Y-49885000D01*
X55726912Y-49822168D01*
X56024463Y-49698918D01*
X56292252Y-49519987D01*
X56519987Y-49292252D01*
X56698918Y-49024463D01*
X56704909Y-49010000D01*
X60295091Y-49010000D01*
X60301082Y-49024463D01*
X60480013Y-49292252D01*
X60707748Y-49519987D01*
X60975537Y-49698918D01*
X61273088Y-49822168D01*
X61588967Y-49885000D01*
X61911033Y-49885000D01*
X62226912Y-49822168D01*
X62524463Y-49698918D01*
X62792252Y-49519987D01*
X63019987Y-49292252D01*
X63198918Y-49024463D01*
X63322168Y-48726912D01*
X63385000Y-48411033D01*
X63385000Y-48088967D01*
X63322168Y-47773088D01*
X63198918Y-47475537D01*
X63019987Y-47207748D01*
X62792252Y-46980013D01*
X62524463Y-46801082D01*
X62226912Y-46677832D01*
X61911033Y-46615000D01*
X61588967Y-46615000D01*
X61273088Y-46677832D01*
X60975537Y-46801082D01*
X60707748Y-46980013D01*
X60480013Y-47207748D01*
X60301082Y-47475537D01*
X60295091Y-47490000D01*
X59548109Y-47490000D01*
X59660940Y-47414609D01*
X59914609Y-47160940D01*
X60113916Y-46862656D01*
X60251201Y-46531221D01*
X60321188Y-46179371D01*
X60321188Y-45820629D01*
X60251201Y-45468779D01*
X60113916Y-45137344D01*
X59914609Y-44839060D01*
X59660940Y-44585391D01*
X59362656Y-44386084D01*
X59031221Y-44248799D01*
X58679371Y-44178812D01*
X58320629Y-44178812D01*
X57968779Y-44248799D01*
X57637344Y-44386084D01*
X57339060Y-44585391D01*
X57085391Y-44839060D01*
X56886084Y-45137344D01*
X56748799Y-45468779D01*
X56678812Y-45820629D01*
X56678812Y-46179371D01*
X56748799Y-46531221D01*
X56886084Y-46862656D01*
X57085391Y-47160940D01*
X57339060Y-47414609D01*
X57451891Y-47490000D01*
X56704909Y-47490000D01*
X56698918Y-47475537D01*
X56519987Y-47207748D01*
X56292252Y-46980013D01*
X56024463Y-46801082D01*
X55726912Y-46677832D01*
X55411033Y-46615000D01*
X55088967Y-46615000D01*
X54773088Y-46677832D01*
X54475537Y-46801082D01*
X54207748Y-46980013D01*
X53980013Y-47207748D01*
X53801082Y-47475537D01*
X53677832Y-47773088D01*
X53615000Y-48088967D01*
X53615000Y-48290198D01*
X52510000Y-47185199D01*
X52510000Y-45704909D01*
X52524463Y-45698918D01*
X52792252Y-45519987D01*
X53019987Y-45292252D01*
X53198918Y-45024463D01*
X53322168Y-44726912D01*
X53385000Y-44411033D01*
X53385000Y-44088967D01*
X53322168Y-43773088D01*
X53245903Y-43588967D01*
X53615000Y-43588967D01*
X53615000Y-43911033D01*
X53677832Y-44226912D01*
X53801082Y-44524463D01*
X53980013Y-44792252D01*
X54207748Y-45019987D01*
X54475537Y-45198918D01*
X54773088Y-45322168D01*
X55088967Y-45385000D01*
X55411033Y-45385000D01*
X55726912Y-45322168D01*
X56024463Y-45198918D01*
X56292252Y-45019987D01*
X56519987Y-44792252D01*
X56698918Y-44524463D01*
X56822168Y-44226912D01*
X56885000Y-43911033D01*
X56885000Y-43588967D01*
X60115000Y-43588967D01*
X60115000Y-43911033D01*
X60177832Y-44226912D01*
X60301082Y-44524463D01*
X60480013Y-44792252D01*
X60707748Y-45019987D01*
X60975537Y-45198918D01*
X61273088Y-45322168D01*
X61588967Y-45385000D01*
X61911033Y-45385000D01*
X62226912Y-45322168D01*
X62524463Y-45198918D01*
X62792252Y-45019987D01*
X63019987Y-44792252D01*
X63198918Y-44524463D01*
X63322168Y-44226912D01*
X63349606Y-44088967D01*
X63615000Y-44088967D01*
X63615000Y-44411033D01*
X63677832Y-44726912D01*
X63801082Y-45024463D01*
X63980013Y-45292252D01*
X64207748Y-45519987D01*
X64475537Y-45698918D01*
X64773088Y-45822168D01*
X65088967Y-45885000D01*
X65411033Y-45885000D01*
X65726912Y-45822168D01*
X66024463Y-45698918D01*
X66292252Y-45519987D01*
X66519987Y-45292252D01*
X66698918Y-45024463D01*
X66822168Y-44726912D01*
X66885000Y-44411033D01*
X66885000Y-44088967D01*
X66822168Y-43773088D01*
X66698918Y-43475537D01*
X66519987Y-43207748D01*
X66292252Y-42980013D01*
X66024463Y-42801082D01*
X65726912Y-42677832D01*
X65411033Y-42615000D01*
X65088967Y-42615000D01*
X64773088Y-42677832D01*
X64475537Y-42801082D01*
X64207748Y-42980013D01*
X63980013Y-43207748D01*
X63801082Y-43475537D01*
X63677832Y-43773088D01*
X63615000Y-44088967D01*
X63349606Y-44088967D01*
X63385000Y-43911033D01*
X63385000Y-43588967D01*
X63322168Y-43273088D01*
X63198918Y-42975537D01*
X63019987Y-42707748D01*
X62792252Y-42480013D01*
X62524463Y-42301082D01*
X62226912Y-42177832D01*
X61911033Y-42115000D01*
X61588967Y-42115000D01*
X61273088Y-42177832D01*
X60975537Y-42301082D01*
X60707748Y-42480013D01*
X60480013Y-42707748D01*
X60301082Y-42975537D01*
X60177832Y-43273088D01*
X60115000Y-43588967D01*
X56885000Y-43588967D01*
X56822168Y-43273088D01*
X56698918Y-42975537D01*
X56519987Y-42707748D01*
X56292252Y-42480013D01*
X56024463Y-42301082D01*
X55726912Y-42177832D01*
X55411033Y-42115000D01*
X55088967Y-42115000D01*
X54773088Y-42177832D01*
X54475537Y-42301082D01*
X54207748Y-42480013D01*
X53980013Y-42707748D01*
X53801082Y-42975537D01*
X53677832Y-43273088D01*
X53615000Y-43588967D01*
X53245903Y-43588967D01*
X53198918Y-43475537D01*
X53019987Y-43207748D01*
X52792252Y-42980013D01*
X52524463Y-42801082D01*
X52226912Y-42677832D01*
X51911033Y-42615000D01*
X51588967Y-42615000D01*
X51273088Y-42677832D01*
X50975537Y-42801082D01*
X50707748Y-42980013D01*
X50480013Y-43207748D01*
X50301082Y-43475537D01*
X50177832Y-43773088D01*
X50115000Y-44088967D01*
X50115000Y-44411033D01*
X50177832Y-44726912D01*
X50301082Y-45024463D01*
X50480013Y-45292252D01*
X50707748Y-45519987D01*
X50975537Y-45698918D01*
X50990000Y-45704909D01*
X50990001Y-47462668D01*
X50986324Y-47500000D01*
X51000998Y-47648985D01*
X51044454Y-47792246D01*
X51115026Y-47924276D01*
X51186201Y-48011002D01*
X51210000Y-48040001D01*
X51238998Y-48063799D01*
X54515197Y-51340000D01*
X37160000Y-51340000D01*
X37160000Y-46796552D01*
X38270380Y-46796552D01*
X38270380Y-47236808D01*
X38356270Y-47668605D01*
X38524749Y-48075349D01*
X38769342Y-48441409D01*
X39080651Y-48752718D01*
X39446711Y-48997311D01*
X39853455Y-49165790D01*
X40285252Y-49251680D01*
X40725508Y-49251680D01*
X41157305Y-49165790D01*
X41564049Y-48997311D01*
X41930109Y-48752718D01*
X42241418Y-48441409D01*
X42486011Y-48075349D01*
X42654490Y-47668605D01*
X42740380Y-47236808D01*
X42740380Y-46796552D01*
X42654490Y-46364755D01*
X42486011Y-45958011D01*
X42241418Y-45591951D01*
X41930109Y-45280642D01*
X41564049Y-45036049D01*
X41157305Y-44867570D01*
X40725508Y-44781680D01*
X40285252Y-44781680D01*
X39853455Y-44867570D01*
X39446711Y-45036049D01*
X39080651Y-45280642D01*
X38769342Y-45591951D01*
X38524749Y-45958011D01*
X38356270Y-46364755D01*
X38270380Y-46796552D01*
X37160000Y-46796552D01*
X37160000Y-44088967D01*
X43615000Y-44088967D01*
X43615000Y-44411033D01*
X43677832Y-44726912D01*
X43801082Y-45024463D01*
X43980013Y-45292252D01*
X44207748Y-45519987D01*
X44475537Y-45698918D01*
X44773088Y-45822168D01*
X45088967Y-45885000D01*
X45411033Y-45885000D01*
X45726912Y-45822168D01*
X46024463Y-45698918D01*
X46292252Y-45519987D01*
X46519987Y-45292252D01*
X46698918Y-45024463D01*
X46822168Y-44726912D01*
X46885000Y-44411033D01*
X46885000Y-44088967D01*
X46822168Y-43773088D01*
X46698918Y-43475537D01*
X46519987Y-43207748D01*
X46292252Y-42980013D01*
X46024463Y-42801082D01*
X45726912Y-42677832D01*
X45411033Y-42615000D01*
X45088967Y-42615000D01*
X44773088Y-42677832D01*
X44475537Y-42801082D01*
X44207748Y-42980013D01*
X43980013Y-43207748D01*
X43801082Y-43475537D01*
X43677832Y-43773088D01*
X43615000Y-44088967D01*
X37160000Y-44088967D01*
X37160000Y-41820629D01*
X46678812Y-41820629D01*
X46678812Y-42179371D01*
X46748799Y-42531221D01*
X46886084Y-42862656D01*
X47085391Y-43160940D01*
X47339060Y-43414609D01*
X47637344Y-43613916D01*
X47968779Y-43751201D01*
X48320629Y-43821188D01*
X48679371Y-43821188D01*
X49031221Y-43751201D01*
X49362656Y-43613916D01*
X49660940Y-43414609D01*
X49914609Y-43160940D01*
X50113916Y-42862656D01*
X50251201Y-42531221D01*
X50321188Y-42179371D01*
X50321188Y-41820629D01*
X50251201Y-41468779D01*
X50113916Y-41137344D01*
X49914609Y-40839060D01*
X49660940Y-40585391D01*
X49362656Y-40386084D01*
X49031221Y-40248799D01*
X48679371Y-40178812D01*
X48320629Y-40178812D01*
X47968779Y-40248799D01*
X47637344Y-40386084D01*
X47339060Y-40585391D01*
X47085391Y-40839060D01*
X46886084Y-41137344D01*
X46748799Y-41468779D01*
X46678812Y-41820629D01*
X37160000Y-41820629D01*
X37160000Y-39588967D01*
X43615000Y-39588967D01*
X43615000Y-39911033D01*
X43677832Y-40226912D01*
X43801082Y-40524463D01*
X43980013Y-40792252D01*
X44207748Y-41019987D01*
X44475537Y-41198918D01*
X44773088Y-41322168D01*
X45088967Y-41385000D01*
X45411033Y-41385000D01*
X45726912Y-41322168D01*
X46024463Y-41198918D01*
X46292252Y-41019987D01*
X46519987Y-40792252D01*
X46698918Y-40524463D01*
X46822168Y-40226912D01*
X46885000Y-39911033D01*
X46885000Y-39588967D01*
X50115000Y-39588967D01*
X50115000Y-39911033D01*
X50177832Y-40226912D01*
X50301082Y-40524463D01*
X50480013Y-40792252D01*
X50707748Y-41019987D01*
X50975537Y-41198918D01*
X51273088Y-41322168D01*
X51588967Y-41385000D01*
X51911033Y-41385000D01*
X52226912Y-41322168D01*
X52524463Y-41198918D01*
X52792252Y-41019987D01*
X53019987Y-40792252D01*
X53198918Y-40524463D01*
X53322168Y-40226912D01*
X53349606Y-40088967D01*
X53615000Y-40088967D01*
X53615000Y-40411033D01*
X53677832Y-40726912D01*
X53801082Y-41024463D01*
X53980013Y-41292252D01*
X54207748Y-41519987D01*
X54475537Y-41698918D01*
X54773088Y-41822168D01*
X55088967Y-41885000D01*
X55411033Y-41885000D01*
X55726912Y-41822168D01*
X56024463Y-41698918D01*
X56292252Y-41519987D01*
X56519987Y-41292252D01*
X56698918Y-41024463D01*
X56822168Y-40726912D01*
X56885000Y-40411033D01*
X56885000Y-40088967D01*
X60115000Y-40088967D01*
X60115000Y-40411033D01*
X60177832Y-40726912D01*
X60301082Y-41024463D01*
X60480013Y-41292252D01*
X60707748Y-41519987D01*
X60975537Y-41698918D01*
X61273088Y-41822168D01*
X61588967Y-41885000D01*
X61911033Y-41885000D01*
X62226912Y-41822168D01*
X62524463Y-41698918D01*
X62792252Y-41519987D01*
X63019987Y-41292252D01*
X63198918Y-41024463D01*
X63322168Y-40726912D01*
X63385000Y-40411033D01*
X63385000Y-40088967D01*
X63322168Y-39773088D01*
X63245903Y-39588967D01*
X63615000Y-39588967D01*
X63615000Y-39911033D01*
X63677832Y-40226912D01*
X63801082Y-40524463D01*
X63980013Y-40792252D01*
X64207748Y-41019987D01*
X64475537Y-41198918D01*
X64773088Y-41322168D01*
X65088967Y-41385000D01*
X65411033Y-41385000D01*
X65726912Y-41322168D01*
X66024463Y-41198918D01*
X66292252Y-41019987D01*
X66519987Y-40792252D01*
X66698918Y-40524463D01*
X66704909Y-40510000D01*
X67451891Y-40510000D01*
X67339060Y-40585391D01*
X67085391Y-40839060D01*
X66886084Y-41137344D01*
X66748799Y-41468779D01*
X66678812Y-41820629D01*
X66678812Y-42179371D01*
X66748799Y-42531221D01*
X66886084Y-42862656D01*
X67085391Y-43160940D01*
X67339060Y-43414609D01*
X67637344Y-43613916D01*
X67968779Y-43751201D01*
X68320629Y-43821188D01*
X68679371Y-43821188D01*
X69031221Y-43751201D01*
X69362656Y-43613916D01*
X69660940Y-43414609D01*
X69914609Y-43160940D01*
X70113916Y-42862656D01*
X70251201Y-42531221D01*
X70321188Y-42179371D01*
X70321188Y-41820629D01*
X70251201Y-41468779D01*
X70113916Y-41137344D01*
X69914609Y-40839060D01*
X69660940Y-40585391D01*
X69548109Y-40510000D01*
X70295091Y-40510000D01*
X70301082Y-40524463D01*
X70480013Y-40792252D01*
X70707748Y-41019987D01*
X70975537Y-41198918D01*
X71273088Y-41322168D01*
X71588967Y-41385000D01*
X71911033Y-41385000D01*
X72226912Y-41322168D01*
X72524463Y-41198918D01*
X72792252Y-41019987D01*
X73019987Y-40792252D01*
X73198918Y-40524463D01*
X73322168Y-40226912D01*
X73385000Y-39911033D01*
X73385000Y-39588967D01*
X73322168Y-39273088D01*
X73198918Y-38975537D01*
X73019987Y-38707748D01*
X72792252Y-38480013D01*
X72524463Y-38301082D01*
X72226912Y-38177832D01*
X71911033Y-38115000D01*
X71588967Y-38115000D01*
X71273088Y-38177832D01*
X70975537Y-38301082D01*
X70707748Y-38480013D01*
X70480013Y-38707748D01*
X70301082Y-38975537D01*
X70295091Y-38990000D01*
X66704909Y-38990000D01*
X66698918Y-38975537D01*
X66519987Y-38707748D01*
X66292252Y-38480013D01*
X66024463Y-38301082D01*
X65726912Y-38177832D01*
X65411033Y-38115000D01*
X65088967Y-38115000D01*
X64773088Y-38177832D01*
X64475537Y-38301082D01*
X64207748Y-38480013D01*
X63980013Y-38707748D01*
X63801082Y-38975537D01*
X63677832Y-39273088D01*
X63615000Y-39588967D01*
X63245903Y-39588967D01*
X63198918Y-39475537D01*
X63019987Y-39207748D01*
X62792252Y-38980013D01*
X62524463Y-38801082D01*
X62226912Y-38677832D01*
X61911033Y-38615000D01*
X61588967Y-38615000D01*
X61273088Y-38677832D01*
X60975537Y-38801082D01*
X60707748Y-38980013D01*
X60480013Y-39207748D01*
X60301082Y-39475537D01*
X60177832Y-39773088D01*
X60115000Y-40088967D01*
X56885000Y-40088967D01*
X56822168Y-39773088D01*
X56698918Y-39475537D01*
X56519987Y-39207748D01*
X56292252Y-38980013D01*
X56024463Y-38801082D01*
X55726912Y-38677832D01*
X55411033Y-38615000D01*
X55088967Y-38615000D01*
X54773088Y-38677832D01*
X54475537Y-38801082D01*
X54207748Y-38980013D01*
X53980013Y-39207748D01*
X53801082Y-39475537D01*
X53677832Y-39773088D01*
X53615000Y-40088967D01*
X53349606Y-40088967D01*
X53385000Y-39911033D01*
X53385000Y-39588967D01*
X53322168Y-39273088D01*
X53198918Y-38975537D01*
X53019987Y-38707748D01*
X52792252Y-38480013D01*
X52524463Y-38301082D01*
X52226912Y-38177832D01*
X51911033Y-38115000D01*
X51588967Y-38115000D01*
X51273088Y-38177832D01*
X50975537Y-38301082D01*
X50707748Y-38480013D01*
X50480013Y-38707748D01*
X50301082Y-38975537D01*
X50177832Y-39273088D01*
X50115000Y-39588967D01*
X46885000Y-39588967D01*
X46822168Y-39273088D01*
X46698918Y-38975537D01*
X46519987Y-38707748D01*
X46292252Y-38480013D01*
X46024463Y-38301082D01*
X45726912Y-38177832D01*
X45411033Y-38115000D01*
X45088967Y-38115000D01*
X44773088Y-38177832D01*
X44475537Y-38301082D01*
X44207748Y-38480013D01*
X43980013Y-38707748D01*
X43801082Y-38975537D01*
X43677832Y-39273088D01*
X43615000Y-39588967D01*
X37160000Y-39588967D01*
X37160000Y-36796552D01*
X38270380Y-36796552D01*
X38270380Y-37236808D01*
X38356270Y-37668605D01*
X38524749Y-38075349D01*
X38769342Y-38441409D01*
X39080651Y-38752718D01*
X39446711Y-38997311D01*
X39853455Y-39165790D01*
X40285252Y-39251680D01*
X40725508Y-39251680D01*
X41157305Y-39165790D01*
X41564049Y-38997311D01*
X41930109Y-38752718D01*
X42241418Y-38441409D01*
X42486011Y-38075349D01*
X42591519Y-37820629D01*
X56678812Y-37820629D01*
X56678812Y-38179371D01*
X56748799Y-38531221D01*
X56886084Y-38862656D01*
X57085391Y-39160940D01*
X57339060Y-39414609D01*
X57637344Y-39613916D01*
X57968779Y-39751201D01*
X58320629Y-39821188D01*
X58679371Y-39821188D01*
X59031221Y-39751201D01*
X59362656Y-39613916D01*
X59660940Y-39414609D01*
X59914609Y-39160940D01*
X60113916Y-38862656D01*
X60251201Y-38531221D01*
X60321188Y-38179371D01*
X60321188Y-37820629D01*
X60251201Y-37468779D01*
X60113916Y-37137344D01*
X59914609Y-36839060D01*
X59660940Y-36585391D01*
X59362656Y-36386084D01*
X59031221Y-36248799D01*
X58679371Y-36178812D01*
X58320629Y-36178812D01*
X57968779Y-36248799D01*
X57637344Y-36386084D01*
X57339060Y-36585391D01*
X57085391Y-36839060D01*
X56886084Y-37137344D01*
X56748799Y-37468779D01*
X56678812Y-37820629D01*
X42591519Y-37820629D01*
X42654490Y-37668605D01*
X42740380Y-37236808D01*
X42740380Y-36796552D01*
X42654490Y-36364755D01*
X42486011Y-35958011D01*
X42241418Y-35591951D01*
X42238434Y-35588967D01*
X53615000Y-35588967D01*
X53615000Y-35911033D01*
X53677832Y-36226912D01*
X53801082Y-36524463D01*
X53980013Y-36792252D01*
X54207748Y-37019987D01*
X54475537Y-37198918D01*
X54773088Y-37322168D01*
X55088967Y-37385000D01*
X55411033Y-37385000D01*
X55726912Y-37322168D01*
X56024463Y-37198918D01*
X56292252Y-37019987D01*
X56519987Y-36792252D01*
X56698918Y-36524463D01*
X56822168Y-36226912D01*
X56885000Y-35911033D01*
X56885000Y-35588967D01*
X60115000Y-35588967D01*
X60115000Y-35911033D01*
X60177832Y-36226912D01*
X60301082Y-36524463D01*
X60480013Y-36792252D01*
X60707748Y-37019987D01*
X60975537Y-37198918D01*
X61273088Y-37322168D01*
X61588967Y-37385000D01*
X61911033Y-37385000D01*
X62226912Y-37322168D01*
X62524463Y-37198918D01*
X62792252Y-37019987D01*
X63015687Y-36796552D01*
X74262180Y-36796552D01*
X74262180Y-37236808D01*
X74348070Y-37668605D01*
X74516549Y-38075349D01*
X74761142Y-38441409D01*
X75072451Y-38752718D01*
X75438511Y-38997311D01*
X75845255Y-39165790D01*
X76277052Y-39251680D01*
X76717308Y-39251680D01*
X77149105Y-39165790D01*
X77555849Y-38997311D01*
X77921909Y-38752718D01*
X78233218Y-38441409D01*
X78477811Y-38075349D01*
X78646290Y-37668605D01*
X78732180Y-37236808D01*
X78732180Y-36796552D01*
X78646290Y-36364755D01*
X78477811Y-35958011D01*
X78233218Y-35591951D01*
X77921909Y-35280642D01*
X77555849Y-35036049D01*
X77149105Y-34867570D01*
X76717308Y-34781680D01*
X76277052Y-34781680D01*
X75845255Y-34867570D01*
X75438511Y-35036049D01*
X75072451Y-35280642D01*
X74761142Y-35591951D01*
X74516549Y-35958011D01*
X74348070Y-36364755D01*
X74262180Y-36796552D01*
X63015687Y-36796552D01*
X63019987Y-36792252D01*
X63198918Y-36524463D01*
X63322168Y-36226912D01*
X63385000Y-35911033D01*
X63385000Y-35588967D01*
X63322168Y-35273088D01*
X63198918Y-34975537D01*
X63019987Y-34707748D01*
X62792252Y-34480013D01*
X62524463Y-34301082D01*
X62226912Y-34177832D01*
X61911033Y-34115000D01*
X61588967Y-34115000D01*
X61273088Y-34177832D01*
X60975537Y-34301082D01*
X60707748Y-34480013D01*
X60480013Y-34707748D01*
X60301082Y-34975537D01*
X60177832Y-35273088D01*
X60115000Y-35588967D01*
X56885000Y-35588967D01*
X56822168Y-35273088D01*
X56698918Y-34975537D01*
X56519987Y-34707748D01*
X56292252Y-34480013D01*
X56024463Y-34301082D01*
X55726912Y-34177832D01*
X55411033Y-34115000D01*
X55088967Y-34115000D01*
X54773088Y-34177832D01*
X54475537Y-34301082D01*
X54207748Y-34480013D01*
X53980013Y-34707748D01*
X53801082Y-34975537D01*
X53677832Y-35273088D01*
X53615000Y-35588967D01*
X42238434Y-35588967D01*
X41930109Y-35280642D01*
X41564049Y-35036049D01*
X41157305Y-34867570D01*
X40725508Y-34781680D01*
X40285252Y-34781680D01*
X39853455Y-34867570D01*
X39446711Y-35036049D01*
X39080651Y-35280642D01*
X38769342Y-35591951D01*
X38524749Y-35958011D01*
X38356270Y-36364755D01*
X38270380Y-36796552D01*
X37160000Y-36796552D01*
X37160000Y-32667275D01*
X37160666Y-32660487D01*
X37165301Y-32660000D01*
X87840000Y-32660000D01*
X87840001Y-51340000D01*
G37*
%TD.AperFunction*%
%TD*%
M02*
