M48
; DRILL file {KiCad 5.1.7-a382d34a8~88~ubuntu18.04.1} date Mon Jun  7 00:47:59 2021
; FORMAT={-:-/ absolute / inch / decimal}
; #@! TF.CreationDate,2021-06-07T00:47:59+02:00
; #@! TF.GenerationSoftware,Kicad,Pcbnew,5.1.7-a382d34a8~88~ubuntu18.04.1
FMAT,2
INCH
T1C0.0157
T2C0.0394
T3C0.0433
T4C0.0866
T5C0.1260
%
G90
G05
T1
X1.7067Y-1.565
X2.0925Y-1.8996
X2.1004Y-1.4075
X2.8819Y-1.4606
T2
X3.3307Y-1.4035
X3.3307Y-1.5035
X3.3307Y-1.6035
X3.3307Y-1.7035
X3.3307Y-1.8035
X3.3307Y-1.9035
T3
X2.1752Y-1.7224
X2.1752Y-1.8996
X2.4311Y-1.7224
X2.4311Y-1.8996
X2.5689Y-1.565
X2.5689Y-1.7421
X2.8248Y-1.565
X2.8248Y-1.7421
X1.7815Y-1.565
X1.7815Y-1.7421
X2.0374Y-1.565
X2.0374Y-1.7421
X2.1752Y-1.4075
X2.1752Y-1.5846
X2.4311Y-1.4075
X2.4311Y-1.5846
T4
X2.3031Y-1.4961
X2.6969Y-1.6535
X1.9094Y-1.6535
X2.3031Y-1.811
T5
X1.5947Y-1.8904
X1.5947Y-1.418
X3.0117Y-1.418
X3.0117Y-1.8904
T0
M30
