%TF.GenerationSoftware,KiCad,Pcbnew,5.1.7-a382d34a8~88~ubuntu18.04.1*%
%TF.CreationDate,2021-05-22T23:43:46+02:00*%
%TF.ProjectId,button-board-6x6mm-4buttons,62757474-6f6e-42d6-926f-6172642d3678,v1r1*%
%TF.SameCoordinates,Original*%
%TF.FileFunction,Legend,Top*%
%TF.FilePolarity,Positive*%
%FSLAX46Y46*%
G04 Gerber Fmt 4.6, Leading zero omitted, Abs format (unit mm)*
G04 Created by KiCad (PCBNEW 5.1.7-a382d34a8~88~ubuntu18.04.1) date 2021-05-22 23:43:46*
%MOMM*%
%LPD*%
G01*
G04 APERTURE LIST*
%ADD10C,0.150000*%
%ADD11C,0.080000*%
%ADD12C,0.070000*%
%ADD13C,0.100000*%
%ADD14C,0.120000*%
%ADD15C,0.064000*%
G04 APERTURE END LIST*
D10*
X52666666Y-34402380D02*
X53285714Y-34402380D01*
X52952380Y-34783333D01*
X53095238Y-34783333D01*
X53190476Y-34830952D01*
X53238095Y-34878571D01*
X53285714Y-34973809D01*
X53285714Y-35211904D01*
X53238095Y-35307142D01*
X53190476Y-35354761D01*
X53095238Y-35402380D01*
X52809523Y-35402380D01*
X52714285Y-35354761D01*
X52666666Y-35307142D01*
D11*
X71261904Y-38166666D02*
X72061904Y-37900000D01*
X71261904Y-37633333D01*
X71985714Y-36909523D02*
X72023809Y-36947619D01*
X72061904Y-37061904D01*
X72061904Y-37138095D01*
X72023809Y-37252380D01*
X71947619Y-37328571D01*
X71871428Y-37366666D01*
X71719047Y-37404761D01*
X71604761Y-37404761D01*
X71452380Y-37366666D01*
X71376190Y-37328571D01*
X71300000Y-37252380D01*
X71261904Y-37138095D01*
X71261904Y-37061904D01*
X71300000Y-36947619D01*
X71338095Y-36909523D01*
X71985714Y-36109523D02*
X72023809Y-36147619D01*
X72061904Y-36261904D01*
X72061904Y-36338095D01*
X72023809Y-36452380D01*
X71947619Y-36528571D01*
X71871428Y-36566666D01*
X71719047Y-36604761D01*
X71604761Y-36604761D01*
X71452380Y-36566666D01*
X71376190Y-36528571D01*
X71300000Y-36452380D01*
X71261904Y-36338095D01*
X71261904Y-36261904D01*
X71300000Y-36147619D01*
X71338095Y-36109523D01*
X61161904Y-51916666D02*
X61961904Y-51650000D01*
X61161904Y-51383333D01*
X61885714Y-50659523D02*
X61923809Y-50697619D01*
X61961904Y-50811904D01*
X61961904Y-50888095D01*
X61923809Y-51002380D01*
X61847619Y-51078571D01*
X61771428Y-51116666D01*
X61619047Y-51154761D01*
X61504761Y-51154761D01*
X61352380Y-51116666D01*
X61276190Y-51078571D01*
X61200000Y-51002380D01*
X61161904Y-50888095D01*
X61161904Y-50811904D01*
X61200000Y-50697619D01*
X61238095Y-50659523D01*
X61885714Y-49859523D02*
X61923809Y-49897619D01*
X61961904Y-50011904D01*
X61961904Y-50088095D01*
X61923809Y-50202380D01*
X61847619Y-50278571D01*
X61771428Y-50316666D01*
X61619047Y-50354761D01*
X61504761Y-50354761D01*
X61352380Y-50316666D01*
X61276190Y-50278571D01*
X61200000Y-50202380D01*
X61161904Y-50088095D01*
X61161904Y-50011904D01*
X61200000Y-49897619D01*
X61238095Y-49859523D01*
X51161904Y-38166666D02*
X51961904Y-37900000D01*
X51161904Y-37633333D01*
X51885714Y-36909523D02*
X51923809Y-36947619D01*
X51961904Y-37061904D01*
X51961904Y-37138095D01*
X51923809Y-37252380D01*
X51847619Y-37328571D01*
X51771428Y-37366666D01*
X51619047Y-37404761D01*
X51504761Y-37404761D01*
X51352380Y-37366666D01*
X51276190Y-37328571D01*
X51200000Y-37252380D01*
X51161904Y-37138095D01*
X51161904Y-37061904D01*
X51200000Y-36947619D01*
X51238095Y-36909523D01*
X51885714Y-36109523D02*
X51923809Y-36147619D01*
X51961904Y-36261904D01*
X51961904Y-36338095D01*
X51923809Y-36452380D01*
X51847619Y-36528571D01*
X51771428Y-36566666D01*
X51619047Y-36604761D01*
X51504761Y-36604761D01*
X51352380Y-36566666D01*
X51276190Y-36528571D01*
X51200000Y-36452380D01*
X51161904Y-36338095D01*
X51161904Y-36261904D01*
X51200000Y-36147619D01*
X51238095Y-36109523D01*
D10*
X87289913Y-41709523D02*
X87956579Y-41709523D01*
X86908960Y-41947619D02*
X87623246Y-42185714D01*
X87623246Y-41566666D01*
X86956579Y-40033333D02*
X87956579Y-39700000D01*
X86956579Y-39366666D01*
X87861341Y-38461904D02*
X87908960Y-38509523D01*
X87956579Y-38652380D01*
X87956579Y-38747619D01*
X87908960Y-38890476D01*
X87813722Y-38985714D01*
X87718484Y-39033333D01*
X87528008Y-39080952D01*
X87385151Y-39080952D01*
X87194675Y-39033333D01*
X87099437Y-38985714D01*
X87004199Y-38890476D01*
X86956579Y-38747619D01*
X86956579Y-38652380D01*
X87004199Y-38509523D01*
X87051818Y-38461904D01*
X87861341Y-37461904D02*
X87908960Y-37509523D01*
X87956579Y-37652380D01*
X87956579Y-37747619D01*
X87908960Y-37890476D01*
X87813722Y-37985714D01*
X87718484Y-38033333D01*
X87528008Y-38080952D01*
X87385151Y-38080952D01*
X87194675Y-38033333D01*
X87099437Y-37985714D01*
X87004199Y-37890476D01*
X86956579Y-37747619D01*
X86956579Y-37652380D01*
X87004199Y-37509523D01*
X87051818Y-37461904D01*
D12*
X48050000Y-49390000D02*
X48216666Y-49856666D01*
X48383333Y-49390000D01*
X49016666Y-49856666D02*
X48616666Y-49856666D01*
X48816666Y-49856666D02*
X48816666Y-49156666D01*
X48750000Y-49256666D01*
X48683333Y-49323333D01*
X48616666Y-49356666D01*
X49316666Y-49856666D02*
X49316666Y-49390000D01*
X49316666Y-49523333D02*
X49350000Y-49456666D01*
X49383333Y-49423333D01*
X49450000Y-49390000D01*
X49516666Y-49390000D01*
X50116666Y-49856666D02*
X49716666Y-49856666D01*
X49916666Y-49856666D02*
X49916666Y-49156666D01*
X49850000Y-49256666D01*
X49783333Y-49323333D01*
X49716666Y-49356666D01*
X47566666Y-50276666D02*
X47233333Y-50276666D01*
X47200000Y-50610000D01*
X47233333Y-50576666D01*
X47300000Y-50543333D01*
X47466666Y-50543333D01*
X47533333Y-50576666D01*
X47566666Y-50610000D01*
X47600000Y-50676666D01*
X47600000Y-50843333D01*
X47566666Y-50910000D01*
X47533333Y-50943333D01*
X47466666Y-50976666D01*
X47300000Y-50976666D01*
X47233333Y-50943333D01*
X47200000Y-50910000D01*
X48400000Y-50243333D02*
X47800000Y-51143333D01*
X48600000Y-50343333D02*
X48633333Y-50310000D01*
X48700000Y-50276666D01*
X48866666Y-50276666D01*
X48933333Y-50310000D01*
X48966666Y-50343333D01*
X49000000Y-50410000D01*
X49000000Y-50476666D01*
X48966666Y-50576666D01*
X48566666Y-50976666D01*
X49000000Y-50976666D01*
X49433333Y-50276666D02*
X49500000Y-50276666D01*
X49566666Y-50310000D01*
X49600000Y-50343333D01*
X49633333Y-50410000D01*
X49666666Y-50543333D01*
X49666666Y-50710000D01*
X49633333Y-50843333D01*
X49600000Y-50910000D01*
X49566666Y-50943333D01*
X49500000Y-50976666D01*
X49433333Y-50976666D01*
X49366666Y-50943333D01*
X49333333Y-50910000D01*
X49300000Y-50843333D01*
X49266666Y-50710000D01*
X49266666Y-50543333D01*
X49300000Y-50410000D01*
X49333333Y-50343333D01*
X49366666Y-50310000D01*
X49433333Y-50276666D01*
X49933333Y-50343333D02*
X49966666Y-50310000D01*
X50033333Y-50276666D01*
X50200000Y-50276666D01*
X50266666Y-50310000D01*
X50300000Y-50343333D01*
X50333333Y-50410000D01*
X50333333Y-50476666D01*
X50300000Y-50576666D01*
X49900000Y-50976666D01*
X50333333Y-50976666D01*
X51000000Y-50976666D02*
X50600000Y-50976666D01*
X50800000Y-50976666D02*
X50800000Y-50276666D01*
X50733333Y-50376666D01*
X50666666Y-50443333D01*
X50600000Y-50476666D01*
D13*
X46184954Y-47380631D02*
X46633491Y-47080533D01*
X44761841Y-48726324D02*
X45204001Y-48422467D01*
X45744142Y-47675560D02*
X46269200Y-47973817D01*
X45204001Y-48422467D02*
X45297324Y-48476346D01*
X46612569Y-49084524D02*
X47156000Y-49975705D01*
X44761841Y-50331615D02*
X44761841Y-49261201D01*
X46285740Y-50113304D02*
X46276097Y-50108033D01*
X44761841Y-47656235D02*
X44228921Y-47340784D01*
X47156000Y-49975705D02*
X46710876Y-50345670D01*
X44675368Y-47068448D02*
X45207994Y-47371003D01*
X45207994Y-47371003D02*
X44761841Y-47656235D01*
X45298357Y-49614252D02*
X45298357Y-50708323D01*
X45205035Y-47372895D02*
X45204001Y-48422467D01*
X45298357Y-49067554D02*
X44761841Y-48726324D01*
X46269200Y-49071548D02*
X46710876Y-47668084D01*
X46710876Y-47668084D02*
X47156000Y-47356188D01*
X44228921Y-47340785D02*
X44675368Y-47068448D01*
X45298357Y-47973815D02*
X45298357Y-49067554D01*
X46710876Y-47668084D02*
X46184954Y-47380631D01*
X46269200Y-47977564D02*
X46269200Y-49071548D01*
X45827524Y-48287044D02*
X45298357Y-47973815D01*
X44228921Y-47340784D02*
X44228921Y-49957433D01*
X44761841Y-49261201D02*
X45298357Y-49614252D01*
X46710876Y-50345670D02*
X46269200Y-49618400D01*
X44761841Y-48726324D02*
X44761841Y-47656235D01*
X46633491Y-47080533D02*
X47156000Y-47356179D01*
X44228921Y-49957433D02*
X44761841Y-50331615D01*
X45827524Y-51079870D02*
X45827524Y-48287044D01*
X45298357Y-50708323D02*
X45827524Y-51079870D01*
X45827524Y-48287044D02*
X46269200Y-47977564D01*
X46269200Y-50712770D02*
X45827524Y-51079870D01*
X45203857Y-49571695D02*
X45203408Y-50029056D01*
X47156000Y-47356188D02*
X46612569Y-49084524D01*
X46710876Y-50345670D02*
X46285740Y-50113304D01*
X46180791Y-47387445D02*
X46038819Y-47838577D01*
X44770426Y-50332914D02*
X45202443Y-50036026D01*
X45298357Y-47973815D02*
X45744142Y-47675560D01*
X46269200Y-49618400D02*
X46269200Y-50712770D01*
D10*
X48885714Y-46952380D02*
X48314285Y-46952380D01*
X48600000Y-46952380D02*
X48600000Y-45952380D01*
X48504761Y-46095238D01*
X48409523Y-46190476D01*
X48314285Y-46238095D01*
X52714285Y-47897619D02*
X52761904Y-47850000D01*
X52857142Y-47802380D01*
X53095238Y-47802380D01*
X53190476Y-47850000D01*
X53238095Y-47897619D01*
X53285714Y-47992857D01*
X53285714Y-48088095D01*
X53238095Y-48230952D01*
X52666666Y-48802380D01*
X53285714Y-48802380D01*
X68790476Y-46285714D02*
X68790476Y-46952380D01*
X68552380Y-45904761D02*
X68314285Y-46619047D01*
X68933333Y-46619047D01*
X79966666Y-44152380D02*
X80585714Y-44152380D01*
X80252380Y-44533333D01*
X80395238Y-44533333D01*
X80490476Y-44580952D01*
X80538095Y-44628571D01*
X80585714Y-44723809D01*
X80585714Y-44961904D01*
X80538095Y-45057142D01*
X80490476Y-45104761D01*
X80395238Y-45152380D01*
X80109523Y-45152380D01*
X80014285Y-45104761D01*
X79966666Y-45057142D01*
X80014285Y-41547619D02*
X80061904Y-41500000D01*
X80157142Y-41452380D01*
X80395238Y-41452380D01*
X80490476Y-41500000D01*
X80538095Y-41547619D01*
X80585714Y-41642857D01*
X80585714Y-41738095D01*
X80538095Y-41880952D01*
X79966666Y-42452380D01*
X80585714Y-42452380D01*
X80585714Y-39852380D02*
X80014285Y-39852380D01*
X80300000Y-39852380D02*
X80300000Y-38852380D01*
X80204761Y-38995238D01*
X80109523Y-39090476D01*
X80014285Y-39138095D01*
D13*
%TO.C,REF\u002A\u002A*%
X54816704Y-33739290D02*
X55084156Y-33739290D01*
X55934751Y-33662727D02*
X56144072Y-33662727D01*
X55273292Y-32973655D02*
X56165228Y-32973655D01*
X55241560Y-33138209D02*
X55248183Y-33037083D01*
X55248183Y-33037083D02*
X55282077Y-32938405D01*
X55282077Y-32938405D02*
X55293840Y-32918964D01*
X55591323Y-33590195D02*
X55357927Y-33590195D01*
X55391115Y-32820524D02*
X56168329Y-32820524D01*
X54779790Y-34139533D02*
X54779790Y-32067825D01*
X56225284Y-32067825D02*
X56225284Y-34139533D01*
X54816704Y-32361147D02*
X56190158Y-32361147D01*
X56225284Y-34139533D02*
X54779790Y-34139533D01*
X54816704Y-32743963D02*
X55106894Y-32743963D01*
X55252621Y-33509598D02*
X55686705Y-33509598D01*
X54816704Y-33509598D02*
X54996307Y-33509598D01*
X55250554Y-33203343D02*
X55427287Y-33203343D01*
X54816704Y-33203343D02*
X54984938Y-33203343D01*
X55442911Y-32722777D02*
X55517616Y-32656047D01*
X55517616Y-32656047D02*
X55584577Y-32653631D01*
X55241560Y-33468765D02*
X55241560Y-33138209D01*
X54816704Y-32667400D02*
X55158570Y-32667400D01*
X55539042Y-33330472D02*
X55702633Y-33330472D01*
X55251588Y-33126779D02*
X55487234Y-33126779D01*
X54816704Y-34045546D02*
X56181891Y-34045546D01*
X54816704Y-33126779D02*
X54991139Y-33126779D01*
X55702633Y-33502496D02*
X55644042Y-33584800D01*
X55644042Y-33584800D02*
X55591323Y-33590195D01*
X55313599Y-32897085D02*
X56172465Y-32897085D01*
X55902905Y-32514269D02*
X56160151Y-32514269D01*
X55971957Y-33126779D02*
X56155927Y-33126779D01*
X54816704Y-33586166D02*
X54996307Y-33586166D01*
X55971957Y-33509598D02*
X56163531Y-33513733D01*
X55357927Y-33590195D02*
X55260632Y-33560609D01*
X55260632Y-33560609D02*
X55241560Y-33468765D01*
X55702633Y-33330472D02*
X55702633Y-33502496D01*
X54816704Y-33050219D02*
X54995274Y-33050219D01*
X55965137Y-33104465D02*
X55539042Y-33104465D01*
X54816704Y-33968990D02*
X56173623Y-33968990D01*
X54816704Y-33892429D02*
X56181891Y-33892429D01*
X55980225Y-33279913D02*
X56161571Y-33277846D01*
X55254689Y-33279913D02*
X55461394Y-33279913D01*
X54816704Y-32590829D02*
X55228060Y-32590829D01*
X55008604Y-33062317D02*
X55008604Y-33483944D01*
X55080915Y-33712242D02*
X55166667Y-33764176D01*
X55166667Y-33764176D02*
X55266347Y-33789144D01*
X55266347Y-33789144D02*
X55311364Y-33791868D01*
X55094562Y-32783064D02*
X55042611Y-32870962D01*
X55042611Y-32870962D02*
X55014246Y-32975521D01*
X55014246Y-32975521D02*
X55008604Y-33062317D01*
X55786959Y-32415457D02*
X55560967Y-32415457D01*
X55786959Y-32653631D02*
X55871608Y-32600093D01*
X55871608Y-32600093D02*
X55893877Y-32536283D01*
X55293840Y-32918964D02*
X55442911Y-32722777D01*
X54816704Y-33662727D02*
X55030412Y-33662727D01*
X55962656Y-33586166D02*
X56149920Y-33586166D01*
X55248489Y-33050219D02*
X56161096Y-33050219D01*
X55488267Y-32667400D02*
X56153859Y-32667400D01*
X55859054Y-32437708D02*
X56161611Y-32437708D01*
X54779790Y-32067825D02*
X56225284Y-32067825D01*
X54816704Y-32820524D02*
X55046950Y-32820524D01*
X55875132Y-32590829D02*
X56151380Y-32590829D01*
X54816704Y-33815851D02*
X56181891Y-33815851D01*
X55868604Y-33739290D02*
X56160151Y-33739290D01*
X55450028Y-32743963D02*
X56147659Y-32743963D01*
X54816704Y-32284574D02*
X56190158Y-32284574D01*
X55560967Y-32415457D02*
X55454906Y-32426309D01*
X55454906Y-32426309D02*
X55355833Y-32469133D01*
X55355833Y-32469133D02*
X55293569Y-32528401D01*
X55601442Y-33791868D02*
X55706031Y-33784585D01*
X55706031Y-33784585D02*
X55808258Y-33756635D01*
X55808258Y-33756635D02*
X55895343Y-33697563D01*
X55895343Y-33697563D02*
X55947671Y-33610028D01*
X55947671Y-33610028D02*
X55965137Y-33494063D01*
X54816704Y-32973655D02*
X54997341Y-32973655D01*
X54816704Y-32514269D02*
X55291943Y-32514269D01*
X55008604Y-33483944D02*
X55014878Y-33584746D01*
X55014878Y-33584746D02*
X55053658Y-33682212D01*
X55053658Y-33682212D02*
X55080915Y-33712242D01*
X55293569Y-32528401D02*
X55094562Y-32783064D01*
X55252621Y-33356474D02*
X55692905Y-33356474D01*
X54816704Y-33356474D02*
X54980803Y-33356474D01*
X54816704Y-33279913D02*
X54987006Y-33279913D01*
X55990562Y-33203343D02*
X56160107Y-33202309D01*
X54816704Y-32208018D02*
X56190158Y-32208018D01*
X55539042Y-33104465D02*
X55461725Y-33171998D01*
X55461725Y-33171998D02*
X55454716Y-33214861D01*
X55311364Y-33791868D02*
X55601442Y-33791868D01*
X55965137Y-33494063D02*
X55965137Y-33104465D01*
X55454716Y-33214861D02*
X55493090Y-33309900D01*
X55493090Y-33309900D02*
X55539042Y-33330472D01*
X54816704Y-32131450D02*
X56190158Y-32131450D01*
X55584577Y-32653631D02*
X55786959Y-32653631D01*
X55893877Y-32536283D02*
X55848655Y-32444990D01*
X55848655Y-32444990D02*
X55786959Y-32415457D01*
X54816704Y-32437708D02*
X55362100Y-32437708D01*
X55974025Y-33433035D02*
X56163961Y-33433035D01*
X55246421Y-33433035D02*
X55691871Y-33433035D01*
X54816704Y-33433035D02*
X54990105Y-33433035D01*
X55983326Y-33356474D02*
X56163961Y-33356474D01*
X54816704Y-32897085D02*
X55012843Y-32897085D01*
X54816704Y-51489290D02*
X55084156Y-51489290D01*
X55934751Y-51412727D02*
X56144072Y-51412727D01*
X55273292Y-50723655D02*
X56165228Y-50723655D01*
X55241560Y-50888209D02*
X55248183Y-50787083D01*
X55248183Y-50787083D02*
X55282077Y-50688405D01*
X55282077Y-50688405D02*
X55293840Y-50668964D01*
X55591323Y-51340195D02*
X55357927Y-51340195D01*
X55391115Y-50570524D02*
X56168329Y-50570524D01*
X54779790Y-51889533D02*
X54779790Y-49817825D01*
X56225284Y-49817825D02*
X56225284Y-51889533D01*
X54816704Y-50111147D02*
X56190158Y-50111147D01*
X56225284Y-51889533D02*
X54779790Y-51889533D01*
X54816704Y-50493963D02*
X55106894Y-50493963D01*
X55252621Y-51259598D02*
X55686705Y-51259598D01*
X54816704Y-51259598D02*
X54996307Y-51259598D01*
X55250554Y-50953343D02*
X55427287Y-50953343D01*
X54816704Y-50953343D02*
X54984938Y-50953343D01*
X55442911Y-50472777D02*
X55517616Y-50406047D01*
X55517616Y-50406047D02*
X55584577Y-50403631D01*
X55241560Y-51218765D02*
X55241560Y-50888209D01*
X54816704Y-50417400D02*
X55158570Y-50417400D01*
X55539042Y-51080472D02*
X55702633Y-51080472D01*
X55251588Y-50876779D02*
X55487234Y-50876779D01*
X54816704Y-51795546D02*
X56181891Y-51795546D01*
X54816704Y-50876779D02*
X54991139Y-50876779D01*
X55702633Y-51252496D02*
X55644042Y-51334800D01*
X55644042Y-51334800D02*
X55591323Y-51340195D01*
X55313599Y-50647085D02*
X56172465Y-50647085D01*
X55902905Y-50264269D02*
X56160151Y-50264269D01*
X55971957Y-50876779D02*
X56155927Y-50876779D01*
X54816704Y-51336166D02*
X54996307Y-51336166D01*
X55971957Y-51259598D02*
X56163531Y-51263733D01*
X55357927Y-51340195D02*
X55260632Y-51310609D01*
X55260632Y-51310609D02*
X55241560Y-51218765D01*
X55702633Y-51080472D02*
X55702633Y-51252496D01*
X54816704Y-50800219D02*
X54995274Y-50800219D01*
X55965137Y-50854465D02*
X55539042Y-50854465D01*
X54816704Y-51718990D02*
X56173623Y-51718990D01*
X54816704Y-51642429D02*
X56181891Y-51642429D01*
X55980225Y-51029913D02*
X56161571Y-51027846D01*
X55254689Y-51029913D02*
X55461394Y-51029913D01*
X54816704Y-50340829D02*
X55228060Y-50340829D01*
X55008604Y-50812317D02*
X55008604Y-51233944D01*
X55080915Y-51462242D02*
X55166667Y-51514176D01*
X55166667Y-51514176D02*
X55266347Y-51539144D01*
X55266347Y-51539144D02*
X55311364Y-51541868D01*
X55094562Y-50533064D02*
X55042611Y-50620962D01*
X55042611Y-50620962D02*
X55014246Y-50725521D01*
X55014246Y-50725521D02*
X55008604Y-50812317D01*
X55786959Y-50165457D02*
X55560967Y-50165457D01*
X55786959Y-50403631D02*
X55871608Y-50350093D01*
X55871608Y-50350093D02*
X55893877Y-50286283D01*
X55293840Y-50668964D02*
X55442911Y-50472777D01*
X54816704Y-51412727D02*
X55030412Y-51412727D01*
X55962656Y-51336166D02*
X56149920Y-51336166D01*
X55248489Y-50800219D02*
X56161096Y-50800219D01*
X55488267Y-50417400D02*
X56153859Y-50417400D01*
X55859054Y-50187708D02*
X56161611Y-50187708D01*
X54779790Y-49817825D02*
X56225284Y-49817825D01*
X54816704Y-50570524D02*
X55046950Y-50570524D01*
X55875132Y-50340829D02*
X56151380Y-50340829D01*
X54816704Y-51565851D02*
X56181891Y-51565851D01*
X55868604Y-51489290D02*
X56160151Y-51489290D01*
X55450028Y-50493963D02*
X56147659Y-50493963D01*
X54816704Y-50034574D02*
X56190158Y-50034574D01*
X55560967Y-50165457D02*
X55454906Y-50176309D01*
X55454906Y-50176309D02*
X55355833Y-50219133D01*
X55355833Y-50219133D02*
X55293569Y-50278401D01*
X55601442Y-51541868D02*
X55706031Y-51534585D01*
X55706031Y-51534585D02*
X55808258Y-51506635D01*
X55808258Y-51506635D02*
X55895343Y-51447563D01*
X55895343Y-51447563D02*
X55947671Y-51360028D01*
X55947671Y-51360028D02*
X55965137Y-51244063D01*
X54816704Y-50723655D02*
X54997341Y-50723655D01*
X54816704Y-50264269D02*
X55291943Y-50264269D01*
X55008604Y-51233944D02*
X55014878Y-51334746D01*
X55014878Y-51334746D02*
X55053658Y-51432212D01*
X55053658Y-51432212D02*
X55080915Y-51462242D01*
X55293569Y-50278401D02*
X55094562Y-50533064D01*
X55252621Y-51106474D02*
X55692905Y-51106474D01*
X54816704Y-51106474D02*
X54980803Y-51106474D01*
X54816704Y-51029913D02*
X54987006Y-51029913D01*
X55990562Y-50953343D02*
X56160107Y-50952309D01*
X54816704Y-49958018D02*
X56190158Y-49958018D01*
X55539042Y-50854465D02*
X55461725Y-50921998D01*
X55461725Y-50921998D02*
X55454716Y-50964861D01*
X55311364Y-51541868D02*
X55601442Y-51541868D01*
X55965137Y-51244063D02*
X55965137Y-50854465D01*
X55454716Y-50964861D02*
X55493090Y-51059900D01*
X55493090Y-51059900D02*
X55539042Y-51080472D01*
X54816704Y-49881450D02*
X56190158Y-49881450D01*
X55584577Y-50403631D02*
X55786959Y-50403631D01*
X55893877Y-50286283D02*
X55848655Y-50194990D01*
X55848655Y-50194990D02*
X55786959Y-50165457D01*
X54816704Y-50187708D02*
X55362100Y-50187708D01*
X55974025Y-51183035D02*
X56163961Y-51183035D01*
X55246421Y-51183035D02*
X55691871Y-51183035D01*
X54816704Y-51183035D02*
X54990105Y-51183035D01*
X55983326Y-51106474D02*
X56163961Y-51106474D01*
X54816704Y-50647085D02*
X55012843Y-50647085D01*
D14*
%TO.C,SW4*%
X66250000Y-45250000D02*
X70750000Y-45250000D01*
X65000000Y-41250000D02*
X65000000Y-42750000D01*
X70750000Y-38750000D02*
X66250000Y-38750000D01*
X72000000Y-42750000D02*
X72000000Y-41250000D01*
%TO.C,JP4*%
X67200000Y-38300000D02*
X67500000Y-38600000D01*
X66900000Y-38600000D02*
X67500000Y-38600000D01*
X67200000Y-38300000D02*
X66900000Y-38600000D01*
X66450000Y-38100000D02*
X66450000Y-36100000D01*
X70550000Y-38100000D02*
X66450000Y-38100000D01*
X70550000Y-36100000D02*
X70550000Y-38100000D01*
X66450000Y-36100000D02*
X70550000Y-36100000D01*
%TO.C,SW3*%
X56250000Y-41250000D02*
X60750000Y-41250000D01*
X55000000Y-37250000D02*
X55000000Y-38750000D01*
X60750000Y-34750000D02*
X56250000Y-34750000D01*
X62000000Y-38750000D02*
X62000000Y-37250000D01*
%TO.C,SW2*%
X56250000Y-49250000D02*
X60750000Y-49250000D01*
X55000000Y-45250000D02*
X55000000Y-46750000D01*
X60750000Y-42750000D02*
X56250000Y-42750000D01*
X62000000Y-46750000D02*
X62000000Y-45250000D01*
%TO.C,J1*%
X85100000Y-38170000D02*
X86430000Y-38170000D01*
X86430000Y-38170000D02*
X86430000Y-39500000D01*
X83830000Y-38170000D02*
X83830000Y-40770000D01*
X83830000Y-40770000D02*
X86430000Y-40770000D01*
X86430000Y-40770000D02*
X86430000Y-45910000D01*
X81230000Y-45910000D02*
X86430000Y-45910000D01*
X81230000Y-38170000D02*
X81230000Y-45910000D01*
X81230000Y-38170000D02*
X83830000Y-38170000D01*
%TO.C,REF\u002A\u002A*%
X86903100Y-45560400D02*
X86903100Y-45471500D01*
X86890400Y-45789000D02*
X86903100Y-46017600D01*
X86865000Y-44798400D02*
X86865000Y-44176100D01*
X87601600Y-43807800D02*
X87677800Y-43833200D01*
X88249300Y-46411300D02*
X88249300Y-43274400D01*
X86699900Y-46424000D02*
X88249300Y-46411300D01*
X87817500Y-45979500D02*
X87817500Y-45712800D01*
D15*
X88225193Y-46425893D02*
X88225193Y-43246844D01*
X88163948Y-46425893D02*
X88163948Y-43246844D01*
X88102699Y-46425893D02*
X88102699Y-43246844D01*
X88041437Y-46425893D02*
X88041437Y-43246844D01*
X87980188Y-43707485D02*
X87980188Y-43246844D01*
X87980188Y-44474462D02*
X87980188Y-44310240D01*
X87980188Y-45093025D02*
X87980188Y-44750418D01*
X87980188Y-45521536D02*
X87980188Y-45288298D01*
X87980188Y-46425893D02*
X87980188Y-46149094D01*
X87918938Y-43639686D02*
X87918938Y-43246844D01*
X87918938Y-44467448D02*
X87918938Y-44335044D01*
X87918938Y-45069639D02*
X87918938Y-44791344D01*
X87918938Y-45468618D02*
X87918938Y-45301160D01*
X87918938Y-46425893D02*
X87918938Y-46192089D01*
X87857689Y-43605786D02*
X87857689Y-43246844D01*
X87857689Y-44462770D02*
X87857689Y-44308586D01*
X87857689Y-45068468D02*
X87857689Y-44815899D01*
X87857689Y-45446294D02*
X87857689Y-45296483D01*
X87857689Y-46425893D02*
X87857689Y-46219373D01*
X87796435Y-43577673D02*
X87796435Y-43246844D01*
X87796435Y-43970414D02*
X87796435Y-43891040D01*
X87796435Y-44469786D02*
X87796435Y-44194485D01*
X87796435Y-45064961D02*
X87796435Y-44842792D01*
X87796435Y-45438853D02*
X87796435Y-45298822D01*
X87796435Y-46014322D02*
X87796435Y-45667055D01*
X87796435Y-46425893D02*
X87796435Y-46219373D01*
X87735184Y-43540468D02*
X87735184Y-43246844D01*
X87735184Y-43965454D02*
X87735184Y-43863755D01*
X87735184Y-44463938D02*
X87735184Y-44196137D01*
X87735184Y-45073146D02*
X87735184Y-44881380D01*
X87735184Y-45437199D02*
X87735184Y-45297653D01*
X87735184Y-46019282D02*
X87735184Y-45662922D01*
X87735184Y-46425893D02*
X87735184Y-46224335D01*
X87673935Y-43518968D02*
X87673935Y-43246844D01*
X87673935Y-43965454D02*
X87673935Y-43829028D01*
X87673935Y-44463938D02*
X87673935Y-44198618D01*
X87673935Y-45074316D02*
X87673935Y-44902428D01*
X87673935Y-45429758D02*
X87673935Y-45297653D01*
X87673935Y-46014322D02*
X87673935Y-45662095D01*
X87673935Y-46425893D02*
X87673935Y-46231776D01*
X87612687Y-43484244D02*
X87612687Y-43246844D01*
X87612687Y-43958013D02*
X87612687Y-43786861D01*
X87612687Y-44467448D02*
X87612687Y-44203578D01*
X87612687Y-45069639D02*
X87612687Y-44928152D01*
X87612687Y-45432239D02*
X87612687Y-45307007D01*
X87612687Y-46012668D02*
X87612687Y-45847304D01*
X87612687Y-46425893D02*
X87612687Y-46226814D01*
X87551431Y-43465227D02*
X87551431Y-43246844D01*
X87551431Y-43969587D02*
X87551431Y-43753787D01*
X87551431Y-44468616D02*
X87551431Y-44200272D01*
X87551431Y-44728202D02*
X87551431Y-44682600D01*
X87551431Y-45069639D02*
X87551431Y-44960892D01*
X87551431Y-45423968D02*
X87551431Y-45308177D01*
X87551431Y-46015976D02*
X87551431Y-45874589D01*
X87551431Y-46425893D02*
X87551431Y-46228468D01*
X87490179Y-43447863D02*
X87490179Y-43246844D01*
X87490179Y-43958840D02*
X87490179Y-43729809D01*
X87490179Y-44470644D02*
X87490179Y-44196137D01*
X87490179Y-44756723D02*
X87490179Y-44687272D01*
X87490179Y-45073396D02*
X87490179Y-44979967D01*
X87490179Y-45438853D02*
X87490179Y-45304080D01*
X87490179Y-46015148D02*
X87490179Y-45826632D01*
X87490179Y-46425893D02*
X87490179Y-46223508D01*
X87428931Y-43461918D02*
X87428931Y-43246844D01*
X87428931Y-43966281D02*
X87428931Y-43737250D01*
X87428931Y-44468163D02*
X87428931Y-44201099D01*
X87428931Y-44781530D02*
X87428931Y-44693885D01*
X87428931Y-45065128D02*
X87428931Y-45011385D01*
X87428931Y-46017628D02*
X87428931Y-45299946D01*
X87428931Y-46425893D02*
X87428931Y-46220200D01*
X87367680Y-43473495D02*
X87367680Y-43246844D01*
X87367680Y-43965454D02*
X87367680Y-43762882D01*
X87367680Y-44468990D02*
X87367680Y-44200272D01*
X87367680Y-44807986D02*
X87367680Y-44704635D01*
X87367680Y-45075050D02*
X87367680Y-45028749D01*
X87367680Y-45997785D02*
X87367680Y-45296640D01*
X87367680Y-46425893D02*
X87367680Y-46218546D01*
X87306424Y-43502432D02*
X87306424Y-43246844D01*
X87306424Y-43968762D02*
X87306424Y-43791822D01*
X87306424Y-44464028D02*
X87306424Y-44199445D01*
X87306424Y-44846021D02*
X87306424Y-44694712D01*
X87306424Y-45965540D02*
X87306424Y-45290851D01*
X87306424Y-46425893D02*
X87306424Y-46206144D01*
X87245175Y-43533853D02*
X87245175Y-43246844D01*
X87245175Y-43970414D02*
X87245175Y-43825721D01*
X87245175Y-44467336D02*
X87245175Y-44201099D01*
X87245175Y-44874132D02*
X87245175Y-44692232D01*
X87245175Y-45903527D02*
X87245175Y-45294159D01*
X87245175Y-46425893D02*
X87245175Y-46178859D01*
X87183927Y-43562791D02*
X87183927Y-43246844D01*
X87183927Y-43960494D02*
X87183927Y-43862928D01*
X87183927Y-44459895D02*
X87183927Y-44197791D01*
X87183927Y-44905551D02*
X87183927Y-44693885D01*
X87183927Y-45856396D02*
X87183927Y-45298292D01*
X87183927Y-46425893D02*
X87183927Y-46130904D01*
X87122676Y-43604132D02*
X87122676Y-43246844D01*
X87122676Y-43963800D02*
X87122676Y-43894346D01*
X87122676Y-44465682D02*
X87122676Y-44210194D01*
X87122676Y-44925396D02*
X87122676Y-44694712D01*
X87122676Y-45825805D02*
X87122676Y-45293332D01*
X87122676Y-46425893D02*
X87122676Y-46089563D01*
X87061419Y-43632244D02*
X87061419Y-43246844D01*
X87061419Y-44454585D02*
X87061419Y-44318508D01*
X87061419Y-44949200D02*
X87061419Y-44704816D01*
X87061419Y-45516313D02*
X87061419Y-45295315D01*
X87061419Y-46425893D02*
X87061419Y-46033971D01*
X87000171Y-43667799D02*
X87000171Y-43246844D01*
X87000171Y-44463938D02*
X87000171Y-44326776D01*
X87000171Y-44983110D02*
X87000171Y-44694292D01*
X87000171Y-45494095D02*
X87000171Y-45288298D01*
X87000171Y-46425893D02*
X87000171Y-45982864D01*
X86938923Y-43743864D02*
X86938923Y-43246844D01*
X86938923Y-44499019D02*
X86938923Y-44293704D01*
X86938923Y-45027544D02*
X86938923Y-44674412D01*
X86938923Y-45529176D02*
X86938923Y-45287130D01*
X86938923Y-46425893D02*
X86938923Y-45926739D01*
X86877674Y-46425893D02*
X86877674Y-43246844D01*
X86816415Y-46425893D02*
X86816415Y-43246844D01*
X86755171Y-46425893D02*
X86755171Y-43246844D01*
X86693916Y-46425893D02*
X86693916Y-43246844D01*
X88300382Y-46467421D02*
X86643016Y-46467421D01*
X88300382Y-43224989D02*
X88300382Y-46467421D01*
X86643016Y-43224989D02*
X88300382Y-43224989D01*
X86643016Y-46467421D02*
X86643016Y-43224989D01*
X87821980Y-43974004D02*
X87108878Y-43974004D01*
X87821980Y-43948368D02*
X87821980Y-43974004D01*
X87564084Y-43735192D02*
X87765314Y-43853924D01*
X87765314Y-43853924D02*
X87815055Y-43894264D01*
X87815055Y-43894264D02*
X87821980Y-43948368D01*
X87165544Y-43855273D02*
X87365751Y-43743288D01*
X87476387Y-43709559D02*
X87539402Y-43723781D01*
X87539402Y-43723781D02*
X87564084Y-43735192D01*
X87365751Y-43743288D02*
X87424974Y-43717177D01*
X87424974Y-43717177D02*
X87476387Y-43709559D01*
X87108878Y-43974004D02*
X87108878Y-43957812D01*
X87108878Y-43957812D02*
X87115455Y-43893893D01*
X87115455Y-43893893D02*
X87165544Y-43855273D01*
X87108878Y-44183644D02*
X87821980Y-44183644D01*
X87108878Y-44233565D02*
X87108878Y-44183644D01*
X86922554Y-43829122D02*
X86922554Y-44237612D01*
X87017781Y-44315867D02*
X87079412Y-44294160D01*
X87079412Y-44294160D02*
X87108878Y-44233565D01*
X86922554Y-44237612D02*
X86955347Y-44295049D01*
X86955347Y-44295049D02*
X87017781Y-44315867D01*
X87318530Y-43506661D02*
X87081070Y-43625392D01*
X87081070Y-43625392D02*
X87024884Y-43656945D01*
X87024884Y-43656945D02*
X86972820Y-43699072D01*
X86972820Y-43699072D02*
X86934420Y-43759342D01*
X86934420Y-43759342D02*
X86922554Y-43829122D01*
X87869007Y-43628090D02*
X87623449Y-43505312D01*
X87475039Y-43466186D02*
X87408130Y-43472866D01*
X87408130Y-43472866D02*
X87343423Y-43495001D01*
X87343423Y-43495001D02*
X87318530Y-43506661D01*
X87623449Y-43505312D02*
X87560345Y-43479313D01*
X87560345Y-43479313D02*
X87494918Y-43466871D01*
X87494918Y-43466871D02*
X87475039Y-43466186D01*
X88015299Y-44248407D02*
X88015299Y-43841265D01*
X88015299Y-43841265D02*
X88005911Y-43770200D01*
X88005911Y-43770200D02*
X87973322Y-43706586D01*
X87973322Y-43706586D02*
X87925314Y-43661341D01*
X87925314Y-43661341D02*
X87869007Y-43628090D01*
X87821980Y-44183644D02*
X87821980Y-44248407D01*
X87911687Y-44315867D02*
X87974000Y-44299758D01*
X87974000Y-44299758D02*
X88015299Y-44248407D01*
X87821980Y-44248407D02*
X87858430Y-44301824D01*
X87858430Y-44301824D02*
X87911687Y-44315867D01*
X86987429Y-44680587D02*
X87655003Y-44681936D01*
X88023203Y-44472969D02*
X86987429Y-44472969D01*
X88023203Y-44723760D02*
X88023203Y-44472969D01*
X87246647Y-45075904D02*
X88023203Y-44723760D01*
X86923903Y-44586273D02*
X86939475Y-44651644D01*
X86939475Y-44651644D02*
X86987429Y-44680587D01*
X86987429Y-44472969D02*
X86937572Y-44515648D01*
X86937572Y-44515648D02*
X86923962Y-44581674D01*
X86923962Y-44581674D02*
X86923903Y-44586273D01*
X86920036Y-45288047D02*
X87955901Y-45288047D01*
X86920036Y-45035428D02*
X86920036Y-45288047D01*
X87655003Y-44683285D02*
X86920036Y-45035428D01*
X87955901Y-45078603D02*
X87889408Y-45078980D01*
X87889408Y-45078980D02*
X87822914Y-45079174D01*
X87822914Y-45079174D02*
X87756420Y-45079202D01*
X87756420Y-45079202D02*
X87689927Y-45079084D01*
X87689927Y-45079084D02*
X87623433Y-45078838D01*
X87623433Y-45078838D02*
X87556939Y-45078481D01*
X87556939Y-45078481D02*
X87490446Y-45078033D01*
X87490446Y-45078033D02*
X87423954Y-45077512D01*
X87423954Y-45077512D02*
X87357463Y-45076936D01*
X87357463Y-45076936D02*
X87290973Y-45076323D01*
X87290973Y-45076323D02*
X87246647Y-45075904D01*
X88023361Y-45195361D02*
X88011698Y-45132339D01*
X88011698Y-45132339D02*
X87971195Y-45081627D01*
X87971195Y-45081627D02*
X87955901Y-45078603D01*
X87955901Y-45288047D02*
X88009867Y-45253230D01*
X88009867Y-45253230D02*
X88023361Y-45195361D01*
X87653133Y-45785186D02*
X87653133Y-45654313D01*
X87655003Y-44681936D02*
X87655003Y-44683285D01*
X87472327Y-45444310D02*
X87472327Y-45785186D01*
X87784006Y-45444310D02*
X87472327Y-45444310D01*
X87560644Y-45852646D02*
X87625102Y-45832071D01*
X87625102Y-45832071D02*
X87653133Y-45785186D01*
X87472327Y-45785186D02*
X87507891Y-45838604D01*
X87507891Y-45838604D02*
X87560644Y-45852646D01*
X88022250Y-45967328D02*
X88022250Y-45735266D01*
X88022250Y-45735266D02*
X88018521Y-45667201D01*
X88018521Y-45667201D02*
X88003379Y-45594813D01*
X88003379Y-45594813D02*
X87976600Y-45536555D01*
X87976600Y-45536555D02*
X87929120Y-45485343D01*
X87929120Y-45485343D02*
X87864916Y-45454577D01*
X87864916Y-45454577D02*
X87798650Y-45444595D01*
X87798650Y-45444595D02*
X87784006Y-45444310D01*
X87438608Y-46209536D02*
X87775911Y-46209536D01*
X87958548Y-46151688D02*
X87995129Y-46094776D01*
X87995129Y-46094776D02*
X88016171Y-46028077D01*
X88016171Y-46028077D02*
X88022250Y-45967328D01*
X87775911Y-46209536D02*
X87844478Y-46206283D01*
X87844478Y-46206283D02*
X87908252Y-46189018D01*
X87908252Y-46189018D02*
X87958548Y-46151688D01*
X87011476Y-45981564D02*
X87215207Y-46140769D01*
X87215207Y-46140769D02*
X87272369Y-46176375D01*
X87272369Y-46176375D02*
X87333236Y-46198125D01*
X87333236Y-46198125D02*
X87399220Y-46208192D01*
X87399220Y-46208192D02*
X87438608Y-46209536D01*
X86921121Y-45586852D02*
X86921121Y-45767645D01*
X86921121Y-45767645D02*
X86926806Y-45837912D01*
X86926806Y-45837912D02*
X86946149Y-45900469D01*
X86946149Y-45900469D02*
X86982585Y-45954937D01*
X86982585Y-45954937D02*
X87011476Y-45981564D01*
X87111659Y-45748758D02*
X87111659Y-45586852D01*
X87017781Y-45501317D02*
X86954698Y-45527796D01*
X86954698Y-45527796D02*
X86921260Y-45583520D01*
X86921260Y-45583520D02*
X86921121Y-45586852D01*
X87111659Y-45586852D02*
X87079602Y-45527796D01*
X87079602Y-45527796D02*
X87017781Y-45501317D01*
X87323927Y-45981347D02*
X87166977Y-45862091D01*
X87166977Y-45862091D02*
X87119417Y-45819045D01*
X87119417Y-45819045D02*
X87111656Y-45755485D01*
X87111656Y-45755485D02*
X87111659Y-45748758D01*
X87763767Y-46023172D02*
X87499323Y-46023172D01*
X87499323Y-46023172D02*
X87434921Y-46020179D01*
X87434921Y-46020179D02*
X87370616Y-46005217D01*
X87370616Y-46005217D02*
X87323927Y-45981347D01*
X87860911Y-45743361D02*
X87860911Y-45930077D01*
X87860911Y-45930077D02*
X87849740Y-45993328D01*
X87849740Y-45993328D02*
X87789246Y-46022326D01*
X87789246Y-46022326D02*
X87763767Y-46023172D01*
X87653133Y-45654313D02*
X87790752Y-45654313D01*
X87790752Y-45654313D02*
X87849904Y-45683728D01*
X87849904Y-45683728D02*
X87860911Y-45743361D01*
D13*
X44716704Y-37689290D02*
X44984156Y-37689290D01*
X45834751Y-37612727D02*
X46044072Y-37612727D01*
X45173292Y-36923655D02*
X46065228Y-36923655D01*
X45141560Y-37088209D02*
X45148183Y-36987083D01*
X45148183Y-36987083D02*
X45182077Y-36888405D01*
X45182077Y-36888405D02*
X45193840Y-36868964D01*
X45491323Y-37540195D02*
X45257927Y-37540195D01*
X45291115Y-36770524D02*
X46068329Y-36770524D01*
X44679790Y-38089533D02*
X44679790Y-36017825D01*
X46125284Y-36017825D02*
X46125284Y-38089533D01*
X44716704Y-36311147D02*
X46090158Y-36311147D01*
X46125284Y-38089533D02*
X44679790Y-38089533D01*
X44716704Y-36693963D02*
X45006894Y-36693963D01*
X45152621Y-37459598D02*
X45586705Y-37459598D01*
X44716704Y-37459598D02*
X44896307Y-37459598D01*
X45150554Y-37153343D02*
X45327287Y-37153343D01*
X44716704Y-37153343D02*
X44884938Y-37153343D01*
X45342911Y-36672777D02*
X45417616Y-36606047D01*
X45417616Y-36606047D02*
X45484577Y-36603631D01*
X45141560Y-37418765D02*
X45141560Y-37088209D01*
X44716704Y-36617400D02*
X45058570Y-36617400D01*
X45439042Y-37280472D02*
X45602633Y-37280472D01*
X45151588Y-37076779D02*
X45387234Y-37076779D01*
X44716704Y-37995546D02*
X46081891Y-37995546D01*
X44716704Y-37076779D02*
X44891139Y-37076779D01*
X45602633Y-37452496D02*
X45544042Y-37534800D01*
X45544042Y-37534800D02*
X45491323Y-37540195D01*
X45213599Y-36847085D02*
X46072465Y-36847085D01*
X45802905Y-36464269D02*
X46060151Y-36464269D01*
X45871957Y-37076779D02*
X46055927Y-37076779D01*
X44716704Y-37536166D02*
X44896307Y-37536166D01*
X45871957Y-37459598D02*
X46063531Y-37463733D01*
X45257927Y-37540195D02*
X45160632Y-37510609D01*
X45160632Y-37510609D02*
X45141560Y-37418765D01*
X45602633Y-37280472D02*
X45602633Y-37452496D01*
X44716704Y-37000219D02*
X44895274Y-37000219D01*
X45865137Y-37054465D02*
X45439042Y-37054465D01*
X44716704Y-37918990D02*
X46073623Y-37918990D01*
X44716704Y-37842429D02*
X46081891Y-37842429D01*
X45880225Y-37229913D02*
X46061571Y-37227846D01*
X45154689Y-37229913D02*
X45361394Y-37229913D01*
X44716704Y-36540829D02*
X45128060Y-36540829D01*
X44908604Y-37012317D02*
X44908604Y-37433944D01*
X44980915Y-37662242D02*
X45066667Y-37714176D01*
X45066667Y-37714176D02*
X45166347Y-37739144D01*
X45166347Y-37739144D02*
X45211364Y-37741868D01*
X44994562Y-36733064D02*
X44942611Y-36820962D01*
X44942611Y-36820962D02*
X44914246Y-36925521D01*
X44914246Y-36925521D02*
X44908604Y-37012317D01*
X45686959Y-36365457D02*
X45460967Y-36365457D01*
X45686959Y-36603631D02*
X45771608Y-36550093D01*
X45771608Y-36550093D02*
X45793877Y-36486283D01*
X45193840Y-36868964D02*
X45342911Y-36672777D01*
X44716704Y-37612727D02*
X44930412Y-37612727D01*
X45862656Y-37536166D02*
X46049920Y-37536166D01*
X45148489Y-37000219D02*
X46061096Y-37000219D01*
X45388267Y-36617400D02*
X46053859Y-36617400D01*
X45759054Y-36387708D02*
X46061611Y-36387708D01*
X44679790Y-36017825D02*
X46125284Y-36017825D01*
X44716704Y-36770524D02*
X44946950Y-36770524D01*
X45775132Y-36540829D02*
X46051380Y-36540829D01*
X44716704Y-37765851D02*
X46081891Y-37765851D01*
X45768604Y-37689290D02*
X46060151Y-37689290D01*
X45350028Y-36693963D02*
X46047659Y-36693963D01*
X44716704Y-36234574D02*
X46090158Y-36234574D01*
X45460967Y-36365457D02*
X45354906Y-36376309D01*
X45354906Y-36376309D02*
X45255833Y-36419133D01*
X45255833Y-36419133D02*
X45193569Y-36478401D01*
X45501442Y-37741868D02*
X45606031Y-37734585D01*
X45606031Y-37734585D02*
X45708258Y-37706635D01*
X45708258Y-37706635D02*
X45795343Y-37647563D01*
X45795343Y-37647563D02*
X45847671Y-37560028D01*
X45847671Y-37560028D02*
X45865137Y-37444063D01*
X44716704Y-36923655D02*
X44897341Y-36923655D01*
X44716704Y-36464269D02*
X45191943Y-36464269D01*
X44908604Y-37433944D02*
X44914878Y-37534746D01*
X44914878Y-37534746D02*
X44953658Y-37632212D01*
X44953658Y-37632212D02*
X44980915Y-37662242D01*
X45193569Y-36478401D02*
X44994562Y-36733064D01*
X45152621Y-37306474D02*
X45592905Y-37306474D01*
X44716704Y-37306474D02*
X44880803Y-37306474D01*
X44716704Y-37229913D02*
X44887006Y-37229913D01*
X45890562Y-37153343D02*
X46060107Y-37152309D01*
X44716704Y-36158018D02*
X46090158Y-36158018D01*
X45439042Y-37054465D02*
X45361725Y-37121998D01*
X45361725Y-37121998D02*
X45354716Y-37164861D01*
X45211364Y-37741868D02*
X45501442Y-37741868D01*
X45865137Y-37444063D02*
X45865137Y-37054465D01*
X45354716Y-37164861D02*
X45393090Y-37259900D01*
X45393090Y-37259900D02*
X45439042Y-37280472D01*
X44716704Y-36081450D02*
X46090158Y-36081450D01*
X45484577Y-36603631D02*
X45686959Y-36603631D01*
X45793877Y-36486283D02*
X45748655Y-36394990D01*
X45748655Y-36394990D02*
X45686959Y-36365457D01*
X44716704Y-36387708D02*
X45262100Y-36387708D01*
X45874025Y-37383035D02*
X46063961Y-37383035D01*
X45146421Y-37383035D02*
X45591871Y-37383035D01*
X44716704Y-37383035D02*
X44890105Y-37383035D01*
X45883326Y-37306474D02*
X46063961Y-37306474D01*
X44716704Y-36847085D02*
X44912843Y-36847085D01*
X64766704Y-37689290D02*
X65034156Y-37689290D01*
X65884751Y-37612727D02*
X66094072Y-37612727D01*
X65223292Y-36923655D02*
X66115228Y-36923655D01*
X65191560Y-37088209D02*
X65198183Y-36987083D01*
X65198183Y-36987083D02*
X65232077Y-36888405D01*
X65232077Y-36888405D02*
X65243840Y-36868964D01*
X65541323Y-37540195D02*
X65307927Y-37540195D01*
X65341115Y-36770524D02*
X66118329Y-36770524D01*
X64729790Y-38089533D02*
X64729790Y-36017825D01*
X66175284Y-36017825D02*
X66175284Y-38089533D01*
X64766704Y-36311147D02*
X66140158Y-36311147D01*
X66175284Y-38089533D02*
X64729790Y-38089533D01*
X64766704Y-36693963D02*
X65056894Y-36693963D01*
X65202621Y-37459598D02*
X65636705Y-37459598D01*
X64766704Y-37459598D02*
X64946307Y-37459598D01*
X65200554Y-37153343D02*
X65377287Y-37153343D01*
X64766704Y-37153343D02*
X64934938Y-37153343D01*
X65392911Y-36672777D02*
X65467616Y-36606047D01*
X65467616Y-36606047D02*
X65534577Y-36603631D01*
X65191560Y-37418765D02*
X65191560Y-37088209D01*
X64766704Y-36617400D02*
X65108570Y-36617400D01*
X65489042Y-37280472D02*
X65652633Y-37280472D01*
X65201588Y-37076779D02*
X65437234Y-37076779D01*
X64766704Y-37995546D02*
X66131891Y-37995546D01*
X64766704Y-37076779D02*
X64941139Y-37076779D01*
X65652633Y-37452496D02*
X65594042Y-37534800D01*
X65594042Y-37534800D02*
X65541323Y-37540195D01*
X65263599Y-36847085D02*
X66122465Y-36847085D01*
X65852905Y-36464269D02*
X66110151Y-36464269D01*
X65921957Y-37076779D02*
X66105927Y-37076779D01*
X64766704Y-37536166D02*
X64946307Y-37536166D01*
X65921957Y-37459598D02*
X66113531Y-37463733D01*
X65307927Y-37540195D02*
X65210632Y-37510609D01*
X65210632Y-37510609D02*
X65191560Y-37418765D01*
X65652633Y-37280472D02*
X65652633Y-37452496D01*
X64766704Y-37000219D02*
X64945274Y-37000219D01*
X65915137Y-37054465D02*
X65489042Y-37054465D01*
X64766704Y-37918990D02*
X66123623Y-37918990D01*
X64766704Y-37842429D02*
X66131891Y-37842429D01*
X65930225Y-37229913D02*
X66111571Y-37227846D01*
X65204689Y-37229913D02*
X65411394Y-37229913D01*
X64766704Y-36540829D02*
X65178060Y-36540829D01*
X64958604Y-37012317D02*
X64958604Y-37433944D01*
X65030915Y-37662242D02*
X65116667Y-37714176D01*
X65116667Y-37714176D02*
X65216347Y-37739144D01*
X65216347Y-37739144D02*
X65261364Y-37741868D01*
X65044562Y-36733064D02*
X64992611Y-36820962D01*
X64992611Y-36820962D02*
X64964246Y-36925521D01*
X64964246Y-36925521D02*
X64958604Y-37012317D01*
X65736959Y-36365457D02*
X65510967Y-36365457D01*
X65736959Y-36603631D02*
X65821608Y-36550093D01*
X65821608Y-36550093D02*
X65843877Y-36486283D01*
X65243840Y-36868964D02*
X65392911Y-36672777D01*
X64766704Y-37612727D02*
X64980412Y-37612727D01*
X65912656Y-37536166D02*
X66099920Y-37536166D01*
X65198489Y-37000219D02*
X66111096Y-37000219D01*
X65438267Y-36617400D02*
X66103859Y-36617400D01*
X65809054Y-36387708D02*
X66111611Y-36387708D01*
X64729790Y-36017825D02*
X66175284Y-36017825D01*
X64766704Y-36770524D02*
X64996950Y-36770524D01*
X65825132Y-36540829D02*
X66101380Y-36540829D01*
X64766704Y-37765851D02*
X66131891Y-37765851D01*
X65818604Y-37689290D02*
X66110151Y-37689290D01*
X65400028Y-36693963D02*
X66097659Y-36693963D01*
X64766704Y-36234574D02*
X66140158Y-36234574D01*
X65510967Y-36365457D02*
X65404906Y-36376309D01*
X65404906Y-36376309D02*
X65305833Y-36419133D01*
X65305833Y-36419133D02*
X65243569Y-36478401D01*
X65551442Y-37741868D02*
X65656031Y-37734585D01*
X65656031Y-37734585D02*
X65758258Y-37706635D01*
X65758258Y-37706635D02*
X65845343Y-37647563D01*
X65845343Y-37647563D02*
X65897671Y-37560028D01*
X65897671Y-37560028D02*
X65915137Y-37444063D01*
X64766704Y-36923655D02*
X64947341Y-36923655D01*
X64766704Y-36464269D02*
X65241943Y-36464269D01*
X64958604Y-37433944D02*
X64964878Y-37534746D01*
X64964878Y-37534746D02*
X65003658Y-37632212D01*
X65003658Y-37632212D02*
X65030915Y-37662242D01*
X65243569Y-36478401D02*
X65044562Y-36733064D01*
X65202621Y-37306474D02*
X65642905Y-37306474D01*
X64766704Y-37306474D02*
X64930803Y-37306474D01*
X64766704Y-37229913D02*
X64937006Y-37229913D01*
X65940562Y-37153343D02*
X66110107Y-37152309D01*
X64766704Y-36158018D02*
X66140158Y-36158018D01*
X65489042Y-37054465D02*
X65411725Y-37121998D01*
X65411725Y-37121998D02*
X65404716Y-37164861D01*
X65261364Y-37741868D02*
X65551442Y-37741868D01*
X65915137Y-37444063D02*
X65915137Y-37054465D01*
X65404716Y-37164861D02*
X65443090Y-37259900D01*
X65443090Y-37259900D02*
X65489042Y-37280472D01*
X64766704Y-36081450D02*
X66140158Y-36081450D01*
X65534577Y-36603631D02*
X65736959Y-36603631D01*
X65843877Y-36486283D02*
X65798655Y-36394990D01*
X65798655Y-36394990D02*
X65736959Y-36365457D01*
X64766704Y-36387708D02*
X65312100Y-36387708D01*
X65924025Y-37383035D02*
X66113961Y-37383035D01*
X65196421Y-37383035D02*
X65641871Y-37383035D01*
X64766704Y-37383035D02*
X64940105Y-37383035D01*
X65933326Y-37306474D02*
X66113961Y-37306474D01*
X64766704Y-36847085D02*
X64962843Y-36847085D01*
D14*
%TO.C,JP3*%
X56450000Y-32150000D02*
X60550000Y-32150000D01*
X60550000Y-32150000D02*
X60550000Y-34150000D01*
X60550000Y-34150000D02*
X56450000Y-34150000D01*
X56450000Y-34150000D02*
X56450000Y-32150000D01*
X57200000Y-34350000D02*
X56900000Y-34650000D01*
X56900000Y-34650000D02*
X57500000Y-34650000D01*
X57200000Y-34350000D02*
X57500000Y-34650000D01*
%TO.C,JP2*%
X56450000Y-49850000D02*
X60550000Y-49850000D01*
X60550000Y-49850000D02*
X60550000Y-51850000D01*
X60550000Y-51850000D02*
X56450000Y-51850000D01*
X56450000Y-51850000D02*
X56450000Y-49850000D01*
X57200000Y-52050000D02*
X56900000Y-52350000D01*
X56900000Y-52350000D02*
X57500000Y-52350000D01*
X57200000Y-52050000D02*
X57500000Y-52350000D01*
%TO.C,JP1*%
X46550000Y-36100000D02*
X50650000Y-36100000D01*
X50650000Y-36100000D02*
X50650000Y-38100000D01*
X50650000Y-38100000D02*
X46550000Y-38100000D01*
X46550000Y-38100000D02*
X46550000Y-36100000D01*
X47300000Y-38300000D02*
X47000000Y-38600000D01*
X47000000Y-38600000D02*
X47600000Y-38600000D01*
X47300000Y-38300000D02*
X47600000Y-38600000D01*
%TO.C,SW1*%
X46250000Y-45250000D02*
X50750000Y-45250000D01*
X45000000Y-41250000D02*
X45000000Y-42750000D01*
X50750000Y-38750000D02*
X46250000Y-38750000D01*
X52000000Y-42750000D02*
X52000000Y-41250000D01*
%TO.C,J1*%
D10*
X83496666Y-36182380D02*
X83496666Y-36896666D01*
X83449047Y-37039523D01*
X83353809Y-37134761D01*
X83210952Y-37182380D01*
X83115714Y-37182380D01*
X84496666Y-37182380D02*
X83925238Y-37182380D01*
X84210952Y-37182380D02*
X84210952Y-36182380D01*
X84115714Y-36325238D01*
X84020476Y-36420476D01*
X83925238Y-36468095D01*
%TD*%
M02*
