%TF.GenerationSoftware,KiCad,Pcbnew,5.1.7-a382d34a8~88~ubuntu18.04.1*%
%TF.CreationDate,2021-06-07T00:47:52+02:00*%
%TF.ProjectId,button-board-6x6mm-4buttons,62757474-6f6e-42d6-926f-6172642d3678,v1r1*%
%TF.SameCoordinates,Original*%
%TF.FileFunction,Copper,L1,Top*%
%TF.FilePolarity,Positive*%
%FSLAX46Y46*%
G04 Gerber Fmt 4.6, Leading zero omitted, Abs format (unit mm)*
G04 Created by KiCad (PCBNEW 5.1.7-a382d34a8~88~ubuntu18.04.1) date 2021-06-07 00:47:52*
%MOMM*%
%LPD*%
G01*
G04 APERTURE LIST*
%TA.AperFunction,ComponentPad*%
%ADD10R,1.700000X1.700000*%
%TD*%
%TA.AperFunction,ComponentPad*%
%ADD11O,1.700000X1.700000*%
%TD*%
%TA.AperFunction,ComponentPad*%
%ADD12C,1.700000*%
%TD*%
%TA.AperFunction,ComponentPad*%
%ADD13C,2.000000*%
%TD*%
%TA.AperFunction,ViaPad*%
%ADD14C,0.800000*%
%TD*%
%TA.AperFunction,Conductor*%
%ADD15C,0.250000*%
%TD*%
%TA.AperFunction,Conductor*%
%ADD16C,0.254000*%
%TD*%
%TA.AperFunction,Conductor*%
%ADD17C,0.100000*%
%TD*%
G04 APERTURE END LIST*
D10*
%TO.P,J1,6*%
%TO.N,GND*%
X84600000Y-48350000D03*
D11*
%TO.P,J1,5*%
%TO.N,VCC*%
X84600000Y-45810000D03*
%TO.P,J1,4*%
%TO.N,Net-(J1-Pad4)*%
X84600000Y-43270000D03*
%TO.P,J1,3*%
%TO.N,Net-(J1-Pad3)*%
X84600000Y-40730000D03*
%TO.P,J1,2*%
%TO.N,Net-(J1-Pad2)*%
X84600000Y-38190000D03*
D12*
%TO.P,J1,1*%
%TO.N,Net-(J1-Pad1)*%
X84600000Y-35650000D03*
%TD*%
D13*
%TO.P,SW4,1*%
%TO.N,Net-(JP4-Pad2)*%
X71750000Y-39750000D03*
%TO.P,SW4,2*%
%TO.N,Net-(J1-Pad4)*%
X71750000Y-44250000D03*
%TO.P,SW4,1*%
%TO.N,Net-(JP4-Pad2)*%
X65250000Y-39750000D03*
%TO.P,SW4,2*%
%TO.N,Net-(J1-Pad4)*%
X65250000Y-44250000D03*
%TD*%
%TO.P,SW3,1*%
%TO.N,Net-(JP3-Pad2)*%
X61750000Y-35750000D03*
%TO.P,SW3,2*%
%TO.N,Net-(J1-Pad3)*%
X61750000Y-40250000D03*
%TO.P,SW3,1*%
%TO.N,Net-(JP3-Pad2)*%
X55250000Y-35750000D03*
%TO.P,SW3,2*%
%TO.N,Net-(J1-Pad3)*%
X55250000Y-40250000D03*
%TD*%
%TO.P,SW2,1*%
%TO.N,Net-(JP2-Pad2)*%
X61750000Y-43750000D03*
%TO.P,SW2,2*%
%TO.N,Net-(J1-Pad2)*%
X61750000Y-48250000D03*
%TO.P,SW2,1*%
%TO.N,Net-(JP2-Pad2)*%
X55250000Y-43750000D03*
%TO.P,SW2,2*%
%TO.N,Net-(J1-Pad2)*%
X55250000Y-48250000D03*
%TD*%
%TO.P,SW1,1*%
%TO.N,Net-(JP1-Pad2)*%
X51750000Y-39750000D03*
%TO.P,SW1,2*%
%TO.N,Net-(J1-Pad1)*%
X51750000Y-44250000D03*
%TO.P,SW1,1*%
%TO.N,Net-(JP1-Pad2)*%
X45250000Y-39750000D03*
%TO.P,SW1,2*%
%TO.N,Net-(J1-Pad1)*%
X45250000Y-44250000D03*
%TD*%
D14*
%TO.N,VCC*%
X73200000Y-37100000D03*
X53350000Y-35750000D03*
X53150000Y-48250000D03*
X43350000Y-39750000D03*
%TD*%
D15*
%TO.N,Net-(J1-Pad3)*%
X84254999Y-41075001D02*
X84600000Y-40730000D01*
X71113999Y-41075001D02*
X84254999Y-41075001D01*
X70532803Y-40493805D02*
X71113999Y-41075001D01*
X67877715Y-40493805D02*
X70532803Y-40493805D01*
X67121521Y-41249999D02*
X67877715Y-40493805D01*
X62749999Y-41249999D02*
X67121521Y-41249999D01*
X61750000Y-40250000D02*
X62749999Y-41249999D01*
%TD*%
D16*
%TO.N,VCC*%
X87840001Y-51340000D02*
X37160000Y-51340000D01*
X37160000Y-47796552D01*
X38270380Y-47796552D01*
X38270380Y-48236808D01*
X38356270Y-48668605D01*
X38524749Y-49075349D01*
X38769342Y-49441409D01*
X39080651Y-49752718D01*
X39446711Y-49997311D01*
X39853455Y-50165790D01*
X40285252Y-50251680D01*
X40725508Y-50251680D01*
X41157305Y-50165790D01*
X41564049Y-49997311D01*
X41930109Y-49752718D01*
X42241418Y-49441409D01*
X42486011Y-49075349D01*
X42654490Y-48668605D01*
X42740380Y-48236808D01*
X42740380Y-48088967D01*
X53615000Y-48088967D01*
X53615000Y-48411033D01*
X53677832Y-48726912D01*
X53801082Y-49024463D01*
X53980013Y-49292252D01*
X54207748Y-49519987D01*
X54475537Y-49698918D01*
X54773088Y-49822168D01*
X55088967Y-49885000D01*
X55411033Y-49885000D01*
X55726912Y-49822168D01*
X56024463Y-49698918D01*
X56292252Y-49519987D01*
X56519987Y-49292252D01*
X56698918Y-49024463D01*
X56822168Y-48726912D01*
X56885000Y-48411033D01*
X56885000Y-48088967D01*
X60115000Y-48088967D01*
X60115000Y-48411033D01*
X60177832Y-48726912D01*
X60301082Y-49024463D01*
X60480013Y-49292252D01*
X60707748Y-49519987D01*
X60975537Y-49698918D01*
X61273088Y-49822168D01*
X61588967Y-49885000D01*
X61911033Y-49885000D01*
X62226912Y-49822168D01*
X62524463Y-49698918D01*
X62792252Y-49519987D01*
X63019987Y-49292252D01*
X63198918Y-49024463D01*
X63322168Y-48726912D01*
X63385000Y-48411033D01*
X63385000Y-48088967D01*
X63326836Y-47796552D01*
X74262180Y-47796552D01*
X74262180Y-48236808D01*
X74348070Y-48668605D01*
X74516549Y-49075349D01*
X74761142Y-49441409D01*
X75072451Y-49752718D01*
X75438511Y-49997311D01*
X75845255Y-50165790D01*
X76277052Y-50251680D01*
X76717308Y-50251680D01*
X77149105Y-50165790D01*
X77555849Y-49997311D01*
X77921909Y-49752718D01*
X78233218Y-49441409D01*
X78477811Y-49075349D01*
X78646290Y-48668605D01*
X78732180Y-48236808D01*
X78732180Y-47796552D01*
X78673192Y-47500000D01*
X83111928Y-47500000D01*
X83111928Y-49200000D01*
X83124188Y-49324482D01*
X83160498Y-49444180D01*
X83219463Y-49554494D01*
X83298815Y-49651185D01*
X83395506Y-49730537D01*
X83505820Y-49789502D01*
X83625518Y-49825812D01*
X83750000Y-49838072D01*
X85450000Y-49838072D01*
X85574482Y-49825812D01*
X85694180Y-49789502D01*
X85804494Y-49730537D01*
X85901185Y-49651185D01*
X85980537Y-49554494D01*
X86039502Y-49444180D01*
X86075812Y-49324482D01*
X86088072Y-49200000D01*
X86088072Y-47500000D01*
X86075812Y-47375518D01*
X86039502Y-47255820D01*
X85980537Y-47145506D01*
X85901185Y-47048815D01*
X85804494Y-46969463D01*
X85694180Y-46910498D01*
X85613534Y-46886034D01*
X85697588Y-46810269D01*
X85871641Y-46576920D01*
X85996825Y-46314099D01*
X86041476Y-46166890D01*
X85920155Y-45937000D01*
X84727000Y-45937000D01*
X84727000Y-45957000D01*
X84473000Y-45957000D01*
X84473000Y-45937000D01*
X83279845Y-45937000D01*
X83158524Y-46166890D01*
X83203175Y-46314099D01*
X83328359Y-46576920D01*
X83502412Y-46810269D01*
X83586466Y-46886034D01*
X83505820Y-46910498D01*
X83395506Y-46969463D01*
X83298815Y-47048815D01*
X83219463Y-47145506D01*
X83160498Y-47255820D01*
X83124188Y-47375518D01*
X83111928Y-47500000D01*
X78673192Y-47500000D01*
X78646290Y-47364755D01*
X78477811Y-46958011D01*
X78233218Y-46591951D01*
X77921909Y-46280642D01*
X77555849Y-46036049D01*
X77149105Y-45867570D01*
X76717308Y-45781680D01*
X76277052Y-45781680D01*
X75845255Y-45867570D01*
X75438511Y-46036049D01*
X75072451Y-46280642D01*
X74761142Y-46591951D01*
X74516549Y-46958011D01*
X74348070Y-47364755D01*
X74262180Y-47796552D01*
X63326836Y-47796552D01*
X63322168Y-47773088D01*
X63198918Y-47475537D01*
X63019987Y-47207748D01*
X62792252Y-46980013D01*
X62524463Y-46801082D01*
X62226912Y-46677832D01*
X61911033Y-46615000D01*
X61588967Y-46615000D01*
X61273088Y-46677832D01*
X60975537Y-46801082D01*
X60707748Y-46980013D01*
X60480013Y-47207748D01*
X60301082Y-47475537D01*
X60177832Y-47773088D01*
X60115000Y-48088967D01*
X56885000Y-48088967D01*
X56822168Y-47773088D01*
X56698918Y-47475537D01*
X56519987Y-47207748D01*
X56292252Y-46980013D01*
X56024463Y-46801082D01*
X55726912Y-46677832D01*
X55411033Y-46615000D01*
X55088967Y-46615000D01*
X54773088Y-46677832D01*
X54475537Y-46801082D01*
X54207748Y-46980013D01*
X53980013Y-47207748D01*
X53801082Y-47475537D01*
X53677832Y-47773088D01*
X53615000Y-48088967D01*
X42740380Y-48088967D01*
X42740380Y-47796552D01*
X42654490Y-47364755D01*
X42486011Y-46958011D01*
X42241418Y-46591951D01*
X41930109Y-46280642D01*
X41564049Y-46036049D01*
X41157305Y-45867570D01*
X40725508Y-45781680D01*
X40285252Y-45781680D01*
X39853455Y-45867570D01*
X39446711Y-46036049D01*
X39080651Y-46280642D01*
X38769342Y-46591951D01*
X38524749Y-46958011D01*
X38356270Y-47364755D01*
X38270380Y-47796552D01*
X37160000Y-47796552D01*
X37160000Y-44088967D01*
X43615000Y-44088967D01*
X43615000Y-44411033D01*
X43677832Y-44726912D01*
X43801082Y-45024463D01*
X43980013Y-45292252D01*
X44207748Y-45519987D01*
X44475537Y-45698918D01*
X44773088Y-45822168D01*
X45088967Y-45885000D01*
X45411033Y-45885000D01*
X45726912Y-45822168D01*
X46024463Y-45698918D01*
X46292252Y-45519987D01*
X46519987Y-45292252D01*
X46698918Y-45024463D01*
X46822168Y-44726912D01*
X46885000Y-44411033D01*
X46885000Y-44088967D01*
X50115000Y-44088967D01*
X50115000Y-44411033D01*
X50177832Y-44726912D01*
X50301082Y-45024463D01*
X50480013Y-45292252D01*
X50707748Y-45519987D01*
X50975537Y-45698918D01*
X51273088Y-45822168D01*
X51588967Y-45885000D01*
X51911033Y-45885000D01*
X52226912Y-45822168D01*
X52230627Y-45820629D01*
X56678812Y-45820629D01*
X56678812Y-46179371D01*
X56748799Y-46531221D01*
X56886084Y-46862656D01*
X57085391Y-47160940D01*
X57339060Y-47414609D01*
X57637344Y-47613916D01*
X57968779Y-47751201D01*
X58320629Y-47821188D01*
X58679371Y-47821188D01*
X59031221Y-47751201D01*
X59362656Y-47613916D01*
X59660940Y-47414609D01*
X59914609Y-47160940D01*
X60113916Y-46862656D01*
X60251201Y-46531221D01*
X60321188Y-46179371D01*
X60321188Y-45820629D01*
X60251201Y-45468779D01*
X60113916Y-45137344D01*
X59914609Y-44839060D01*
X59660940Y-44585391D01*
X59362656Y-44386084D01*
X59031221Y-44248799D01*
X58679371Y-44178812D01*
X58320629Y-44178812D01*
X57968779Y-44248799D01*
X57637344Y-44386084D01*
X57339060Y-44585391D01*
X57085391Y-44839060D01*
X56886084Y-45137344D01*
X56748799Y-45468779D01*
X56678812Y-45820629D01*
X52230627Y-45820629D01*
X52524463Y-45698918D01*
X52792252Y-45519987D01*
X53019987Y-45292252D01*
X53198918Y-45024463D01*
X53322168Y-44726912D01*
X53385000Y-44411033D01*
X53385000Y-44088967D01*
X53322168Y-43773088D01*
X53245903Y-43588967D01*
X53615000Y-43588967D01*
X53615000Y-43911033D01*
X53677832Y-44226912D01*
X53801082Y-44524463D01*
X53980013Y-44792252D01*
X54207748Y-45019987D01*
X54475537Y-45198918D01*
X54773088Y-45322168D01*
X55088967Y-45385000D01*
X55411033Y-45385000D01*
X55726912Y-45322168D01*
X56024463Y-45198918D01*
X56292252Y-45019987D01*
X56519987Y-44792252D01*
X56698918Y-44524463D01*
X56822168Y-44226912D01*
X56885000Y-43911033D01*
X56885000Y-43588967D01*
X60115000Y-43588967D01*
X60115000Y-43911033D01*
X60177832Y-44226912D01*
X60301082Y-44524463D01*
X60480013Y-44792252D01*
X60707748Y-45019987D01*
X60975537Y-45198918D01*
X61273088Y-45322168D01*
X61588967Y-45385000D01*
X61911033Y-45385000D01*
X62226912Y-45322168D01*
X62524463Y-45198918D01*
X62792252Y-45019987D01*
X63019987Y-44792252D01*
X63198918Y-44524463D01*
X63322168Y-44226912D01*
X63349606Y-44088967D01*
X63615000Y-44088967D01*
X63615000Y-44411033D01*
X63677832Y-44726912D01*
X63801082Y-45024463D01*
X63980013Y-45292252D01*
X64207748Y-45519987D01*
X64475537Y-45698918D01*
X64773088Y-45822168D01*
X65088967Y-45885000D01*
X65411033Y-45885000D01*
X65726912Y-45822168D01*
X66024463Y-45698918D01*
X66292252Y-45519987D01*
X66519987Y-45292252D01*
X66698918Y-45024463D01*
X66822168Y-44726912D01*
X66885000Y-44411033D01*
X66885000Y-44088967D01*
X70115000Y-44088967D01*
X70115000Y-44411033D01*
X70177832Y-44726912D01*
X70301082Y-45024463D01*
X70480013Y-45292252D01*
X70707748Y-45519987D01*
X70975537Y-45698918D01*
X71273088Y-45822168D01*
X71588967Y-45885000D01*
X71911033Y-45885000D01*
X72226912Y-45822168D01*
X72524463Y-45698918D01*
X72792252Y-45519987D01*
X73019987Y-45292252D01*
X73198918Y-45024463D01*
X73322168Y-44726912D01*
X73385000Y-44411033D01*
X73385000Y-44088967D01*
X73322168Y-43773088D01*
X73198918Y-43475537D01*
X73019987Y-43207748D01*
X72792252Y-42980013D01*
X72524463Y-42801082D01*
X72226912Y-42677832D01*
X71911033Y-42615000D01*
X71588967Y-42615000D01*
X71273088Y-42677832D01*
X70975537Y-42801082D01*
X70707748Y-42980013D01*
X70480013Y-43207748D01*
X70301082Y-43475537D01*
X70177832Y-43773088D01*
X70115000Y-44088967D01*
X66885000Y-44088967D01*
X66822168Y-43773088D01*
X66698918Y-43475537D01*
X66519987Y-43207748D01*
X66292252Y-42980013D01*
X66024463Y-42801082D01*
X65726912Y-42677832D01*
X65411033Y-42615000D01*
X65088967Y-42615000D01*
X64773088Y-42677832D01*
X64475537Y-42801082D01*
X64207748Y-42980013D01*
X63980013Y-43207748D01*
X63801082Y-43475537D01*
X63677832Y-43773088D01*
X63615000Y-44088967D01*
X63349606Y-44088967D01*
X63385000Y-43911033D01*
X63385000Y-43588967D01*
X63322168Y-43273088D01*
X63198918Y-42975537D01*
X63019987Y-42707748D01*
X62792252Y-42480013D01*
X62524463Y-42301082D01*
X62226912Y-42177832D01*
X61911033Y-42115000D01*
X61588967Y-42115000D01*
X61273088Y-42177832D01*
X60975537Y-42301082D01*
X60707748Y-42480013D01*
X60480013Y-42707748D01*
X60301082Y-42975537D01*
X60177832Y-43273088D01*
X60115000Y-43588967D01*
X56885000Y-43588967D01*
X56822168Y-43273088D01*
X56698918Y-42975537D01*
X56519987Y-42707748D01*
X56292252Y-42480013D01*
X56024463Y-42301082D01*
X55726912Y-42177832D01*
X55411033Y-42115000D01*
X55088967Y-42115000D01*
X54773088Y-42177832D01*
X54475537Y-42301082D01*
X54207748Y-42480013D01*
X53980013Y-42707748D01*
X53801082Y-42975537D01*
X53677832Y-43273088D01*
X53615000Y-43588967D01*
X53245903Y-43588967D01*
X53198918Y-43475537D01*
X53019987Y-43207748D01*
X52792252Y-42980013D01*
X52524463Y-42801082D01*
X52226912Y-42677832D01*
X51911033Y-42615000D01*
X51588967Y-42615000D01*
X51273088Y-42677832D01*
X50975537Y-42801082D01*
X50707748Y-42980013D01*
X50480013Y-43207748D01*
X50301082Y-43475537D01*
X50177832Y-43773088D01*
X50115000Y-44088967D01*
X46885000Y-44088967D01*
X46822168Y-43773088D01*
X46698918Y-43475537D01*
X46519987Y-43207748D01*
X46292252Y-42980013D01*
X46024463Y-42801082D01*
X45726912Y-42677832D01*
X45411033Y-42615000D01*
X45088967Y-42615000D01*
X44773088Y-42677832D01*
X44475537Y-42801082D01*
X44207748Y-42980013D01*
X43980013Y-43207748D01*
X43801082Y-43475537D01*
X43677832Y-43773088D01*
X43615000Y-44088967D01*
X37160000Y-44088967D01*
X37160000Y-41820629D01*
X46678812Y-41820629D01*
X46678812Y-42179371D01*
X46748799Y-42531221D01*
X46886084Y-42862656D01*
X47085391Y-43160940D01*
X47339060Y-43414609D01*
X47637344Y-43613916D01*
X47968779Y-43751201D01*
X48320629Y-43821188D01*
X48679371Y-43821188D01*
X49031221Y-43751201D01*
X49362656Y-43613916D01*
X49660940Y-43414609D01*
X49914609Y-43160940D01*
X50113916Y-42862656D01*
X50251201Y-42531221D01*
X50321188Y-42179371D01*
X50321188Y-41820629D01*
X50251201Y-41468779D01*
X50113916Y-41137344D01*
X49914609Y-40839060D01*
X49660940Y-40585391D01*
X49362656Y-40386084D01*
X49031221Y-40248799D01*
X48679371Y-40178812D01*
X48320629Y-40178812D01*
X47968779Y-40248799D01*
X47637344Y-40386084D01*
X47339060Y-40585391D01*
X47085391Y-40839060D01*
X46886084Y-41137344D01*
X46748799Y-41468779D01*
X46678812Y-41820629D01*
X37160000Y-41820629D01*
X37160000Y-39588967D01*
X43615000Y-39588967D01*
X43615000Y-39911033D01*
X43677832Y-40226912D01*
X43801082Y-40524463D01*
X43980013Y-40792252D01*
X44207748Y-41019987D01*
X44475537Y-41198918D01*
X44773088Y-41322168D01*
X45088967Y-41385000D01*
X45411033Y-41385000D01*
X45726912Y-41322168D01*
X46024463Y-41198918D01*
X46292252Y-41019987D01*
X46519987Y-40792252D01*
X46698918Y-40524463D01*
X46822168Y-40226912D01*
X46885000Y-39911033D01*
X46885000Y-39588967D01*
X50115000Y-39588967D01*
X50115000Y-39911033D01*
X50177832Y-40226912D01*
X50301082Y-40524463D01*
X50480013Y-40792252D01*
X50707748Y-41019987D01*
X50975537Y-41198918D01*
X51273088Y-41322168D01*
X51588967Y-41385000D01*
X51911033Y-41385000D01*
X52226912Y-41322168D01*
X52524463Y-41198918D01*
X52792252Y-41019987D01*
X53019987Y-40792252D01*
X53198918Y-40524463D01*
X53322168Y-40226912D01*
X53349606Y-40088967D01*
X53615000Y-40088967D01*
X53615000Y-40411033D01*
X53677832Y-40726912D01*
X53801082Y-41024463D01*
X53980013Y-41292252D01*
X54207748Y-41519987D01*
X54475537Y-41698918D01*
X54773088Y-41822168D01*
X55088967Y-41885000D01*
X55411033Y-41885000D01*
X55726912Y-41822168D01*
X56024463Y-41698918D01*
X56292252Y-41519987D01*
X56519987Y-41292252D01*
X56698918Y-41024463D01*
X56822168Y-40726912D01*
X56885000Y-40411033D01*
X56885000Y-40088967D01*
X60115000Y-40088967D01*
X60115000Y-40411033D01*
X60177832Y-40726912D01*
X60301082Y-41024463D01*
X60480013Y-41292252D01*
X60707748Y-41519987D01*
X60975537Y-41698918D01*
X61273088Y-41822168D01*
X61588967Y-41885000D01*
X61911033Y-41885000D01*
X62226912Y-41822168D01*
X62241721Y-41816034D01*
X62325722Y-41884973D01*
X62451067Y-41951972D01*
X62457752Y-41955545D01*
X62601013Y-41999002D01*
X62712666Y-42009999D01*
X62712675Y-42009999D01*
X62749998Y-42013675D01*
X62787321Y-42009999D01*
X66678812Y-42009999D01*
X66678812Y-42179371D01*
X66748799Y-42531221D01*
X66886084Y-42862656D01*
X67085391Y-43160940D01*
X67339060Y-43414609D01*
X67637344Y-43613916D01*
X67968779Y-43751201D01*
X68320629Y-43821188D01*
X68679371Y-43821188D01*
X69031221Y-43751201D01*
X69362656Y-43613916D01*
X69660940Y-43414609D01*
X69914609Y-43160940D01*
X70113916Y-42862656D01*
X70251201Y-42531221D01*
X70321188Y-42179371D01*
X70321188Y-41820629D01*
X70251201Y-41468779D01*
X70162156Y-41253805D01*
X70218002Y-41253805D01*
X70550199Y-41586003D01*
X70573998Y-41615002D01*
X70689723Y-41709975D01*
X70821752Y-41780547D01*
X70965013Y-41824004D01*
X71076666Y-41835001D01*
X71076675Y-41835001D01*
X71113998Y-41838677D01*
X71151321Y-41835001D01*
X83604894Y-41835001D01*
X83653368Y-41883475D01*
X83827760Y-42000000D01*
X83653368Y-42116525D01*
X83446525Y-42323368D01*
X83284010Y-42566589D01*
X83172068Y-42836842D01*
X83115000Y-43123740D01*
X83115000Y-43416260D01*
X83172068Y-43703158D01*
X83284010Y-43973411D01*
X83446525Y-44216632D01*
X83653368Y-44423475D01*
X83835534Y-44545195D01*
X83718645Y-44614822D01*
X83502412Y-44809731D01*
X83328359Y-45043080D01*
X83203175Y-45305901D01*
X83158524Y-45453110D01*
X83279845Y-45683000D01*
X84473000Y-45683000D01*
X84473000Y-45663000D01*
X84727000Y-45663000D01*
X84727000Y-45683000D01*
X85920155Y-45683000D01*
X86041476Y-45453110D01*
X85996825Y-45305901D01*
X85871641Y-45043080D01*
X85697588Y-44809731D01*
X85481355Y-44614822D01*
X85364466Y-44545195D01*
X85546632Y-44423475D01*
X85753475Y-44216632D01*
X85915990Y-43973411D01*
X86027932Y-43703158D01*
X86085000Y-43416260D01*
X86085000Y-43123740D01*
X86027932Y-42836842D01*
X85915990Y-42566589D01*
X85753475Y-42323368D01*
X85546632Y-42116525D01*
X85372240Y-42000000D01*
X85546632Y-41883475D01*
X85753475Y-41676632D01*
X85915990Y-41433411D01*
X86027932Y-41163158D01*
X86085000Y-40876260D01*
X86085000Y-40583740D01*
X86027932Y-40296842D01*
X85915990Y-40026589D01*
X85753475Y-39783368D01*
X85546632Y-39576525D01*
X85372240Y-39460000D01*
X85546632Y-39343475D01*
X85753475Y-39136632D01*
X85915990Y-38893411D01*
X86027932Y-38623158D01*
X86085000Y-38336260D01*
X86085000Y-38043740D01*
X86027932Y-37756842D01*
X85915990Y-37486589D01*
X85753475Y-37243368D01*
X85546632Y-37036525D01*
X85372240Y-36920000D01*
X85546632Y-36803475D01*
X85753475Y-36596632D01*
X85915990Y-36353411D01*
X86027932Y-36083158D01*
X86085000Y-35796260D01*
X86085000Y-35503740D01*
X86027932Y-35216842D01*
X85915990Y-34946589D01*
X85753475Y-34703368D01*
X85546632Y-34496525D01*
X85303411Y-34334010D01*
X85033158Y-34222068D01*
X84746260Y-34165000D01*
X84453740Y-34165000D01*
X84166842Y-34222068D01*
X83896589Y-34334010D01*
X83653368Y-34496525D01*
X83446525Y-34703368D01*
X83284010Y-34946589D01*
X83172068Y-35216842D01*
X83115000Y-35503740D01*
X83115000Y-35796260D01*
X83172068Y-36083158D01*
X83284010Y-36353411D01*
X83446525Y-36596632D01*
X83653368Y-36803475D01*
X83827760Y-36920000D01*
X83653368Y-37036525D01*
X83446525Y-37243368D01*
X83284010Y-37486589D01*
X83172068Y-37756842D01*
X83115000Y-38043740D01*
X83115000Y-38336260D01*
X83172068Y-38623158D01*
X83284010Y-38893411D01*
X83446525Y-39136632D01*
X83653368Y-39343475D01*
X83827760Y-39460000D01*
X83653368Y-39576525D01*
X83446525Y-39783368D01*
X83284010Y-40026589D01*
X83172068Y-40296842D01*
X83168456Y-40315001D01*
X73285680Y-40315001D01*
X73322168Y-40226912D01*
X73385000Y-39911033D01*
X73385000Y-39588967D01*
X73322168Y-39273088D01*
X73198918Y-38975537D01*
X73019987Y-38707748D01*
X72792252Y-38480013D01*
X72524463Y-38301082D01*
X72226912Y-38177832D01*
X71911033Y-38115000D01*
X71588967Y-38115000D01*
X71273088Y-38177832D01*
X70975537Y-38301082D01*
X70707748Y-38480013D01*
X70480013Y-38707748D01*
X70301082Y-38975537D01*
X70177832Y-39273088D01*
X70115000Y-39588967D01*
X70115000Y-39733805D01*
X67915038Y-39733805D01*
X67877715Y-39730129D01*
X67840392Y-39733805D01*
X67840382Y-39733805D01*
X67728729Y-39744802D01*
X67585468Y-39788259D01*
X67453439Y-39858831D01*
X67337714Y-39953804D01*
X67313916Y-39982803D01*
X66806720Y-40489999D01*
X66713193Y-40489999D01*
X66822168Y-40226912D01*
X66885000Y-39911033D01*
X66885000Y-39588967D01*
X66822168Y-39273088D01*
X66698918Y-38975537D01*
X66519987Y-38707748D01*
X66292252Y-38480013D01*
X66024463Y-38301082D01*
X65726912Y-38177832D01*
X65411033Y-38115000D01*
X65088967Y-38115000D01*
X64773088Y-38177832D01*
X64475537Y-38301082D01*
X64207748Y-38480013D01*
X63980013Y-38707748D01*
X63801082Y-38975537D01*
X63677832Y-39273088D01*
X63615000Y-39588967D01*
X63615000Y-39911033D01*
X63677832Y-40226912D01*
X63786807Y-40489999D01*
X63369293Y-40489999D01*
X63385000Y-40411033D01*
X63385000Y-40088967D01*
X63322168Y-39773088D01*
X63198918Y-39475537D01*
X63019987Y-39207748D01*
X62792252Y-38980013D01*
X62524463Y-38801082D01*
X62226912Y-38677832D01*
X61911033Y-38615000D01*
X61588967Y-38615000D01*
X61273088Y-38677832D01*
X60975537Y-38801082D01*
X60707748Y-38980013D01*
X60480013Y-39207748D01*
X60301082Y-39475537D01*
X60177832Y-39773088D01*
X60115000Y-40088967D01*
X56885000Y-40088967D01*
X56822168Y-39773088D01*
X56698918Y-39475537D01*
X56519987Y-39207748D01*
X56292252Y-38980013D01*
X56024463Y-38801082D01*
X55726912Y-38677832D01*
X55411033Y-38615000D01*
X55088967Y-38615000D01*
X54773088Y-38677832D01*
X54475537Y-38801082D01*
X54207748Y-38980013D01*
X53980013Y-39207748D01*
X53801082Y-39475537D01*
X53677832Y-39773088D01*
X53615000Y-40088967D01*
X53349606Y-40088967D01*
X53385000Y-39911033D01*
X53385000Y-39588967D01*
X53322168Y-39273088D01*
X53198918Y-38975537D01*
X53019987Y-38707748D01*
X52792252Y-38480013D01*
X52524463Y-38301082D01*
X52226912Y-38177832D01*
X51911033Y-38115000D01*
X51588967Y-38115000D01*
X51273088Y-38177832D01*
X50975537Y-38301082D01*
X50707748Y-38480013D01*
X50480013Y-38707748D01*
X50301082Y-38975537D01*
X50177832Y-39273088D01*
X50115000Y-39588967D01*
X46885000Y-39588967D01*
X46822168Y-39273088D01*
X46698918Y-38975537D01*
X46519987Y-38707748D01*
X46292252Y-38480013D01*
X46024463Y-38301082D01*
X45726912Y-38177832D01*
X45411033Y-38115000D01*
X45088967Y-38115000D01*
X44773088Y-38177832D01*
X44475537Y-38301082D01*
X44207748Y-38480013D01*
X43980013Y-38707748D01*
X43801082Y-38975537D01*
X43677832Y-39273088D01*
X43615000Y-39588967D01*
X37160000Y-39588967D01*
X37160000Y-35796552D01*
X38270380Y-35796552D01*
X38270380Y-36236808D01*
X38356270Y-36668605D01*
X38524749Y-37075349D01*
X38769342Y-37441409D01*
X39080651Y-37752718D01*
X39446711Y-37997311D01*
X39853455Y-38165790D01*
X40285252Y-38251680D01*
X40725508Y-38251680D01*
X41157305Y-38165790D01*
X41564049Y-37997311D01*
X41828472Y-37820629D01*
X56678812Y-37820629D01*
X56678812Y-38179371D01*
X56748799Y-38531221D01*
X56886084Y-38862656D01*
X57085391Y-39160940D01*
X57339060Y-39414609D01*
X57637344Y-39613916D01*
X57968779Y-39751201D01*
X58320629Y-39821188D01*
X58679371Y-39821188D01*
X59031221Y-39751201D01*
X59362656Y-39613916D01*
X59660940Y-39414609D01*
X59914609Y-39160940D01*
X60113916Y-38862656D01*
X60251201Y-38531221D01*
X60321188Y-38179371D01*
X60321188Y-37820629D01*
X60251201Y-37468779D01*
X60113916Y-37137344D01*
X59914609Y-36839060D01*
X59660940Y-36585391D01*
X59362656Y-36386084D01*
X59031221Y-36248799D01*
X58679371Y-36178812D01*
X58320629Y-36178812D01*
X57968779Y-36248799D01*
X57637344Y-36386084D01*
X57339060Y-36585391D01*
X57085391Y-36839060D01*
X56886084Y-37137344D01*
X56748799Y-37468779D01*
X56678812Y-37820629D01*
X41828472Y-37820629D01*
X41930109Y-37752718D01*
X42241418Y-37441409D01*
X42486011Y-37075349D01*
X42654490Y-36668605D01*
X42740380Y-36236808D01*
X42740380Y-35796552D01*
X42699089Y-35588967D01*
X53615000Y-35588967D01*
X53615000Y-35911033D01*
X53677832Y-36226912D01*
X53801082Y-36524463D01*
X53980013Y-36792252D01*
X54207748Y-37019987D01*
X54475537Y-37198918D01*
X54773088Y-37322168D01*
X55088967Y-37385000D01*
X55411033Y-37385000D01*
X55726912Y-37322168D01*
X56024463Y-37198918D01*
X56292252Y-37019987D01*
X56519987Y-36792252D01*
X56698918Y-36524463D01*
X56822168Y-36226912D01*
X56885000Y-35911033D01*
X56885000Y-35588967D01*
X60115000Y-35588967D01*
X60115000Y-35911033D01*
X60177832Y-36226912D01*
X60301082Y-36524463D01*
X60480013Y-36792252D01*
X60707748Y-37019987D01*
X60975537Y-37198918D01*
X61273088Y-37322168D01*
X61588967Y-37385000D01*
X61911033Y-37385000D01*
X62226912Y-37322168D01*
X62524463Y-37198918D01*
X62792252Y-37019987D01*
X63019987Y-36792252D01*
X63198918Y-36524463D01*
X63322168Y-36226912D01*
X63385000Y-35911033D01*
X63385000Y-35796552D01*
X74262180Y-35796552D01*
X74262180Y-36236808D01*
X74348070Y-36668605D01*
X74516549Y-37075349D01*
X74761142Y-37441409D01*
X75072451Y-37752718D01*
X75438511Y-37997311D01*
X75845255Y-38165790D01*
X76277052Y-38251680D01*
X76717308Y-38251680D01*
X77149105Y-38165790D01*
X77555849Y-37997311D01*
X77921909Y-37752718D01*
X78233218Y-37441409D01*
X78477811Y-37075349D01*
X78646290Y-36668605D01*
X78732180Y-36236808D01*
X78732180Y-35796552D01*
X78646290Y-35364755D01*
X78477811Y-34958011D01*
X78233218Y-34591951D01*
X77921909Y-34280642D01*
X77555849Y-34036049D01*
X77149105Y-33867570D01*
X76717308Y-33781680D01*
X76277052Y-33781680D01*
X75845255Y-33867570D01*
X75438511Y-34036049D01*
X75072451Y-34280642D01*
X74761142Y-34591951D01*
X74516549Y-34958011D01*
X74348070Y-35364755D01*
X74262180Y-35796552D01*
X63385000Y-35796552D01*
X63385000Y-35588967D01*
X63322168Y-35273088D01*
X63198918Y-34975537D01*
X63019987Y-34707748D01*
X62792252Y-34480013D01*
X62524463Y-34301082D01*
X62226912Y-34177832D01*
X61911033Y-34115000D01*
X61588967Y-34115000D01*
X61273088Y-34177832D01*
X60975537Y-34301082D01*
X60707748Y-34480013D01*
X60480013Y-34707748D01*
X60301082Y-34975537D01*
X60177832Y-35273088D01*
X60115000Y-35588967D01*
X56885000Y-35588967D01*
X56822168Y-35273088D01*
X56698918Y-34975537D01*
X56519987Y-34707748D01*
X56292252Y-34480013D01*
X56024463Y-34301082D01*
X55726912Y-34177832D01*
X55411033Y-34115000D01*
X55088967Y-34115000D01*
X54773088Y-34177832D01*
X54475537Y-34301082D01*
X54207748Y-34480013D01*
X53980013Y-34707748D01*
X53801082Y-34975537D01*
X53677832Y-35273088D01*
X53615000Y-35588967D01*
X42699089Y-35588967D01*
X42654490Y-35364755D01*
X42486011Y-34958011D01*
X42241418Y-34591951D01*
X41930109Y-34280642D01*
X41564049Y-34036049D01*
X41157305Y-33867570D01*
X40725508Y-33781680D01*
X40285252Y-33781680D01*
X39853455Y-33867570D01*
X39446711Y-34036049D01*
X39080651Y-34280642D01*
X38769342Y-34591951D01*
X38524749Y-34958011D01*
X38356270Y-35364755D01*
X38270380Y-35796552D01*
X37160000Y-35796552D01*
X37160000Y-32667275D01*
X37160666Y-32660487D01*
X37165301Y-32660000D01*
X87840000Y-32660000D01*
X87840001Y-51340000D01*
%TA.AperFunction,Conductor*%
D17*
G36*
X87840001Y-51340000D02*
G01*
X37160000Y-51340000D01*
X37160000Y-47796552D01*
X38270380Y-47796552D01*
X38270380Y-48236808D01*
X38356270Y-48668605D01*
X38524749Y-49075349D01*
X38769342Y-49441409D01*
X39080651Y-49752718D01*
X39446711Y-49997311D01*
X39853455Y-50165790D01*
X40285252Y-50251680D01*
X40725508Y-50251680D01*
X41157305Y-50165790D01*
X41564049Y-49997311D01*
X41930109Y-49752718D01*
X42241418Y-49441409D01*
X42486011Y-49075349D01*
X42654490Y-48668605D01*
X42740380Y-48236808D01*
X42740380Y-48088967D01*
X53615000Y-48088967D01*
X53615000Y-48411033D01*
X53677832Y-48726912D01*
X53801082Y-49024463D01*
X53980013Y-49292252D01*
X54207748Y-49519987D01*
X54475537Y-49698918D01*
X54773088Y-49822168D01*
X55088967Y-49885000D01*
X55411033Y-49885000D01*
X55726912Y-49822168D01*
X56024463Y-49698918D01*
X56292252Y-49519987D01*
X56519987Y-49292252D01*
X56698918Y-49024463D01*
X56822168Y-48726912D01*
X56885000Y-48411033D01*
X56885000Y-48088967D01*
X60115000Y-48088967D01*
X60115000Y-48411033D01*
X60177832Y-48726912D01*
X60301082Y-49024463D01*
X60480013Y-49292252D01*
X60707748Y-49519987D01*
X60975537Y-49698918D01*
X61273088Y-49822168D01*
X61588967Y-49885000D01*
X61911033Y-49885000D01*
X62226912Y-49822168D01*
X62524463Y-49698918D01*
X62792252Y-49519987D01*
X63019987Y-49292252D01*
X63198918Y-49024463D01*
X63322168Y-48726912D01*
X63385000Y-48411033D01*
X63385000Y-48088967D01*
X63326836Y-47796552D01*
X74262180Y-47796552D01*
X74262180Y-48236808D01*
X74348070Y-48668605D01*
X74516549Y-49075349D01*
X74761142Y-49441409D01*
X75072451Y-49752718D01*
X75438511Y-49997311D01*
X75845255Y-50165790D01*
X76277052Y-50251680D01*
X76717308Y-50251680D01*
X77149105Y-50165790D01*
X77555849Y-49997311D01*
X77921909Y-49752718D01*
X78233218Y-49441409D01*
X78477811Y-49075349D01*
X78646290Y-48668605D01*
X78732180Y-48236808D01*
X78732180Y-47796552D01*
X78673192Y-47500000D01*
X83111928Y-47500000D01*
X83111928Y-49200000D01*
X83124188Y-49324482D01*
X83160498Y-49444180D01*
X83219463Y-49554494D01*
X83298815Y-49651185D01*
X83395506Y-49730537D01*
X83505820Y-49789502D01*
X83625518Y-49825812D01*
X83750000Y-49838072D01*
X85450000Y-49838072D01*
X85574482Y-49825812D01*
X85694180Y-49789502D01*
X85804494Y-49730537D01*
X85901185Y-49651185D01*
X85980537Y-49554494D01*
X86039502Y-49444180D01*
X86075812Y-49324482D01*
X86088072Y-49200000D01*
X86088072Y-47500000D01*
X86075812Y-47375518D01*
X86039502Y-47255820D01*
X85980537Y-47145506D01*
X85901185Y-47048815D01*
X85804494Y-46969463D01*
X85694180Y-46910498D01*
X85613534Y-46886034D01*
X85697588Y-46810269D01*
X85871641Y-46576920D01*
X85996825Y-46314099D01*
X86041476Y-46166890D01*
X85920155Y-45937000D01*
X84727000Y-45937000D01*
X84727000Y-45957000D01*
X84473000Y-45957000D01*
X84473000Y-45937000D01*
X83279845Y-45937000D01*
X83158524Y-46166890D01*
X83203175Y-46314099D01*
X83328359Y-46576920D01*
X83502412Y-46810269D01*
X83586466Y-46886034D01*
X83505820Y-46910498D01*
X83395506Y-46969463D01*
X83298815Y-47048815D01*
X83219463Y-47145506D01*
X83160498Y-47255820D01*
X83124188Y-47375518D01*
X83111928Y-47500000D01*
X78673192Y-47500000D01*
X78646290Y-47364755D01*
X78477811Y-46958011D01*
X78233218Y-46591951D01*
X77921909Y-46280642D01*
X77555849Y-46036049D01*
X77149105Y-45867570D01*
X76717308Y-45781680D01*
X76277052Y-45781680D01*
X75845255Y-45867570D01*
X75438511Y-46036049D01*
X75072451Y-46280642D01*
X74761142Y-46591951D01*
X74516549Y-46958011D01*
X74348070Y-47364755D01*
X74262180Y-47796552D01*
X63326836Y-47796552D01*
X63322168Y-47773088D01*
X63198918Y-47475537D01*
X63019987Y-47207748D01*
X62792252Y-46980013D01*
X62524463Y-46801082D01*
X62226912Y-46677832D01*
X61911033Y-46615000D01*
X61588967Y-46615000D01*
X61273088Y-46677832D01*
X60975537Y-46801082D01*
X60707748Y-46980013D01*
X60480013Y-47207748D01*
X60301082Y-47475537D01*
X60177832Y-47773088D01*
X60115000Y-48088967D01*
X56885000Y-48088967D01*
X56822168Y-47773088D01*
X56698918Y-47475537D01*
X56519987Y-47207748D01*
X56292252Y-46980013D01*
X56024463Y-46801082D01*
X55726912Y-46677832D01*
X55411033Y-46615000D01*
X55088967Y-46615000D01*
X54773088Y-46677832D01*
X54475537Y-46801082D01*
X54207748Y-46980013D01*
X53980013Y-47207748D01*
X53801082Y-47475537D01*
X53677832Y-47773088D01*
X53615000Y-48088967D01*
X42740380Y-48088967D01*
X42740380Y-47796552D01*
X42654490Y-47364755D01*
X42486011Y-46958011D01*
X42241418Y-46591951D01*
X41930109Y-46280642D01*
X41564049Y-46036049D01*
X41157305Y-45867570D01*
X40725508Y-45781680D01*
X40285252Y-45781680D01*
X39853455Y-45867570D01*
X39446711Y-46036049D01*
X39080651Y-46280642D01*
X38769342Y-46591951D01*
X38524749Y-46958011D01*
X38356270Y-47364755D01*
X38270380Y-47796552D01*
X37160000Y-47796552D01*
X37160000Y-44088967D01*
X43615000Y-44088967D01*
X43615000Y-44411033D01*
X43677832Y-44726912D01*
X43801082Y-45024463D01*
X43980013Y-45292252D01*
X44207748Y-45519987D01*
X44475537Y-45698918D01*
X44773088Y-45822168D01*
X45088967Y-45885000D01*
X45411033Y-45885000D01*
X45726912Y-45822168D01*
X46024463Y-45698918D01*
X46292252Y-45519987D01*
X46519987Y-45292252D01*
X46698918Y-45024463D01*
X46822168Y-44726912D01*
X46885000Y-44411033D01*
X46885000Y-44088967D01*
X50115000Y-44088967D01*
X50115000Y-44411033D01*
X50177832Y-44726912D01*
X50301082Y-45024463D01*
X50480013Y-45292252D01*
X50707748Y-45519987D01*
X50975537Y-45698918D01*
X51273088Y-45822168D01*
X51588967Y-45885000D01*
X51911033Y-45885000D01*
X52226912Y-45822168D01*
X52230627Y-45820629D01*
X56678812Y-45820629D01*
X56678812Y-46179371D01*
X56748799Y-46531221D01*
X56886084Y-46862656D01*
X57085391Y-47160940D01*
X57339060Y-47414609D01*
X57637344Y-47613916D01*
X57968779Y-47751201D01*
X58320629Y-47821188D01*
X58679371Y-47821188D01*
X59031221Y-47751201D01*
X59362656Y-47613916D01*
X59660940Y-47414609D01*
X59914609Y-47160940D01*
X60113916Y-46862656D01*
X60251201Y-46531221D01*
X60321188Y-46179371D01*
X60321188Y-45820629D01*
X60251201Y-45468779D01*
X60113916Y-45137344D01*
X59914609Y-44839060D01*
X59660940Y-44585391D01*
X59362656Y-44386084D01*
X59031221Y-44248799D01*
X58679371Y-44178812D01*
X58320629Y-44178812D01*
X57968779Y-44248799D01*
X57637344Y-44386084D01*
X57339060Y-44585391D01*
X57085391Y-44839060D01*
X56886084Y-45137344D01*
X56748799Y-45468779D01*
X56678812Y-45820629D01*
X52230627Y-45820629D01*
X52524463Y-45698918D01*
X52792252Y-45519987D01*
X53019987Y-45292252D01*
X53198918Y-45024463D01*
X53322168Y-44726912D01*
X53385000Y-44411033D01*
X53385000Y-44088967D01*
X53322168Y-43773088D01*
X53245903Y-43588967D01*
X53615000Y-43588967D01*
X53615000Y-43911033D01*
X53677832Y-44226912D01*
X53801082Y-44524463D01*
X53980013Y-44792252D01*
X54207748Y-45019987D01*
X54475537Y-45198918D01*
X54773088Y-45322168D01*
X55088967Y-45385000D01*
X55411033Y-45385000D01*
X55726912Y-45322168D01*
X56024463Y-45198918D01*
X56292252Y-45019987D01*
X56519987Y-44792252D01*
X56698918Y-44524463D01*
X56822168Y-44226912D01*
X56885000Y-43911033D01*
X56885000Y-43588967D01*
X60115000Y-43588967D01*
X60115000Y-43911033D01*
X60177832Y-44226912D01*
X60301082Y-44524463D01*
X60480013Y-44792252D01*
X60707748Y-45019987D01*
X60975537Y-45198918D01*
X61273088Y-45322168D01*
X61588967Y-45385000D01*
X61911033Y-45385000D01*
X62226912Y-45322168D01*
X62524463Y-45198918D01*
X62792252Y-45019987D01*
X63019987Y-44792252D01*
X63198918Y-44524463D01*
X63322168Y-44226912D01*
X63349606Y-44088967D01*
X63615000Y-44088967D01*
X63615000Y-44411033D01*
X63677832Y-44726912D01*
X63801082Y-45024463D01*
X63980013Y-45292252D01*
X64207748Y-45519987D01*
X64475537Y-45698918D01*
X64773088Y-45822168D01*
X65088967Y-45885000D01*
X65411033Y-45885000D01*
X65726912Y-45822168D01*
X66024463Y-45698918D01*
X66292252Y-45519987D01*
X66519987Y-45292252D01*
X66698918Y-45024463D01*
X66822168Y-44726912D01*
X66885000Y-44411033D01*
X66885000Y-44088967D01*
X70115000Y-44088967D01*
X70115000Y-44411033D01*
X70177832Y-44726912D01*
X70301082Y-45024463D01*
X70480013Y-45292252D01*
X70707748Y-45519987D01*
X70975537Y-45698918D01*
X71273088Y-45822168D01*
X71588967Y-45885000D01*
X71911033Y-45885000D01*
X72226912Y-45822168D01*
X72524463Y-45698918D01*
X72792252Y-45519987D01*
X73019987Y-45292252D01*
X73198918Y-45024463D01*
X73322168Y-44726912D01*
X73385000Y-44411033D01*
X73385000Y-44088967D01*
X73322168Y-43773088D01*
X73198918Y-43475537D01*
X73019987Y-43207748D01*
X72792252Y-42980013D01*
X72524463Y-42801082D01*
X72226912Y-42677832D01*
X71911033Y-42615000D01*
X71588967Y-42615000D01*
X71273088Y-42677832D01*
X70975537Y-42801082D01*
X70707748Y-42980013D01*
X70480013Y-43207748D01*
X70301082Y-43475537D01*
X70177832Y-43773088D01*
X70115000Y-44088967D01*
X66885000Y-44088967D01*
X66822168Y-43773088D01*
X66698918Y-43475537D01*
X66519987Y-43207748D01*
X66292252Y-42980013D01*
X66024463Y-42801082D01*
X65726912Y-42677832D01*
X65411033Y-42615000D01*
X65088967Y-42615000D01*
X64773088Y-42677832D01*
X64475537Y-42801082D01*
X64207748Y-42980013D01*
X63980013Y-43207748D01*
X63801082Y-43475537D01*
X63677832Y-43773088D01*
X63615000Y-44088967D01*
X63349606Y-44088967D01*
X63385000Y-43911033D01*
X63385000Y-43588967D01*
X63322168Y-43273088D01*
X63198918Y-42975537D01*
X63019987Y-42707748D01*
X62792252Y-42480013D01*
X62524463Y-42301082D01*
X62226912Y-42177832D01*
X61911033Y-42115000D01*
X61588967Y-42115000D01*
X61273088Y-42177832D01*
X60975537Y-42301082D01*
X60707748Y-42480013D01*
X60480013Y-42707748D01*
X60301082Y-42975537D01*
X60177832Y-43273088D01*
X60115000Y-43588967D01*
X56885000Y-43588967D01*
X56822168Y-43273088D01*
X56698918Y-42975537D01*
X56519987Y-42707748D01*
X56292252Y-42480013D01*
X56024463Y-42301082D01*
X55726912Y-42177832D01*
X55411033Y-42115000D01*
X55088967Y-42115000D01*
X54773088Y-42177832D01*
X54475537Y-42301082D01*
X54207748Y-42480013D01*
X53980013Y-42707748D01*
X53801082Y-42975537D01*
X53677832Y-43273088D01*
X53615000Y-43588967D01*
X53245903Y-43588967D01*
X53198918Y-43475537D01*
X53019987Y-43207748D01*
X52792252Y-42980013D01*
X52524463Y-42801082D01*
X52226912Y-42677832D01*
X51911033Y-42615000D01*
X51588967Y-42615000D01*
X51273088Y-42677832D01*
X50975537Y-42801082D01*
X50707748Y-42980013D01*
X50480013Y-43207748D01*
X50301082Y-43475537D01*
X50177832Y-43773088D01*
X50115000Y-44088967D01*
X46885000Y-44088967D01*
X46822168Y-43773088D01*
X46698918Y-43475537D01*
X46519987Y-43207748D01*
X46292252Y-42980013D01*
X46024463Y-42801082D01*
X45726912Y-42677832D01*
X45411033Y-42615000D01*
X45088967Y-42615000D01*
X44773088Y-42677832D01*
X44475537Y-42801082D01*
X44207748Y-42980013D01*
X43980013Y-43207748D01*
X43801082Y-43475537D01*
X43677832Y-43773088D01*
X43615000Y-44088967D01*
X37160000Y-44088967D01*
X37160000Y-41820629D01*
X46678812Y-41820629D01*
X46678812Y-42179371D01*
X46748799Y-42531221D01*
X46886084Y-42862656D01*
X47085391Y-43160940D01*
X47339060Y-43414609D01*
X47637344Y-43613916D01*
X47968779Y-43751201D01*
X48320629Y-43821188D01*
X48679371Y-43821188D01*
X49031221Y-43751201D01*
X49362656Y-43613916D01*
X49660940Y-43414609D01*
X49914609Y-43160940D01*
X50113916Y-42862656D01*
X50251201Y-42531221D01*
X50321188Y-42179371D01*
X50321188Y-41820629D01*
X50251201Y-41468779D01*
X50113916Y-41137344D01*
X49914609Y-40839060D01*
X49660940Y-40585391D01*
X49362656Y-40386084D01*
X49031221Y-40248799D01*
X48679371Y-40178812D01*
X48320629Y-40178812D01*
X47968779Y-40248799D01*
X47637344Y-40386084D01*
X47339060Y-40585391D01*
X47085391Y-40839060D01*
X46886084Y-41137344D01*
X46748799Y-41468779D01*
X46678812Y-41820629D01*
X37160000Y-41820629D01*
X37160000Y-39588967D01*
X43615000Y-39588967D01*
X43615000Y-39911033D01*
X43677832Y-40226912D01*
X43801082Y-40524463D01*
X43980013Y-40792252D01*
X44207748Y-41019987D01*
X44475537Y-41198918D01*
X44773088Y-41322168D01*
X45088967Y-41385000D01*
X45411033Y-41385000D01*
X45726912Y-41322168D01*
X46024463Y-41198918D01*
X46292252Y-41019987D01*
X46519987Y-40792252D01*
X46698918Y-40524463D01*
X46822168Y-40226912D01*
X46885000Y-39911033D01*
X46885000Y-39588967D01*
X50115000Y-39588967D01*
X50115000Y-39911033D01*
X50177832Y-40226912D01*
X50301082Y-40524463D01*
X50480013Y-40792252D01*
X50707748Y-41019987D01*
X50975537Y-41198918D01*
X51273088Y-41322168D01*
X51588967Y-41385000D01*
X51911033Y-41385000D01*
X52226912Y-41322168D01*
X52524463Y-41198918D01*
X52792252Y-41019987D01*
X53019987Y-40792252D01*
X53198918Y-40524463D01*
X53322168Y-40226912D01*
X53349606Y-40088967D01*
X53615000Y-40088967D01*
X53615000Y-40411033D01*
X53677832Y-40726912D01*
X53801082Y-41024463D01*
X53980013Y-41292252D01*
X54207748Y-41519987D01*
X54475537Y-41698918D01*
X54773088Y-41822168D01*
X55088967Y-41885000D01*
X55411033Y-41885000D01*
X55726912Y-41822168D01*
X56024463Y-41698918D01*
X56292252Y-41519987D01*
X56519987Y-41292252D01*
X56698918Y-41024463D01*
X56822168Y-40726912D01*
X56885000Y-40411033D01*
X56885000Y-40088967D01*
X60115000Y-40088967D01*
X60115000Y-40411033D01*
X60177832Y-40726912D01*
X60301082Y-41024463D01*
X60480013Y-41292252D01*
X60707748Y-41519987D01*
X60975537Y-41698918D01*
X61273088Y-41822168D01*
X61588967Y-41885000D01*
X61911033Y-41885000D01*
X62226912Y-41822168D01*
X62241721Y-41816034D01*
X62325722Y-41884973D01*
X62451067Y-41951972D01*
X62457752Y-41955545D01*
X62601013Y-41999002D01*
X62712666Y-42009999D01*
X62712675Y-42009999D01*
X62749998Y-42013675D01*
X62787321Y-42009999D01*
X66678812Y-42009999D01*
X66678812Y-42179371D01*
X66748799Y-42531221D01*
X66886084Y-42862656D01*
X67085391Y-43160940D01*
X67339060Y-43414609D01*
X67637344Y-43613916D01*
X67968779Y-43751201D01*
X68320629Y-43821188D01*
X68679371Y-43821188D01*
X69031221Y-43751201D01*
X69362656Y-43613916D01*
X69660940Y-43414609D01*
X69914609Y-43160940D01*
X70113916Y-42862656D01*
X70251201Y-42531221D01*
X70321188Y-42179371D01*
X70321188Y-41820629D01*
X70251201Y-41468779D01*
X70162156Y-41253805D01*
X70218002Y-41253805D01*
X70550199Y-41586003D01*
X70573998Y-41615002D01*
X70689723Y-41709975D01*
X70821752Y-41780547D01*
X70965013Y-41824004D01*
X71076666Y-41835001D01*
X71076675Y-41835001D01*
X71113998Y-41838677D01*
X71151321Y-41835001D01*
X83604894Y-41835001D01*
X83653368Y-41883475D01*
X83827760Y-42000000D01*
X83653368Y-42116525D01*
X83446525Y-42323368D01*
X83284010Y-42566589D01*
X83172068Y-42836842D01*
X83115000Y-43123740D01*
X83115000Y-43416260D01*
X83172068Y-43703158D01*
X83284010Y-43973411D01*
X83446525Y-44216632D01*
X83653368Y-44423475D01*
X83835534Y-44545195D01*
X83718645Y-44614822D01*
X83502412Y-44809731D01*
X83328359Y-45043080D01*
X83203175Y-45305901D01*
X83158524Y-45453110D01*
X83279845Y-45683000D01*
X84473000Y-45683000D01*
X84473000Y-45663000D01*
X84727000Y-45663000D01*
X84727000Y-45683000D01*
X85920155Y-45683000D01*
X86041476Y-45453110D01*
X85996825Y-45305901D01*
X85871641Y-45043080D01*
X85697588Y-44809731D01*
X85481355Y-44614822D01*
X85364466Y-44545195D01*
X85546632Y-44423475D01*
X85753475Y-44216632D01*
X85915990Y-43973411D01*
X86027932Y-43703158D01*
X86085000Y-43416260D01*
X86085000Y-43123740D01*
X86027932Y-42836842D01*
X85915990Y-42566589D01*
X85753475Y-42323368D01*
X85546632Y-42116525D01*
X85372240Y-42000000D01*
X85546632Y-41883475D01*
X85753475Y-41676632D01*
X85915990Y-41433411D01*
X86027932Y-41163158D01*
X86085000Y-40876260D01*
X86085000Y-40583740D01*
X86027932Y-40296842D01*
X85915990Y-40026589D01*
X85753475Y-39783368D01*
X85546632Y-39576525D01*
X85372240Y-39460000D01*
X85546632Y-39343475D01*
X85753475Y-39136632D01*
X85915990Y-38893411D01*
X86027932Y-38623158D01*
X86085000Y-38336260D01*
X86085000Y-38043740D01*
X86027932Y-37756842D01*
X85915990Y-37486589D01*
X85753475Y-37243368D01*
X85546632Y-37036525D01*
X85372240Y-36920000D01*
X85546632Y-36803475D01*
X85753475Y-36596632D01*
X85915990Y-36353411D01*
X86027932Y-36083158D01*
X86085000Y-35796260D01*
X86085000Y-35503740D01*
X86027932Y-35216842D01*
X85915990Y-34946589D01*
X85753475Y-34703368D01*
X85546632Y-34496525D01*
X85303411Y-34334010D01*
X85033158Y-34222068D01*
X84746260Y-34165000D01*
X84453740Y-34165000D01*
X84166842Y-34222068D01*
X83896589Y-34334010D01*
X83653368Y-34496525D01*
X83446525Y-34703368D01*
X83284010Y-34946589D01*
X83172068Y-35216842D01*
X83115000Y-35503740D01*
X83115000Y-35796260D01*
X83172068Y-36083158D01*
X83284010Y-36353411D01*
X83446525Y-36596632D01*
X83653368Y-36803475D01*
X83827760Y-36920000D01*
X83653368Y-37036525D01*
X83446525Y-37243368D01*
X83284010Y-37486589D01*
X83172068Y-37756842D01*
X83115000Y-38043740D01*
X83115000Y-38336260D01*
X83172068Y-38623158D01*
X83284010Y-38893411D01*
X83446525Y-39136632D01*
X83653368Y-39343475D01*
X83827760Y-39460000D01*
X83653368Y-39576525D01*
X83446525Y-39783368D01*
X83284010Y-40026589D01*
X83172068Y-40296842D01*
X83168456Y-40315001D01*
X73285680Y-40315001D01*
X73322168Y-40226912D01*
X73385000Y-39911033D01*
X73385000Y-39588967D01*
X73322168Y-39273088D01*
X73198918Y-38975537D01*
X73019987Y-38707748D01*
X72792252Y-38480013D01*
X72524463Y-38301082D01*
X72226912Y-38177832D01*
X71911033Y-38115000D01*
X71588967Y-38115000D01*
X71273088Y-38177832D01*
X70975537Y-38301082D01*
X70707748Y-38480013D01*
X70480013Y-38707748D01*
X70301082Y-38975537D01*
X70177832Y-39273088D01*
X70115000Y-39588967D01*
X70115000Y-39733805D01*
X67915038Y-39733805D01*
X67877715Y-39730129D01*
X67840392Y-39733805D01*
X67840382Y-39733805D01*
X67728729Y-39744802D01*
X67585468Y-39788259D01*
X67453439Y-39858831D01*
X67337714Y-39953804D01*
X67313916Y-39982803D01*
X66806720Y-40489999D01*
X66713193Y-40489999D01*
X66822168Y-40226912D01*
X66885000Y-39911033D01*
X66885000Y-39588967D01*
X66822168Y-39273088D01*
X66698918Y-38975537D01*
X66519987Y-38707748D01*
X66292252Y-38480013D01*
X66024463Y-38301082D01*
X65726912Y-38177832D01*
X65411033Y-38115000D01*
X65088967Y-38115000D01*
X64773088Y-38177832D01*
X64475537Y-38301082D01*
X64207748Y-38480013D01*
X63980013Y-38707748D01*
X63801082Y-38975537D01*
X63677832Y-39273088D01*
X63615000Y-39588967D01*
X63615000Y-39911033D01*
X63677832Y-40226912D01*
X63786807Y-40489999D01*
X63369293Y-40489999D01*
X63385000Y-40411033D01*
X63385000Y-40088967D01*
X63322168Y-39773088D01*
X63198918Y-39475537D01*
X63019987Y-39207748D01*
X62792252Y-38980013D01*
X62524463Y-38801082D01*
X62226912Y-38677832D01*
X61911033Y-38615000D01*
X61588967Y-38615000D01*
X61273088Y-38677832D01*
X60975537Y-38801082D01*
X60707748Y-38980013D01*
X60480013Y-39207748D01*
X60301082Y-39475537D01*
X60177832Y-39773088D01*
X60115000Y-40088967D01*
X56885000Y-40088967D01*
X56822168Y-39773088D01*
X56698918Y-39475537D01*
X56519987Y-39207748D01*
X56292252Y-38980013D01*
X56024463Y-38801082D01*
X55726912Y-38677832D01*
X55411033Y-38615000D01*
X55088967Y-38615000D01*
X54773088Y-38677832D01*
X54475537Y-38801082D01*
X54207748Y-38980013D01*
X53980013Y-39207748D01*
X53801082Y-39475537D01*
X53677832Y-39773088D01*
X53615000Y-40088967D01*
X53349606Y-40088967D01*
X53385000Y-39911033D01*
X53385000Y-39588967D01*
X53322168Y-39273088D01*
X53198918Y-38975537D01*
X53019987Y-38707748D01*
X52792252Y-38480013D01*
X52524463Y-38301082D01*
X52226912Y-38177832D01*
X51911033Y-38115000D01*
X51588967Y-38115000D01*
X51273088Y-38177832D01*
X50975537Y-38301082D01*
X50707748Y-38480013D01*
X50480013Y-38707748D01*
X50301082Y-38975537D01*
X50177832Y-39273088D01*
X50115000Y-39588967D01*
X46885000Y-39588967D01*
X46822168Y-39273088D01*
X46698918Y-38975537D01*
X46519987Y-38707748D01*
X46292252Y-38480013D01*
X46024463Y-38301082D01*
X45726912Y-38177832D01*
X45411033Y-38115000D01*
X45088967Y-38115000D01*
X44773088Y-38177832D01*
X44475537Y-38301082D01*
X44207748Y-38480013D01*
X43980013Y-38707748D01*
X43801082Y-38975537D01*
X43677832Y-39273088D01*
X43615000Y-39588967D01*
X37160000Y-39588967D01*
X37160000Y-35796552D01*
X38270380Y-35796552D01*
X38270380Y-36236808D01*
X38356270Y-36668605D01*
X38524749Y-37075349D01*
X38769342Y-37441409D01*
X39080651Y-37752718D01*
X39446711Y-37997311D01*
X39853455Y-38165790D01*
X40285252Y-38251680D01*
X40725508Y-38251680D01*
X41157305Y-38165790D01*
X41564049Y-37997311D01*
X41828472Y-37820629D01*
X56678812Y-37820629D01*
X56678812Y-38179371D01*
X56748799Y-38531221D01*
X56886084Y-38862656D01*
X57085391Y-39160940D01*
X57339060Y-39414609D01*
X57637344Y-39613916D01*
X57968779Y-39751201D01*
X58320629Y-39821188D01*
X58679371Y-39821188D01*
X59031221Y-39751201D01*
X59362656Y-39613916D01*
X59660940Y-39414609D01*
X59914609Y-39160940D01*
X60113916Y-38862656D01*
X60251201Y-38531221D01*
X60321188Y-38179371D01*
X60321188Y-37820629D01*
X60251201Y-37468779D01*
X60113916Y-37137344D01*
X59914609Y-36839060D01*
X59660940Y-36585391D01*
X59362656Y-36386084D01*
X59031221Y-36248799D01*
X58679371Y-36178812D01*
X58320629Y-36178812D01*
X57968779Y-36248799D01*
X57637344Y-36386084D01*
X57339060Y-36585391D01*
X57085391Y-36839060D01*
X56886084Y-37137344D01*
X56748799Y-37468779D01*
X56678812Y-37820629D01*
X41828472Y-37820629D01*
X41930109Y-37752718D01*
X42241418Y-37441409D01*
X42486011Y-37075349D01*
X42654490Y-36668605D01*
X42740380Y-36236808D01*
X42740380Y-35796552D01*
X42699089Y-35588967D01*
X53615000Y-35588967D01*
X53615000Y-35911033D01*
X53677832Y-36226912D01*
X53801082Y-36524463D01*
X53980013Y-36792252D01*
X54207748Y-37019987D01*
X54475537Y-37198918D01*
X54773088Y-37322168D01*
X55088967Y-37385000D01*
X55411033Y-37385000D01*
X55726912Y-37322168D01*
X56024463Y-37198918D01*
X56292252Y-37019987D01*
X56519987Y-36792252D01*
X56698918Y-36524463D01*
X56822168Y-36226912D01*
X56885000Y-35911033D01*
X56885000Y-35588967D01*
X60115000Y-35588967D01*
X60115000Y-35911033D01*
X60177832Y-36226912D01*
X60301082Y-36524463D01*
X60480013Y-36792252D01*
X60707748Y-37019987D01*
X60975537Y-37198918D01*
X61273088Y-37322168D01*
X61588967Y-37385000D01*
X61911033Y-37385000D01*
X62226912Y-37322168D01*
X62524463Y-37198918D01*
X62792252Y-37019987D01*
X63019987Y-36792252D01*
X63198918Y-36524463D01*
X63322168Y-36226912D01*
X63385000Y-35911033D01*
X63385000Y-35796552D01*
X74262180Y-35796552D01*
X74262180Y-36236808D01*
X74348070Y-36668605D01*
X74516549Y-37075349D01*
X74761142Y-37441409D01*
X75072451Y-37752718D01*
X75438511Y-37997311D01*
X75845255Y-38165790D01*
X76277052Y-38251680D01*
X76717308Y-38251680D01*
X77149105Y-38165790D01*
X77555849Y-37997311D01*
X77921909Y-37752718D01*
X78233218Y-37441409D01*
X78477811Y-37075349D01*
X78646290Y-36668605D01*
X78732180Y-36236808D01*
X78732180Y-35796552D01*
X78646290Y-35364755D01*
X78477811Y-34958011D01*
X78233218Y-34591951D01*
X77921909Y-34280642D01*
X77555849Y-34036049D01*
X77149105Y-33867570D01*
X76717308Y-33781680D01*
X76277052Y-33781680D01*
X75845255Y-33867570D01*
X75438511Y-34036049D01*
X75072451Y-34280642D01*
X74761142Y-34591951D01*
X74516549Y-34958011D01*
X74348070Y-35364755D01*
X74262180Y-35796552D01*
X63385000Y-35796552D01*
X63385000Y-35588967D01*
X63322168Y-35273088D01*
X63198918Y-34975537D01*
X63019987Y-34707748D01*
X62792252Y-34480013D01*
X62524463Y-34301082D01*
X62226912Y-34177832D01*
X61911033Y-34115000D01*
X61588967Y-34115000D01*
X61273088Y-34177832D01*
X60975537Y-34301082D01*
X60707748Y-34480013D01*
X60480013Y-34707748D01*
X60301082Y-34975537D01*
X60177832Y-35273088D01*
X60115000Y-35588967D01*
X56885000Y-35588967D01*
X56822168Y-35273088D01*
X56698918Y-34975537D01*
X56519987Y-34707748D01*
X56292252Y-34480013D01*
X56024463Y-34301082D01*
X55726912Y-34177832D01*
X55411033Y-34115000D01*
X55088967Y-34115000D01*
X54773088Y-34177832D01*
X54475537Y-34301082D01*
X54207748Y-34480013D01*
X53980013Y-34707748D01*
X53801082Y-34975537D01*
X53677832Y-35273088D01*
X53615000Y-35588967D01*
X42699089Y-35588967D01*
X42654490Y-35364755D01*
X42486011Y-34958011D01*
X42241418Y-34591951D01*
X41930109Y-34280642D01*
X41564049Y-34036049D01*
X41157305Y-33867570D01*
X40725508Y-33781680D01*
X40285252Y-33781680D01*
X39853455Y-33867570D01*
X39446711Y-34036049D01*
X39080651Y-34280642D01*
X38769342Y-34591951D01*
X38524749Y-34958011D01*
X38356270Y-35364755D01*
X38270380Y-35796552D01*
X37160000Y-35796552D01*
X37160000Y-32667275D01*
X37160666Y-32660487D01*
X37165301Y-32660000D01*
X87840000Y-32660000D01*
X87840001Y-51340000D01*
G37*
%TD.AperFunction*%
%TD*%
M02*
